<svg xmlns="http://www.w3.org/2000/svg" xmlns:xlink="http://www.w3.org/1999/xlink" width="600" height="400" viewBox="0 0 2400 1600">
<defs>
  <clipPath id="clip440">
    <rect x="0" y="0" width="2400" height="1600"></rect>
  </clipPath>
</defs>
<path clip-path="url(#clip440)" d="M0 1600 L2400 1600 L2400 0 L0 0  Z" fill="#ffffff" fill-rule="evenodd" fill-opacity="1"></path>
<defs>
  <clipPath id="clip441">
    <rect x="480" y="0" width="1681" height="1600"></rect>
  </clipPath>
</defs>
<path clip-path="url(#clip440)" d="M212.459 1423.18 L2352.76 1423.18 L2352.76 123.472 L212.459 123.472  Z" fill="#ffffff" fill-rule="evenodd" fill-opacity="1"></path>
<defs>
  <clipPath id="clip442">
    <rect x="212" y="123" width="2141" height="1301"></rect>
  </clipPath>
</defs>
<polyline clip-path="url(#clip442)" style="stroke:#000000; stroke-linecap:round; stroke-linejoin:round; stroke-width:2; stroke-opacity:0.1; fill:none" points="273.033,1423.18 273.033,123.472 "></polyline>
<polyline clip-path="url(#clip442)" style="stroke:#000000; stroke-linecap:round; stroke-linejoin:round; stroke-width:2; stroke-opacity:0.1; fill:none" points="777.82,1423.18 777.82,123.472 "></polyline>
<polyline clip-path="url(#clip442)" style="stroke:#000000; stroke-linecap:round; stroke-linejoin:round; stroke-width:2; stroke-opacity:0.1; fill:none" points="1282.61,1423.18 1282.61,123.472 "></polyline>
<polyline clip-path="url(#clip442)" style="stroke:#000000; stroke-linecap:round; stroke-linejoin:round; stroke-width:2; stroke-opacity:0.1; fill:none" points="1787.39,1423.18 1787.39,123.472 "></polyline>
<polyline clip-path="url(#clip442)" style="stroke:#000000; stroke-linecap:round; stroke-linejoin:round; stroke-width:2; stroke-opacity:0.1; fill:none" points="2292.18,1423.18 2292.18,123.472 "></polyline>
<polyline clip-path="url(#clip440)" style="stroke:#000000; stroke-linecap:round; stroke-linejoin:round; stroke-width:4; stroke-opacity:1; fill:none" points="212.459,1423.18 2352.76,1423.18 "></polyline>
<polyline clip-path="url(#clip440)" style="stroke:#000000; stroke-linecap:round; stroke-linejoin:round; stroke-width:4; stroke-opacity:1; fill:none" points="273.033,1423.18 273.033,1404.28 "></polyline>
<polyline clip-path="url(#clip440)" style="stroke:#000000; stroke-linecap:round; stroke-linejoin:round; stroke-width:4; stroke-opacity:1; fill:none" points="777.82,1423.18 777.82,1404.28 "></polyline>
<polyline clip-path="url(#clip440)" style="stroke:#000000; stroke-linecap:round; stroke-linejoin:round; stroke-width:4; stroke-opacity:1; fill:none" points="1282.61,1423.18 1282.61,1404.28 "></polyline>
<polyline clip-path="url(#clip440)" style="stroke:#000000; stroke-linecap:round; stroke-linejoin:round; stroke-width:4; stroke-opacity:1; fill:none" points="1787.39,1423.18 1787.39,1404.28 "></polyline>
<polyline clip-path="url(#clip440)" style="stroke:#000000; stroke-linecap:round; stroke-linejoin:round; stroke-width:4; stroke-opacity:1; fill:none" points="2292.18,1423.18 2292.18,1404.28 "></polyline>
<path clip-path="url(#clip440)" d="M273.033 1454.1 Q269.422 1454.1 267.594 1457.66 Q265.788 1461.2 265.788 1468.33 Q265.788 1475.44 267.594 1479.01 Q269.422 1482.55 273.033 1482.55 Q276.668 1482.55 278.473 1479.01 Q280.302 1475.44 280.302 1468.33 Q280.302 1461.2 278.473 1457.66 Q276.668 1454.1 273.033 1454.1 M273.033 1450.39 Q278.843 1450.39 281.899 1455 Q284.978 1459.58 284.978 1468.33 Q284.978 1477.06 281.899 1481.67 Q278.843 1486.25 273.033 1486.25 Q267.223 1486.25 264.145 1481.67 Q261.089 1477.06 261.089 1468.33 Q261.089 1459.58 264.145 1455 Q267.223 1450.39 273.033 1450.39 Z" fill="#000000" fill-rule="nonzero" fill-opacity="1"></path><path clip-path="url(#clip440)" d="M752.508 1481.64 L760.147 1481.64 L760.147 1455.28 L751.837 1456.95 L751.837 1452.69 L760.101 1451.02 L764.776 1451.02 L764.776 1481.64 L772.415 1481.64 L772.415 1485.58 L752.508 1485.58 L752.508 1481.64 Z" fill="#000000" fill-rule="nonzero" fill-opacity="1"></path><path clip-path="url(#clip440)" d="M791.86 1454.1 Q788.249 1454.1 786.42 1457.66 Q784.614 1461.2 784.614 1468.33 Q784.614 1475.44 786.42 1479.01 Q788.249 1482.55 791.86 1482.55 Q795.494 1482.55 797.299 1479.01 Q799.128 1475.44 799.128 1468.33 Q799.128 1461.2 797.299 1457.66 Q795.494 1454.1 791.86 1454.1 M791.86 1450.39 Q797.67 1450.39 800.725 1455 Q803.804 1459.58 803.804 1468.33 Q803.804 1477.06 800.725 1481.67 Q797.67 1486.25 791.86 1486.25 Q786.049 1486.25 782.971 1481.67 Q779.915 1477.06 779.915 1468.33 Q779.915 1459.58 782.971 1455 Q786.049 1450.39 791.86 1450.39 Z" fill="#000000" fill-rule="nonzero" fill-opacity="1"></path><path clip-path="url(#clip440)" d="M1261.38 1481.64 L1277.7 1481.64 L1277.7 1485.58 L1255.76 1485.58 L1255.76 1481.64 Q1258.42 1478.89 1263 1474.26 Q1267.61 1469.61 1268.79 1468.27 Q1271.03 1465.74 1271.91 1464.01 Q1272.82 1462.25 1272.82 1460.56 Q1272.82 1457.8 1270.87 1456.07 Q1268.95 1454.33 1265.85 1454.33 Q1263.65 1454.33 1261.2 1455.09 Q1258.76 1455.86 1255.99 1457.41 L1255.99 1452.69 Q1258.81 1451.55 1261.26 1450.97 Q1263.72 1450.39 1265.76 1450.39 Q1271.13 1450.39 1274.32 1453.08 Q1277.51 1455.77 1277.51 1460.26 Q1277.51 1462.39 1276.7 1464.31 Q1275.92 1466.2 1273.81 1468.8 Q1273.23 1469.47 1270.13 1472.69 Q1267.03 1475.88 1261.38 1481.64 Z" fill="#000000" fill-rule="nonzero" fill-opacity="1"></path><path clip-path="url(#clip440)" d="M1297.51 1454.1 Q1293.9 1454.1 1292.07 1457.66 Q1290.27 1461.2 1290.27 1468.33 Q1290.27 1475.44 1292.07 1479.01 Q1293.9 1482.55 1297.51 1482.55 Q1301.15 1482.55 1302.95 1479.01 Q1304.78 1475.44 1304.78 1468.33 Q1304.78 1461.2 1302.95 1457.66 Q1301.15 1454.1 1297.51 1454.1 M1297.51 1450.39 Q1303.32 1450.39 1306.38 1455 Q1309.46 1459.58 1309.46 1468.33 Q1309.46 1477.06 1306.38 1481.67 Q1303.32 1486.25 1297.51 1486.25 Q1291.7 1486.25 1288.63 1481.67 Q1285.57 1477.06 1285.57 1468.33 Q1285.57 1459.58 1288.63 1455 Q1291.7 1450.39 1297.51 1450.39 Z" fill="#000000" fill-rule="nonzero" fill-opacity="1"></path><path clip-path="url(#clip440)" d="M1776.24 1466.95 Q1779.59 1467.66 1781.47 1469.93 Q1783.37 1472.2 1783.37 1475.53 Q1783.37 1480.65 1779.85 1483.45 Q1776.33 1486.25 1769.85 1486.25 Q1767.67 1486.25 1765.36 1485.81 Q1763.07 1485.39 1760.61 1484.54 L1760.61 1480.02 Q1762.56 1481.16 1764.87 1481.74 Q1767.19 1482.32 1769.71 1482.32 Q1774.11 1482.32 1776.4 1480.58 Q1778.71 1478.84 1778.71 1475.53 Q1778.71 1472.48 1776.56 1470.77 Q1774.43 1469.03 1770.61 1469.03 L1766.58 1469.03 L1766.58 1465.19 L1770.8 1465.19 Q1774.25 1465.19 1776.08 1463.82 Q1777.9 1462.43 1777.9 1459.84 Q1777.9 1457.18 1776.01 1455.77 Q1774.13 1454.33 1770.61 1454.33 Q1768.69 1454.33 1766.49 1454.75 Q1764.29 1455.16 1761.65 1456.04 L1761.65 1451.88 Q1764.32 1451.14 1766.63 1450.77 Q1768.97 1450.39 1771.03 1450.39 Q1776.35 1450.39 1779.45 1452.83 Q1782.56 1455.23 1782.56 1459.35 Q1782.56 1462.22 1780.91 1464.21 Q1779.27 1466.18 1776.24 1466.95 Z" fill="#000000" fill-rule="nonzero" fill-opacity="1"></path><path clip-path="url(#clip440)" d="M1802.23 1454.1 Q1798.62 1454.1 1796.79 1457.66 Q1794.99 1461.2 1794.99 1468.33 Q1794.99 1475.44 1796.79 1479.01 Q1798.62 1482.55 1802.23 1482.55 Q1805.87 1482.55 1807.67 1479.01 Q1809.5 1475.44 1809.5 1468.33 Q1809.5 1461.2 1807.67 1457.66 Q1805.87 1454.1 1802.23 1454.1 M1802.23 1450.39 Q1808.04 1450.39 1811.1 1455 Q1814.18 1459.58 1814.18 1468.33 Q1814.18 1477.06 1811.1 1481.67 Q1808.04 1486.25 1802.23 1486.25 Q1796.42 1486.25 1793.34 1481.67 Q1790.29 1477.06 1790.29 1468.33 Q1790.29 1459.58 1793.34 1455 Q1796.42 1450.39 1802.23 1450.39 Z" fill="#000000" fill-rule="nonzero" fill-opacity="1"></path><path clip-path="url(#clip440)" d="M2280.35 1455.09 L2268.55 1473.54 L2280.35 1473.54 L2280.35 1455.09 M2279.13 1451.02 L2285.01 1451.02 L2285.01 1473.54 L2289.94 1473.54 L2289.94 1477.43 L2285.01 1477.43 L2285.01 1485.58 L2280.35 1485.58 L2280.35 1477.43 L2264.75 1477.43 L2264.75 1472.92 L2279.13 1451.02 Z" fill="#000000" fill-rule="nonzero" fill-opacity="1"></path><path clip-path="url(#clip440)" d="M2307.67 1454.1 Q2304.06 1454.1 2302.23 1457.66 Q2300.42 1461.2 2300.42 1468.33 Q2300.42 1475.44 2302.23 1479.01 Q2304.06 1482.55 2307.67 1482.55 Q2311.3 1482.55 2313.11 1479.01 Q2314.94 1475.44 2314.94 1468.33 Q2314.94 1461.2 2313.11 1457.66 Q2311.3 1454.1 2307.67 1454.1 M2307.67 1450.39 Q2313.48 1450.39 2316.53 1455 Q2319.61 1459.58 2319.61 1468.33 Q2319.61 1477.06 2316.53 1481.67 Q2313.48 1486.25 2307.67 1486.25 Q2301.86 1486.25 2298.78 1481.67 Q2295.72 1477.06 2295.72 1468.33 Q2295.72 1459.58 2298.78 1455 Q2301.86 1450.39 2307.67 1450.39 Z" fill="#000000" fill-rule="nonzero" fill-opacity="1"></path><path clip-path="url(#clip440)" d="M1281.67 1522.27 L1281.67 1532.4 L1293.73 1532.4 L1293.73 1536.95 L1281.67 1536.95 L1281.67 1556.3 Q1281.67 1560.66 1282.85 1561.9 Q1284.06 1563.14 1287.72 1563.14 L1293.73 1563.14 L1293.73 1568.04 L1287.72 1568.04 Q1280.94 1568.04 1278.36 1565.53 Q1275.78 1562.98 1275.78 1556.3 L1275.78 1536.95 L1271.48 1536.95 L1271.48 1532.4 L1275.78 1532.4 L1275.78 1522.27 L1281.67 1522.27 Z" fill="#000000" fill-rule="nonzero" fill-opacity="1"></path><polyline clip-path="url(#clip442)" style="stroke:#000000; stroke-linecap:round; stroke-linejoin:round; stroke-width:2; stroke-opacity:0.1; fill:none" points="212.459,1193.38 2352.76,1193.38 "></polyline>
<polyline clip-path="url(#clip442)" style="stroke:#000000; stroke-linecap:round; stroke-linejoin:round; stroke-width:2; stroke-opacity:0.1; fill:none" points="212.459,960.719 2352.76,960.719 "></polyline>
<polyline clip-path="url(#clip442)" style="stroke:#000000; stroke-linecap:round; stroke-linejoin:round; stroke-width:2; stroke-opacity:0.1; fill:none" points="212.459,728.061 2352.76,728.061 "></polyline>
<polyline clip-path="url(#clip442)" style="stroke:#000000; stroke-linecap:round; stroke-linejoin:round; stroke-width:2; stroke-opacity:0.1; fill:none" points="212.459,495.404 2352.76,495.404 "></polyline>
<polyline clip-path="url(#clip442)" style="stroke:#000000; stroke-linecap:round; stroke-linejoin:round; stroke-width:2; stroke-opacity:0.1; fill:none" points="212.459,262.746 2352.76,262.746 "></polyline>
<polyline clip-path="url(#clip440)" style="stroke:#000000; stroke-linecap:round; stroke-linejoin:round; stroke-width:4; stroke-opacity:1; fill:none" points="212.459,1423.18 212.459,123.472 "></polyline>
<polyline clip-path="url(#clip440)" style="stroke:#000000; stroke-linecap:round; stroke-linejoin:round; stroke-width:4; stroke-opacity:1; fill:none" points="212.459,1193.38 231.357,1193.38 "></polyline>
<polyline clip-path="url(#clip440)" style="stroke:#000000; stroke-linecap:round; stroke-linejoin:round; stroke-width:4; stroke-opacity:1; fill:none" points="212.459,960.719 231.357,960.719 "></polyline>
<polyline clip-path="url(#clip440)" style="stroke:#000000; stroke-linecap:round; stroke-linejoin:round; stroke-width:4; stroke-opacity:1; fill:none" points="212.459,728.061 231.357,728.061 "></polyline>
<polyline clip-path="url(#clip440)" style="stroke:#000000; stroke-linecap:round; stroke-linejoin:round; stroke-width:4; stroke-opacity:1; fill:none" points="212.459,495.404 231.357,495.404 "></polyline>
<polyline clip-path="url(#clip440)" style="stroke:#000000; stroke-linecap:round; stroke-linejoin:round; stroke-width:4; stroke-opacity:1; fill:none" points="212.459,262.746 231.357,262.746 "></polyline>
<path clip-path="url(#clip440)" d="M114.26 1193.83 L143.936 1193.83 L143.936 1197.76 L114.26 1197.76 L114.26 1193.83 Z" fill="#000000" fill-rule="nonzero" fill-opacity="1"></path><path clip-path="url(#clip440)" d="M166.876 1180.17 L155.07 1198.62 L166.876 1198.62 L166.876 1180.17 M165.649 1176.1 L171.528 1176.1 L171.528 1198.62 L176.459 1198.62 L176.459 1202.51 L171.528 1202.51 L171.528 1210.66 L166.876 1210.66 L166.876 1202.51 L151.274 1202.51 L151.274 1197.99 L165.649 1176.1 Z" fill="#000000" fill-rule="nonzero" fill-opacity="1"></path><path clip-path="url(#clip440)" d="M116.343 961.171 L146.019 961.171 L146.019 965.106 L116.343 965.106 L116.343 961.171 Z" fill="#000000" fill-rule="nonzero" fill-opacity="1"></path><path clip-path="url(#clip440)" d="M160.14 974.064 L176.459 974.064 L176.459 977.999 L154.515 977.999 L154.515 974.064 Q157.177 971.309 161.76 966.68 Q166.366 962.027 167.547 960.684 Q169.792 958.161 170.672 956.425 Q171.575 954.666 171.575 952.976 Q171.575 950.222 169.63 948.485 Q167.709 946.749 164.607 946.749 Q162.408 946.749 159.954 947.513 Q157.524 948.277 154.746 949.828 L154.746 945.106 Q157.57 943.972 160.024 943.393 Q162.477 942.814 164.515 942.814 Q169.885 942.814 173.079 945.499 Q176.274 948.184 176.274 952.675 Q176.274 954.805 175.464 956.726 Q174.677 958.624 172.57 961.217 Q171.991 961.888 168.889 965.106 Q165.788 968.3 160.14 974.064 Z" fill="#000000" fill-rule="nonzero" fill-opacity="1"></path><path clip-path="url(#clip440)" d="M164.515 713.86 Q160.903 713.86 159.075 717.425 Q157.269 720.967 157.269 728.096 Q157.269 735.203 159.075 738.767 Q160.903 742.309 164.515 742.309 Q168.149 742.309 169.954 738.767 Q171.783 735.203 171.783 728.096 Q171.783 720.967 169.954 717.425 Q168.149 713.86 164.515 713.86 M164.515 710.156 Q170.325 710.156 173.38 714.763 Q176.459 719.346 176.459 728.096 Q176.459 736.823 173.38 741.429 Q170.325 746.013 164.515 746.013 Q158.704 746.013 155.626 741.429 Q152.57 736.823 152.57 728.096 Q152.57 719.346 155.626 714.763 Q158.704 710.156 164.515 710.156 Z" fill="#000000" fill-rule="nonzero" fill-opacity="1"></path><path clip-path="url(#clip440)" d="M160.14 508.749 L176.459 508.749 L176.459 512.684 L154.515 512.684 L154.515 508.749 Q157.177 505.994 161.76 501.364 Q166.366 496.712 167.547 495.369 Q169.792 492.846 170.672 491.11 Q171.575 489.351 171.575 487.661 Q171.575 484.906 169.63 483.17 Q167.709 481.434 164.607 481.434 Q162.408 481.434 159.954 482.198 Q157.524 482.962 154.746 484.513 L154.746 479.79 Q157.57 478.656 160.024 478.077 Q162.477 477.499 164.515 477.499 Q169.885 477.499 173.079 480.184 Q176.274 482.869 176.274 487.36 Q176.274 489.489 175.464 491.411 Q174.677 493.309 172.57 495.901 Q171.991 496.573 168.889 499.79 Q165.788 502.985 160.14 508.749 Z" fill="#000000" fill-rule="nonzero" fill-opacity="1"></path><path clip-path="url(#clip440)" d="M166.876 249.54 L155.07 267.989 L166.876 267.989 L166.876 249.54 M165.649 245.466 L171.528 245.466 L171.528 267.989 L176.459 267.989 L176.459 271.878 L171.528 271.878 L171.528 280.026 L166.876 280.026 L166.876 271.878 L151.274 271.878 L151.274 267.364 L165.649 245.466 Z" fill="#000000" fill-rule="nonzero" fill-opacity="1"></path><path clip-path="url(#clip440)" d="M67.3143 771.639 Q73.68 774.122 75.6216 776.477 Q77.5631 778.832 77.5631 782.779 L77.5631 787.458 L72.6615 787.458 L72.6615 784.02 Q72.6615 781.601 71.5157 780.265 Q70.3699 778.928 66.1048 777.305 L63.4312 776.254 L28.3562 790.673 L28.3562 784.466 L56.238 773.326 L28.3562 762.186 L28.3562 755.979 L67.3143 771.639 Z" fill="#000000" fill-rule="nonzero" fill-opacity="1"></path><path clip-path="url(#clip440)" d="M627.232 65.7705 L627.232 89.8329 L619.738 89.8329 L619.738 27.2059 L627.232 27.2059 L627.232 34.0924 Q629.581 30.0415 633.146 28.0971 Q636.751 26.1121 641.734 26.1121 Q649.998 26.1121 655.143 32.6746 Q660.328 39.2371 660.328 49.9314 Q660.328 60.6258 655.143 67.1883 Q649.998 73.7508 641.734 73.7508 Q636.751 73.7508 633.146 71.8063 Q629.581 69.8214 627.232 65.7705 M652.591 49.9314 Q652.591 41.7081 649.188 37.0496 Q645.826 32.3505 639.911 32.3505 Q633.997 32.3505 630.594 37.0496 Q627.232 41.7081 627.232 49.9314 Q627.232 58.1548 630.594 62.8538 Q633.997 67.5124 639.911 67.5124 Q645.826 67.5124 649.188 62.8538 Q652.591 58.1548 652.591 49.9314 Z" fill="#000000" fill-rule="nonzero" fill-opacity="1"></path><path clip-path="url(#clip440)" d="M698.973 34.1734 Q697.718 33.4443 696.219 33.1202 Q694.76 32.7556 692.978 32.7556 Q686.659 32.7556 683.256 36.8875 Q679.894 40.9789 679.894 48.6757 L679.894 72.576 L672.399 72.576 L672.399 27.2059 L679.894 27.2059 L679.894 34.2544 Q682.243 30.1225 686.01 28.1376 Q689.778 26.1121 695.166 26.1121 Q695.935 26.1121 696.867 26.2337 Q697.799 26.3147 698.933 26.5172 L698.973 34.1734 Z" fill="#000000" fill-rule="nonzero" fill-opacity="1"></path><path clip-path="url(#clip440)" d="M743.776 48.0275 L743.776 51.6733 L709.506 51.6733 Q709.992 59.3701 714.124 63.421 Q718.296 67.4314 725.709 67.4314 Q730.003 67.4314 734.014 66.3781 Q738.065 65.3249 742.034 63.2184 L742.034 70.267 Q738.024 71.9684 733.811 72.8596 Q729.598 73.7508 725.264 73.7508 Q714.407 73.7508 708.047 67.4314 Q701.728 61.1119 701.728 50.3365 Q701.728 39.1965 707.723 32.6746 Q713.759 26.1121 723.967 26.1121 Q733.122 26.1121 738.429 32.0264 Q743.776 37.9003 743.776 48.0275 M736.323 45.84 Q736.242 39.7232 732.879 36.0774 Q729.558 32.4315 724.048 32.4315 Q717.81 32.4315 714.043 35.9558 Q710.316 39.4801 709.749 45.8805 L736.323 45.84 Z" fill="#000000" fill-rule="nonzero" fill-opacity="1"></path><path clip-path="url(#clip440)" d="M785.865 34.0924 L785.865 9.54393 L793.319 9.54393 L793.319 72.576 L785.865 72.576 L785.865 65.7705 Q783.516 69.8214 779.91 71.8063 Q776.346 73.7508 771.323 73.7508 Q763.099 73.7508 757.914 67.1883 Q752.769 60.6258 752.769 49.9314 Q752.769 39.2371 757.914 32.6746 Q763.099 26.1121 771.323 26.1121 Q776.346 26.1121 779.91 28.0971 Q783.516 30.0415 785.865 34.0924 M760.466 49.9314 Q760.466 58.1548 763.828 62.8538 Q767.231 67.5124 773.145 67.5124 Q779.06 67.5124 782.463 62.8538 Q785.865 58.1548 785.865 49.9314 Q785.865 41.7081 782.463 37.0496 Q779.06 32.3505 773.145 32.3505 Q767.231 32.3505 763.828 37.0496 Q760.466 41.7081 760.466 49.9314 Z" fill="#000000" fill-rule="nonzero" fill-opacity="1"></path><path clip-path="url(#clip440)" d="M808.672 27.2059 L816.126 27.2059 L816.126 72.576 L808.672 72.576 L808.672 27.2059 M808.672 9.54393 L816.126 9.54393 L816.126 18.9825 L808.672 18.9825 L808.672 9.54393 Z" fill="#000000" fill-rule="nonzero" fill-opacity="1"></path><path clip-path="url(#clip440)" d="M864.372 28.9478 L864.372 35.9153 Q861.212 34.1734 858.012 33.3227 Q854.852 32.4315 851.611 32.4315 Q844.36 32.4315 840.35 37.0496 Q836.34 41.6271 836.34 49.9314 Q836.34 58.2358 840.35 62.8538 Q844.36 67.4314 851.611 67.4314 Q854.852 67.4314 858.012 66.5807 Q861.212 65.6895 864.372 63.9476 L864.372 70.8341 Q861.253 72.2924 857.89 73.0216 Q854.569 73.7508 850.801 73.7508 Q840.552 73.7508 834.517 67.3098 Q828.481 60.8689 828.481 49.9314 Q828.481 38.832 834.557 32.472 Q840.674 26.1121 851.287 26.1121 Q854.731 26.1121 858.012 26.8413 Q861.293 27.5299 864.372 28.9478 Z" fill="#000000" fill-rule="nonzero" fill-opacity="1"></path><path clip-path="url(#clip440)" d="M884.707 14.324 L884.707 27.2059 L900.06 27.2059 L900.06 32.9987 L884.707 32.9987 L884.707 57.6282 Q884.707 63.1779 886.206 64.7578 Q887.746 66.3376 892.404 66.3376 L900.06 66.3376 L900.06 72.576 L892.404 72.576 Q883.776 72.576 880.494 69.3758 Q877.213 66.1351 877.213 57.6282 L877.213 32.9987 L871.744 32.9987 L871.744 27.2059 L877.213 27.2059 L877.213 14.324 L884.707 14.324 Z" fill="#000000" fill-rule="nonzero" fill-opacity="1"></path><path clip-path="url(#clip440)" d="M948.671 48.0275 L948.671 51.6733 L914.4 51.6733 Q914.887 59.3701 919.018 63.421 Q923.191 67.4314 930.604 67.4314 Q934.898 67.4314 938.908 66.3781 Q942.959 65.3249 946.929 63.2184 L946.929 70.267 Q942.919 71.9684 938.706 72.8596 Q934.493 73.7508 930.158 73.7508 Q919.302 73.7508 912.942 67.4314 Q906.623 61.1119 906.623 50.3365 Q906.623 39.1965 912.618 32.6746 Q918.654 26.1121 928.862 26.1121 Q938.017 26.1121 943.324 32.0264 Q948.671 37.9003 948.671 48.0275 M941.217 45.84 Q941.136 39.7232 937.774 36.0774 Q934.452 32.4315 928.943 32.4315 Q922.705 32.4315 918.937 35.9558 Q915.211 39.4801 914.644 45.8805 L941.217 45.84 Z" fill="#000000" fill-rule="nonzero" fill-opacity="1"></path><path clip-path="url(#clip440)" d="M990.76 34.0924 L990.76 9.54393 L998.214 9.54393 L998.214 72.576 L990.76 72.576 L990.76 65.7705 Q988.41 69.8214 984.805 71.8063 Q981.24 73.7508 976.217 73.7508 Q967.994 73.7508 962.809 67.1883 Q957.664 60.6258 957.664 49.9314 Q957.664 39.2371 962.809 32.6746 Q967.994 26.1121 976.217 26.1121 Q981.24 26.1121 984.805 28.0971 Q988.41 30.0415 990.76 34.0924 M965.361 49.9314 Q965.361 58.1548 968.723 62.8538 Q972.126 67.5124 978.04 67.5124 Q983.954 67.5124 987.357 62.8538 Q990.76 58.1548 990.76 49.9314 Q990.76 41.7081 987.357 37.0496 Q983.954 32.3505 978.04 32.3505 Q972.126 32.3505 968.723 37.0496 Q965.361 41.7081 965.361 49.9314 Z" fill="#000000" fill-rule="nonzero" fill-opacity="1"></path><path clip-path="url(#clip440)" d="M1057.52 32.4315 Q1051.52 32.4315 1048.04 37.1306 Q1044.56 41.7891 1044.56 49.9314 Q1044.56 58.0738 1048 62.7728 Q1051.48 67.4314 1057.52 67.4314 Q1063.47 67.4314 1066.96 62.7323 Q1070.44 58.0333 1070.44 49.9314 Q1070.44 41.8701 1066.96 37.1711 Q1063.47 32.4315 1057.52 32.4315 M1057.52 26.1121 Q1067.24 26.1121 1072.79 32.4315 Q1078.34 38.7509 1078.34 49.9314 Q1078.34 61.0714 1072.79 67.4314 Q1067.24 73.7508 1057.52 73.7508 Q1047.76 73.7508 1042.21 67.4314 Q1036.7 61.0714 1036.7 49.9314 Q1036.7 38.7509 1042.21 32.4315 Q1047.76 26.1121 1057.52 26.1121 Z" fill="#000000" fill-rule="nonzero" fill-opacity="1"></path><path clip-path="url(#clip440)" d="M1089.93 54.671 L1089.93 27.2059 L1097.38 27.2059 L1097.38 54.3874 Q1097.38 60.8284 1099.89 64.0691 Q1102.4 67.2693 1107.43 67.2693 Q1113.46 67.2693 1116.95 63.421 Q1120.47 59.5726 1120.47 52.9291 L1120.47 27.2059 L1127.92 27.2059 L1127.92 72.576 L1120.47 72.576 L1120.47 65.6084 Q1117.76 69.7404 1114.15 71.7658 Q1110.59 73.7508 1105.85 73.7508 Q1098.03 73.7508 1093.98 68.8897 Q1089.93 64.0286 1089.93 54.671 M1108.68 26.1121 L1108.68 26.1121 Z" fill="#000000" fill-rule="nonzero" fill-opacity="1"></path><path clip-path="url(#clip440)" d="M1150.65 14.324 L1150.65 27.2059 L1166 27.2059 L1166 32.9987 L1150.65 32.9987 L1150.65 57.6282 Q1150.65 63.1779 1152.15 64.7578 Q1153.69 66.3376 1158.35 66.3376 L1166 66.3376 L1166 72.576 L1158.35 72.576 Q1149.72 72.576 1146.44 69.3758 Q1143.16 66.1351 1143.16 57.6282 L1143.16 32.9987 L1137.69 32.9987 L1137.69 27.2059 L1143.16 27.2059 L1143.16 14.324 L1150.65 14.324 Z" fill="#000000" fill-rule="nonzero" fill-opacity="1"></path><path clip-path="url(#clip440)" d="M1183.02 65.7705 L1183.02 89.8329 L1175.52 89.8329 L1175.52 27.2059 L1183.02 27.2059 L1183.02 34.0924 Q1185.37 30.0415 1188.93 28.0971 Q1192.54 26.1121 1197.52 26.1121 Q1205.78 26.1121 1210.93 32.6746 Q1216.11 39.2371 1216.11 49.9314 Q1216.11 60.6258 1210.93 67.1883 Q1205.78 73.7508 1197.52 73.7508 Q1192.54 73.7508 1188.93 71.8063 Q1185.37 69.8214 1183.02 65.7705 M1208.37 49.9314 Q1208.37 41.7081 1204.97 37.0496 Q1201.61 32.3505 1195.7 32.3505 Q1189.78 32.3505 1186.38 37.0496 Q1183.02 41.7081 1183.02 49.9314 Q1183.02 58.1548 1186.38 62.8538 Q1189.78 67.5124 1195.7 67.5124 Q1201.61 67.5124 1204.97 62.8538 Q1208.37 58.1548 1208.37 49.9314 Z" fill="#000000" fill-rule="nonzero" fill-opacity="1"></path><path clip-path="url(#clip440)" d="M1227.7 54.671 L1227.7 27.2059 L1235.15 27.2059 L1235.15 54.3874 Q1235.15 60.8284 1237.66 64.0691 Q1240.17 67.2693 1245.2 67.2693 Q1251.23 67.2693 1254.72 63.421 Q1258.24 59.5726 1258.24 52.9291 L1258.24 27.2059 L1265.69 27.2059 L1265.69 72.576 L1258.24 72.576 L1258.24 65.6084 Q1255.53 69.7404 1251.92 71.7658 Q1248.36 73.7508 1243.62 73.7508 Q1235.8 73.7508 1231.75 68.8897 Q1227.7 64.0286 1227.7 54.671 M1246.45 26.1121 L1246.45 26.1121 Z" fill="#000000" fill-rule="nonzero" fill-opacity="1"></path><path clip-path="url(#clip440)" d="M1288.42 14.324 L1288.42 27.2059 L1303.77 27.2059 L1303.77 32.9987 L1288.42 32.9987 L1288.42 57.6282 Q1288.42 63.1779 1289.92 64.7578 Q1291.46 66.3376 1296.12 66.3376 L1303.77 66.3376 L1303.77 72.576 L1296.12 72.576 Q1287.49 72.576 1284.21 69.3758 Q1280.93 66.1351 1280.93 57.6282 L1280.93 32.9987 L1275.46 32.9987 L1275.46 27.2059 L1280.93 27.2059 L1280.93 14.324 L1288.42 14.324 Z" fill="#000000" fill-rule="nonzero" fill-opacity="1"></path><path clip-path="url(#clip440)" d="M1334.6 27.2059 L1342.5 27.2059 L1356.68 65.2844 L1370.86 27.2059 L1378.76 27.2059 L1361.74 72.576 L1351.61 72.576 L1334.6 27.2059 Z" fill="#000000" fill-rule="nonzero" fill-opacity="1"></path><path clip-path="url(#clip440)" d="M1417.97 28.5427 L1417.97 35.5912 Q1414.81 33.9709 1411.41 33.1607 Q1408 32.3505 1404.36 32.3505 Q1398.81 32.3505 1396.01 34.0519 Q1393.26 35.7533 1393.26 39.156 Q1393.26 41.7486 1395.24 43.2475 Q1397.23 44.7058 1403.22 46.0426 L1405.78 46.6097 Q1413.71 48.3111 1417.04 51.4303 Q1420.4 54.509 1420.4 60.0587 Q1420.4 66.3781 1415.38 70.0644 Q1410.39 73.7508 1401.64 73.7508 Q1398 73.7508 1394.03 73.0216 Q1390.1 72.3329 1385.72 70.9151 L1385.72 63.2184 Q1389.86 65.3654 1393.87 66.4591 Q1397.88 67.5124 1401.81 67.5124 Q1407.07 67.5124 1409.91 65.73 Q1412.74 63.9071 1412.74 60.6258 Q1412.74 57.5877 1410.68 55.9673 Q1408.65 54.3469 1401.72 52.8481 L1399.13 52.2405 Q1392.2 50.7821 1389.13 47.7845 Q1386.05 44.7463 1386.05 39.4801 Q1386.05 33.0797 1390.58 29.5959 Q1395.12 26.1121 1403.47 26.1121 Q1407.6 26.1121 1411.24 26.7198 Q1414.89 27.3274 1417.97 28.5427 Z" fill="#000000" fill-rule="nonzero" fill-opacity="1"></path><path clip-path="url(#clip440)" d="M1433.32 62.2867 L1441.87 62.2867 L1441.87 72.576 L1433.32 72.576 L1433.32 62.2867 Z" fill="#000000" fill-rule="nonzero" fill-opacity="1"></path><path clip-path="url(#clip440)" d="M1492.38 14.324 L1492.38 27.2059 L1507.74 27.2059 L1507.74 32.9987 L1492.38 32.9987 L1492.38 57.6282 Q1492.38 63.1779 1493.88 64.7578 Q1495.42 66.3376 1500.08 66.3376 L1507.74 66.3376 L1507.74 72.576 L1500.08 72.576 Q1491.45 72.576 1488.17 69.3758 Q1484.89 66.1351 1484.89 57.6282 L1484.89 32.9987 L1479.42 32.9987 L1479.42 27.2059 L1484.89 27.2059 L1484.89 14.324 L1492.38 14.324 Z" fill="#000000" fill-rule="nonzero" fill-opacity="1"></path><path clip-path="url(#clip440)" d="M1543.83 34.1734 Q1542.57 33.4443 1541.08 33.1202 Q1539.62 32.7556 1537.83 32.7556 Q1531.52 32.7556 1528.11 36.8875 Q1524.75 40.9789 1524.75 48.6757 L1524.75 72.576 L1517.26 72.576 L1517.26 27.2059 L1524.75 27.2059 L1524.75 34.2544 Q1527.1 30.1225 1530.87 28.1376 Q1534.63 26.1121 1540.02 26.1121 Q1540.79 26.1121 1541.72 26.2337 Q1542.66 26.3147 1543.79 26.5172 L1543.83 34.1734 Z" fill="#000000" fill-rule="nonzero" fill-opacity="1"></path><path clip-path="url(#clip440)" d="M1550.88 54.671 L1550.88 27.2059 L1558.33 27.2059 L1558.33 54.3874 Q1558.33 60.8284 1560.84 64.0691 Q1563.36 67.2693 1568.38 67.2693 Q1574.41 67.2693 1577.9 63.421 Q1581.42 59.5726 1581.42 52.9291 L1581.42 27.2059 L1588.88 27.2059 L1588.88 72.576 L1581.42 72.576 L1581.42 65.6084 Q1578.71 69.7404 1575.1 71.7658 Q1571.54 73.7508 1566.8 73.7508 Q1558.98 73.7508 1554.93 68.8897 Q1550.88 64.0286 1550.88 54.671 M1569.63 26.1121 L1569.63 26.1121 Z" fill="#000000" fill-rule="nonzero" fill-opacity="1"></path><path clip-path="url(#clip440)" d="M1643.04 48.0275 L1643.04 51.6733 L1608.77 51.6733 Q1609.25 59.3701 1613.38 63.421 Q1617.56 67.4314 1624.97 67.4314 Q1629.26 67.4314 1633.27 66.3781 Q1637.32 65.3249 1641.29 63.2184 L1641.29 70.267 Q1637.28 71.9684 1633.07 72.8596 Q1628.86 73.7508 1624.52 73.7508 Q1613.67 73.7508 1607.31 67.4314 Q1600.99 61.1119 1600.99 50.3365 Q1600.99 39.1965 1606.98 32.6746 Q1613.02 26.1121 1623.23 26.1121 Q1632.38 26.1121 1637.69 32.0264 Q1643.04 37.9003 1643.04 48.0275 M1635.58 45.84 Q1635.5 39.7232 1632.14 36.0774 Q1628.82 32.4315 1623.31 32.4315 Q1617.07 32.4315 1613.3 35.9558 Q1609.58 39.4801 1609.01 45.8805 L1635.58 45.84 Z" fill="#000000" fill-rule="nonzero" fill-opacity="1"></path><path clip-path="url(#clip440)" d="M1699.22 32.4315 Q1693.23 32.4315 1689.74 37.1306 Q1686.26 41.7891 1686.26 49.9314 Q1686.26 58.0738 1689.7 62.7728 Q1693.19 67.4314 1699.22 67.4314 Q1705.18 67.4314 1708.66 62.7323 Q1712.15 58.0333 1712.15 49.9314 Q1712.15 41.8701 1708.66 37.1711 Q1705.18 32.4315 1699.22 32.4315 M1699.22 26.1121 Q1708.94 26.1121 1714.49 32.4315 Q1720.04 38.7509 1720.04 49.9314 Q1720.04 61.0714 1714.49 67.4314 Q1708.94 73.7508 1699.22 73.7508 Q1689.46 73.7508 1683.91 67.4314 Q1678.4 61.0714 1678.4 49.9314 Q1678.4 38.7509 1683.91 32.4315 Q1689.46 26.1121 1699.22 26.1121 Z" fill="#000000" fill-rule="nonzero" fill-opacity="1"></path><path clip-path="url(#clip440)" d="M1731.63 54.671 L1731.63 27.2059 L1739.08 27.2059 L1739.08 54.3874 Q1739.08 60.8284 1741.6 64.0691 Q1744.11 67.2693 1749.13 67.2693 Q1755.17 67.2693 1758.65 63.421 Q1762.17 59.5726 1762.17 52.9291 L1762.17 27.2059 L1769.63 27.2059 L1769.63 72.576 L1762.17 72.576 L1762.17 65.6084 Q1759.46 69.7404 1755.85 71.7658 Q1752.29 73.7508 1747.55 73.7508 Q1739.73 73.7508 1735.68 68.8897 Q1731.63 64.0286 1731.63 54.671 M1750.39 26.1121 L1750.39 26.1121 Z" fill="#000000" fill-rule="nonzero" fill-opacity="1"></path><path clip-path="url(#clip440)" d="M1792.35 14.324 L1792.35 27.2059 L1807.71 27.2059 L1807.71 32.9987 L1792.35 32.9987 L1792.35 57.6282 Q1792.35 63.1779 1793.85 64.7578 Q1795.39 66.3376 1800.05 66.3376 L1807.71 66.3376 L1807.71 72.576 L1800.05 72.576 Q1791.42 72.576 1788.14 69.3758 Q1784.86 66.1351 1784.86 57.6282 L1784.86 32.9987 L1779.39 32.9987 L1779.39 27.2059 L1784.86 27.2059 L1784.86 14.324 L1792.35 14.324 Z" fill="#000000" fill-rule="nonzero" fill-opacity="1"></path><path clip-path="url(#clip440)" d="M1824.72 65.7705 L1824.72 89.8329 L1817.23 89.8329 L1817.23 27.2059 L1824.72 27.2059 L1824.72 34.0924 Q1827.07 30.0415 1830.63 28.0971 Q1834.24 26.1121 1839.22 26.1121 Q1847.49 26.1121 1852.63 32.6746 Q1857.82 39.2371 1857.82 49.9314 Q1857.82 60.6258 1852.63 67.1883 Q1847.49 73.7508 1839.22 73.7508 Q1834.24 73.7508 1830.63 71.8063 Q1827.07 69.8214 1824.72 65.7705 M1850.08 49.9314 Q1850.08 41.7081 1846.68 37.0496 Q1843.31 32.3505 1837.4 32.3505 Q1831.48 32.3505 1828.08 37.0496 Q1824.72 41.7081 1824.72 49.9314 Q1824.72 58.1548 1828.08 62.8538 Q1831.48 67.5124 1837.4 67.5124 Q1843.31 67.5124 1846.68 62.8538 Q1850.08 58.1548 1850.08 49.9314 Z" fill="#000000" fill-rule="nonzero" fill-opacity="1"></path><path clip-path="url(#clip440)" d="M1869.4 54.671 L1869.4 27.2059 L1876.85 27.2059 L1876.85 54.3874 Q1876.85 60.8284 1879.37 64.0691 Q1881.88 67.2693 1886.9 67.2693 Q1892.94 67.2693 1896.42 63.421 Q1899.94 59.5726 1899.94 52.9291 L1899.94 27.2059 L1907.4 27.2059 L1907.4 72.576 L1899.94 72.576 L1899.94 65.6084 Q1897.23 69.7404 1893.63 71.7658 Q1890.06 73.7508 1885.32 73.7508 Q1877.5 73.7508 1873.45 68.8897 Q1869.4 64.0286 1869.4 54.671 M1888.16 26.1121 L1888.16 26.1121 Z" fill="#000000" fill-rule="nonzero" fill-opacity="1"></path><path clip-path="url(#clip440)" d="M1930.12 14.324 L1930.12 27.2059 L1945.48 27.2059 L1945.48 32.9987 L1930.12 32.9987 L1930.12 57.6282 Q1930.12 63.1779 1931.62 64.7578 Q1933.16 66.3376 1937.82 66.3376 L1945.48 66.3376 L1945.48 72.576 L1937.82 72.576 Q1929.19 72.576 1925.91 69.3758 Q1922.63 66.1351 1922.63 57.6282 L1922.63 32.9987 L1917.16 32.9987 L1917.16 27.2059 L1922.63 27.2059 L1922.63 14.324 L1930.12 14.324 Z" fill="#000000" fill-rule="nonzero" fill-opacity="1"></path><path clip-path="url(#clip442)" d="M273.033 1048.32 L323.512 1386.4 L373.991 1335.25 L424.469 1221.82 L474.948 1036.86 L525.427 873.082 L575.906 772.823 L626.384 734.428 L676.863 722.18 L727.342 747.456 L777.82 811.874 L828.299 881.935 L878.778 880.564 L929.256 929.165 L979.735 1001.54 L1030.21 1012.97 L1080.69 983.475 L1131.17 880.408 L1181.65 712.516 L1232.13 623.585 L1282.61 495.404 L1333.09 412.27 L1383.56 495.404 L1434.04 483.121 L1484.52 495.404 L1535 495.404 L1585.48 618.813 L1635.96 759.393 L1686.44 862.387 L1736.92 964.76 L1787.39 983.994 L1837.87 954.103 L1888.35 917.964 L1938.83 872.654 L1989.31 871.601 L2039.79 826.28 L2090.27 844.761 L2140.75 807.958 L2191.22 844.096 L2241.7 870.901 L2292.18 854.379 L2292.18 606.647 L2241.7 617.714 L2191.22 612.635 L2140.75 584.473 L2090.27 555.981 L2039.79 562.184 L1989.31 560.114 L1938.83 605.427 L1888.35 662.121 L1837.87 689.642 L1787.39 702.766 L1736.92 700.545 L1686.44 586.55 L1635.96 448.433 L1585.48 283.236 L1535 160.256 L1484.52 194.855 L1434.04 230.183 L1383.56 255.52 L1333.09 166.564 L1282.61 202.971 L1232.13 327.301 L1181.65 425.545 L1131.17 596.29 L1080.69 757.694 L1030.21 761.982 L979.735 709.175 L929.256 685.522 L878.778 648.591 L828.299 625.627 L777.82 602.478 L727.342 501.595 L676.863 480.514 L626.384 473.227 L575.906 487.842 L525.427 596.531 L474.948 750.185 L424.469 974.589 L373.991 1089.83 L323.512 1084.88 L273.033 815.454  Z" fill="#009af9" fill-rule="evenodd" fill-opacity="0.35"></path>
<polyline clip-path="url(#clip442)" style="stroke:#009af9; stroke-linecap:round; stroke-linejoin:round; stroke-width:4; stroke-opacity:0.35; fill:none" points="273.033,1048.32 323.512,1386.4 373.991,1335.25 424.469,1221.82 474.948,1036.86 525.427,873.082 575.906,772.823 626.384,734.428 676.863,722.18 727.342,747.456 777.82,811.874 828.299,881.935 878.778,880.564 929.256,929.165 979.735,1001.54 1030.21,1012.97 1080.69,983.475 1131.17,880.408 1181.65,712.516 1232.13,623.585 1282.61,495.404 1333.09,412.27 1383.56,495.404 1434.04,483.121 1484.52,495.404 1535,495.404 1585.48,618.813 1635.96,759.393 1686.44,862.387 1736.92,964.76 1787.39,983.994 1837.87,954.103 1888.35,917.964 1938.83,872.654 1989.31,871.601 2039.79,826.28 2090.27,844.761 2140.75,807.958 2191.22,844.096 2241.7,870.901 2292.18,854.379 "></polyline>
<polyline clip-path="url(#clip442)" style="stroke:#e26f46; stroke-linecap:round; stroke-linejoin:round; stroke-width:8; stroke-opacity:1; fill:none" points="273.033,875.822 323.512,1247.71 373.991,1220.67 424.469,1100.5 474.948,892.363 525.427,751.536 575.906,623.972 626.384,589.632 676.863,591.561 727.342,652.877 777.82,654.986 828.299,694.963 878.778,734.293 929.256,814.312 979.735,907.439 1030.21,936.186 1080.69,945.49 1131.17,854.881 1181.65,633.728 1232.13,457.181 1282.61,395.97 1333.09,303.346 1383.56,382.618 1434.04,366.261 1484.52,273.606 1535,332.249 1585.48,427.9 1635.96,643.05 1686.44,795.427 1736.92,892.209 1787.39,894.204 1837.87,799.956 1888.35,744.408 1938.83,714.636 1989.31,667.592 2039.79,682.242 2090.27,661.027 2140.75,729.561 2191.22,749.033 2241.7,765.511 2292.18,791.071 "></polyline>
<polyline clip-path="url(#clip442)" style="stroke:#3da44d; stroke-linecap:round; stroke-linejoin:round; stroke-width:8; stroke-opacity:1; fill:none" points="273.033,938.014 323.512,1201 373.991,1214.45 424.469,1087.2 474.948,898.857 525.427,735.121 575.906,632.724 626.384,591.953 676.863,609.065 727.342,647.517 777.82,691.959 828.299,728.1 878.778,761.315 929.256,805.059 979.735,858.918 1030.21,899.303 1080.69,886.546 1131.17,745.521 1181.65,594.83 1232.13,431.602 1282.61,344.204 1333.09,286.282 1383.56,386.946 1434.04,347.76 1484.52,331.497 1535,329.827 1585.48,442.6 1635.96,596.12 1686.44,730.994 1736.92,804.003 1787.39,833.599 1837.87,818.275 1888.35,780.215 1938.83,741.089 1989.31,717.298 2039.79,706.938 2090.27,707.724 2140.75,710.776 2191.22,716.552 2241.7,724.59 2292.18,727.605 "></polyline>
<path clip-path="url(#clip442)" d="M1282.61 495.404 L1333.09 495.404 L1383.56 495.404 L1434.04 495.404 L1484.52 495.404 L1535 495.404 L1535 1386.4 L1484.52 1386.4 L1434.04 1386.4 L1383.56 1386.4 L1333.09 1386.4 L1282.61 1386.4  Z" fill="#ff0000" fill-rule="evenodd" fill-opacity="0.35"></path>
<polyline clip-path="url(#clip442)" style="stroke:#c271d2; stroke-linecap:round; stroke-linejoin:round; stroke-width:4; stroke-opacity:0.35; fill:none" points="1282.61,495.404 1333.09,495.404 1383.56,495.404 1434.04,495.404 1484.52,495.404 1535,495.404 "></polyline>
<path clip-path="url(#clip440)" d="M283.802 477.836 L876.858 477.836 L876.858 166.796 L283.802 166.796  Z" fill="#ffffff" fill-rule="evenodd" fill-opacity="1"></path>
<polyline clip-path="url(#clip440)" style="stroke:#000000; stroke-linecap:round; stroke-linejoin:round; stroke-width:4; stroke-opacity:1; fill:none" points="283.802,477.836 876.858,477.836 876.858,166.796 283.802,166.796 283.802,477.836 "></polyline>
<path clip-path="url(#clip440)" d="M307.583 239.372 L450.27 239.372 L450.27 197.9 L307.583 197.9 L307.583 239.372  Z" fill="#009af9" fill-rule="evenodd" fill-opacity="0.35"></path>
<polyline clip-path="url(#clip440)" style="stroke:#009af9; stroke-linecap:round; stroke-linejoin:round; stroke-width:4; stroke-opacity:0.35; fill:none" points="307.583,197.9 450.27,197.9 "></polyline>
<path clip-path="url(#clip440)" d="M487.453 222.883 Q482.291 222.883 480.301 224.064 Q478.31 225.244 478.31 228.092 Q478.31 230.36 479.791 231.703 Q481.296 233.022 483.866 233.022 Q487.407 233.022 489.537 230.522 Q491.69 227.999 491.69 223.832 L491.69 222.883 L487.453 222.883 M495.949 221.124 L495.949 235.916 L491.69 235.916 L491.69 231.981 Q490.231 234.342 488.055 235.476 Q485.879 236.587 482.731 236.587 Q478.75 236.587 476.389 234.365 Q474.051 232.119 474.051 228.369 Q474.051 223.994 476.967 221.772 Q479.907 219.55 485.717 219.55 L491.69 219.55 L491.69 219.133 Q491.69 216.194 489.745 214.596 Q487.824 212.976 484.328 212.976 Q482.106 212.976 480 213.508 Q477.893 214.041 475.949 215.106 L475.949 211.17 Q478.287 210.268 480.486 209.828 Q482.685 209.365 484.768 209.365 Q490.393 209.365 493.171 212.282 Q495.949 215.198 495.949 221.124 Z" fill="#000000" fill-rule="nonzero" fill-opacity="1"></path><path clip-path="url(#clip440)" d="M504.722 199.897 L508.981 199.897 L508.981 235.916 L504.722 235.916 L504.722 199.897 Z" fill="#000000" fill-rule="nonzero" fill-opacity="1"></path><path clip-path="url(#clip440)" d="M517.893 199.897 L522.152 199.897 L522.152 235.916 L517.893 235.916 L517.893 199.897 Z" fill="#000000" fill-rule="nonzero" fill-opacity="1"></path><path clip-path="url(#clip440)" d="M550.254 232.027 L550.254 245.777 L545.972 245.777 L545.972 209.99 L550.254 209.99 L550.254 213.925 Q551.597 211.61 553.634 210.499 Q555.694 209.365 558.541 209.365 Q563.263 209.365 566.203 213.115 Q569.166 216.865 569.166 222.976 Q569.166 229.087 566.203 232.837 Q563.263 236.587 558.541 236.587 Q555.694 236.587 553.634 235.476 Q551.597 234.342 550.254 232.027 M564.745 222.976 Q564.745 218.277 562.8 215.615 Q560.879 212.93 557.499 212.93 Q554.12 212.93 552.175 215.615 Q550.254 218.277 550.254 222.976 Q550.254 227.675 552.175 230.36 Q554.12 233.022 557.499 233.022 Q560.879 233.022 562.8 230.36 Q564.745 227.675 564.745 222.976 Z" fill="#000000" fill-rule="nonzero" fill-opacity="1"></path><path clip-path="url(#clip440)" d="M591.249 213.971 Q590.532 213.555 589.675 213.37 Q588.842 213.161 587.823 213.161 Q584.212 213.161 582.268 215.522 Q580.346 217.86 580.346 222.258 L580.346 235.916 L576.064 235.916 L576.064 209.99 L580.346 209.99 L580.346 214.018 Q581.689 211.657 583.842 210.522 Q585.995 209.365 589.073 209.365 Q589.513 209.365 590.046 209.434 Q590.578 209.481 591.226 209.596 L591.249 213.971 Z" fill="#000000" fill-rule="nonzero" fill-opacity="1"></path><path clip-path="url(#clip440)" d="M616.851 221.888 L616.851 223.971 L597.268 223.971 Q597.545 228.369 599.907 230.684 Q602.291 232.976 606.527 232.976 Q608.981 232.976 611.272 232.374 Q613.587 231.772 615.856 230.569 L615.856 234.596 Q613.564 235.568 611.157 236.078 Q608.749 236.587 606.272 236.587 Q600.069 236.587 596.434 232.976 Q592.823 229.365 592.823 223.207 Q592.823 216.842 596.249 213.115 Q599.698 209.365 605.532 209.365 Q610.763 209.365 613.795 212.745 Q616.851 216.101 616.851 221.888 M612.592 220.638 Q612.545 217.143 610.624 215.059 Q608.726 212.976 605.578 212.976 Q602.013 212.976 599.86 214.99 Q597.731 217.004 597.407 220.661 L612.592 220.638 Z" fill="#000000" fill-rule="nonzero" fill-opacity="1"></path><path clip-path="url(#clip440)" d="M640.902 213.925 L640.902 199.897 L645.161 199.897 L645.161 235.916 L640.902 235.916 L640.902 232.027 Q639.559 234.342 637.499 235.476 Q635.462 236.587 632.592 236.587 Q627.893 236.587 624.93 232.837 Q621.99 229.087 621.99 222.976 Q621.99 216.865 624.93 213.115 Q627.893 209.365 632.592 209.365 Q635.462 209.365 637.499 210.499 Q639.559 211.61 640.902 213.925 M626.388 222.976 Q626.388 227.675 628.309 230.36 Q630.254 233.022 633.633 233.022 Q637.013 233.022 638.957 230.36 Q640.902 227.675 640.902 222.976 Q640.902 218.277 638.957 215.615 Q637.013 212.93 633.633 212.93 Q630.254 212.93 628.309 215.615 Q626.388 218.277 626.388 222.976 Z" fill="#000000" fill-rule="nonzero" fill-opacity="1"></path><path clip-path="url(#clip440)" d="M653.934 209.99 L658.193 209.99 L658.193 235.916 L653.934 235.916 L653.934 209.99 M653.934 199.897 L658.193 199.897 L658.193 205.291 L653.934 205.291 L653.934 199.897 Z" fill="#000000" fill-rule="nonzero" fill-opacity="1"></path><path clip-path="url(#clip440)" d="M685.763 210.985 L685.763 214.967 Q683.957 213.971 682.128 213.485 Q680.323 212.976 678.471 212.976 Q674.327 212.976 672.036 215.615 Q669.744 218.231 669.744 222.976 Q669.744 227.721 672.036 230.36 Q674.327 232.976 678.471 232.976 Q680.323 232.976 682.128 232.49 Q683.957 231.981 685.763 230.985 L685.763 234.92 Q683.98 235.754 682.059 236.17 Q680.161 236.587 678.008 236.587 Q672.152 236.587 668.702 232.906 Q665.253 229.226 665.253 222.976 Q665.253 216.633 668.726 212.999 Q672.221 209.365 678.286 209.365 Q680.253 209.365 682.128 209.782 Q684.003 210.175 685.763 210.985 Z" fill="#000000" fill-rule="nonzero" fill-opacity="1"></path><path clip-path="url(#clip440)" d="M697.383 202.629 L697.383 209.99 L706.156 209.99 L706.156 213.3 L697.383 213.3 L697.383 227.374 Q697.383 230.545 698.239 231.448 Q699.119 232.351 701.781 232.351 L706.156 232.351 L706.156 235.916 L701.781 235.916 Q696.85 235.916 694.975 234.087 Q693.101 232.235 693.101 227.374 L693.101 213.3 L689.976 213.3 L689.976 209.99 L693.101 209.99 L693.101 202.629 L697.383 202.629 Z" fill="#000000" fill-rule="nonzero" fill-opacity="1"></path><path clip-path="url(#clip440)" d="M711.758 209.99 L716.017 209.99 L716.017 235.916 L711.758 235.916 L711.758 209.99 M711.758 199.897 L716.017 199.897 L716.017 205.291 L711.758 205.291 L711.758 199.897 Z" fill="#000000" fill-rule="nonzero" fill-opacity="1"></path><path clip-path="url(#clip440)" d="M734.975 212.976 Q731.549 212.976 729.559 215.661 Q727.568 218.323 727.568 222.976 Q727.568 227.629 729.535 230.314 Q731.526 232.976 734.975 232.976 Q738.378 232.976 740.369 230.291 Q742.36 227.606 742.36 222.976 Q742.36 218.37 740.369 215.684 Q738.378 212.976 734.975 212.976 M734.975 209.365 Q740.531 209.365 743.702 212.976 Q746.873 216.587 746.873 222.976 Q746.873 229.342 743.702 232.976 Q740.531 236.587 734.975 236.587 Q729.397 236.587 726.225 232.976 Q723.077 229.342 723.077 222.976 Q723.077 216.587 726.225 212.976 Q729.397 209.365 734.975 209.365 Z" fill="#000000" fill-rule="nonzero" fill-opacity="1"></path><path clip-path="url(#clip440)" d="M775.484 220.268 L775.484 235.916 L771.225 235.916 L771.225 220.407 Q771.225 216.726 769.79 214.897 Q768.355 213.069 765.484 213.069 Q762.035 213.069 760.045 215.268 Q758.054 217.467 758.054 221.263 L758.054 235.916 L753.771 235.916 L753.771 209.99 L758.054 209.99 L758.054 214.018 Q759.582 211.68 761.642 210.522 Q763.725 209.365 766.433 209.365 Q770.901 209.365 773.193 212.143 Q775.484 214.897 775.484 220.268 Z" fill="#000000" fill-rule="nonzero" fill-opacity="1"></path><path clip-path="url(#clip440)" d="M800.507 210.754 L800.507 214.782 Q798.702 213.856 796.757 213.393 Q794.813 212.93 792.73 212.93 Q789.558 212.93 787.961 213.902 Q786.387 214.874 786.387 216.819 Q786.387 218.3 787.521 219.157 Q788.656 219.99 792.081 220.754 L793.54 221.078 Q798.077 222.05 799.975 223.832 Q801.896 225.592 801.896 228.763 Q801.896 232.374 799.026 234.481 Q796.179 236.587 791.179 236.587 Q789.095 236.587 786.827 236.17 Q784.581 235.777 782.082 234.967 L782.082 230.569 Q784.443 231.795 786.734 232.42 Q789.026 233.022 791.271 233.022 Q794.281 233.022 795.901 232.004 Q797.521 230.962 797.521 229.087 Q797.521 227.351 796.341 226.425 Q795.183 225.499 791.225 224.643 L789.744 224.295 Q785.785 223.462 784.026 221.749 Q782.267 220.013 782.267 217.004 Q782.267 213.346 784.859 211.356 Q787.452 209.365 792.22 209.365 Q794.581 209.365 796.665 209.712 Q798.748 210.059 800.507 210.754 Z" fill="#000000" fill-rule="nonzero" fill-opacity="1"></path><polyline clip-path="url(#clip440)" style="stroke:#e26f46; stroke-linecap:round; stroke-linejoin:round; stroke-width:8; stroke-opacity:1; fill:none" points="307.583,270.476 450.27,270.476 "></polyline>
<path clip-path="url(#clip440)" d="M481.458 254.469 L481.458 261.83 L490.231 261.83 L490.231 265.14 L481.458 265.14 L481.458 279.214 Q481.458 282.385 482.315 283.288 Q483.194 284.191 485.856 284.191 L490.231 284.191 L490.231 287.756 L485.856 287.756 Q480.926 287.756 479.051 285.927 Q477.176 284.075 477.176 279.214 L477.176 265.14 L474.051 265.14 L474.051 261.83 L477.176 261.83 L477.176 254.469 L481.458 254.469 Z" fill="#000000" fill-rule="nonzero" fill-opacity="1"></path><path clip-path="url(#clip440)" d="M510.856 265.811 Q510.139 265.395 509.282 265.21 Q508.449 265.001 507.43 265.001 Q503.819 265.001 501.875 267.362 Q499.953 269.7 499.953 274.098 L499.953 287.756 L495.671 287.756 L495.671 261.83 L499.953 261.83 L499.953 265.858 Q501.296 263.497 503.449 262.362 Q505.602 261.205 508.68 261.205 Q509.12 261.205 509.652 261.274 Q510.185 261.321 510.833 261.436 L510.856 265.811 Z" fill="#000000" fill-rule="nonzero" fill-opacity="1"></path><path clip-path="url(#clip440)" d="M514.884 277.524 L514.884 261.83 L519.143 261.83 L519.143 277.362 Q519.143 281.043 520.578 282.895 Q522.013 284.723 524.884 284.723 Q528.333 284.723 530.324 282.524 Q532.337 280.325 532.337 276.529 L532.337 261.83 L536.597 261.83 L536.597 287.756 L532.337 287.756 L532.337 283.774 Q530.787 286.135 528.726 287.293 Q526.689 288.427 523.981 288.427 Q519.513 288.427 517.199 285.649 Q514.884 282.871 514.884 277.524 M525.601 261.205 L525.601 261.205 Z" fill="#000000" fill-rule="nonzero" fill-opacity="1"></path><path clip-path="url(#clip440)" d="M567.546 273.728 L567.546 275.811 L547.962 275.811 Q548.24 280.209 550.601 282.524 Q552.986 284.816 557.222 284.816 Q559.675 284.816 561.967 284.214 Q564.282 283.612 566.55 282.409 L566.55 286.436 Q564.259 287.408 561.851 287.918 Q559.444 288.427 556.967 288.427 Q550.763 288.427 547.129 284.816 Q543.518 281.205 543.518 275.047 Q543.518 268.682 546.944 264.955 Q550.393 261.205 556.226 261.205 Q561.458 261.205 564.49 264.585 Q567.546 267.941 567.546 273.728 M563.286 272.478 Q563.24 268.983 561.319 266.899 Q559.421 264.816 556.273 264.816 Q552.708 264.816 550.555 266.83 Q548.425 268.844 548.101 272.501 L563.286 272.478 Z" fill="#000000" fill-rule="nonzero" fill-opacity="1"></path><path clip-path="url(#clip440)" d="M599.652 264.816 Q596.226 264.816 594.235 267.501 Q592.245 270.163 592.245 274.816 Q592.245 279.469 594.212 282.154 Q596.203 284.816 599.652 284.816 Q603.055 284.816 605.045 282.131 Q607.036 279.446 607.036 274.816 Q607.036 270.21 605.045 267.524 Q603.055 264.816 599.652 264.816 M599.652 261.205 Q605.207 261.205 608.379 264.816 Q611.55 268.427 611.55 274.816 Q611.55 281.182 608.379 284.816 Q605.207 288.427 599.652 288.427 Q594.073 288.427 590.902 284.816 Q587.754 281.182 587.754 274.816 Q587.754 268.427 590.902 264.816 Q594.073 261.205 599.652 261.205 Z" fill="#000000" fill-rule="nonzero" fill-opacity="1"></path><path clip-path="url(#clip440)" d="M618.17 277.524 L618.17 261.83 L622.43 261.83 L622.43 277.362 Q622.43 281.043 623.865 282.895 Q625.3 284.723 628.17 284.723 Q631.619 284.723 633.61 282.524 Q635.624 280.325 635.624 276.529 L635.624 261.83 L639.883 261.83 L639.883 287.756 L635.624 287.756 L635.624 283.774 Q634.073 286.135 632.013 287.293 Q629.976 288.427 627.268 288.427 Q622.8 288.427 620.485 285.649 Q618.17 282.871 618.17 277.524 M628.888 261.205 L628.888 261.205 Z" fill="#000000" fill-rule="nonzero" fill-opacity="1"></path><path clip-path="url(#clip440)" d="M652.869 254.469 L652.869 261.83 L661.642 261.83 L661.642 265.14 L652.869 265.14 L652.869 279.214 Q652.869 282.385 653.726 283.288 Q654.605 284.191 657.267 284.191 L661.642 284.191 L661.642 287.756 L657.267 287.756 Q652.337 287.756 650.462 285.927 Q648.587 284.075 648.587 279.214 L648.587 265.14 L645.462 265.14 L645.462 261.83 L648.587 261.83 L648.587 254.469 L652.869 254.469 Z" fill="#000000" fill-rule="nonzero" fill-opacity="1"></path><path clip-path="url(#clip440)" d="M671.365 283.867 L671.365 297.617 L667.082 297.617 L667.082 261.83 L671.365 261.83 L671.365 265.765 Q672.707 263.45 674.744 262.339 Q676.804 261.205 679.652 261.205 Q684.374 261.205 687.314 264.955 Q690.276 268.705 690.276 274.816 Q690.276 280.927 687.314 284.677 Q684.374 288.427 679.652 288.427 Q676.804 288.427 674.744 287.316 Q672.707 286.182 671.365 283.867 M685.855 274.816 Q685.855 270.117 683.911 267.455 Q681.989 264.77 678.61 264.77 Q675.23 264.77 673.286 267.455 Q671.365 270.117 671.365 274.816 Q671.365 279.515 673.286 282.2 Q675.23 284.862 678.61 284.862 Q681.989 284.862 683.911 282.2 Q685.855 279.515 685.855 274.816 Z" fill="#000000" fill-rule="nonzero" fill-opacity="1"></path><path clip-path="url(#clip440)" d="M696.897 277.524 L696.897 261.83 L701.156 261.83 L701.156 277.362 Q701.156 281.043 702.591 282.895 Q704.026 284.723 706.897 284.723 Q710.346 284.723 712.337 282.524 Q714.35 280.325 714.35 276.529 L714.35 261.83 L718.61 261.83 L718.61 287.756 L714.35 287.756 L714.35 283.774 Q712.799 286.135 710.739 287.293 Q708.702 288.427 705.994 288.427 Q701.526 288.427 699.212 285.649 Q696.897 282.871 696.897 277.524 M707.614 261.205 L707.614 261.205 Z" fill="#000000" fill-rule="nonzero" fill-opacity="1"></path><path clip-path="url(#clip440)" d="M731.596 254.469 L731.596 261.83 L740.369 261.83 L740.369 265.14 L731.596 265.14 L731.596 279.214 Q731.596 282.385 732.452 283.288 Q733.332 284.191 735.994 284.191 L740.369 284.191 L740.369 287.756 L735.994 287.756 Q731.063 287.756 729.188 285.927 Q727.313 284.075 727.313 279.214 L727.313 265.14 L724.188 265.14 L724.188 261.83 L727.313 261.83 L727.313 254.469 L731.596 254.469 Z" fill="#000000" fill-rule="nonzero" fill-opacity="1"></path><polyline clip-path="url(#clip440)" style="stroke:#3da44d; stroke-linecap:round; stroke-linejoin:round; stroke-width:8; stroke-opacity:1; fill:none" points="307.583,322.316 450.27,322.316 "></polyline>
<path clip-path="url(#clip440)" d="M494.398 318.647 Q495.995 315.776 498.217 314.411 Q500.44 313.045 503.449 313.045 Q507.5 313.045 509.699 315.892 Q511.898 318.716 511.898 323.948 L511.898 339.596 L507.615 339.596 L507.615 324.087 Q507.615 320.36 506.296 318.554 Q504.977 316.749 502.268 316.749 Q498.958 316.749 497.037 318.948 Q495.115 321.147 495.115 324.943 L495.115 339.596 L490.833 339.596 L490.833 324.087 Q490.833 320.337 489.514 318.554 Q488.194 316.749 485.44 316.749 Q482.176 316.749 480.254 318.971 Q478.333 321.17 478.333 324.943 L478.333 339.596 L474.051 339.596 L474.051 313.67 L478.333 313.67 L478.333 317.698 Q479.791 315.313 481.828 314.179 Q483.866 313.045 486.666 313.045 Q489.49 313.045 491.458 314.48 Q493.449 315.915 494.398 318.647 Z" fill="#000000" fill-rule="nonzero" fill-opacity="1"></path><path clip-path="url(#clip440)" d="M542.569 325.568 L542.569 327.651 L522.986 327.651 Q523.263 332.049 525.625 334.364 Q528.009 336.656 532.245 336.656 Q534.699 336.656 536.99 336.054 Q539.305 335.452 541.574 334.249 L541.574 338.276 Q539.282 339.248 536.874 339.758 Q534.467 340.267 531.99 340.267 Q525.787 340.267 522.152 336.656 Q518.541 333.045 518.541 326.887 Q518.541 320.522 521.967 316.795 Q525.416 313.045 531.25 313.045 Q536.481 313.045 539.513 316.425 Q542.569 319.781 542.569 325.568 M538.31 324.318 Q538.263 320.823 536.342 318.739 Q534.444 316.656 531.296 316.656 Q527.731 316.656 525.578 318.67 Q523.449 320.684 523.125 324.341 L538.31 324.318 Z" fill="#000000" fill-rule="nonzero" fill-opacity="1"></path><path clip-path="url(#clip440)" d="M561.342 326.563 Q556.18 326.563 554.189 327.744 Q552.198 328.924 552.198 331.772 Q552.198 334.04 553.68 335.383 Q555.185 336.702 557.754 336.702 Q561.296 336.702 563.425 334.202 Q565.578 331.679 565.578 327.512 L565.578 326.563 L561.342 326.563 M569.837 324.804 L569.837 339.596 L565.578 339.596 L565.578 335.661 Q564.12 338.022 561.944 339.156 Q559.768 340.267 556.62 340.267 Q552.638 340.267 550.277 338.045 Q547.939 335.799 547.939 332.049 Q547.939 327.674 550.856 325.452 Q553.796 323.23 559.606 323.23 L565.578 323.23 L565.578 322.813 Q565.578 319.874 563.634 318.276 Q561.712 316.656 558.217 316.656 Q555.995 316.656 553.888 317.188 Q551.782 317.721 549.837 318.786 L549.837 314.85 Q552.175 313.948 554.374 313.508 Q556.573 313.045 558.657 313.045 Q564.282 313.045 567.06 315.962 Q569.837 318.878 569.837 324.804 Z" fill="#000000" fill-rule="nonzero" fill-opacity="1"></path><path clip-path="url(#clip440)" d="M600.161 323.948 L600.161 339.596 L595.902 339.596 L595.902 324.087 Q595.902 320.406 594.467 318.577 Q593.032 316.749 590.161 316.749 Q586.712 316.749 584.721 318.948 Q582.731 321.147 582.731 324.943 L582.731 339.596 L578.448 339.596 L578.448 313.67 L582.731 313.67 L582.731 317.698 Q584.258 315.36 586.319 314.202 Q588.402 313.045 591.11 313.045 Q595.578 313.045 597.87 315.823 Q600.161 318.577 600.161 323.948 Z" fill="#000000" fill-rule="nonzero" fill-opacity="1"></path><path clip-path="url(#clip440)" d="M627.846 335.707 L627.846 349.457 L623.564 349.457 L623.564 313.67 L627.846 313.67 L627.846 317.605 Q629.189 315.29 631.226 314.179 Q633.286 313.045 636.133 313.045 Q640.855 313.045 643.795 316.795 Q646.758 320.545 646.758 326.656 Q646.758 332.767 643.795 336.517 Q640.855 340.267 636.133 340.267 Q633.286 340.267 631.226 339.156 Q629.189 338.022 627.846 335.707 M642.337 326.656 Q642.337 321.957 640.392 319.295 Q638.471 316.61 635.092 316.61 Q631.712 316.61 629.768 319.295 Q627.846 321.957 627.846 326.656 Q627.846 331.355 629.768 334.04 Q631.712 336.702 635.092 336.702 Q638.471 336.702 640.392 334.04 Q642.337 331.355 642.337 326.656 Z" fill="#000000" fill-rule="nonzero" fill-opacity="1"></path><path clip-path="url(#clip440)" d="M668.841 317.651 Q668.124 317.235 667.267 317.05 Q666.434 316.841 665.415 316.841 Q661.804 316.841 659.86 319.202 Q657.939 321.54 657.939 325.938 L657.939 339.596 L653.656 339.596 L653.656 313.67 L657.939 313.67 L657.939 317.698 Q659.281 315.337 661.434 314.202 Q663.587 313.045 666.665 313.045 Q667.105 313.045 667.638 313.114 Q668.17 313.161 668.818 313.276 L668.841 317.651 Z" fill="#000000" fill-rule="nonzero" fill-opacity="1"></path><path clip-path="url(#clip440)" d="M694.443 325.568 L694.443 327.651 L674.86 327.651 Q675.138 332.049 677.499 334.364 Q679.883 336.656 684.119 336.656 Q686.573 336.656 688.864 336.054 Q691.179 335.452 693.448 334.249 L693.448 338.276 Q691.156 339.248 688.749 339.758 Q686.341 340.267 683.864 340.267 Q677.661 340.267 674.027 336.656 Q670.415 333.045 670.415 326.887 Q670.415 320.522 673.841 316.795 Q677.29 313.045 683.124 313.045 Q688.355 313.045 691.388 316.425 Q694.443 319.781 694.443 325.568 M690.184 324.318 Q690.138 320.823 688.216 318.739 Q686.318 316.656 683.17 316.656 Q679.605 316.656 677.452 318.67 Q675.323 320.684 674.999 324.341 L690.184 324.318 Z" fill="#000000" fill-rule="nonzero" fill-opacity="1"></path><path clip-path="url(#clip440)" d="M718.494 317.605 L718.494 303.577 L722.753 303.577 L722.753 339.596 L718.494 339.596 L718.494 335.707 Q717.151 338.022 715.091 339.156 Q713.054 340.267 710.184 340.267 Q705.485 340.267 702.522 336.517 Q699.582 332.767 699.582 326.656 Q699.582 320.545 702.522 316.795 Q705.485 313.045 710.184 313.045 Q713.054 313.045 715.091 314.179 Q717.151 315.29 718.494 317.605 M703.98 326.656 Q703.98 331.355 705.901 334.04 Q707.846 336.702 711.225 336.702 Q714.605 336.702 716.549 334.04 Q718.494 331.355 718.494 326.656 Q718.494 321.957 716.549 319.295 Q714.605 316.61 711.225 316.61 Q707.846 316.61 705.901 319.295 Q703.98 321.957 703.98 326.656 Z" fill="#000000" fill-rule="nonzero" fill-opacity="1"></path><path clip-path="url(#clip440)" d="M731.526 313.67 L735.785 313.67 L735.785 339.596 L731.526 339.596 L731.526 313.67 M731.526 303.577 L735.785 303.577 L735.785 308.971 L731.526 308.971 L731.526 303.577 Z" fill="#000000" fill-rule="nonzero" fill-opacity="1"></path><path clip-path="url(#clip440)" d="M763.355 314.665 L763.355 318.647 Q761.549 317.651 759.721 317.165 Q757.915 316.656 756.063 316.656 Q751.92 316.656 749.628 319.295 Q747.336 321.911 747.336 326.656 Q747.336 331.401 749.628 334.04 Q751.92 336.656 756.063 336.656 Q757.915 336.656 759.721 336.17 Q761.549 335.661 763.355 334.665 L763.355 338.6 Q761.572 339.434 759.651 339.85 Q757.753 340.267 755.6 340.267 Q749.744 340.267 746.295 336.586 Q742.846 332.906 742.846 326.656 Q742.846 320.313 746.318 316.679 Q749.813 313.045 755.878 313.045 Q757.846 313.045 759.721 313.462 Q761.596 313.855 763.355 314.665 Z" fill="#000000" fill-rule="nonzero" fill-opacity="1"></path><path clip-path="url(#clip440)" d="M774.975 306.309 L774.975 313.67 L783.748 313.67 L783.748 316.98 L774.975 316.98 L774.975 331.054 Q774.975 334.225 775.832 335.128 Q776.711 336.031 779.373 336.031 L783.748 336.031 L783.748 339.596 L779.373 339.596 Q774.443 339.596 772.568 337.767 Q770.693 335.915 770.693 331.054 L770.693 316.98 L767.568 316.98 L767.568 313.67 L770.693 313.67 L770.693 306.309 L774.975 306.309 Z" fill="#000000" fill-rule="nonzero" fill-opacity="1"></path><path clip-path="url(#clip440)" d="M789.35 313.67 L793.609 313.67 L793.609 339.596 L789.35 339.596 L789.35 313.67 M789.35 303.577 L793.609 303.577 L793.609 308.971 L789.35 308.971 L789.35 303.577 Z" fill="#000000" fill-rule="nonzero" fill-opacity="1"></path><path clip-path="url(#clip440)" d="M812.567 316.656 Q809.142 316.656 807.151 319.341 Q805.16 322.003 805.16 326.656 Q805.16 331.309 807.128 333.994 Q809.118 336.656 812.567 336.656 Q815.97 336.656 817.961 333.971 Q819.952 331.286 819.952 326.656 Q819.952 322.05 817.961 319.364 Q815.97 316.656 812.567 316.656 M812.567 313.045 Q818.123 313.045 821.294 316.656 Q824.466 320.267 824.466 326.656 Q824.466 333.022 821.294 336.656 Q818.123 340.267 812.567 340.267 Q806.989 340.267 803.818 336.656 Q800.669 333.022 800.669 326.656 Q800.669 320.267 803.818 316.656 Q806.989 313.045 812.567 313.045 Z" fill="#000000" fill-rule="nonzero" fill-opacity="1"></path><path clip-path="url(#clip440)" d="M853.077 323.948 L853.077 339.596 L848.817 339.596 L848.817 324.087 Q848.817 320.406 847.382 318.577 Q845.947 316.749 843.077 316.749 Q839.627 316.749 837.637 318.948 Q835.646 321.147 835.646 324.943 L835.646 339.596 L831.364 339.596 L831.364 313.67 L835.646 313.67 L835.646 317.698 Q837.174 315.36 839.234 314.202 Q841.317 313.045 844.026 313.045 Q848.493 313.045 850.785 315.823 Q853.077 318.577 853.077 323.948 Z" fill="#000000" fill-rule="nonzero" fill-opacity="1"></path><path clip-path="url(#clip440)" d="M307.583 394.892 L450.27 394.892 L450.27 353.42 L307.583 353.42 L307.583 394.892  Z" fill="#ff0000" fill-rule="evenodd" fill-opacity="0.35"></path>
<polyline clip-path="url(#clip440)" style="stroke:#c271d2; stroke-linecap:round; stroke-linejoin:round; stroke-width:4; stroke-opacity:0.35; fill:none" points="307.583,353.42 450.27,353.42 "></polyline>
<path clip-path="url(#clip440)" d="M494.56 366.505 L494.56 370.487 Q492.754 369.491 490.926 369.005 Q489.12 368.496 487.268 368.496 Q483.125 368.496 480.833 371.135 Q478.541 373.751 478.541 378.496 Q478.541 383.241 480.833 385.88 Q483.125 388.496 487.268 388.496 Q489.12 388.496 490.926 388.01 Q492.754 387.501 494.56 386.505 L494.56 390.44 Q492.778 391.274 490.856 391.69 Q488.958 392.107 486.805 392.107 Q480.949 392.107 477.5 388.426 Q474.051 384.746 474.051 378.496 Q474.051 372.153 477.523 368.519 Q481.018 364.885 487.083 364.885 Q489.051 364.885 490.926 365.302 Q492.801 365.695 494.56 366.505 Z" fill="#000000" fill-rule="nonzero" fill-opacity="1"></path><path clip-path="url(#clip440)" d="M512.014 368.496 Q508.588 368.496 506.597 371.181 Q504.606 373.843 504.606 378.496 Q504.606 383.149 506.574 385.834 Q508.564 388.496 512.014 388.496 Q515.416 388.496 517.407 385.811 Q519.398 383.126 519.398 378.496 Q519.398 373.89 517.407 371.204 Q515.416 368.496 512.014 368.496 M512.014 364.885 Q517.569 364.885 520.74 368.496 Q523.912 372.107 523.912 378.496 Q523.912 384.862 520.74 388.496 Q517.569 392.107 512.014 392.107 Q506.435 392.107 503.264 388.496 Q500.115 384.862 500.115 378.496 Q500.115 372.107 503.264 368.496 Q506.435 364.885 512.014 364.885 Z" fill="#000000" fill-rule="nonzero" fill-opacity="1"></path><path clip-path="url(#clip440)" d="M552.523 375.788 L552.523 391.436 L548.263 391.436 L548.263 375.927 Q548.263 372.246 546.828 370.417 Q545.393 368.589 542.523 368.589 Q539.074 368.589 537.083 370.788 Q535.092 372.987 535.092 376.783 L535.092 391.436 L530.81 391.436 L530.81 365.51 L535.092 365.51 L535.092 369.538 Q536.62 367.2 538.68 366.042 Q540.763 364.885 543.472 364.885 Q547.939 364.885 550.231 367.663 Q552.523 370.417 552.523 375.788 Z" fill="#000000" fill-rule="nonzero" fill-opacity="1"></path><path clip-path="url(#clip440)" d="M577.546 366.274 L577.546 370.302 Q575.74 369.376 573.796 368.913 Q571.851 368.45 569.768 368.45 Q566.597 368.45 564.999 369.422 Q563.425 370.394 563.425 372.339 Q563.425 373.82 564.56 374.677 Q565.694 375.51 569.12 376.274 L570.578 376.598 Q575.115 377.57 577.013 379.352 Q578.934 381.112 578.934 384.283 Q578.934 387.894 576.064 390.001 Q573.217 392.107 568.217 392.107 Q566.134 392.107 563.865 391.69 Q561.62 391.297 559.12 390.487 L559.12 386.089 Q561.481 387.315 563.772 387.94 Q566.064 388.542 568.31 388.542 Q571.319 388.542 572.939 387.524 Q574.559 386.482 574.559 384.607 Q574.559 382.871 573.379 381.945 Q572.222 381.019 568.263 380.163 L566.782 379.815 Q562.823 378.982 561.064 377.269 Q559.305 375.533 559.305 372.524 Q559.305 368.866 561.898 366.876 Q564.49 364.885 569.259 364.885 Q571.62 364.885 573.703 365.232 Q575.786 365.579 577.546 366.274 Z" fill="#000000" fill-rule="nonzero" fill-opacity="1"></path><path clip-path="url(#clip440)" d="M589.93 358.149 L589.93 365.51 L598.703 365.51 L598.703 368.82 L589.93 368.82 L589.93 382.894 Q589.93 386.065 590.786 386.968 Q591.666 387.871 594.328 387.871 L598.703 387.871 L598.703 391.436 L594.328 391.436 Q589.397 391.436 587.522 389.607 Q585.647 387.755 585.647 382.894 L585.647 368.82 L582.522 368.82 L582.522 365.51 L585.647 365.51 L585.647 358.149 L589.93 358.149 Z" fill="#000000" fill-rule="nonzero" fill-opacity="1"></path><path clip-path="url(#clip440)" d="M619.328 369.491 Q618.61 369.075 617.754 368.89 Q616.92 368.681 615.902 368.681 Q612.291 368.681 610.346 371.042 Q608.425 373.38 608.425 377.778 L608.425 391.436 L604.143 391.436 L604.143 365.51 L608.425 365.51 L608.425 369.538 Q609.768 367.177 611.92 366.042 Q614.073 364.885 617.152 364.885 Q617.592 364.885 618.124 364.954 Q618.656 365.001 619.305 365.116 L619.328 369.491 Z" fill="#000000" fill-rule="nonzero" fill-opacity="1"></path><path clip-path="url(#clip440)" d="M635.578 378.403 Q630.416 378.403 628.425 379.584 Q626.434 380.764 626.434 383.612 Q626.434 385.88 627.916 387.223 Q629.42 388.542 631.99 388.542 Q635.531 388.542 637.661 386.042 Q639.814 383.519 639.814 379.352 L639.814 378.403 L635.578 378.403 M644.073 376.644 L644.073 391.436 L639.814 391.436 L639.814 387.501 Q638.355 389.862 636.18 390.996 Q634.004 392.107 630.855 392.107 Q626.874 392.107 624.513 389.885 Q622.175 387.639 622.175 383.889 Q622.175 379.514 625.092 377.292 Q628.031 375.07 633.842 375.07 L639.814 375.07 L639.814 374.653 Q639.814 371.714 637.869 370.116 Q635.948 368.496 632.453 368.496 Q630.23 368.496 628.124 369.028 Q626.018 369.561 624.073 370.626 L624.073 366.69 Q626.411 365.788 628.61 365.348 Q630.809 364.885 632.892 364.885 Q638.517 364.885 641.295 367.802 Q644.073 370.718 644.073 376.644 Z" fill="#000000" fill-rule="nonzero" fill-opacity="1"></path><path clip-path="url(#clip440)" d="M652.846 365.51 L657.105 365.51 L657.105 391.436 L652.846 391.436 L652.846 365.51 M652.846 355.417 L657.105 355.417 L657.105 360.811 L652.846 360.811 L652.846 355.417 Z" fill="#000000" fill-rule="nonzero" fill-opacity="1"></path><path clip-path="url(#clip440)" d="M687.568 375.788 L687.568 391.436 L683.309 391.436 L683.309 375.927 Q683.309 372.246 681.874 370.417 Q680.439 368.589 677.568 368.589 Q674.119 368.589 672.128 370.788 Q670.138 372.987 670.138 376.783 L670.138 391.436 L665.855 391.436 L665.855 365.51 L670.138 365.51 L670.138 369.538 Q671.665 367.2 673.726 366.042 Q675.809 364.885 678.517 364.885 Q682.985 364.885 685.276 367.663 Q687.568 370.417 687.568 375.788 Z" fill="#000000" fill-rule="nonzero" fill-opacity="1"></path><path clip-path="url(#clip440)" d="M700.276 358.149 L700.276 365.51 L709.049 365.51 L709.049 368.82 L700.276 368.82 L700.276 382.894 Q700.276 386.065 701.133 386.968 Q702.012 387.871 704.675 387.871 L709.049 387.871 L709.049 391.436 L704.675 391.436 Q699.744 391.436 697.869 389.607 Q695.994 387.755 695.994 382.894 L695.994 368.82 L692.869 368.82 L692.869 365.51 L695.994 365.51 L695.994 358.149 L700.276 358.149 Z" fill="#000000" fill-rule="nonzero" fill-opacity="1"></path><path clip-path="url(#clip440)" d="M731.179 366.274 L731.179 370.302 Q729.373 369.376 727.429 368.913 Q725.485 368.45 723.401 368.45 Q720.23 368.45 718.633 369.422 Q717.059 370.394 717.059 372.339 Q717.059 373.82 718.193 374.677 Q719.327 375.51 722.753 376.274 L724.211 376.598 Q728.748 377.57 730.647 379.352 Q732.568 381.112 732.568 384.283 Q732.568 387.894 729.698 390.001 Q726.85 392.107 721.85 392.107 Q719.767 392.107 717.499 391.69 Q715.253 391.297 712.753 390.487 L712.753 386.089 Q715.114 387.315 717.406 387.94 Q719.698 388.542 721.943 388.542 Q724.952 388.542 726.573 387.524 Q728.193 386.482 728.193 384.607 Q728.193 382.871 727.012 381.945 Q725.855 381.019 721.897 380.163 L720.415 379.815 Q716.457 378.982 714.698 377.269 Q712.938 375.533 712.938 372.524 Q712.938 368.866 715.531 366.876 Q718.124 364.885 722.892 364.885 Q725.253 364.885 727.336 365.232 Q729.42 365.579 731.179 366.274 Z" fill="#000000" fill-rule="nonzero" fill-opacity="1"></path><path clip-path="url(#clip440)" d="M307.583 446.732 L450.27 446.732 L450.27 405.26 L307.583 405.26 L307.583 446.732  Z" fill="#ff0000" fill-rule="evenodd" fill-opacity="0.35"></path>
<polyline clip-path="url(#clip440)" style="stroke:#ac8d18; stroke-linecap:round; stroke-linejoin:round; stroke-width:4; stroke-opacity:0.35; fill:none" points="307.583,405.26 450.27,405.26 "></polyline>
<path clip-path="url(#clip440)" d="M494.56 418.345 L494.56 422.327 Q492.754 421.331 490.926 420.845 Q489.12 420.336 487.268 420.336 Q483.125 420.336 480.833 422.975 Q478.541 425.591 478.541 430.336 Q478.541 435.081 480.833 437.72 Q483.125 440.336 487.268 440.336 Q489.12 440.336 490.926 439.85 Q492.754 439.341 494.56 438.345 L494.56 442.28 Q492.778 443.114 490.856 443.53 Q488.958 443.947 486.805 443.947 Q480.949 443.947 477.5 440.266 Q474.051 436.586 474.051 430.336 Q474.051 423.993 477.523 420.359 Q481.018 416.725 487.083 416.725 Q489.051 416.725 490.926 417.142 Q492.801 417.535 494.56 418.345 Z" fill="#000000" fill-rule="nonzero" fill-opacity="1"></path><path clip-path="url(#clip440)" d="M512.014 420.336 Q508.588 420.336 506.597 423.021 Q504.606 425.683 504.606 430.336 Q504.606 434.989 506.574 437.674 Q508.564 440.336 512.014 440.336 Q515.416 440.336 517.407 437.651 Q519.398 434.966 519.398 430.336 Q519.398 425.73 517.407 423.044 Q515.416 420.336 512.014 420.336 M512.014 416.725 Q517.569 416.725 520.74 420.336 Q523.912 423.947 523.912 430.336 Q523.912 436.702 520.74 440.336 Q517.569 443.947 512.014 443.947 Q506.435 443.947 503.264 440.336 Q500.115 436.702 500.115 430.336 Q500.115 423.947 503.264 420.336 Q506.435 416.725 512.014 416.725 Z" fill="#000000" fill-rule="nonzero" fill-opacity="1"></path><path clip-path="url(#clip440)" d="M552.523 427.628 L552.523 443.276 L548.263 443.276 L548.263 427.767 Q548.263 424.086 546.828 422.257 Q545.393 420.429 542.523 420.429 Q539.074 420.429 537.083 422.628 Q535.092 424.827 535.092 428.623 L535.092 443.276 L530.81 443.276 L530.81 417.35 L535.092 417.35 L535.092 421.378 Q536.62 419.04 538.68 417.882 Q540.763 416.725 543.472 416.725 Q547.939 416.725 550.231 419.503 Q552.523 422.257 552.523 427.628 Z" fill="#000000" fill-rule="nonzero" fill-opacity="1"></path><path clip-path="url(#clip440)" d="M577.546 418.114 L577.546 422.142 Q575.74 421.216 573.796 420.753 Q571.851 420.29 569.768 420.29 Q566.597 420.29 564.999 421.262 Q563.425 422.234 563.425 424.179 Q563.425 425.66 564.56 426.517 Q565.694 427.35 569.12 428.114 L570.578 428.438 Q575.115 429.41 577.013 431.192 Q578.934 432.952 578.934 436.123 Q578.934 439.734 576.064 441.841 Q573.217 443.947 568.217 443.947 Q566.134 443.947 563.865 443.53 Q561.62 443.137 559.12 442.327 L559.12 437.929 Q561.481 439.155 563.772 439.78 Q566.064 440.382 568.31 440.382 Q571.319 440.382 572.939 439.364 Q574.559 438.322 574.559 436.447 Q574.559 434.711 573.379 433.785 Q572.222 432.859 568.263 432.003 L566.782 431.655 Q562.823 430.822 561.064 429.109 Q559.305 427.373 559.305 424.364 Q559.305 420.706 561.898 418.716 Q564.49 416.725 569.259 416.725 Q571.62 416.725 573.703 417.072 Q575.786 417.419 577.546 418.114 Z" fill="#000000" fill-rule="nonzero" fill-opacity="1"></path><path clip-path="url(#clip440)" d="M589.93 409.989 L589.93 417.35 L598.703 417.35 L598.703 420.66 L589.93 420.66 L589.93 434.734 Q589.93 437.905 590.786 438.808 Q591.666 439.711 594.328 439.711 L598.703 439.711 L598.703 443.276 L594.328 443.276 Q589.397 443.276 587.522 441.447 Q585.647 439.595 585.647 434.734 L585.647 420.66 L582.522 420.66 L582.522 417.35 L585.647 417.35 L585.647 409.989 L589.93 409.989 Z" fill="#000000" fill-rule="nonzero" fill-opacity="1"></path><path clip-path="url(#clip440)" d="M619.328 421.331 Q618.61 420.915 617.754 420.73 Q616.92 420.521 615.902 420.521 Q612.291 420.521 610.346 422.882 Q608.425 425.22 608.425 429.618 L608.425 443.276 L604.143 443.276 L604.143 417.35 L608.425 417.35 L608.425 421.378 Q609.768 419.017 611.92 417.882 Q614.073 416.725 617.152 416.725 Q617.592 416.725 618.124 416.794 Q618.656 416.841 619.305 416.956 L619.328 421.331 Z" fill="#000000" fill-rule="nonzero" fill-opacity="1"></path><path clip-path="url(#clip440)" d="M635.578 430.243 Q630.416 430.243 628.425 431.424 Q626.434 432.604 626.434 435.452 Q626.434 437.72 627.916 439.063 Q629.42 440.382 631.99 440.382 Q635.531 440.382 637.661 437.882 Q639.814 435.359 639.814 431.192 L639.814 430.243 L635.578 430.243 M644.073 428.484 L644.073 443.276 L639.814 443.276 L639.814 439.341 Q638.355 441.702 636.18 442.836 Q634.004 443.947 630.855 443.947 Q626.874 443.947 624.513 441.725 Q622.175 439.479 622.175 435.729 Q622.175 431.354 625.092 429.132 Q628.031 426.91 633.842 426.91 L639.814 426.91 L639.814 426.493 Q639.814 423.554 637.869 421.956 Q635.948 420.336 632.453 420.336 Q630.23 420.336 628.124 420.868 Q626.018 421.401 624.073 422.466 L624.073 418.53 Q626.411 417.628 628.61 417.188 Q630.809 416.725 632.892 416.725 Q638.517 416.725 641.295 419.642 Q644.073 422.558 644.073 428.484 Z" fill="#000000" fill-rule="nonzero" fill-opacity="1"></path><path clip-path="url(#clip440)" d="M652.846 417.35 L657.105 417.35 L657.105 443.276 L652.846 443.276 L652.846 417.35 M652.846 407.257 L657.105 407.257 L657.105 412.651 L652.846 412.651 L652.846 407.257 Z" fill="#000000" fill-rule="nonzero" fill-opacity="1"></path><path clip-path="url(#clip440)" d="M687.568 427.628 L687.568 443.276 L683.309 443.276 L683.309 427.767 Q683.309 424.086 681.874 422.257 Q680.439 420.429 677.568 420.429 Q674.119 420.429 672.128 422.628 Q670.138 424.827 670.138 428.623 L670.138 443.276 L665.855 443.276 L665.855 417.35 L670.138 417.35 L670.138 421.378 Q671.665 419.04 673.726 417.882 Q675.809 416.725 678.517 416.725 Q682.985 416.725 685.276 419.503 Q687.568 422.257 687.568 427.628 Z" fill="#000000" fill-rule="nonzero" fill-opacity="1"></path><path clip-path="url(#clip440)" d="M700.276 409.989 L700.276 417.35 L709.049 417.35 L709.049 420.66 L700.276 420.66 L700.276 434.734 Q700.276 437.905 701.133 438.808 Q702.012 439.711 704.675 439.711 L709.049 439.711 L709.049 443.276 L704.675 443.276 Q699.744 443.276 697.869 441.447 Q695.994 439.595 695.994 434.734 L695.994 420.66 L692.869 420.66 L692.869 417.35 L695.994 417.35 L695.994 409.989 L700.276 409.989 Z" fill="#000000" fill-rule="nonzero" fill-opacity="1"></path><path clip-path="url(#clip440)" d="M731.179 418.114 L731.179 422.142 Q729.373 421.216 727.429 420.753 Q725.485 420.29 723.401 420.29 Q720.23 420.29 718.633 421.262 Q717.059 422.234 717.059 424.179 Q717.059 425.66 718.193 426.517 Q719.327 427.35 722.753 428.114 L724.211 428.438 Q728.748 429.41 730.647 431.192 Q732.568 432.952 732.568 436.123 Q732.568 439.734 729.698 441.841 Q726.85 443.947 721.85 443.947 Q719.767 443.947 717.499 443.53 Q715.253 443.137 712.753 442.327 L712.753 437.929 Q715.114 439.155 717.406 439.78 Q719.698 440.382 721.943 440.382 Q724.952 440.382 726.573 439.364 Q728.193 438.322 728.193 436.447 Q728.193 434.711 727.012 433.785 Q725.855 432.859 721.897 432.003 L720.415 431.655 Q716.457 430.822 714.698 429.109 Q712.938 427.373 712.938 424.364 Q712.938 420.706 715.531 418.716 Q718.124 416.725 722.892 416.725 Q725.253 416.725 727.336 417.072 Q729.42 417.419 731.179 418.114 Z" fill="#000000" fill-rule="nonzero" fill-opacity="1"></path></svg>