<?xml version="1.0" encoding="UTF-8" standalone="no"?>
<svg
   width="284"
   height="170"
   overflow="hidden"
   version="1.1"
   id="svg27"
   sodipodi:docname="PGopt_logo.svg"
   inkscape:version="1.2.2 (732a01da63, 2022-12-09)"
   xmlns:inkscape="http://www.inkscape.org/namespaces/inkscape"
   xmlns:sodipodi="http://sodipodi.sourceforge.net/DTD/sodipodi-0.dtd"
   xmlns="http://www.w3.org/2000/svg"
   xmlns:svg="http://www.w3.org/2000/svg">
  <sodipodi:namedview
     id="namedview29"
     pagecolor="#ffffff"
     bordercolor="#000000"
     borderopacity="0.25"
     inkscape:showpageshadow="2"
     inkscape:pageopacity="0.0"
     inkscape:pagecheckerboard="0"
     inkscape:deskcolor="#d1d1d1"
     showgrid="false"
     inkscape:zoom="6.0411765"
     inkscape:cx="142.02532"
     inkscape:cy="84.917235"
     inkscape:window-width="3840"
     inkscape:window-height="2036"
     inkscape:window-x="2548"
     inkscape:window-y="-12"
     inkscape:window-maximized="1"
     inkscape:current-layer="svg27" />
  <defs
     id="defs5">
    <clipPath
       id="clip0">
      <rect
         x="0"
         y="0"
         width="284"
         height="170"
         id="rect2" />
    </clipPath>
  </defs>
  <g
     clip-path="url(#clip0)"
     id="g25">
    <path
       d="M264.079 134.02 171.37 141.595 257.7 107.021Z"
       fill="#D1D1D1"
       fill-rule="evenodd"
       id="path9" />
    <path
       d="M0 26.9524 0 0 81.8556 26.9524Z"
       fill="#D1D1D1"
       fill-rule="evenodd"
       transform="matrix(-1.00176 0 0 1 266 103.817)"
       id="path11" />
    <text
       fill="#0063BD"
       font-family="Aptos Narrow,Aptos Narrow_MSFontService,sans-serif"
       font-style="italic"
       font-weight="700"
       font-stretch="semi-condensed"
       font-size="107"
       transform="matrix(1 0 0 0.998239 7.45386 97)"
       id="text13">PG</text>
    <text
       fill="#0063BD"
       font-family="Aptos Narrow,Aptos Narrow_MSFontService,sans-serif"
       font-style="italic"
       font-weight="400"
       font-stretch="semi-condensed"
       font-size="107"
       transform="matrix(1 0 0 0.998239 134.344 97)"
       id="text15">opt</text>
    <path
       d="M168 139.753C182.467 128.466 196.933 117.178 213.267 111.189 229.6 105.199 248.811 105.583 266 103.817"
       stroke="#4E95D9"
       stroke-width="4.00705"
       stroke-miterlimit="8"
       fill="#D1D1D1"
       fill-rule="evenodd"
       id="path17" />
    <path
       d="M169 140.219C177.237 147.15 185.473 154.08 201.64 152.505 217.806 150.93 248.378 138.881 266 130.769"
       stroke="#215F9A"
       stroke-width="4.00705"
       stroke-miterlimit="8"
       fill="#D1D1D1"
       fill-rule="evenodd"
       id="path19" />
    <path
       d="M12 115.775C17.614 107.656 57.6957 99.3406 76.5086 104.323 95.3215 109.306 109.463 139.621 124.878 145.67 140.293 151.719 147.279 148.186 169 140.617"
       stroke="#0063BD"
       stroke-width="6.01058"
       stroke-miterlimit="8"
       fill="none"
       fill-rule="evenodd"
       id="path21" />
    <path
       d="M169 140.752C182.759 135.241 194.738 126.298 205.769 124.281 216.801 122.264 224.738 126.888 235.19 128.65 245.641 130.412 247.495 124.572 266 124.871"
       stroke="#0B76A0"
       stroke-width="4.00705"
       stroke-miterlimit="8"
       fill="#D1D1D1"
       fill-rule="evenodd"
       id="path23" />
  </g>
</svg>
