<svg xmlns="http://www.w3.org/2000/svg" xmlns:xlink="http://www.w3.org/1999/xlink" width="600" height="400" viewBox="0 0 2400 1600">
<defs>
  <clipPath id="clip480">
    <rect x="0" y="0" width="2400" height="1600"></rect>
  </clipPath>
</defs>
<path clip-path="url(#clip480)" d="M0 1600 L2400 1600 L2400 0 L0 0  Z" fill="#ffffff" fill-rule="evenodd" fill-opacity="1"></path>
<defs>
  <clipPath id="clip481">
    <rect x="480" y="0" width="1681" height="1600"></rect>
  </clipPath>
</defs>
<path clip-path="url(#clip480)" d="M219.866 1423.18 L2352.76 1423.18 L2352.76 123.472 L219.866 123.472  Z" fill="#ffffff" fill-rule="evenodd" fill-opacity="1"></path>
<defs>
  <clipPath id="clip482">
    <rect x="219" y="123" width="2134" height="1301"></rect>
  </clipPath>
</defs>
<polyline clip-path="url(#clip482)" style="stroke:#000000; stroke-linecap:round; stroke-linejoin:round; stroke-width:2; stroke-opacity:0.1; fill:none" points="280.231,1423.18 280.231,123.472 "></polyline>
<polyline clip-path="url(#clip482)" style="stroke:#000000; stroke-linecap:round; stroke-linejoin:round; stroke-width:2; stroke-opacity:0.1; fill:none" points="783.271,1423.18 783.271,123.472 "></polyline>
<polyline clip-path="url(#clip482)" style="stroke:#000000; stroke-linecap:round; stroke-linejoin:round; stroke-width:2; stroke-opacity:0.1; fill:none" points="1286.31,1423.18 1286.31,123.472 "></polyline>
<polyline clip-path="url(#clip482)" style="stroke:#000000; stroke-linecap:round; stroke-linejoin:round; stroke-width:2; stroke-opacity:0.1; fill:none" points="1789.35,1423.18 1789.35,123.472 "></polyline>
<polyline clip-path="url(#clip482)" style="stroke:#000000; stroke-linecap:round; stroke-linejoin:round; stroke-width:2; stroke-opacity:0.1; fill:none" points="2292.39,1423.18 2292.39,123.472 "></polyline>
<polyline clip-path="url(#clip480)" style="stroke:#000000; stroke-linecap:round; stroke-linejoin:round; stroke-width:4; stroke-opacity:1; fill:none" points="219.866,1423.18 2352.76,1423.18 "></polyline>
<polyline clip-path="url(#clip480)" style="stroke:#000000; stroke-linecap:round; stroke-linejoin:round; stroke-width:4; stroke-opacity:1; fill:none" points="280.231,1423.18 280.231,1404.28 "></polyline>
<polyline clip-path="url(#clip480)" style="stroke:#000000; stroke-linecap:round; stroke-linejoin:round; stroke-width:4; stroke-opacity:1; fill:none" points="783.271,1423.18 783.271,1404.28 "></polyline>
<polyline clip-path="url(#clip480)" style="stroke:#000000; stroke-linecap:round; stroke-linejoin:round; stroke-width:4; stroke-opacity:1; fill:none" points="1286.31,1423.18 1286.31,1404.28 "></polyline>
<polyline clip-path="url(#clip480)" style="stroke:#000000; stroke-linecap:round; stroke-linejoin:round; stroke-width:4; stroke-opacity:1; fill:none" points="1789.35,1423.18 1789.35,1404.28 "></polyline>
<polyline clip-path="url(#clip480)" style="stroke:#000000; stroke-linecap:round; stroke-linejoin:round; stroke-width:4; stroke-opacity:1; fill:none" points="2292.39,1423.18 2292.39,1404.28 "></polyline>
<path clip-path="url(#clip480)" d="M280.231 1454.1 Q276.62 1454.1 274.791 1457.66 Q272.986 1461.2 272.986 1468.33 Q272.986 1475.44 274.791 1479.01 Q276.62 1482.55 280.231 1482.55 Q283.865 1482.55 285.671 1479.01 Q287.5 1475.44 287.5 1468.33 Q287.5 1461.2 285.671 1457.66 Q283.865 1454.1 280.231 1454.1 M280.231 1450.39 Q286.041 1450.39 289.097 1455 Q292.175 1459.58 292.175 1468.33 Q292.175 1477.06 289.097 1481.67 Q286.041 1486.25 280.231 1486.25 Q274.421 1486.25 271.342 1481.67 Q268.287 1477.06 268.287 1468.33 Q268.287 1459.58 271.342 1455 Q274.421 1450.39 280.231 1450.39 Z" fill="#000000" fill-rule="nonzero" fill-opacity="1"></path><path clip-path="url(#clip480)" d="M762.542 1481.64 L778.861 1481.64 L778.861 1485.58 L756.917 1485.58 L756.917 1481.64 Q759.579 1478.89 764.162 1474.26 Q768.769 1469.61 769.949 1468.27 Q772.195 1465.74 773.074 1464.01 Q773.977 1462.25 773.977 1460.56 Q773.977 1457.8 772.033 1456.07 Q770.111 1454.33 767.01 1454.33 Q764.811 1454.33 762.357 1455.09 Q759.926 1455.86 757.149 1457.41 L757.149 1452.69 Q759.973 1451.55 762.426 1450.97 Q764.88 1450.39 766.917 1450.39 Q772.287 1450.39 775.482 1453.08 Q778.676 1455.77 778.676 1460.26 Q778.676 1462.39 777.866 1464.31 Q777.079 1466.2 774.973 1468.8 Q774.394 1469.47 771.292 1472.69 Q768.19 1475.88 762.542 1481.64 Z" fill="#000000" fill-rule="nonzero" fill-opacity="1"></path><path clip-path="url(#clip480)" d="M788.722 1451.02 L807.079 1451.02 L807.079 1454.96 L793.005 1454.96 L793.005 1463.43 Q794.023 1463.08 795.042 1462.92 Q796.06 1462.73 797.079 1462.73 Q802.866 1462.73 806.245 1465.9 Q809.625 1469.08 809.625 1474.49 Q809.625 1480.07 806.153 1483.17 Q802.681 1486.25 796.361 1486.25 Q794.185 1486.25 791.917 1485.88 Q789.672 1485.51 787.264 1484.77 L787.264 1480.07 Q789.347 1481.2 791.57 1481.76 Q793.792 1482.32 796.269 1482.32 Q800.273 1482.32 802.611 1480.21 Q804.949 1478.1 804.949 1474.49 Q804.949 1470.88 802.611 1468.77 Q800.273 1466.67 796.269 1466.67 Q794.394 1466.67 792.519 1467.08 Q790.667 1467.5 788.722 1468.38 L788.722 1451.02 Z" fill="#000000" fill-rule="nonzero" fill-opacity="1"></path><path clip-path="url(#clip480)" d="M1261.01 1451.02 L1279.37 1451.02 L1279.37 1454.96 L1265.29 1454.96 L1265.29 1463.43 Q1266.31 1463.08 1267.33 1462.92 Q1268.35 1462.73 1269.37 1462.73 Q1275.15 1462.73 1278.53 1465.9 Q1281.91 1469.08 1281.91 1474.49 Q1281.91 1480.07 1278.44 1483.17 Q1274.97 1486.25 1268.65 1486.25 Q1266.47 1486.25 1264.2 1485.88 Q1261.96 1485.51 1259.55 1484.77 L1259.55 1480.07 Q1261.64 1481.2 1263.86 1481.76 Q1266.08 1482.32 1268.56 1482.32 Q1272.56 1482.32 1274.9 1480.21 Q1277.24 1478.1 1277.24 1474.49 Q1277.24 1470.88 1274.9 1468.77 Q1272.56 1466.67 1268.56 1466.67 Q1266.68 1466.67 1264.81 1467.08 Q1262.95 1467.5 1261.01 1468.38 L1261.01 1451.02 Z" fill="#000000" fill-rule="nonzero" fill-opacity="1"></path><path clip-path="url(#clip480)" d="M1301.13 1454.1 Q1297.51 1454.1 1295.69 1457.66 Q1293.88 1461.2 1293.88 1468.33 Q1293.88 1475.44 1295.69 1479.01 Q1297.51 1482.55 1301.13 1482.55 Q1304.76 1482.55 1306.57 1479.01 Q1308.39 1475.44 1308.39 1468.33 Q1308.39 1461.2 1306.57 1457.66 Q1304.76 1454.1 1301.13 1454.1 M1301.13 1450.39 Q1306.94 1450.39 1309.99 1455 Q1313.07 1459.58 1313.07 1468.33 Q1313.07 1477.06 1309.99 1481.67 Q1306.94 1486.25 1301.13 1486.25 Q1295.32 1486.25 1292.24 1481.67 Q1289.18 1477.06 1289.18 1468.33 Q1289.18 1459.58 1292.24 1455 Q1295.32 1450.39 1301.13 1450.39 Z" fill="#000000" fill-rule="nonzero" fill-opacity="1"></path><path clip-path="url(#clip480)" d="M1763.21 1451.02 L1785.43 1451.02 L1785.43 1453.01 L1772.88 1485.58 L1768 1485.58 L1779.8 1454.96 L1763.21 1454.96 L1763.21 1451.02 Z" fill="#000000" fill-rule="nonzero" fill-opacity="1"></path><path clip-path="url(#clip480)" d="M1794.59 1451.02 L1812.95 1451.02 L1812.95 1454.96 L1798.88 1454.96 L1798.88 1463.43 Q1799.9 1463.08 1800.91 1462.92 Q1801.93 1462.73 1802.95 1462.73 Q1808.74 1462.73 1812.12 1465.9 Q1815.5 1469.08 1815.5 1474.49 Q1815.5 1480.07 1812.02 1483.17 Q1808.55 1486.25 1802.23 1486.25 Q1800.06 1486.25 1797.79 1485.88 Q1795.54 1485.51 1793.14 1484.77 L1793.14 1480.07 Q1795.22 1481.2 1797.44 1481.76 Q1799.66 1482.32 1802.14 1482.32 Q1806.14 1482.32 1808.48 1480.21 Q1810.82 1478.1 1810.82 1474.49 Q1810.82 1470.88 1808.48 1468.77 Q1806.14 1466.67 1802.14 1466.67 Q1800.27 1466.67 1798.39 1467.08 Q1796.54 1467.5 1794.59 1468.38 L1794.59 1451.02 Z" fill="#000000" fill-rule="nonzero" fill-opacity="1"></path><path clip-path="url(#clip480)" d="M2252 1481.64 L2259.64 1481.64 L2259.64 1455.28 L2251.33 1456.95 L2251.33 1452.69 L2259.59 1451.02 L2264.27 1451.02 L2264.27 1481.64 L2271.91 1481.64 L2271.91 1485.58 L2252 1485.58 L2252 1481.64 Z" fill="#000000" fill-rule="nonzero" fill-opacity="1"></path><path clip-path="url(#clip480)" d="M2291.35 1454.1 Q2287.74 1454.1 2285.91 1457.66 Q2284.1 1461.2 2284.1 1468.33 Q2284.1 1475.44 2285.91 1479.01 Q2287.74 1482.55 2291.35 1482.55 Q2294.98 1482.55 2296.79 1479.01 Q2298.62 1475.44 2298.62 1468.33 Q2298.62 1461.2 2296.79 1457.66 Q2294.98 1454.1 2291.35 1454.1 M2291.35 1450.39 Q2297.16 1450.39 2300.22 1455 Q2303.29 1459.58 2303.29 1468.33 Q2303.29 1477.06 2300.22 1481.67 Q2297.16 1486.25 2291.35 1486.25 Q2285.54 1486.25 2282.46 1481.67 Q2279.41 1477.06 2279.41 1468.33 Q2279.41 1459.58 2282.46 1455 Q2285.54 1450.39 2291.35 1450.39 Z" fill="#000000" fill-rule="nonzero" fill-opacity="1"></path><path clip-path="url(#clip480)" d="M2321.51 1454.1 Q2317.9 1454.1 2316.07 1457.66 Q2314.27 1461.2 2314.27 1468.33 Q2314.27 1475.44 2316.07 1479.01 Q2317.9 1482.55 2321.51 1482.55 Q2325.15 1482.55 2326.95 1479.01 Q2328.78 1475.44 2328.78 1468.33 Q2328.78 1461.2 2326.95 1457.66 Q2325.15 1454.1 2321.51 1454.1 M2321.51 1450.39 Q2327.32 1450.39 2330.38 1455 Q2333.46 1459.58 2333.46 1468.33 Q2333.46 1477.06 2330.38 1481.67 Q2327.32 1486.25 2321.51 1486.25 Q2315.7 1486.25 2312.62 1481.67 Q2309.57 1477.06 2309.57 1468.33 Q2309.57 1459.58 2312.62 1455 Q2315.7 1450.39 2321.51 1450.39 Z" fill="#000000" fill-rule="nonzero" fill-opacity="1"></path><path clip-path="url(#clip480)" d="M1233.65 1520.52 L1240.08 1520.52 L1240.08 1562.63 L1263.22 1562.63 L1263.22 1568.04 L1233.65 1568.04 L1233.65 1520.52 Z" fill="#000000" fill-rule="nonzero" fill-opacity="1"></path><path clip-path="url(#clip480)" d="M1285.91 1550.12 Q1278.82 1550.12 1276.08 1551.75 Q1273.34 1553.37 1273.34 1557.29 Q1273.34 1560.4 1275.38 1562.25 Q1277.45 1564.07 1280.98 1564.07 Q1285.85 1564.07 1288.78 1560.63 Q1291.74 1557.16 1291.74 1551.43 L1291.74 1550.12 L1285.91 1550.12 M1297.59 1547.71 L1297.59 1568.04 L1291.74 1568.04 L1291.74 1562.63 Q1289.73 1565.88 1286.74 1567.44 Q1283.75 1568.97 1279.42 1568.97 Q1273.95 1568.97 1270.7 1565.91 Q1267.48 1562.82 1267.48 1557.67 Q1267.48 1551.65 1271.49 1548.6 Q1275.54 1545.54 1283.53 1545.54 L1291.74 1545.54 L1291.74 1544.97 Q1291.74 1540.93 1289.06 1538.73 Q1286.42 1536.5 1281.62 1536.5 Q1278.56 1536.5 1275.66 1537.23 Q1272.77 1537.97 1270.09 1539.43 L1270.09 1534.02 Q1273.31 1532.78 1276.33 1532.17 Q1279.36 1531.54 1282.22 1531.54 Q1289.96 1531.54 1293.77 1535.55 Q1297.59 1539.56 1297.59 1547.71 Z" fill="#000000" fill-rule="nonzero" fill-opacity="1"></path><path clip-path="url(#clip480)" d="M1333.11 1549.81 Q1333.11 1543.44 1330.47 1539.94 Q1327.86 1536.44 1323.12 1536.44 Q1318.41 1536.44 1315.77 1539.94 Q1313.16 1543.44 1313.16 1549.81 Q1313.16 1556.14 1315.77 1559.64 Q1318.41 1563.14 1323.12 1563.14 Q1327.86 1563.14 1330.47 1559.64 Q1333.11 1556.14 1333.11 1549.81 M1338.97 1563.62 Q1338.97 1572.72 1334.93 1577.15 Q1330.89 1581.6 1322.55 1581.6 Q1319.46 1581.6 1316.72 1581.13 Q1313.99 1580.68 1311.41 1579.72 L1311.41 1574.03 Q1313.99 1575.43 1316.5 1576.1 Q1319.01 1576.76 1321.62 1576.76 Q1327.39 1576.76 1330.25 1573.74 Q1333.11 1570.75 1333.11 1564.67 L1333.11 1561.77 Q1331.3 1564.92 1328.47 1566.48 Q1325.64 1568.04 1321.69 1568.04 Q1315.13 1568.04 1311.12 1563.05 Q1307.11 1558.05 1307.11 1549.81 Q1307.11 1541.53 1311.12 1536.53 Q1315.13 1531.54 1321.69 1531.54 Q1325.64 1531.54 1328.47 1533.1 Q1331.3 1534.66 1333.11 1537.81 L1333.11 1532.4 L1338.97 1532.4 L1338.97 1563.62 Z" fill="#000000" fill-rule="nonzero" fill-opacity="1"></path><polyline clip-path="url(#clip482)" style="stroke:#000000; stroke-linecap:round; stroke-linejoin:round; stroke-width:2; stroke-opacity:0.1; fill:none" points="219.866,1343.58 2352.76,1343.58 "></polyline>
<polyline clip-path="url(#clip482)" style="stroke:#000000; stroke-linecap:round; stroke-linejoin:round; stroke-width:2; stroke-opacity:0.1; fill:none" points="219.866,1225.25 2352.76,1225.25 "></polyline>
<polyline clip-path="url(#clip482)" style="stroke:#000000; stroke-linecap:round; stroke-linejoin:round; stroke-width:2; stroke-opacity:0.1; fill:none" points="219.866,1106.91 2352.76,1106.91 "></polyline>
<polyline clip-path="url(#clip482)" style="stroke:#000000; stroke-linecap:round; stroke-linejoin:round; stroke-width:2; stroke-opacity:0.1; fill:none" points="219.866,988.582 2352.76,988.582 "></polyline>
<polyline clip-path="url(#clip482)" style="stroke:#000000; stroke-linecap:round; stroke-linejoin:round; stroke-width:2; stroke-opacity:0.1; fill:none" points="219.866,870.25 2352.76,870.25 "></polyline>
<polyline clip-path="url(#clip482)" style="stroke:#000000; stroke-linecap:round; stroke-linejoin:round; stroke-width:2; stroke-opacity:0.1; fill:none" points="219.866,751.918 2352.76,751.918 "></polyline>
<polyline clip-path="url(#clip482)" style="stroke:#000000; stroke-linecap:round; stroke-linejoin:round; stroke-width:2; stroke-opacity:0.1; fill:none" points="219.866,633.585 2352.76,633.585 "></polyline>
<polyline clip-path="url(#clip482)" style="stroke:#000000; stroke-linecap:round; stroke-linejoin:round; stroke-width:2; stroke-opacity:0.1; fill:none" points="219.866,515.253 2352.76,515.253 "></polyline>
<polyline clip-path="url(#clip482)" style="stroke:#000000; stroke-linecap:round; stroke-linejoin:round; stroke-width:2; stroke-opacity:0.1; fill:none" points="219.866,396.921 2352.76,396.921 "></polyline>
<polyline clip-path="url(#clip482)" style="stroke:#000000; stroke-linecap:round; stroke-linejoin:round; stroke-width:2; stroke-opacity:0.1; fill:none" points="219.866,278.589 2352.76,278.589 "></polyline>
<polyline clip-path="url(#clip482)" style="stroke:#000000; stroke-linecap:round; stroke-linejoin:round; stroke-width:2; stroke-opacity:0.1; fill:none" points="219.866,160.256 2352.76,160.256 "></polyline>
<polyline clip-path="url(#clip480)" style="stroke:#000000; stroke-linecap:round; stroke-linejoin:round; stroke-width:4; stroke-opacity:1; fill:none" points="219.866,1423.18 219.866,123.472 "></polyline>
<polyline clip-path="url(#clip480)" style="stroke:#000000; stroke-linecap:round; stroke-linejoin:round; stroke-width:4; stroke-opacity:1; fill:none" points="219.866,1343.58 238.764,1343.58 "></polyline>
<polyline clip-path="url(#clip480)" style="stroke:#000000; stroke-linecap:round; stroke-linejoin:round; stroke-width:4; stroke-opacity:1; fill:none" points="219.866,1225.25 238.764,1225.25 "></polyline>
<polyline clip-path="url(#clip480)" style="stroke:#000000; stroke-linecap:round; stroke-linejoin:round; stroke-width:4; stroke-opacity:1; fill:none" points="219.866,1106.91 238.764,1106.91 "></polyline>
<polyline clip-path="url(#clip480)" style="stroke:#000000; stroke-linecap:round; stroke-linejoin:round; stroke-width:4; stroke-opacity:1; fill:none" points="219.866,988.582 238.764,988.582 "></polyline>
<polyline clip-path="url(#clip480)" style="stroke:#000000; stroke-linecap:round; stroke-linejoin:round; stroke-width:4; stroke-opacity:1; fill:none" points="219.866,870.25 238.764,870.25 "></polyline>
<polyline clip-path="url(#clip480)" style="stroke:#000000; stroke-linecap:round; stroke-linejoin:round; stroke-width:4; stroke-opacity:1; fill:none" points="219.866,751.918 238.764,751.918 "></polyline>
<polyline clip-path="url(#clip480)" style="stroke:#000000; stroke-linecap:round; stroke-linejoin:round; stroke-width:4; stroke-opacity:1; fill:none" points="219.866,633.585 238.764,633.585 "></polyline>
<polyline clip-path="url(#clip480)" style="stroke:#000000; stroke-linecap:round; stroke-linejoin:round; stroke-width:4; stroke-opacity:1; fill:none" points="219.866,515.253 238.764,515.253 "></polyline>
<polyline clip-path="url(#clip480)" style="stroke:#000000; stroke-linecap:round; stroke-linejoin:round; stroke-width:4; stroke-opacity:1; fill:none" points="219.866,396.921 238.764,396.921 "></polyline>
<polyline clip-path="url(#clip480)" style="stroke:#000000; stroke-linecap:round; stroke-linejoin:round; stroke-width:4; stroke-opacity:1; fill:none" points="219.866,278.589 238.764,278.589 "></polyline>
<polyline clip-path="url(#clip480)" style="stroke:#000000; stroke-linecap:round; stroke-linejoin:round; stroke-width:4; stroke-opacity:1; fill:none" points="219.866,160.256 238.764,160.256 "></polyline>
<path clip-path="url(#clip480)" d="M126.691 1329.38 Q123.08 1329.38 121.251 1332.94 Q119.445 1336.48 119.445 1343.61 Q119.445 1350.72 121.251 1354.28 Q123.08 1357.83 126.691 1357.83 Q130.325 1357.83 132.13 1354.28 Q133.959 1350.72 133.959 1343.61 Q133.959 1336.48 132.13 1332.94 Q130.325 1329.38 126.691 1329.38 M126.691 1325.67 Q132.501 1325.67 135.556 1330.28 Q138.635 1334.86 138.635 1343.61 Q138.635 1352.34 135.556 1356.95 Q132.501 1361.53 126.691 1361.53 Q120.88 1361.53 117.802 1356.95 Q114.746 1352.34 114.746 1343.61 Q114.746 1334.86 117.802 1330.28 Q120.88 1325.67 126.691 1325.67 Z" fill="#000000" fill-rule="nonzero" fill-opacity="1"></path><path clip-path="url(#clip480)" d="M146.853 1354.98 L151.737 1354.98 L151.737 1360.86 L146.853 1360.86 L146.853 1354.98 Z" fill="#000000" fill-rule="nonzero" fill-opacity="1"></path><path clip-path="url(#clip480)" d="M171.922 1329.38 Q168.311 1329.38 166.482 1332.94 Q164.677 1336.48 164.677 1343.61 Q164.677 1350.72 166.482 1354.28 Q168.311 1357.83 171.922 1357.83 Q175.556 1357.83 177.362 1354.28 Q179.19 1350.72 179.19 1343.61 Q179.19 1336.48 177.362 1332.94 Q175.556 1329.38 171.922 1329.38 M171.922 1325.67 Q177.732 1325.67 180.788 1330.28 Q183.866 1334.86 183.866 1343.61 Q183.866 1352.34 180.788 1356.95 Q177.732 1361.53 171.922 1361.53 Q166.112 1361.53 163.033 1356.95 Q159.978 1352.34 159.978 1343.61 Q159.978 1334.86 163.033 1330.28 Q166.112 1325.67 171.922 1325.67 Z" fill="#000000" fill-rule="nonzero" fill-opacity="1"></path><path clip-path="url(#clip480)" d="M127.917 1211.05 Q124.306 1211.05 122.478 1214.61 Q120.672 1218.15 120.672 1225.28 Q120.672 1232.39 122.478 1235.95 Q124.306 1239.49 127.917 1239.49 Q131.552 1239.49 133.357 1235.95 Q135.186 1232.39 135.186 1225.28 Q135.186 1218.15 133.357 1214.61 Q131.552 1211.05 127.917 1211.05 M127.917 1207.34 Q133.728 1207.34 136.783 1211.95 Q139.862 1216.53 139.862 1225.28 Q139.862 1234.01 136.783 1238.61 Q133.728 1243.2 127.917 1243.2 Q122.107 1243.2 119.029 1238.61 Q115.973 1234.01 115.973 1225.28 Q115.973 1216.53 119.029 1211.95 Q122.107 1207.34 127.917 1207.34 Z" fill="#000000" fill-rule="nonzero" fill-opacity="1"></path><path clip-path="url(#clip480)" d="M148.079 1236.65 L152.964 1236.65 L152.964 1242.53 L148.079 1242.53 L148.079 1236.65 Z" fill="#000000" fill-rule="nonzero" fill-opacity="1"></path><path clip-path="url(#clip480)" d="M163.959 1238.59 L171.598 1238.59 L171.598 1212.23 L163.288 1213.89 L163.288 1209.63 L171.552 1207.97 L176.227 1207.97 L176.227 1238.59 L183.866 1238.59 L183.866 1242.53 L163.959 1242.53 L163.959 1238.59 Z" fill="#000000" fill-rule="nonzero" fill-opacity="1"></path><path clip-path="url(#clip480)" d="M128.288 1092.71 Q124.677 1092.71 122.848 1096.28 Q121.043 1099.82 121.043 1106.95 Q121.043 1114.06 122.848 1117.62 Q124.677 1121.16 128.288 1121.16 Q131.922 1121.16 133.728 1117.62 Q135.556 1114.06 135.556 1106.95 Q135.556 1099.82 133.728 1096.28 Q131.922 1092.71 128.288 1092.71 M128.288 1089.01 Q134.098 1089.01 137.154 1093.62 Q140.232 1098.2 140.232 1106.95 Q140.232 1115.68 137.154 1120.28 Q134.098 1124.87 128.288 1124.87 Q122.478 1124.87 119.399 1120.28 Q116.343 1115.68 116.343 1106.95 Q116.343 1098.2 119.399 1093.62 Q122.478 1089.01 128.288 1089.01 Z" fill="#000000" fill-rule="nonzero" fill-opacity="1"></path><path clip-path="url(#clip480)" d="M148.45 1118.31 L153.334 1118.31 L153.334 1124.19 L148.45 1124.19 L148.45 1118.31 Z" fill="#000000" fill-rule="nonzero" fill-opacity="1"></path><path clip-path="url(#clip480)" d="M167.547 1120.26 L183.866 1120.26 L183.866 1124.19 L161.922 1124.19 L161.922 1120.26 Q164.584 1117.5 169.167 1112.88 Q173.774 1108.22 174.954 1106.88 Q177.2 1104.36 178.079 1102.62 Q178.982 1100.86 178.982 1099.17 Q178.982 1096.42 177.038 1094.68 Q175.116 1092.94 172.014 1092.94 Q169.815 1092.94 167.362 1093.71 Q164.931 1094.47 162.153 1096.02 L162.153 1091.3 Q164.977 1090.17 167.431 1089.59 Q169.885 1089.01 171.922 1089.01 Q177.292 1089.01 180.487 1091.69 Q183.681 1094.38 183.681 1098.87 Q183.681 1101 182.871 1102.92 Q182.084 1104.82 179.977 1107.41 Q179.399 1108.08 176.297 1111.3 Q173.195 1114.5 167.547 1120.26 Z" fill="#000000" fill-rule="nonzero" fill-opacity="1"></path><path clip-path="url(#clip480)" d="M127.339 974.381 Q123.728 974.381 121.899 977.946 Q120.093 981.487 120.093 988.617 Q120.093 995.723 121.899 999.288 Q123.728 1002.83 127.339 1002.83 Q130.973 1002.83 132.779 999.288 Q134.607 995.723 134.607 988.617 Q134.607 981.487 132.779 977.946 Q130.973 974.381 127.339 974.381 M127.339 970.677 Q133.149 970.677 136.204 975.284 Q139.283 979.867 139.283 988.617 Q139.283 997.344 136.204 1001.95 Q133.149 1006.53 127.339 1006.53 Q121.529 1006.53 118.45 1001.95 Q115.394 997.344 115.394 988.617 Q115.394 979.867 118.45 975.284 Q121.529 970.677 127.339 970.677 Z" fill="#000000" fill-rule="nonzero" fill-opacity="1"></path><path clip-path="url(#clip480)" d="M147.501 999.983 L152.385 999.983 L152.385 1005.86 L147.501 1005.86 L147.501 999.983 Z" fill="#000000" fill-rule="nonzero" fill-opacity="1"></path><path clip-path="url(#clip480)" d="M176.737 987.228 Q180.093 987.946 181.968 990.214 Q183.866 992.483 183.866 995.816 Q183.866 1000.93 180.348 1003.73 Q176.829 1006.53 170.348 1006.53 Q168.172 1006.53 165.857 1006.09 Q163.565 1005.68 161.112 1004.82 L161.112 1000.31 Q163.056 1001.44 165.371 1002.02 Q167.686 1002.6 170.209 1002.6 Q174.607 1002.6 176.899 1000.86 Q179.214 999.126 179.214 995.816 Q179.214 992.76 177.061 991.047 Q174.931 989.311 171.112 989.311 L167.084 989.311 L167.084 985.469 L171.297 985.469 Q174.746 985.469 176.575 984.103 Q178.403 982.714 178.403 980.122 Q178.403 977.46 176.505 976.047 Q174.63 974.612 171.112 974.612 Q169.19 974.612 166.991 975.029 Q164.792 975.446 162.153 976.325 L162.153 972.159 Q164.815 971.418 167.13 971.048 Q169.468 970.677 171.528 970.677 Q176.852 970.677 179.954 973.108 Q183.056 975.515 183.056 979.635 Q183.056 982.506 181.413 984.497 Q179.769 986.464 176.737 987.228 Z" fill="#000000" fill-rule="nonzero" fill-opacity="1"></path><path clip-path="url(#clip480)" d="M126.205 856.049 Q122.593 856.049 120.765 859.613 Q118.959 863.155 118.959 870.285 Q118.959 877.391 120.765 880.956 Q122.593 884.497 126.205 884.497 Q129.839 884.497 131.644 880.956 Q133.473 877.391 133.473 870.285 Q133.473 863.155 131.644 859.613 Q129.839 856.049 126.205 856.049 M126.205 852.345 Q132.015 852.345 135.07 856.951 Q138.149 861.535 138.149 870.285 Q138.149 879.011 135.07 883.618 Q132.015 888.201 126.205 888.201 Q120.394 888.201 117.316 883.618 Q114.26 879.011 114.26 870.285 Q114.26 861.535 117.316 856.951 Q120.394 852.345 126.205 852.345 Z" fill="#000000" fill-rule="nonzero" fill-opacity="1"></path><path clip-path="url(#clip480)" d="M146.366 881.65 L151.251 881.65 L151.251 887.53 L146.366 887.53 L146.366 881.65 Z" fill="#000000" fill-rule="nonzero" fill-opacity="1"></path><path clip-path="url(#clip480)" d="M174.283 857.044 L162.477 875.493 L174.283 875.493 L174.283 857.044 M173.056 852.97 L178.936 852.97 L178.936 875.493 L183.866 875.493 L183.866 879.382 L178.936 879.382 L178.936 887.53 L174.283 887.53 L174.283 879.382 L158.681 879.382 L158.681 874.868 L173.056 852.97 Z" fill="#000000" fill-rule="nonzero" fill-opacity="1"></path><path clip-path="url(#clip480)" d="M127.686 737.716 Q124.075 737.716 122.246 741.281 Q120.441 744.823 120.441 751.952 Q120.441 759.059 122.246 762.624 Q124.075 766.165 127.686 766.165 Q131.32 766.165 133.126 762.624 Q134.954 759.059 134.954 751.952 Q134.954 744.823 133.126 741.281 Q131.32 737.716 127.686 737.716 M127.686 734.013 Q133.496 734.013 136.552 738.619 Q139.63 743.202 139.63 751.952 Q139.63 760.679 136.552 765.286 Q133.496 769.869 127.686 769.869 Q121.876 769.869 118.797 765.286 Q115.742 760.679 115.742 751.952 Q115.742 743.202 118.797 738.619 Q121.876 734.013 127.686 734.013 Z" fill="#000000" fill-rule="nonzero" fill-opacity="1"></path><path clip-path="url(#clip480)" d="M147.848 763.318 L152.732 763.318 L152.732 769.198 L147.848 769.198 L147.848 763.318 Z" fill="#000000" fill-rule="nonzero" fill-opacity="1"></path><path clip-path="url(#clip480)" d="M162.964 734.638 L181.32 734.638 L181.32 738.573 L167.246 738.573 L167.246 747.045 Q168.264 746.698 169.283 746.536 Q170.302 746.351 171.32 746.351 Q177.107 746.351 180.487 749.522 Q183.866 752.693 183.866 758.11 Q183.866 763.688 180.394 766.79 Q176.922 769.869 170.602 769.869 Q168.427 769.869 166.158 769.499 Q163.913 769.128 161.505 768.387 L161.505 763.688 Q163.589 764.823 165.811 765.378 Q168.033 765.934 170.51 765.934 Q174.514 765.934 176.852 763.827 Q179.19 761.721 179.19 758.11 Q179.19 754.499 176.852 752.392 Q174.514 750.286 170.51 750.286 Q168.635 750.286 166.76 750.702 Q164.908 751.119 162.964 751.999 L162.964 734.638 Z" fill="#000000" fill-rule="nonzero" fill-opacity="1"></path><path clip-path="url(#clip480)" d="M126.529 619.384 Q122.918 619.384 121.089 622.949 Q119.283 626.49 119.283 633.62 Q119.283 640.727 121.089 644.291 Q122.918 647.833 126.529 647.833 Q130.163 647.833 131.968 644.291 Q133.797 640.727 133.797 633.62 Q133.797 626.49 131.968 622.949 Q130.163 619.384 126.529 619.384 M126.529 615.68 Q132.339 615.68 135.394 620.287 Q138.473 624.87 138.473 633.62 Q138.473 642.347 135.394 646.953 Q132.339 651.537 126.529 651.537 Q120.718 651.537 117.64 646.953 Q114.584 642.347 114.584 633.62 Q114.584 624.87 117.64 620.287 Q120.718 615.68 126.529 615.68 Z" fill="#000000" fill-rule="nonzero" fill-opacity="1"></path><path clip-path="url(#clip480)" d="M146.691 644.986 L151.575 644.986 L151.575 650.865 L146.691 650.865 L146.691 644.986 Z" fill="#000000" fill-rule="nonzero" fill-opacity="1"></path><path clip-path="url(#clip480)" d="M172.339 631.722 Q169.19 631.722 167.339 633.875 Q165.51 636.027 165.51 639.777 Q165.51 643.504 167.339 645.68 Q169.19 647.833 172.339 647.833 Q175.487 647.833 177.315 645.68 Q179.167 643.504 179.167 639.777 Q179.167 636.027 177.315 633.875 Q175.487 631.722 172.339 631.722 M181.621 617.069 L181.621 621.328 Q179.862 620.495 178.056 620.055 Q176.274 619.616 174.514 619.616 Q169.885 619.616 167.431 622.741 Q165.001 625.865 164.653 632.185 Q166.019 630.171 168.079 629.106 Q170.139 628.018 172.616 628.018 Q177.825 628.018 180.834 631.19 Q183.866 634.338 183.866 639.777 Q183.866 645.101 180.718 648.319 Q177.57 651.537 172.339 651.537 Q166.343 651.537 163.172 646.953 Q160.001 642.347 160.001 633.62 Q160.001 625.426 163.89 620.565 Q167.778 615.68 174.329 615.68 Q176.089 615.68 177.871 616.028 Q179.676 616.375 181.621 617.069 Z" fill="#000000" fill-rule="nonzero" fill-opacity="1"></path><path clip-path="url(#clip480)" d="M127.593 501.052 Q123.982 501.052 122.154 504.617 Q120.348 508.158 120.348 515.288 Q120.348 522.394 122.154 525.959 Q123.982 529.501 127.593 529.501 Q131.228 529.501 133.033 525.959 Q134.862 522.394 134.862 515.288 Q134.862 508.158 133.033 504.617 Q131.228 501.052 127.593 501.052 M127.593 497.348 Q133.404 497.348 136.459 501.955 Q139.538 506.538 139.538 515.288 Q139.538 524.015 136.459 528.621 Q133.404 533.204 127.593 533.204 Q121.783 533.204 118.705 528.621 Q115.649 524.015 115.649 515.288 Q115.649 506.538 118.705 501.955 Q121.783 497.348 127.593 497.348 Z" fill="#000000" fill-rule="nonzero" fill-opacity="1"></path><path clip-path="url(#clip480)" d="M147.755 526.653 L152.64 526.653 L152.64 532.533 L147.755 532.533 L147.755 526.653 Z" fill="#000000" fill-rule="nonzero" fill-opacity="1"></path><path clip-path="url(#clip480)" d="M161.644 497.973 L183.866 497.973 L183.866 499.964 L171.32 532.533 L166.436 532.533 L178.241 501.908 L161.644 501.908 L161.644 497.973 Z" fill="#000000" fill-rule="nonzero" fill-opacity="1"></path><path clip-path="url(#clip480)" d="M126.783 382.72 Q123.172 382.72 121.343 386.284 Q119.538 389.826 119.538 396.956 Q119.538 404.062 121.343 407.627 Q123.172 411.168 126.783 411.168 Q130.417 411.168 132.223 407.627 Q134.052 404.062 134.052 396.956 Q134.052 389.826 132.223 386.284 Q130.417 382.72 126.783 382.72 M126.783 379.016 Q132.593 379.016 135.649 383.622 Q138.728 388.206 138.728 396.956 Q138.728 405.682 135.649 410.289 Q132.593 414.872 126.783 414.872 Q120.973 414.872 117.894 410.289 Q114.839 405.682 114.839 396.956 Q114.839 388.206 117.894 383.622 Q120.973 379.016 126.783 379.016 Z" fill="#000000" fill-rule="nonzero" fill-opacity="1"></path><path clip-path="url(#clip480)" d="M146.945 408.321 L151.829 408.321 L151.829 414.201 L146.945 414.201 L146.945 408.321 Z" fill="#000000" fill-rule="nonzero" fill-opacity="1"></path><path clip-path="url(#clip480)" d="M172.014 397.789 Q168.681 397.789 166.76 399.571 Q164.862 401.354 164.862 404.479 Q164.862 407.604 166.76 409.386 Q168.681 411.168 172.014 411.168 Q175.348 411.168 177.269 409.386 Q179.19 407.58 179.19 404.479 Q179.19 401.354 177.269 399.571 Q175.371 397.789 172.014 397.789 M167.339 395.798 Q164.329 395.057 162.64 392.997 Q160.973 390.937 160.973 387.974 Q160.973 383.831 163.913 381.423 Q166.876 379.016 172.014 379.016 Q177.176 379.016 180.116 381.423 Q183.056 383.831 183.056 387.974 Q183.056 390.937 181.366 392.997 Q179.7 395.057 176.714 395.798 Q180.093 396.585 181.968 398.877 Q183.866 401.168 183.866 404.479 Q183.866 409.502 180.788 412.187 Q177.732 414.872 172.014 414.872 Q166.297 414.872 163.218 412.187 Q160.163 409.502 160.163 404.479 Q160.163 401.168 162.061 398.877 Q163.959 396.585 167.339 395.798 M165.626 388.414 Q165.626 391.099 167.292 392.604 Q168.982 394.108 172.014 394.108 Q175.024 394.108 176.714 392.604 Q178.426 391.099 178.426 388.414 Q178.426 385.729 176.714 384.224 Q175.024 382.72 172.014 382.72 Q168.982 382.72 167.292 384.224 Q165.626 385.729 165.626 388.414 Z" fill="#000000" fill-rule="nonzero" fill-opacity="1"></path><path clip-path="url(#clip480)" d="M126.876 264.387 Q123.265 264.387 121.436 267.952 Q119.63 271.494 119.63 278.623 Q119.63 285.73 121.436 289.295 Q123.265 292.836 126.876 292.836 Q130.51 292.836 132.316 289.295 Q134.144 285.73 134.144 278.623 Q134.144 271.494 132.316 267.952 Q130.51 264.387 126.876 264.387 M126.876 260.684 Q132.686 260.684 135.742 265.29 Q138.82 269.873 138.82 278.623 Q138.82 287.35 135.742 291.957 Q132.686 296.54 126.876 296.54 Q121.066 296.54 117.987 291.957 Q114.931 287.35 114.931 278.623 Q114.931 269.873 117.987 265.29 Q121.066 260.684 126.876 260.684 Z" fill="#000000" fill-rule="nonzero" fill-opacity="1"></path><path clip-path="url(#clip480)" d="M147.038 289.989 L151.922 289.989 L151.922 295.869 L147.038 295.869 L147.038 289.989 Z" fill="#000000" fill-rule="nonzero" fill-opacity="1"></path><path clip-path="url(#clip480)" d="M162.246 295.151 L162.246 290.892 Q164.005 291.725 165.811 292.165 Q167.616 292.605 169.352 292.605 Q173.982 292.605 176.413 289.503 Q178.866 286.378 179.214 280.035 Q177.871 282.026 175.811 283.091 Q173.751 284.156 171.251 284.156 Q166.065 284.156 163.033 281.031 Q160.024 277.883 160.024 272.443 Q160.024 267.119 163.172 263.901 Q166.32 260.684 171.552 260.684 Q177.547 260.684 180.695 265.29 Q183.866 269.873 183.866 278.623 Q183.866 286.795 179.977 291.679 Q176.112 296.54 169.561 296.54 Q167.802 296.54 165.996 296.193 Q164.19 295.845 162.246 295.151 M171.552 280.498 Q174.7 280.498 176.528 278.346 Q178.38 276.193 178.38 272.443 Q178.38 268.716 176.528 266.563 Q174.7 264.387 171.552 264.387 Q168.403 264.387 166.552 266.563 Q164.723 268.716 164.723 272.443 Q164.723 276.193 166.552 278.346 Q168.403 280.498 171.552 280.498 Z" fill="#000000" fill-rule="nonzero" fill-opacity="1"></path><path clip-path="url(#clip480)" d="M117.501 173.601 L125.14 173.601 L125.14 147.236 L116.83 148.902 L116.83 144.643 L125.093 142.976 L129.769 142.976 L129.769 173.601 L137.408 173.601 L137.408 177.536 L117.501 177.536 L117.501 173.601 Z" fill="#000000" fill-rule="nonzero" fill-opacity="1"></path><path clip-path="url(#clip480)" d="M146.853 171.657 L151.737 171.657 L151.737 177.536 L146.853 177.536 L146.853 171.657 Z" fill="#000000" fill-rule="nonzero" fill-opacity="1"></path><path clip-path="url(#clip480)" d="M171.922 146.055 Q168.311 146.055 166.482 149.62 Q164.677 153.161 164.677 160.291 Q164.677 167.397 166.482 170.962 Q168.311 174.504 171.922 174.504 Q175.556 174.504 177.362 170.962 Q179.19 167.397 179.19 160.291 Q179.19 153.161 177.362 149.62 Q175.556 146.055 171.922 146.055 M171.922 142.351 Q177.732 142.351 180.788 146.958 Q183.866 151.541 183.866 160.291 Q183.866 169.018 180.788 173.624 Q177.732 178.208 171.922 178.208 Q166.112 178.208 163.033 173.624 Q159.978 169.018 159.978 160.291 Q159.978 151.541 163.033 146.958 Q166.112 142.351 171.922 142.351 Z" fill="#000000" fill-rule="nonzero" fill-opacity="1"></path><path clip-path="url(#clip480)" d="M22.818 813.334 L46.4666 822.055 L46.4666 804.582 L22.818 813.334 M16.4842 816.963 L16.4842 809.674 L64.0042 791.564 L64.0042 798.248 L51.8138 802.576 L51.8138 823.997 L64.0042 828.326 L64.0042 835.105 L16.4842 816.963 Z" fill="#000000" fill-rule="nonzero" fill-opacity="1"></path><path clip-path="url(#clip480)" d="M16.4842 784.625 L16.4842 757.316 L21.895 757.316 L21.895 778.196 L35.8996 778.196 L35.8996 759.353 L41.3104 759.353 L41.3104 778.196 L64.0042 778.196 L64.0042 784.625 L16.4842 784.625 Z" fill="#000000" fill-rule="nonzero" fill-opacity="1"></path><path clip-path="url(#clip480)" d="M20.1444 711.547 L26.9239 711.547 Q23.9002 714.793 22.4043 718.485 Q20.9083 722.146 20.9083 726.283 Q20.9083 734.432 25.9054 738.76 Q30.8707 743.089 40.2919 743.089 Q49.6813 743.089 54.6784 738.76 Q59.6436 734.432 59.6436 726.283 Q59.6436 722.146 58.1477 718.485 Q56.6518 714.793 53.6281 711.547 L60.3439 711.547 Q62.6355 714.921 63.7814 718.708 Q64.9272 722.464 64.9272 726.665 Q64.9272 737.455 58.3387 743.662 Q51.7183 749.868 40.2919 749.868 Q28.8336 749.868 22.2451 743.662 Q15.6248 737.455 15.6248 726.665 Q15.6248 722.4 16.7706 718.645 Q17.8846 714.857 20.1444 711.547 Z" fill="#000000" fill-rule="nonzero" fill-opacity="1"></path><path clip-path="url(#clip480)" d="M682.645 20.1573 L671.546 50.2555 L693.785 50.2555 L682.645 20.1573 M678.027 12.096 L687.304 12.096 L710.354 72.576 L701.847 72.576 L696.337 57.061 L669.075 57.061 L663.566 72.576 L654.937 72.576 L678.027 12.096 Z" fill="#000000" fill-rule="nonzero" fill-opacity="1"></path><path clip-path="url(#clip480)" d="M718.091 54.671 L718.091 27.2059 L725.544 27.2059 L725.544 54.3874 Q725.544 60.8284 728.056 64.0691 Q730.568 67.2693 735.591 67.2693 Q741.627 67.2693 745.11 63.421 Q748.635 59.5726 748.635 52.9291 L748.635 27.2059 L756.088 27.2059 L756.088 72.576 L748.635 72.576 L748.635 65.6084 Q745.92 69.7404 742.315 71.7658 Q738.75 73.7508 734.011 73.7508 Q726.193 73.7508 722.142 68.8897 Q718.091 64.0286 718.091 54.671 M736.846 26.1121 L736.846 26.1121 Z" fill="#000000" fill-rule="nonzero" fill-opacity="1"></path><path clip-path="url(#clip480)" d="M778.814 14.324 L778.814 27.2059 L794.167 27.2059 L794.167 32.9987 L778.814 32.9987 L778.814 57.6282 Q778.814 63.1779 780.313 64.7578 Q781.852 66.3376 786.511 66.3376 L794.167 66.3376 L794.167 72.576 L786.511 72.576 Q777.882 72.576 774.601 69.3758 Q771.32 66.1351 771.32 57.6282 L771.32 32.9987 L765.851 32.9987 L765.851 27.2059 L771.32 27.2059 L771.32 14.324 L778.814 14.324 Z" fill="#000000" fill-rule="nonzero" fill-opacity="1"></path><path clip-path="url(#clip480)" d="M821.551 32.4315 Q815.556 32.4315 812.072 37.1306 Q808.588 41.7891 808.588 49.9314 Q808.588 58.0738 812.031 62.7728 Q815.515 67.4314 821.551 67.4314 Q827.506 67.4314 830.989 62.7323 Q834.473 58.0333 834.473 49.9314 Q834.473 41.8701 830.989 37.1711 Q827.506 32.4315 821.551 32.4315 M821.551 26.1121 Q831.273 26.1121 836.823 32.4315 Q842.372 38.7509 842.372 49.9314 Q842.372 61.0714 836.823 67.4314 Q831.273 73.7508 821.551 73.7508 Q811.788 73.7508 806.238 67.4314 Q800.729 61.0714 800.729 49.9314 Q800.729 38.7509 806.238 32.4315 Q811.788 26.1121 821.551 26.1121 Z" fill="#000000" fill-rule="nonzero" fill-opacity="1"></path><path clip-path="url(#clip480)" d="M887.378 28.9478 L887.378 35.9153 Q884.218 34.1734 881.018 33.3227 Q877.858 32.4315 874.618 32.4315 Q867.367 32.4315 863.356 37.0496 Q859.346 41.6271 859.346 49.9314 Q859.346 58.2358 863.356 62.8538 Q867.367 67.4314 874.618 67.4314 Q877.858 67.4314 881.018 66.5807 Q884.218 65.6895 887.378 63.9476 L887.378 70.8341 Q884.259 72.2924 880.897 73.0216 Q877.575 73.7508 873.808 73.7508 Q863.559 73.7508 857.523 67.3098 Q851.487 60.8689 851.487 49.9314 Q851.487 38.832 857.563 32.472 Q863.68 26.1121 874.294 26.1121 Q877.737 26.1121 881.018 26.8413 Q884.299 27.5299 887.378 28.9478 Z" fill="#000000" fill-rule="nonzero" fill-opacity="1"></path><path clip-path="url(#clip480)" d="M917.922 32.4315 Q911.927 32.4315 908.443 37.1306 Q904.959 41.7891 904.959 49.9314 Q904.959 58.0738 908.402 62.7728 Q911.886 67.4314 917.922 67.4314 Q923.877 67.4314 927.36 62.7323 Q930.844 58.0333 930.844 49.9314 Q930.844 41.8701 927.36 37.1711 Q923.877 32.4315 917.922 32.4315 M917.922 26.1121 Q927.644 26.1121 933.194 32.4315 Q938.744 38.7509 938.744 49.9314 Q938.744 61.0714 933.194 67.4314 Q927.644 73.7508 917.922 73.7508 Q908.159 73.7508 902.609 67.4314 Q897.1 61.0714 897.1 49.9314 Q897.1 38.7509 902.609 32.4315 Q908.159 26.1121 917.922 26.1121 Z" fill="#000000" fill-rule="nonzero" fill-opacity="1"></path><path clip-path="url(#clip480)" d="M977.389 34.1734 Q976.133 33.4443 974.635 33.1202 Q973.176 32.7556 971.394 32.7556 Q965.074 32.7556 961.672 36.8875 Q958.309 40.9789 958.309 48.6757 L958.309 72.576 L950.815 72.576 L950.815 27.2059 L958.309 27.2059 L958.309 34.2544 Q960.659 30.1225 964.426 28.1376 Q968.194 26.1121 973.581 26.1121 Q974.351 26.1121 975.283 26.2337 Q976.214 26.3147 977.349 26.5172 L977.389 34.1734 Z" fill="#000000" fill-rule="nonzero" fill-opacity="1"></path><path clip-path="url(#clip480)" d="M1010.04 34.1734 Q1008.78 33.4443 1007.28 33.1202 Q1005.83 32.7556 1004.04 32.7556 Q997.725 32.7556 994.322 36.8875 Q990.96 40.9789 990.96 48.6757 L990.96 72.576 L983.465 72.576 L983.465 27.2059 L990.96 27.2059 L990.96 34.2544 Q993.309 30.1225 997.077 28.1376 Q1000.84 26.1121 1006.23 26.1121 Q1007 26.1121 1007.93 26.2337 Q1008.86 26.3147 1010 26.5172 L1010.04 34.1734 Z" fill="#000000" fill-rule="nonzero" fill-opacity="1"></path><path clip-path="url(#clip480)" d="M1054.84 48.0275 L1054.84 51.6733 L1020.57 51.6733 Q1021.06 59.3701 1025.19 63.421 Q1029.36 67.4314 1036.78 67.4314 Q1041.07 67.4314 1045.08 66.3781 Q1049.13 65.3249 1053.1 63.2184 L1053.1 70.267 Q1049.09 71.9684 1044.88 72.8596 Q1040.66 73.7508 1036.33 73.7508 Q1025.47 73.7508 1019.11 67.4314 Q1012.79 61.1119 1012.79 50.3365 Q1012.79 39.1965 1018.79 32.6746 Q1024.83 26.1121 1035.03 26.1121 Q1044.19 26.1121 1049.5 32.0264 Q1054.84 37.9003 1054.84 48.0275 M1047.39 45.84 Q1047.31 39.7232 1043.95 36.0774 Q1040.62 32.4315 1035.11 32.4315 Q1028.88 32.4315 1025.11 35.9558 Q1021.38 39.4801 1020.81 45.8805 L1047.39 45.84 Z" fill="#000000" fill-rule="nonzero" fill-opacity="1"></path><path clip-path="url(#clip480)" d="M1067.08 9.54393 L1074.53 9.54393 L1074.53 72.576 L1067.08 72.576 L1067.08 9.54393 Z" fill="#000000" fill-rule="nonzero" fill-opacity="1"></path><path clip-path="url(#clip480)" d="M1110.74 49.7694 Q1101.71 49.7694 1098.23 51.8354 Q1094.74 53.9013 1094.74 58.8839 Q1094.74 62.8538 1097.34 65.2034 Q1099.97 67.5124 1104.47 67.5124 Q1110.66 67.5124 1114.39 63.1374 Q1118.16 58.7219 1118.16 51.4303 L1118.16 49.7694 L1110.74 49.7694 M1125.61 46.6907 L1125.61 72.576 L1118.16 72.576 L1118.16 65.6895 Q1115.61 69.8214 1111.8 71.8063 Q1107.99 73.7508 1102.48 73.7508 Q1095.51 73.7508 1091.38 69.8619 Q1087.29 65.9325 1087.29 59.3701 Q1087.29 51.7138 1092.39 47.825 Q1097.54 43.9361 1107.71 43.9361 L1118.16 43.9361 L1118.16 43.2069 Q1118.16 38.0623 1114.76 35.2672 Q1111.39 32.4315 1105.28 32.4315 Q1101.39 32.4315 1097.7 33.3632 Q1094.01 34.295 1090.61 36.1584 L1090.61 29.2718 Q1094.7 27.692 1098.55 26.9223 Q1102.4 26.1121 1106.05 26.1121 Q1115.89 26.1121 1120.75 31.2163 Q1125.61 36.3204 1125.61 46.6907 Z" fill="#000000" fill-rule="nonzero" fill-opacity="1"></path><path clip-path="url(#clip480)" d="M1148.34 14.324 L1148.34 27.2059 L1163.69 27.2059 L1163.69 32.9987 L1148.34 32.9987 L1148.34 57.6282 Q1148.34 63.1779 1149.84 64.7578 Q1151.38 66.3376 1156.03 66.3376 L1163.69 66.3376 L1163.69 72.576 L1156.03 72.576 Q1147.41 72.576 1144.12 69.3758 Q1140.84 66.1351 1140.84 57.6282 L1140.84 32.9987 L1135.37 32.9987 L1135.37 27.2059 L1140.84 27.2059 L1140.84 14.324 L1148.34 14.324 Z" fill="#000000" fill-rule="nonzero" fill-opacity="1"></path><path clip-path="url(#clip480)" d="M1173.49 27.2059 L1180.95 27.2059 L1180.95 72.576 L1173.49 72.576 L1173.49 27.2059 M1173.49 9.54393 L1180.95 9.54393 L1180.95 18.9825 L1173.49 18.9825 L1173.49 9.54393 Z" fill="#000000" fill-rule="nonzero" fill-opacity="1"></path><path clip-path="url(#clip480)" d="M1214.12 32.4315 Q1208.13 32.4315 1204.64 37.1306 Q1201.16 41.7891 1201.16 49.9314 Q1201.16 58.0738 1204.6 62.7728 Q1208.09 67.4314 1214.12 67.4314 Q1220.08 67.4314 1223.56 62.7323 Q1227.05 58.0333 1227.05 49.9314 Q1227.05 41.8701 1223.56 37.1711 Q1220.08 32.4315 1214.12 32.4315 M1214.12 26.1121 Q1223.85 26.1121 1229.4 32.4315 Q1234.95 38.7509 1234.95 49.9314 Q1234.95 61.0714 1229.4 67.4314 Q1223.85 73.7508 1214.12 73.7508 Q1204.36 73.7508 1198.81 67.4314 Q1193.3 61.0714 1193.3 49.9314 Q1193.3 38.7509 1198.81 32.4315 Q1204.36 26.1121 1214.12 26.1121 Z" fill="#000000" fill-rule="nonzero" fill-opacity="1"></path><path clip-path="url(#clip480)" d="M1285.01 45.1919 L1285.01 72.576 L1277.56 72.576 L1277.56 45.4349 Q1277.56 38.994 1275.05 35.7938 Q1272.54 32.5936 1267.51 32.5936 Q1261.48 32.5936 1258 36.4419 Q1254.51 40.2903 1254.51 46.9338 L1254.51 72.576 L1247.02 72.576 L1247.02 27.2059 L1254.51 27.2059 L1254.51 34.2544 Q1257.19 30.163 1260.79 28.1376 Q1264.44 26.1121 1269.18 26.1121 Q1276.99 26.1121 1281 30.9732 Q1285.01 35.7938 1285.01 45.1919 Z" fill="#000000" fill-rule="nonzero" fill-opacity="1"></path><path clip-path="url(#clip480)" d="M1326.58 12.096 L1361.33 12.096 L1361.33 18.9825 L1334.76 18.9825 L1334.76 36.8065 L1358.74 36.8065 L1358.74 43.6931 L1334.76 43.6931 L1334.76 72.576 L1326.58 72.576 L1326.58 12.096 Z" fill="#000000" fill-rule="nonzero" fill-opacity="1"></path><path clip-path="url(#clip480)" d="M1368.67 54.671 L1368.67 27.2059 L1376.12 27.2059 L1376.12 54.3874 Q1376.12 60.8284 1378.63 64.0691 Q1381.14 67.2693 1386.17 67.2693 Q1392.2 67.2693 1395.69 63.421 Q1399.21 59.5726 1399.21 52.9291 L1399.21 27.2059 L1406.66 27.2059 L1406.66 72.576 L1399.21 72.576 L1399.21 65.6084 Q1396.5 69.7404 1392.89 71.7658 Q1389.33 73.7508 1384.59 73.7508 Q1376.77 73.7508 1372.72 68.8897 Q1368.67 64.0286 1368.67 54.671 M1387.42 26.1121 L1387.42 26.1121 Z" fill="#000000" fill-rule="nonzero" fill-opacity="1"></path><path clip-path="url(#clip480)" d="M1459.73 45.1919 L1459.73 72.576 L1452.28 72.576 L1452.28 45.4349 Q1452.28 38.994 1449.77 35.7938 Q1447.25 32.5936 1442.23 32.5936 Q1436.19 32.5936 1432.71 36.4419 Q1429.23 40.2903 1429.23 46.9338 L1429.23 72.576 L1421.73 72.576 L1421.73 27.2059 L1429.23 27.2059 L1429.23 34.2544 Q1431.9 30.163 1435.51 28.1376 Q1439.15 26.1121 1443.89 26.1121 Q1451.71 26.1121 1455.72 30.9732 Q1459.73 35.7938 1459.73 45.1919 Z" fill="#000000" fill-rule="nonzero" fill-opacity="1"></path><path clip-path="url(#clip480)" d="M1507.25 28.9478 L1507.25 35.9153 Q1504.09 34.1734 1500.89 33.3227 Q1497.73 32.4315 1494.49 32.4315 Q1487.24 32.4315 1483.23 37.0496 Q1479.22 41.6271 1479.22 49.9314 Q1479.22 58.2358 1483.23 62.8538 Q1487.24 67.4314 1494.49 67.4314 Q1497.73 67.4314 1500.89 66.5807 Q1504.09 65.6895 1507.25 63.9476 L1507.25 70.8341 Q1504.13 72.2924 1500.77 73.0216 Q1497.44 73.7508 1493.68 73.7508 Q1483.43 73.7508 1477.39 67.3098 Q1471.36 60.8689 1471.36 49.9314 Q1471.36 38.832 1477.43 32.472 Q1483.55 26.1121 1494.16 26.1121 Q1497.61 26.1121 1500.89 26.8413 Q1504.17 27.5299 1507.25 28.9478 Z" fill="#000000" fill-rule="nonzero" fill-opacity="1"></path><path clip-path="url(#clip480)" d="M1527.58 14.324 L1527.58 27.2059 L1542.94 27.2059 L1542.94 32.9987 L1527.58 32.9987 L1527.58 57.6282 Q1527.58 63.1779 1529.08 64.7578 Q1530.62 66.3376 1535.28 66.3376 L1542.94 66.3376 L1542.94 72.576 L1535.28 72.576 Q1526.65 72.576 1523.37 69.3758 Q1520.09 66.1351 1520.09 57.6282 L1520.09 32.9987 L1514.62 32.9987 L1514.62 27.2059 L1520.09 27.2059 L1520.09 14.324 L1527.58 14.324 Z" fill="#000000" fill-rule="nonzero" fill-opacity="1"></path><path clip-path="url(#clip480)" d="M1552.74 27.2059 L1560.19 27.2059 L1560.19 72.576 L1552.74 72.576 L1552.74 27.2059 M1552.74 9.54393 L1560.19 9.54393 L1560.19 18.9825 L1552.74 18.9825 L1552.74 9.54393 Z" fill="#000000" fill-rule="nonzero" fill-opacity="1"></path><path clip-path="url(#clip480)" d="M1593.37 32.4315 Q1587.37 32.4315 1583.89 37.1306 Q1580.41 41.7891 1580.41 49.9314 Q1580.41 58.0738 1583.85 62.7728 Q1587.33 67.4314 1593.37 67.4314 Q1599.32 67.4314 1602.81 62.7323 Q1606.29 58.0333 1606.29 49.9314 Q1606.29 41.8701 1602.81 37.1711 Q1599.32 32.4315 1593.37 32.4315 M1593.37 26.1121 Q1603.09 26.1121 1608.64 32.4315 Q1614.19 38.7509 1614.19 49.9314 Q1614.19 61.0714 1608.64 67.4314 Q1603.09 73.7508 1593.37 73.7508 Q1583.61 73.7508 1578.06 67.4314 Q1572.55 61.0714 1572.55 49.9314 Q1572.55 38.7509 1578.06 32.4315 Q1583.61 26.1121 1593.37 26.1121 Z" fill="#000000" fill-rule="nonzero" fill-opacity="1"></path><path clip-path="url(#clip480)" d="M1664.26 45.1919 L1664.26 72.576 L1656.81 72.576 L1656.81 45.4349 Q1656.81 38.994 1654.3 35.7938 Q1651.78 32.5936 1646.76 32.5936 Q1640.72 32.5936 1637.24 36.4419 Q1633.76 40.2903 1633.76 46.9338 L1633.76 72.576 L1626.26 72.576 L1626.26 27.2059 L1633.76 27.2059 L1633.76 34.2544 Q1636.43 30.163 1640.04 28.1376 Q1643.68 26.1121 1648.42 26.1121 Q1656.24 26.1121 1660.25 30.9732 Q1664.26 35.7938 1664.26 45.1919 Z" fill="#000000" fill-rule="nonzero" fill-opacity="1"></path><path clip-path="url(#clip480)" d="M1723.4 9.62495 Q1717.98 18.942 1715.34 28.0566 Q1712.71 37.1711 1712.71 46.5287 Q1712.71 55.8863 1715.34 65.0818 Q1718.02 74.2369 1723.4 83.5134 L1716.92 83.5134 Q1710.85 73.9938 1707.81 64.7983 Q1704.81 55.6027 1704.81 46.5287 Q1704.81 37.4952 1707.81 28.3401 Q1710.81 19.1851 1716.92 9.62495 L1723.4 9.62495 Z" fill="#000000" fill-rule="nonzero" fill-opacity="1"></path><path clip-path="url(#clip480)" d="M1758.4 20.1573 L1747.3 50.2555 L1769.54 50.2555 L1758.4 20.1573 M1753.79 12.096 L1763.06 12.096 L1786.11 72.576 L1777.6 72.576 L1772.1 57.061 L1744.83 57.061 L1739.32 72.576 L1730.7 72.576 L1753.79 12.096 Z" fill="#000000" fill-rule="nonzero" fill-opacity="1"></path><path clip-path="url(#clip480)" d="M1794.94 12.096 L1829.7 12.096 L1829.7 18.9825 L1803.13 18.9825 L1803.13 36.8065 L1827.11 36.8065 L1827.11 43.6931 L1803.13 43.6931 L1803.13 72.576 L1794.94 72.576 L1794.94 12.096 Z" fill="#000000" fill-rule="nonzero" fill-opacity="1"></path><path clip-path="url(#clip480)" d="M1887.95 16.7545 L1887.95 25.383 Q1883.82 21.5346 1879.12 19.6307 Q1874.46 17.7268 1869.2 17.7268 Q1858.83 17.7268 1853.32 24.0867 Q1847.81 30.4061 1847.81 42.3968 Q1847.81 54.3469 1853.32 60.7069 Q1858.83 67.0263 1869.2 67.0263 Q1874.46 67.0263 1879.12 65.1223 Q1883.82 63.2184 1887.95 59.3701 L1887.95 67.9175 Q1883.66 70.8341 1878.84 72.2924 Q1874.06 73.7508 1868.71 73.7508 Q1854.98 73.7508 1847.08 65.3654 Q1839.18 56.9395 1839.18 42.3968 Q1839.18 27.8135 1847.08 19.4281 Q1854.98 11.0023 1868.71 11.0023 Q1874.14 11.0023 1878.92 12.4606 Q1883.74 13.8784 1887.95 16.7545 Z" fill="#000000" fill-rule="nonzero" fill-opacity="1"></path><path clip-path="url(#clip480)" d="M1899.09 9.62495 L1905.57 9.62495 Q1911.65 19.1851 1914.65 28.3401 Q1917.69 37.4952 1917.69 46.5287 Q1917.69 55.6027 1914.65 64.7983 Q1911.65 73.9938 1905.57 83.5134 L1899.09 83.5134 Q1904.48 74.2369 1907.11 65.0818 Q1909.79 55.8863 1909.79 46.5287 Q1909.79 37.1711 1907.11 28.0566 Q1904.48 18.942 1899.09 9.62495 Z" fill="#000000" fill-rule="nonzero" fill-opacity="1"></path><polyline clip-path="url(#clip482)" style="stroke:#ff0000; stroke-linecap:round; stroke-linejoin:round; stroke-width:8; stroke-opacity:1; fill:none" points="280.231,160.256 300.353,475.177 320.474,632.238 340.596,741.833 360.717,836.61 380.839,909.483 400.961,963.161 421.082,1011.33 441.204,1041.77 461.325,1079.99 481.447,1114.67 501.569,1134.67 521.69,1152.13 541.812,1173.24 561.933,1200.67 582.055,1222.17 602.177,1233.13 622.298,1246.96 642.42,1254.64 662.541,1267.39 682.663,1279.92 702.785,1284.48 722.906,1296.93 743.028,1310.64 763.149,1319.53 783.271,1329.38 803.393,1329.76 823.514,1335.23 843.636,1343.85 863.757,1346.78 883.879,1345.06 904.001,1344.18 924.122,1347.8 944.244,1354.35 964.365,1356.53 984.487,1365.08 1004.61,1371.15 1024.73,1369.25 1044.85,1370.19 1064.97,1366.01 1085.1,1367.09 1105.22,1364.62 1125.34,1365.48 1145.46,1362.86 1165.58,1368.65 1185.7,1373.14 1205.82,1375.79 1225.95,1377.02 1246.07,1368.92 1266.19,1362.68 1286.31,1357.6 1306.43,1344.5 1326.55,1338.67 1346.68,1344.55 1366.8,1340.06 1386.92,1333.37 1407.04,1325.11 1427.16,1328.77 1447.28,1334.09 1467.41,1335.31 1487.53,1331.87 1507.65,1320.68 1527.77,1309.13 1547.89,1303.89 1568.01,1299.5 1588.14,1300.22 1608.26,1304.98 1628.38,1307.16 1648.5,1305.65 1668.62,1303.81 1688.74,1304.28 1708.86,1299.59 1728.99,1302.94 1749.11,1298.67 1769.23,1303.3 1789.35,1302.09 1809.47,1293.6 1829.59,1288.56 1849.72,1287.87 1869.84,1291.11 1889.96,1289.26 1910.08,1290.4 1930.2,1293.68 1950.32,1294.71 1970.45,1293.61 1990.57,1293.74 2010.69,1297.14 2030.81,1305.8 2050.93,1314.98 2071.05,1312.53 2091.18,1316.56 2111.3,1326.46 2131.42,1324.22 2151.54,1333.93 2171.66,1328.13 2191.78,1326.06 2211.9,1327.15 2232.03,1328.84 2252.15,1331.9 2272.27,1339.78 2292.39,1344.89 "></polyline>
<polyline clip-path="url(#clip482)" style="stroke:#ff0000; stroke-linecap:round; stroke-linejoin:round; stroke-width:8; stroke-opacity:1; fill:none" points="280.231,160.256 300.353,378.447 320.474,527.719 340.596,648.639 360.717,750.529 380.839,839.41 400.961,913.635 421.082,975.417 441.204,1031.86 461.325,1079.6 481.447,1117.63 501.569,1152.54 521.69,1175.05 541.812,1194.26 561.933,1213.4 582.055,1228.92 602.177,1247.44 622.298,1259.3 642.42,1269.24 662.541,1276.82 682.663,1286.95 702.785,1296.22 722.906,1302.37 743.028,1315.52 763.149,1321.04 783.271,1329.89 803.393,1329.16 823.514,1328.3 843.636,1324.18 863.757,1321.1 883.879,1316.43 904.001,1313.99 924.122,1316.38 944.244,1314.12 964.365,1312.75 984.487,1308.59 1004.61,1300.28 1024.73,1301.91 1044.85,1303.08 1064.97,1302.3 1085.1,1306.45 1105.22,1309.79 1125.34,1312.1 1145.46,1320.19 1165.58,1326.6 1185.7,1325.77 1205.82,1327.57 1225.95,1332.49 1246.07,1330.78 1266.19,1330.86 1286.31,1327.97 1306.43,1326.61 1326.55,1325.13 1346.68,1323.74 1366.8,1328.96 1386.92,1331.4 1407.04,1331 1427.16,1332.67 1447.28,1330.56 1467.41,1324.76 1487.53,1322.53 1507.65,1326.65 1527.77,1328.87 1547.89,1329.95 1568.01,1331.14 1588.14,1327.8 1608.26,1323.73 1628.38,1320.48 1648.5,1316.27 1668.62,1316.6 1688.74,1316.21 1708.86,1319.89 1728.99,1319.98 1749.11,1318.79 1769.23,1317.18 1789.35,1318.25 1809.47,1312.79 1829.59,1317.06 1849.72,1311.68 1869.84,1311.91 1889.96,1313.84 1910.08,1322.41 1930.2,1327.2 1950.32,1332.46 1970.45,1335.21 1990.57,1339.31 2010.69,1340.2 2030.81,1337.17 2050.93,1335.65 2071.05,1334.37 2091.18,1335.52 2111.3,1346.84 2131.42,1354.95 2151.54,1364.42 2171.66,1367.79 2191.78,1373.66 2211.9,1376.44 2232.03,1370.02 2252.15,1372.67 2272.27,1377.06 2292.39,1383.36 "></polyline>
<polyline clip-path="url(#clip482)" style="stroke:#ff0000; stroke-linecap:round; stroke-linejoin:round; stroke-width:8; stroke-opacity:1; fill:none" points="280.231,160.256 300.353,393.924 320.474,541.106 340.596,652.781 360.717,741.965 380.839,807.038 400.961,862.236 421.082,913.12 441.204,955.686 461.325,998.892 481.447,1038.26 501.569,1069.84 521.69,1097.77 541.812,1121.77 561.933,1137.49 582.055,1146.55 602.177,1154.94 622.298,1166.13 642.42,1176.66 662.541,1193.4 682.663,1202.63 702.785,1211.99 722.906,1219.15 743.028,1227.45 763.149,1235.37 783.271,1242.02 803.393,1249.21 823.514,1256.16 843.636,1260.55 863.757,1268.17 883.879,1267.97 904.001,1264.57 924.122,1267.55 944.244,1266.23 964.365,1269.09 984.487,1266.75 1004.61,1269.52 1024.73,1266.98 1044.85,1263.46 1064.97,1264.27 1085.1,1263.26 1105.22,1264.69 1125.34,1271.28 1145.46,1282.73 1165.58,1284.96 1185.7,1287.35 1205.82,1285.62 1225.95,1285.71 1246.07,1280.92 1266.19,1277.66 1286.31,1274.91 1306.43,1279.1 1326.55,1276.97 1346.68,1281.9 1366.8,1281.57 1386.92,1284.79 1407.04,1291.14 1427.16,1299.78 1447.28,1302.37 1467.41,1299.51 1487.53,1306 1507.65,1314.84 1527.77,1323.42 1547.89,1330.53 1568.01,1332.66 1588.14,1334.82 1608.26,1329.39 1628.38,1322.22 1648.5,1317.48 1668.62,1316.15 1688.74,1309.35 1708.86,1308.52 1728.99,1308.83 1749.11,1306.76 1769.23,1312.62 1789.35,1314.34 1809.47,1317.13 1829.59,1329.58 1849.72,1330.28 1869.84,1326.96 1889.96,1330.21 1910.08,1324.9 1930.2,1323.92 1950.32,1323.06 1970.45,1324.67 1990.57,1326.63 2010.69,1325.4 2030.81,1331.15 2050.93,1334.47 2071.05,1340.81 2091.18,1336.41 2111.3,1336.36 2131.42,1336.34 2151.54,1342.4 2171.66,1351.89 2191.78,1355.87 2211.9,1354.62 2232.03,1347.51 2252.15,1351.94 2272.27,1352.78 2292.39,1354.61 "></polyline>
<polyline clip-path="url(#clip482)" style="stroke:#ff0000; stroke-linecap:round; stroke-linejoin:round; stroke-width:8; stroke-opacity:1; fill:none" points="280.231,160.256 300.353,331.412 320.474,460.843 340.596,571.245 360.717,662.08 380.839,741.095 400.961,811.429 421.082,873.155 441.204,927.903 461.325,973.243 481.447,1011.01 501.569,1047.16 521.69,1079.19 541.812,1111.8 561.933,1138.14 582.055,1162.68 602.177,1187.33 622.298,1208.64 642.42,1226.49 662.541,1247.16 682.663,1268 702.785,1286.45 722.906,1297.45 743.028,1309.31 763.149,1319.59 783.271,1331.33 803.393,1337.64 823.514,1336.49 843.636,1336.44 863.757,1338.77 883.879,1335.46 904.001,1338.46 924.122,1345.34 944.244,1350.48 964.365,1353.46 984.487,1355.74 1004.61,1352.95 1024.73,1350.87 1044.85,1344.14 1064.97,1338.87 1085.1,1334.98 1105.22,1330.33 1125.34,1328.12 1145.46,1326.8 1165.58,1323.49 1185.7,1319.68 1205.82,1318.07 1225.95,1316.73 1246.07,1315.32 1266.19,1308.83 1286.31,1310.22 1306.43,1309.46 1326.55,1317.8 1346.68,1326.62 1366.8,1332.37 1386.92,1344.11 1407.04,1354.59 1427.16,1358.59 1447.28,1362.97 1467.41,1372.68 1487.53,1377.2 1507.65,1381.88 1527.77,1386.4 1547.89,1381.59 1568.01,1374.23 1588.14,1368.53 1608.26,1362.73 1628.38,1361.47 1648.5,1362.28 1668.62,1363.95 1688.74,1369.09 1708.86,1369.44 1728.99,1367.65 1749.11,1368.4 1769.23,1372.12 1789.35,1375.55 1809.47,1370.8 1829.59,1367.91 1849.72,1363.97 1869.84,1361.12 1889.96,1354.4 1910.08,1350.99 1930.2,1347.91 1950.32,1345.07 1970.45,1340.72 1990.57,1336.04 2010.69,1334.22 2030.81,1335.37 2050.93,1334.24 2071.05,1330.99 2091.18,1331.44 2111.3,1331.07 2131.42,1327.7 2151.54,1328.87 2171.66,1333.04 2191.78,1341.46 2211.9,1345.47 2232.03,1355.46 2252.15,1360.46 2272.27,1362.72 2292.39,1368.92 "></polyline>
<polyline clip-path="url(#clip482)" style="stroke:#ff0000; stroke-linecap:round; stroke-linejoin:round; stroke-width:8; stroke-opacity:1; fill:none" points="280.231,160.256 300.353,505.621 320.474,732.532 340.596,890.838 360.717,1012.57 380.839,1089.3 400.961,1139.54 421.082,1174.08 441.204,1196.35 461.325,1219.12 481.447,1239.6 501.569,1254.08 521.69,1266.05 541.812,1278 561.933,1296.86 582.055,1311.98 602.177,1320.65 622.298,1336.05 642.42,1336.85 662.541,1339.44 682.663,1342.43 702.785,1342.8 722.906,1345.34 743.028,1347.37 763.149,1350.56 783.271,1355.41 803.393,1352.57 823.514,1350.02 843.636,1346.54 863.757,1342.02 883.879,1342.42 904.001,1343.18 924.122,1332.22 944.244,1324.88 964.365,1319.97 984.487,1320.31 1004.61,1322.8 1024.73,1324.23 1044.85,1325.43 1064.97,1324.18 1085.1,1335.3 1105.22,1339.34 1125.34,1348.48 1145.46,1350.6 1165.58,1345.95 1185.7,1342.4 1205.82,1340.67 1225.95,1342.38 1246.07,1344.18 1266.19,1342.97 1286.31,1344.63 1306.43,1339.83 1326.55,1337.05 1346.68,1331.8 1366.8,1335.34 1386.92,1343.09 1407.04,1354.55 1427.16,1353.76 1447.28,1361.09 1467.41,1352.37 1487.53,1342.29 1507.65,1336.7 1527.77,1331.99 1547.89,1334.47 1568.01,1332.04 1588.14,1335.44 1608.26,1344.67 1628.38,1348.58 1648.5,1359.13 1668.62,1369.75 1688.74,1381.49 1708.86,1376.46 1728.99,1371.45 1749.11,1368.78 1769.23,1371.91 1789.35,1369.46 1809.47,1361.05 1829.59,1370.74 1849.72,1371.76 1869.84,1359.94 1889.96,1357.95 1910.08,1361.26 1930.2,1362.57 1950.32,1361.98 1970.45,1356.83 1990.57,1351.83 2010.69,1339.84 2030.81,1338.82 2050.93,1332.1 2071.05,1319.24 2091.18,1306.49 2111.3,1297.32 2131.42,1296.78 2151.54,1309.96 2171.66,1314.35 2191.78,1317.98 2211.9,1321.31 2232.03,1328.45 2252.15,1334.18 2272.27,1332.15 2292.39,1318.35 "></polyline>
<polyline clip-path="url(#clip482)" style="stroke:#ff0000; stroke-linecap:round; stroke-linejoin:round; stroke-width:8; stroke-opacity:1; fill:none" points="280.231,160.256 300.353,257.791 320.474,340.51 340.596,414.867 360.717,483.525 380.839,544.091 400.961,600.37 421.082,652.245 441.204,698.383 461.325,741.305 481.447,784.292 501.569,822.344 521.69,857.718 541.812,892.87 561.933,924.293 582.055,951.749 602.177,977.328 622.298,1002.28 642.42,1027.57 662.541,1054.67 682.663,1080.53 702.785,1103.65 722.906,1123.13 743.028,1143.88 763.149,1161.15 783.271,1177.84 803.393,1189.05 823.514,1196.74 843.636,1206.01 863.757,1214.97 883.879,1222.4 904.001,1230.81 924.122,1238.05 944.244,1247.33 964.365,1257.78 984.487,1264.1 1004.61,1266.99 1024.73,1270.89 1044.85,1273.97 1064.97,1272.99 1085.1,1274.76 1105.22,1275.33 1125.34,1275.49 1145.46,1280.67 1165.58,1286.48 1185.7,1290.86 1205.82,1290.95 1225.95,1290.27 1246.07,1286.04 1266.19,1285.93 1286.31,1287.65 1306.43,1287.81 1326.55,1290.02 1346.68,1295.07 1366.8,1301 1386.92,1307.05 1407.04,1315.46 1427.16,1322.49 1447.28,1327.36 1467.41,1327.83 1487.53,1327.37 1507.65,1328.36 1527.77,1327.81 1547.89,1328.29 1568.01,1329.75 1588.14,1332.7 1608.26,1333.05 1628.38,1332.07 1648.5,1329.78 1668.62,1329.57 1688.74,1331.88 1708.86,1333.14 1728.99,1331.39 1749.11,1331.34 1769.23,1331.88 1789.35,1330.11 1809.47,1332.68 1829.59,1331.94 1849.72,1329.69 1869.84,1326.92 1889.96,1324.5 1910.08,1321.05 1930.2,1318.98 1950.32,1317.27 1970.45,1315.9 1990.57,1316.5 2010.69,1315.94 2030.81,1318.32 2050.93,1317.96 2071.05,1317.05 2091.18,1316.31 2111.3,1315.24 2131.42,1314.43 2151.54,1313.33 2171.66,1309.69 2191.78,1305.5 2211.9,1303.12 2232.03,1301.45 2252.15,1303.16 2272.27,1305.16 2292.39,1305.82 "></polyline>
<polyline clip-path="url(#clip482)" style="stroke:#ff0000; stroke-linecap:round; stroke-linejoin:round; stroke-width:8; stroke-opacity:1; fill:none" points="280.231,160.256 300.353,518.733 320.474,750.712 340.596,910.808 360.717,1025.37 380.839,1106.79 400.961,1162.64 421.082,1211.77 441.204,1250.25 461.325,1268.22 481.447,1288.72 501.569,1306.65 521.69,1308.06 541.812,1303.36 561.933,1301.08 582.055,1294.01 602.177,1303.99 622.298,1311.76 642.42,1311.75 662.541,1312.9 682.663,1314.61 702.785,1309.57 722.906,1314.3 743.028,1325.05 763.149,1325.05 783.271,1328.49 803.393,1332.62 823.514,1323.99 843.636,1310.18 863.757,1308.36 883.879,1305.53 904.001,1312.71 924.122,1326.89 944.244,1333.25 964.365,1339.28 984.487,1345.76 1004.61,1349.59 1024.73,1349.89 1044.85,1343.52 1064.97,1352.18 1085.1,1350.33 1105.22,1344.91 1125.34,1343.59 1145.46,1341.09 1165.58,1335.48 1185.7,1333.9 1205.82,1333.89 1225.95,1337.32 1246.07,1336.3 1266.19,1336.17 1286.31,1335.6 1306.43,1336.23 1326.55,1345.26 1346.68,1357.35 1366.8,1365.7 1386.92,1362.91 1407.04,1359.04 1427.16,1353.2 1447.28,1345.9 1467.41,1347.9 1487.53,1346.18 1507.65,1353.63 1527.77,1363.66 1547.89,1369.8 1568.01,1372.99 1588.14,1366.47 1608.26,1365.72 1628.38,1365.8 1648.5,1370.04 1668.62,1369.35 1688.74,1366.88 1708.86,1362.71 1728.99,1357.08 1749.11,1360.44 1769.23,1352.29 1789.35,1346.94 1809.47,1351.15 1829.59,1352.99 1849.72,1357.69 1869.84,1353.72 1889.96,1345.66 1910.08,1332.06 1930.2,1330.86 1950.32,1332.67 1970.45,1343.04 1990.57,1340.68 2010.69,1339.16 2030.81,1332.7 2050.93,1322.92 2071.05,1321.17 2091.18,1320.4 2111.3,1330.98 2131.42,1333.15 2151.54,1337.63 2171.66,1336.91 2191.78,1327.77 2211.9,1326.39 2232.03,1329.74 2252.15,1340.35 2272.27,1350.42 2292.39,1349.19 "></polyline>
<polyline clip-path="url(#clip482)" style="stroke:#ff0000; stroke-linecap:round; stroke-linejoin:round; stroke-width:8; stroke-opacity:1; fill:none" points="280.231,160.256 300.353,386.584 320.474,549.059 340.596,686.341 360.717,799.963 380.839,893.535 400.961,966.532 421.082,1022.64 441.204,1073.67 461.325,1116.08 481.447,1147.55 501.569,1170.57 521.69,1190.03 541.812,1203.28 561.933,1217.22 582.055,1231.22 602.177,1248.02 622.298,1262.09 642.42,1266.81 662.541,1278.17 682.663,1290.61 702.785,1296.18 722.906,1299.83 743.028,1305.2 763.149,1312.89 783.271,1319.03 803.393,1329.94 823.514,1333.87 843.636,1332.88 863.757,1331.1 883.879,1336.26 904.001,1341.31 924.122,1345.14 944.244,1346.07 964.365,1351.83 984.487,1353.07 1004.61,1346.45 1024.73,1341.2 1044.85,1334.47 1064.97,1325.71 1085.1,1320.64 1105.22,1320.7 1125.34,1325.7 1145.46,1327.85 1165.58,1326.13 1185.7,1327 1205.82,1326.64 1225.95,1325.32 1246.07,1327.22 1266.19,1330.97 1286.31,1336.13 1306.43,1341.81 1326.55,1348.54 1346.68,1349.67 1366.8,1351.02 1386.92,1358.57 1407.04,1358.2 1427.16,1355.8 1447.28,1351.7 1467.41,1352.85 1487.53,1355.81 1507.65,1359.79 1527.77,1360.62 1547.89,1359.63 1568.01,1355.56 1588.14,1350 1608.26,1347.79 1628.38,1341.16 1648.5,1329.85 1668.62,1325.3 1688.74,1325.1 1708.86,1324.25 1728.99,1319.94 1749.11,1319.54 1769.23,1313.08 1789.35,1315.28 1809.47,1314.59 1829.59,1319.73 1849.72,1324.87 1869.84,1326.56 1889.96,1322.01 1910.08,1319.67 1930.2,1313.68 1950.32,1313.49 1970.45,1316.91 1990.57,1317.91 2010.69,1313.05 2030.81,1305.88 2050.93,1302.12 2071.05,1297.4 2091.18,1298.02 2111.3,1299.39 2131.42,1306.07 2151.54,1310.48 2171.66,1314.43 2191.78,1320.54 2211.9,1329.8 2232.03,1342.93 2252.15,1354.25 2272.27,1363.97 2292.39,1372.54 "></polyline>
<polyline clip-path="url(#clip482)" style="stroke:#ff0000; stroke-linecap:round; stroke-linejoin:round; stroke-width:8; stroke-opacity:1; fill:none" points="280.231,160.256 300.353,495.612 320.474,717.511 340.596,878.277 360.717,1010.26 380.839,1107.9 400.961,1166.94 421.082,1199.04 441.204,1231.93 461.325,1254.68 481.447,1272.31 501.569,1281.29 521.69,1289.8 541.812,1293.46 561.933,1286.96 582.055,1296.68 602.177,1309.25 622.298,1311.31 642.42,1318.02 662.541,1317.34 682.663,1323.15 702.785,1321.17 722.906,1324.91 743.028,1328.64 763.149,1320.17 783.271,1303.18 803.393,1296.59 823.514,1306.83 843.636,1305.86 863.757,1308.09 883.879,1315.2 904.001,1320.13 924.122,1322.24 944.244,1320.63 964.365,1318.55 984.487,1312.83 1004.61,1314.5 1024.73,1326.03 1044.85,1323.69 1064.97,1319.53 1085.1,1321.11 1105.22,1320.42 1125.34,1329.64 1145.46,1335.3 1165.58,1339.56 1185.7,1341.26 1205.82,1350.98 1225.95,1361.07 1246.07,1363.95 1266.19,1376.01 1286.31,1376.98 1306.43,1371.66 1326.55,1375.94 1346.68,1373.6 1366.8,1377.08 1386.92,1377.6 1407.04,1377.45 1427.16,1375.71 1447.28,1374.24 1467.41,1370.73 1487.53,1359.43 1507.65,1345.64 1527.77,1335.16 1547.89,1325.92 1568.01,1318.8 1588.14,1315.06 1608.26,1317.46 1628.38,1324.91 1648.5,1336.11 1668.62,1347.6 1688.74,1356.26 1708.86,1360.52 1728.99,1361.16 1749.11,1349.91 1769.23,1351.62 1789.35,1349.51 1809.47,1352.49 1829.59,1356.2 1849.72,1357.43 1869.84,1348.75 1889.96,1346.75 1910.08,1343.85 1930.2,1335.98 1950.32,1331.23 1970.45,1330 1990.57,1333.05 2010.69,1340.58 2030.81,1339.14 2050.93,1331.69 2071.05,1323.2 2091.18,1325.13 2111.3,1329.75 2131.42,1334.4 2151.54,1333.67 2171.66,1340.99 2191.78,1350.93 2211.9,1349.1 2232.03,1355 2252.15,1357.01 2272.27,1357.4 2292.39,1352.36 "></polyline>
<polyline clip-path="url(#clip482)" style="stroke:#ff0000; stroke-linecap:round; stroke-linejoin:round; stroke-width:8; stroke-opacity:1; fill:none" points="280.231,160.256 300.353,326.427 320.474,456.059 340.596,568.003 360.717,665.255 380.839,747.317 400.961,816.062 421.082,880.827 441.204,932.184 461.325,978.108 481.447,1017.41 501.569,1051.21 521.69,1079.21 541.812,1110.94 561.933,1140.78 582.055,1167.28 602.177,1187.04 622.298,1208.21 642.42,1231.31 662.541,1250.98 682.663,1264.9 702.785,1276.12 722.906,1281.79 743.028,1288.94 763.149,1293.35 783.271,1296.47 803.393,1299.42 823.514,1302.97 843.636,1303.7 863.757,1304.85 883.879,1308.94 904.001,1308.16 924.122,1304.69 944.244,1299.65 964.365,1295.1 984.487,1289.54 1004.61,1290.08 1024.73,1290.32 1044.85,1291.33 1064.97,1298.06 1085.1,1299.36 1105.22,1301.12 1125.34,1305.34 1145.46,1311.14 1165.58,1320.98 1185.7,1325.13 1205.82,1335.72 1225.95,1341.17 1246.07,1348.33 1266.19,1355.28 1286.31,1358.79 1306.43,1354.18 1326.55,1356.72 1346.68,1353.6 1366.8,1353.66 1386.92,1356.86 1407.04,1355.96 1427.16,1353.87 1447.28,1353.75 1467.41,1356.79 1487.53,1354.54 1507.65,1352.92 1527.77,1350.39 1547.89,1350.65 1568.01,1349.78 1588.14,1352.38 1608.26,1358.29 1628.38,1358.55 1648.5,1358.01 1668.62,1361.48 1688.74,1363.71 1708.86,1364.25 1728.99,1361.82 1749.11,1358.39 1769.23,1355.73 1789.35,1351.12 1809.47,1345.8 1829.59,1342.72 1849.72,1336.38 1869.84,1328.96 1889.96,1327.59 1910.08,1326.86 1930.2,1325.99 1950.32,1325.49 1970.45,1326.2 1990.57,1325.72 2010.69,1330.48 2030.81,1331.88 2050.93,1332.11 2071.05,1332.22 2091.18,1331.76 2111.3,1329.73 2131.42,1336.88 2151.54,1341.86 2171.66,1344.57 2191.78,1343.83 2211.9,1348.2 2232.03,1348.74 2252.15,1345.11 2272.27,1344.13 2292.39,1341.86 "></polyline>
<polyline clip-path="url(#clip482)" style="stroke:#0000ff; stroke-linecap:round; stroke-linejoin:round; stroke-width:8; stroke-opacity:1; fill:none" points="280.231,160.256 300.353,954.037 320.474,1191.93 340.596,1282.12 360.717,1318.9 380.839,1331.29 400.961,1332.05 421.082,1342.43 441.204,1346.32 461.325,1349.52 481.447,1346.96 501.569,1341.99 521.69,1340.36 541.812,1348.38 561.933,1346.73 582.055,1352.66 602.177,1362.22 622.298,1358.12 642.42,1334.16 662.541,1318.91 682.663,1340.29 702.785,1337.36 722.906,1334.28 743.028,1347.51 763.149,1354.73 783.271,1352.64 803.393,1349.61 823.514,1361.28 843.636,1371.84 863.757,1372.59 883.879,1344.32 904.001,1338.7 924.122,1337.98 944.244,1308.53 964.365,1338.6 984.487,1357.57 1004.61,1341.43 1024.73,1353 1044.85,1350.45 1064.97,1340.18 1085.1,1356.31 1105.22,1329.71 1125.34,1332 1145.46,1339.96 1165.58,1349.43 1185.7,1368.98 1205.82,1364.42 1225.95,1328.36 1246.07,1334.42 1266.19,1329.63 1286.31,1332.4 1306.43,1344.41 1326.55,1346.1 1346.68,1333.49 1366.8,1319.29 1386.92,1346.99 1407.04,1350.08 1427.16,1345.1 1447.28,1353.55 1467.41,1347.43 1487.53,1354.61 1507.65,1352.03 1527.77,1338.9 1547.89,1339.14 1568.01,1330.53 1588.14,1339.87 1608.26,1323.1 1628.38,1328.44 1648.5,1338.67 1668.62,1340.77 1688.74,1337.14 1708.86,1338.36 1728.99,1341.33 1749.11,1347.99 1769.23,1340.49 1789.35,1348.28 1809.47,1352.64 1829.59,1335.78 1849.72,1334.54 1869.84,1352.25 1889.96,1349.66 1910.08,1352.61 1930.2,1334.84 1950.32,1327.27 1970.45,1336.65 1990.57,1345.38 2010.69,1352.21 2030.81,1358.32 2050.93,1346.98 2071.05,1342.98 2091.18,1328.32 2111.3,1314.4 2131.42,1316.52 2151.54,1331.1 2171.66,1347.56 2191.78,1347.7 2211.9,1355.9 2232.03,1345.54 2252.15,1351.62 2272.27,1342.42 2292.39,1326.82 "></polyline>
<polyline clip-path="url(#clip482)" style="stroke:#0000ff; stroke-linecap:round; stroke-linejoin:round; stroke-width:8; stroke-opacity:1; fill:none" points="280.231,160.256 300.353,898.892 320.474,1159.02 340.596,1276.3 360.717,1320.3 380.839,1337.9 400.961,1334.93 421.082,1338.53 441.204,1351.86 461.325,1339.43 481.447,1336.77 501.569,1356.63 521.69,1354.6 541.812,1332.6 561.933,1328.11 582.055,1330.91 602.177,1341.51 622.298,1343.77 642.42,1330.44 662.541,1339.54 682.663,1335.05 702.785,1342.61 722.906,1320.36 743.028,1340.06 763.149,1348.69 783.271,1352.76 803.393,1336.24 823.514,1338.64 843.636,1327.93 863.757,1325.13 883.879,1338.94 904.001,1344.39 924.122,1331.39 944.244,1329.29 964.365,1336.56 984.487,1342.66 1004.61,1347.23 1024.73,1354.2 1044.85,1353.78 1064.97,1352.57 1085.1,1336.64 1105.22,1350.29 1125.34,1348.21 1145.46,1340.07 1165.58,1319.35 1185.7,1333.7 1205.82,1362.26 1225.95,1343.24 1246.07,1317.62 1266.19,1314.2 1286.31,1316.01 1306.43,1322.25 1326.55,1337.86 1346.68,1347.24 1366.8,1342.93 1386.92,1348.23 1407.04,1350.61 1427.16,1355.49 1447.28,1353.51 1467.41,1350.2 1487.53,1341.38 1507.65,1325.12 1527.77,1329.25 1547.89,1343.81 1568.01,1355.28 1588.14,1363.48 1608.26,1343.3 1628.38,1339.23 1648.5,1334.57 1668.62,1338.84 1688.74,1344.46 1708.86,1344.97 1728.99,1360.34 1749.11,1360.67 1769.23,1354.48 1789.35,1349.49 1809.47,1335.59 1829.59,1336.46 1849.72,1338.72 1869.84,1344.67 1889.96,1334.02 1910.08,1331.63 1930.2,1313.08 1950.32,1324.7 1970.45,1312.52 1990.57,1319.05 2010.69,1349.37 2030.81,1350.43 2050.93,1354.31 2071.05,1343.26 2091.18,1346.03 2111.3,1344 2131.42,1342.34 2151.54,1344.33 2171.66,1345.26 2191.78,1353.33 2211.9,1361.62 2232.03,1377.83 2252.15,1362.03 2272.27,1354.07 2292.39,1356.1 "></polyline>
<polyline clip-path="url(#clip482)" style="stroke:#0000ff; stroke-linecap:round; stroke-linejoin:round; stroke-width:8; stroke-opacity:1; fill:none" points="280.231,160.256 300.353,898.892 320.474,1159.02 340.596,1276.3 360.717,1320.3 380.839,1337.9 400.961,1334.93 421.082,1338.53 441.204,1351.86 461.325,1339.43 481.447,1336.77 501.569,1356.63 521.69,1354.6 541.812,1332.6 561.933,1328.11 582.055,1330.91 602.177,1341.51 622.298,1343.77 642.42,1330.44 662.541,1339.54 682.663,1335.05 702.785,1342.61 722.906,1320.36 743.028,1340.06 763.149,1348.69 783.271,1352.76 803.393,1336.24 823.514,1338.64 843.636,1327.93 863.757,1325.13 883.879,1338.94 904.001,1344.39 924.122,1331.39 944.244,1329.29 964.365,1336.56 984.487,1342.66 1004.61,1347.23 1024.73,1354.2 1044.85,1353.78 1064.97,1352.57 1085.1,1336.64 1105.22,1350.29 1125.34,1348.21 1145.46,1340.07 1165.58,1319.35 1185.7,1333.7 1205.82,1362.26 1225.95,1343.24 1246.07,1317.62 1266.19,1314.2 1286.31,1316.01 1306.43,1322.25 1326.55,1337.86 1346.68,1347.24 1366.8,1342.93 1386.92,1348.23 1407.04,1350.61 1427.16,1355.49 1447.28,1353.51 1467.41,1350.2 1487.53,1341.38 1507.65,1325.12 1527.77,1329.25 1547.89,1343.81 1568.01,1355.28 1588.14,1363.48 1608.26,1343.3 1628.38,1339.23 1648.5,1334.57 1668.62,1338.84 1688.74,1344.46 1708.86,1344.97 1728.99,1360.34 1749.11,1360.67 1769.23,1354.48 1789.35,1349.49 1809.47,1335.59 1829.59,1336.46 1849.72,1338.72 1869.84,1344.67 1889.96,1334.02 1910.08,1331.63 1930.2,1313.08 1950.32,1324.7 1970.45,1312.52 1990.57,1319.05 2010.69,1349.37 2030.81,1350.43 2050.93,1354.31 2071.05,1343.26 2091.18,1346.03 2111.3,1344 2131.42,1342.34 2151.54,1344.33 2171.66,1345.26 2191.78,1353.33 2211.9,1361.62 2232.03,1377.83 2252.15,1362.03 2272.27,1354.07 2292.39,1356.1 "></polyline>
<polyline clip-path="url(#clip482)" style="stroke:#0000ff; stroke-linecap:round; stroke-linejoin:round; stroke-width:8; stroke-opacity:1; fill:none" points="280.231,160.256 300.353,845.9 320.474,1123.01 340.596,1237.87 360.717,1293.48 380.839,1317.97 400.961,1324.78 421.082,1324.96 441.204,1316.31 461.325,1325.61 481.447,1340.71 501.569,1347.2 521.69,1349.66 541.812,1348.63 561.933,1351.84 582.055,1365.94 602.177,1361.29 622.298,1343.67 642.42,1340.71 662.541,1346.72 682.663,1325.86 702.785,1332.47 722.906,1321.44 743.028,1316.1 763.149,1326.32 783.271,1319.66 803.393,1326.31 823.514,1336.88 843.636,1335.88 863.757,1318.25 883.879,1330.47 904.001,1337.36 924.122,1333.44 944.244,1332.37 964.365,1315.49 984.487,1326.49 1004.61,1324.69 1024.73,1334.28 1044.85,1333.37 1064.97,1350.71 1085.1,1349.77 1105.22,1342.2 1125.34,1345.53 1145.46,1334.94 1165.58,1343.9 1185.7,1350.25 1205.82,1356.6 1225.95,1357.9 1246.07,1355.85 1266.19,1349.69 1286.31,1342.89 1306.43,1321.66 1326.55,1341.38 1346.68,1338.73 1366.8,1332.54 1386.92,1325.98 1407.04,1337.43 1427.16,1337.37 1447.28,1344.17 1467.41,1328.57 1487.53,1327.27 1507.65,1338.03 1527.77,1351.55 1547.89,1357.25 1568.01,1349.34 1588.14,1334.55 1608.26,1329.07 1628.38,1342.24 1648.5,1361.11 1668.62,1360.06 1688.74,1346.25 1708.86,1366.56 1728.99,1344.32 1749.11,1361.54 1769.23,1367.89 1789.35,1371.98 1809.47,1364.55 1829.59,1348.32 1849.72,1335.41 1869.84,1348.42 1889.96,1358.98 1910.08,1329.48 1930.2,1330.21 1950.32,1339.42 1970.45,1334.41 1990.57,1344.62 2010.69,1343.53 2030.81,1350.25 2050.93,1355.18 2071.05,1357.02 2091.18,1370.15 2111.3,1352.62 2131.42,1329.64 2151.54,1346.99 2171.66,1356.84 2191.78,1339.74 2211.9,1334.16 2232.03,1340.42 2252.15,1360.61 2272.27,1357.37 2292.39,1363.41 "></polyline>
<polyline clip-path="url(#clip482)" style="stroke:#008000; stroke-linecap:round; stroke-linejoin:round; stroke-width:8; stroke-opacity:1; fill:none" points="280.231,160.256 300.353,1357.98 320.474,1347.91 340.596,1342.86 360.717,1356.33 380.839,1335.3 400.961,1343.28 421.082,1346.27 441.204,1335.48 461.325,1352 481.447,1335.02 501.569,1362.94 521.69,1351.87 541.812,1334.16 561.933,1335.34 582.055,1336.7 602.177,1360.96 622.298,1340.28 642.42,1344.94 662.541,1332.05 682.663,1338.3 702.785,1328.72 722.906,1322.14 743.028,1307.46 763.149,1336.01 783.271,1342.78 803.393,1363.86 823.514,1341.45 843.636,1346.49 863.757,1342.63 883.879,1328.08 904.001,1327.13 924.122,1350.56 944.244,1359.62 964.365,1336.17 984.487,1325.5 1004.61,1351.55 1024.73,1348.4 1044.85,1352.5 1064.97,1350.67 1085.1,1332.35 1105.22,1343.08 1125.34,1337.8 1145.46,1335.29 1165.58,1342.64 1185.7,1337.08 1205.82,1350.79 1225.95,1343.9 1246.07,1333.68 1266.19,1339.29 1286.31,1360.87 1306.43,1335.97 1326.55,1351.25 1346.68,1342.31 1366.8,1356.57 1386.92,1341.63 1407.04,1350.44 1427.16,1344.41 1447.28,1341.95 1467.41,1343.72 1487.53,1335.08 1507.65,1336.4 1527.77,1344.43 1547.89,1329.63 1568.01,1360.95 1588.14,1334.23 1608.26,1334.64 1628.38,1345.35 1648.5,1343.03 1668.62,1340.77 1688.74,1330.98 1708.86,1349.07 1728.99,1345.77 1749.11,1338.33 1769.23,1350.4 1789.35,1346.81 1809.47,1343.94 1829.59,1344.42 1849.72,1361.67 1869.84,1337.38 1889.96,1326.98 1910.08,1329.98 1930.2,1342.63 1950.32,1321.71 1970.45,1349.83 1990.57,1351.08 2010.69,1355.09 2030.81,1333.78 2050.93,1324.05 2071.05,1340.14 2091.18,1325.7 2111.3,1361.37 2131.42,1347.24 2151.54,1344.25 2171.66,1350.93 2191.78,1334.61 2211.9,1344.3 2232.03,1348.81 2252.15,1337.41 2272.27,1352.71 2292.39,1339.26 "></polyline>
<polyline clip-path="url(#clip482)" style="stroke:#008000; stroke-linecap:round; stroke-linejoin:round; stroke-width:8; stroke-opacity:1; fill:none" points="280.231,160.256 300.353,1312.58 320.474,1337.2 340.596,1338.58 360.717,1326.15 380.839,1336.01 400.961,1349.75 421.082,1326.52 441.204,1315.91 461.325,1353.07 481.447,1328.68 501.569,1327.8 521.69,1341.55 541.812,1358.27 561.933,1354.58 582.055,1351.37 602.177,1351.54 622.298,1365.82 642.42,1344.88 662.541,1333.87 682.663,1328.17 702.785,1352.49 722.906,1345.83 743.028,1349.79 763.149,1342.11 783.271,1330.4 803.393,1340.41 823.514,1335.39 843.636,1343.01 863.757,1330.56 883.879,1340.55 904.001,1325.85 924.122,1321.49 944.244,1340.56 964.365,1346.51 984.487,1354.43 1004.61,1362.08 1024.73,1339.53 1044.85,1349.52 1064.97,1343.99 1085.1,1341.17 1105.22,1352.4 1125.34,1334.78 1145.46,1328.13 1165.58,1334.37 1185.7,1351.39 1205.82,1350.07 1225.95,1367.64 1246.07,1352.46 1266.19,1367.45 1286.31,1334.22 1306.43,1329.24 1326.55,1340.04 1346.68,1328.43 1366.8,1344.21 1386.92,1338.35 1407.04,1347.06 1427.16,1351.3 1447.28,1331.98 1467.41,1344.46 1487.53,1338.67 1507.65,1339.83 1527.77,1338.38 1547.89,1344.3 1568.01,1354.85 1588.14,1334.27 1608.26,1336.1 1628.38,1345.21 1648.5,1345.86 1668.62,1345.81 1688.74,1331.21 1708.86,1369.08 1728.99,1371.47 1749.11,1331.85 1769.23,1326.58 1789.35,1307.81 1809.47,1336.34 1829.59,1357.11 1849.72,1343.67 1869.84,1346.98 1889.96,1328.32 1910.08,1326.68 1930.2,1355.32 1950.32,1340.26 1970.45,1309.44 1990.57,1321.22 2010.69,1353.62 2030.81,1351.35 2050.93,1330.92 2071.05,1332.95 2091.18,1340.91 2111.3,1350.98 2131.42,1350.96 2151.54,1345.56 2171.66,1371.7 2191.78,1330.73 2211.9,1348.16 2232.03,1344.53 2252.15,1349.71 2272.27,1353.72 2292.39,1349.21 "></polyline>
<path clip-path="url(#clip480)" d="M2036.38 374.156 L2281.66 374.156 L2281.66 166.796 L2036.38 166.796  Z" fill="#ffffff" fill-rule="evenodd" fill-opacity="1"></path>
<polyline clip-path="url(#clip480)" style="stroke:#000000; stroke-linecap:round; stroke-linejoin:round; stroke-width:4; stroke-opacity:1; fill:none" points="2036.38,374.156 2281.66,374.156 2281.66,166.796 2036.38,166.796 2036.38,374.156 "></polyline>
<polyline clip-path="url(#clip480)" style="stroke:#ff0000; stroke-linecap:round; stroke-linejoin:round; stroke-width:8; stroke-opacity:1; fill:none" points="2060.08,218.636 2202.27,218.636 "></polyline>
<path clip-path="url(#clip480)" d="M2241.8 205.962 L2235.46 223.161 L2248.17 223.161 L2241.8 205.962 M2239.16 201.356 L2244.47 201.356 L2257.64 235.916 L2252.78 235.916 L2249.63 227.05 L2234.05 227.05 L2230.9 235.916 L2225.97 235.916 L2239.16 201.356 Z" fill="#000000" fill-rule="nonzero" fill-opacity="1"></path><polyline clip-path="url(#clip480)" style="stroke:#0000ff; stroke-linecap:round; stroke-linejoin:round; stroke-width:8; stroke-opacity:1; fill:none" points="2060.08,270.476 2202.27,270.476 "></polyline>
<path clip-path="url(#clip480)" d="M2241.99 256.367 Q2236.9 256.367 2233.89 260.163 Q2230.9 263.96 2230.9 270.51 Q2230.9 277.038 2233.89 280.834 Q2236.9 284.631 2241.99 284.631 Q2247.08 284.631 2250.04 280.834 Q2253.03 277.038 2253.03 270.51 Q2253.03 263.96 2250.04 260.163 Q2247.08 256.367 2241.99 256.367 M2248.54 287.131 L2254.7 293.867 L2249.05 293.867 L2243.93 288.334 Q2243.17 288.381 2242.75 288.404 Q2242.36 288.427 2241.99 288.427 Q2234.7 288.427 2230.32 283.566 Q2225.97 278.682 2225.97 270.51 Q2225.97 262.316 2230.32 257.455 Q2234.7 252.571 2241.99 252.571 Q2249.26 252.571 2253.61 257.455 Q2257.96 262.316 2257.96 270.51 Q2257.96 276.529 2255.53 280.811 Q2253.12 285.094 2248.54 287.131 Z" fill="#000000" fill-rule="nonzero" fill-opacity="1"></path><polyline clip-path="url(#clip480)" style="stroke:#008000; stroke-linecap:round; stroke-linejoin:round; stroke-width:8; stroke-opacity:1; fill:none" points="2060.08,322.316 2202.27,322.316 "></polyline>
<path clip-path="url(#clip480)" d="M2250.62 313.67 L2241.25 326.286 L2251.11 339.596 L2246.09 339.596 L2238.54 329.411 L2230.99 339.596 L2225.97 339.596 L2236.04 326.031 L2226.83 313.67 L2231.85 313.67 L2238.72 322.906 L2245.6 313.67 L2250.62 313.67 Z" fill="#000000" fill-rule="nonzero" fill-opacity="1"></path></svg>