<svg xmlns="http://www.w3.org/2000/svg" xmlns:xlink="http://www.w3.org/1999/xlink" width="600" height="400" viewBox="0 0 2400 1600">
<defs>
  <clipPath id="clip000">
    <rect x="0" y="0" width="2400" height="1600"></rect>
  </clipPath>
</defs>
<path clip-path="url(#clip000)" d="M0 1600 L2400 1600 L2400 0 L0 0  Z" fill="#ffffff" fill-rule="evenodd" fill-opacity="1"></path>
<defs>
  <clipPath id="clip001">
    <rect x="480" y="0" width="1681" height="1600"></rect>
  </clipPath>
</defs>
<path clip-path="url(#clip000)" d="M212.135 1423.18 L2352.76 1423.18 L2352.76 123.472 L212.135 123.472  Z" fill="#ffffff" fill-rule="evenodd" fill-opacity="1"></path>
<defs>
  <clipPath id="clip002">
    <rect x="212" y="123" width="2142" height="1301"></rect>
  </clipPath>
</defs>
<polyline clip-path="url(#clip002)" style="stroke:#000000; stroke-linecap:round; stroke-linejoin:round; stroke-width:2; stroke-opacity:0.1; fill:none" points="272.718,1423.18 272.718,123.472 "></polyline>
<polyline clip-path="url(#clip002)" style="stroke:#000000; stroke-linecap:round; stroke-linejoin:round; stroke-width:2; stroke-opacity:0.1; fill:none" points="777.582,1423.18 777.582,123.472 "></polyline>
<polyline clip-path="url(#clip002)" style="stroke:#000000; stroke-linecap:round; stroke-linejoin:round; stroke-width:2; stroke-opacity:0.1; fill:none" points="1282.45,1423.18 1282.45,123.472 "></polyline>
<polyline clip-path="url(#clip002)" style="stroke:#000000; stroke-linecap:round; stroke-linejoin:round; stroke-width:2; stroke-opacity:0.1; fill:none" points="1787.31,1423.18 1787.31,123.472 "></polyline>
<polyline clip-path="url(#clip002)" style="stroke:#000000; stroke-linecap:round; stroke-linejoin:round; stroke-width:2; stroke-opacity:0.1; fill:none" points="2292.17,1423.18 2292.17,123.472 "></polyline>
<polyline clip-path="url(#clip000)" style="stroke:#000000; stroke-linecap:round; stroke-linejoin:round; stroke-width:4; stroke-opacity:1; fill:none" points="212.135,1423.18 2352.76,1423.18 "></polyline>
<polyline clip-path="url(#clip000)" style="stroke:#000000; stroke-linecap:round; stroke-linejoin:round; stroke-width:4; stroke-opacity:1; fill:none" points="272.718,1423.18 272.718,1404.28 "></polyline>
<polyline clip-path="url(#clip000)" style="stroke:#000000; stroke-linecap:round; stroke-linejoin:round; stroke-width:4; stroke-opacity:1; fill:none" points="777.582,1423.18 777.582,1404.28 "></polyline>
<polyline clip-path="url(#clip000)" style="stroke:#000000; stroke-linecap:round; stroke-linejoin:round; stroke-width:4; stroke-opacity:1; fill:none" points="1282.45,1423.18 1282.45,1404.28 "></polyline>
<polyline clip-path="url(#clip000)" style="stroke:#000000; stroke-linecap:round; stroke-linejoin:round; stroke-width:4; stroke-opacity:1; fill:none" points="1787.31,1423.18 1787.31,1404.28 "></polyline>
<polyline clip-path="url(#clip000)" style="stroke:#000000; stroke-linecap:round; stroke-linejoin:round; stroke-width:4; stroke-opacity:1; fill:none" points="2292.17,1423.18 2292.17,1404.28 "></polyline>
<path clip-path="url(#clip000)" d="M272.718 1454.1 Q269.107 1454.1 267.279 1457.66 Q265.473 1461.2 265.473 1468.33 Q265.473 1475.44 267.279 1479.01 Q269.107 1482.55 272.718 1482.55 Q276.353 1482.55 278.158 1479.01 Q279.987 1475.44 279.987 1468.33 Q279.987 1461.2 278.158 1457.66 Q276.353 1454.1 272.718 1454.1 M272.718 1450.39 Q278.529 1450.39 281.584 1455 Q284.663 1459.58 284.663 1468.33 Q284.663 1477.06 281.584 1481.67 Q278.529 1486.25 272.718 1486.25 Q266.908 1486.25 263.83 1481.67 Q260.774 1477.06 260.774 1468.33 Q260.774 1459.58 263.83 1455 Q266.908 1450.39 272.718 1450.39 Z" fill="#000000" fill-rule="nonzero" fill-opacity="1"></path><path clip-path="url(#clip000)" d="M752.27 1481.64 L759.908 1481.64 L759.908 1455.28 L751.598 1456.95 L751.598 1452.69 L759.862 1451.02 L764.538 1451.02 L764.538 1481.64 L772.177 1481.64 L772.177 1485.58 L752.27 1485.58 L752.27 1481.64 Z" fill="#000000" fill-rule="nonzero" fill-opacity="1"></path><path clip-path="url(#clip000)" d="M791.621 1454.1 Q788.01 1454.1 786.181 1457.66 Q784.376 1461.2 784.376 1468.33 Q784.376 1475.44 786.181 1479.01 Q788.01 1482.55 791.621 1482.55 Q795.255 1482.55 797.061 1479.01 Q798.89 1475.44 798.89 1468.33 Q798.89 1461.2 797.061 1457.66 Q795.255 1454.1 791.621 1454.1 M791.621 1450.39 Q797.431 1450.39 800.487 1455 Q803.566 1459.58 803.566 1468.33 Q803.566 1477.06 800.487 1481.67 Q797.431 1486.25 791.621 1486.25 Q785.811 1486.25 782.732 1481.67 Q779.677 1477.06 779.677 1468.33 Q779.677 1459.58 782.732 1455 Q785.811 1450.39 791.621 1450.39 Z" fill="#000000" fill-rule="nonzero" fill-opacity="1"></path><path clip-path="url(#clip000)" d="M1261.22 1481.64 L1277.54 1481.64 L1277.54 1485.58 L1255.59 1485.58 L1255.59 1481.64 Q1258.26 1478.89 1262.84 1474.26 Q1267.45 1469.61 1268.63 1468.27 Q1270.87 1465.74 1271.75 1464.01 Q1272.65 1462.25 1272.65 1460.56 Q1272.65 1457.8 1270.71 1456.07 Q1268.79 1454.33 1265.69 1454.33 Q1263.49 1454.33 1261.03 1455.09 Q1258.6 1455.86 1255.83 1457.41 L1255.83 1452.69 Q1258.65 1451.55 1261.1 1450.97 Q1263.56 1450.39 1265.59 1450.39 Q1270.96 1450.39 1274.16 1453.08 Q1277.35 1455.77 1277.35 1460.26 Q1277.35 1462.39 1276.54 1464.31 Q1275.76 1466.2 1273.65 1468.8 Q1273.07 1469.47 1269.97 1472.69 Q1266.87 1475.88 1261.22 1481.64 Z" fill="#000000" fill-rule="nonzero" fill-opacity="1"></path><path clip-path="url(#clip000)" d="M1297.35 1454.1 Q1293.74 1454.1 1291.91 1457.66 Q1290.11 1461.2 1290.11 1468.33 Q1290.11 1475.44 1291.91 1479.01 Q1293.74 1482.55 1297.35 1482.55 Q1300.99 1482.55 1302.79 1479.01 Q1304.62 1475.44 1304.62 1468.33 Q1304.62 1461.2 1302.79 1457.66 Q1300.99 1454.1 1297.35 1454.1 M1297.35 1450.39 Q1303.16 1450.39 1306.22 1455 Q1309.3 1459.58 1309.3 1468.33 Q1309.3 1477.06 1306.22 1481.67 Q1303.16 1486.25 1297.35 1486.25 Q1291.54 1486.25 1288.46 1481.67 Q1285.41 1477.06 1285.41 1468.33 Q1285.41 1459.58 1288.46 1455 Q1291.54 1450.39 1297.35 1450.39 Z" fill="#000000" fill-rule="nonzero" fill-opacity="1"></path><path clip-path="url(#clip000)" d="M1776.15 1466.95 Q1779.51 1467.66 1781.38 1469.93 Q1783.28 1472.2 1783.28 1475.53 Q1783.28 1480.65 1779.76 1483.45 Q1776.24 1486.25 1769.76 1486.25 Q1767.59 1486.25 1765.27 1485.81 Q1762.98 1485.39 1760.53 1484.54 L1760.53 1480.02 Q1762.47 1481.16 1764.79 1481.74 Q1767.1 1482.32 1769.62 1482.32 Q1774.02 1482.32 1776.31 1480.58 Q1778.63 1478.84 1778.63 1475.53 Q1778.63 1472.48 1776.48 1470.77 Q1774.35 1469.03 1770.53 1469.03 L1766.5 1469.03 L1766.5 1465.19 L1770.71 1465.19 Q1774.16 1465.19 1775.99 1463.82 Q1777.82 1462.43 1777.82 1459.84 Q1777.82 1457.18 1775.92 1455.77 Q1774.05 1454.33 1770.53 1454.33 Q1768.61 1454.33 1766.41 1454.75 Q1764.21 1455.16 1761.57 1456.04 L1761.57 1451.88 Q1764.23 1451.14 1766.55 1450.77 Q1768.88 1450.39 1770.94 1450.39 Q1776.27 1450.39 1779.37 1452.83 Q1782.47 1455.23 1782.47 1459.35 Q1782.47 1462.22 1780.83 1464.21 Q1779.18 1466.18 1776.15 1466.95 Z" fill="#000000" fill-rule="nonzero" fill-opacity="1"></path><path clip-path="url(#clip000)" d="M1802.15 1454.1 Q1798.54 1454.1 1796.71 1457.66 Q1794.9 1461.2 1794.9 1468.33 Q1794.9 1475.44 1796.71 1479.01 Q1798.54 1482.55 1802.15 1482.55 Q1805.78 1482.55 1807.59 1479.01 Q1809.42 1475.44 1809.42 1468.33 Q1809.42 1461.2 1807.59 1457.66 Q1805.78 1454.1 1802.15 1454.1 M1802.15 1450.39 Q1807.96 1450.39 1811.01 1455 Q1814.09 1459.58 1814.09 1468.33 Q1814.09 1477.06 1811.01 1481.67 Q1807.96 1486.25 1802.15 1486.25 Q1796.34 1486.25 1793.26 1481.67 Q1790.2 1477.06 1790.2 1468.33 Q1790.2 1459.58 1793.26 1455 Q1796.34 1450.39 1802.15 1450.39 Z" fill="#000000" fill-rule="nonzero" fill-opacity="1"></path><path clip-path="url(#clip000)" d="M2280.34 1455.09 L2268.54 1473.54 L2280.34 1473.54 L2280.34 1455.09 M2279.12 1451.02 L2285 1451.02 L2285 1473.54 L2289.93 1473.54 L2289.93 1477.43 L2285 1477.43 L2285 1485.58 L2280.34 1485.58 L2280.34 1477.43 L2264.74 1477.43 L2264.74 1472.92 L2279.12 1451.02 Z" fill="#000000" fill-rule="nonzero" fill-opacity="1"></path><path clip-path="url(#clip000)" d="M2307.66 1454.1 Q2304.05 1454.1 2302.22 1457.66 Q2300.41 1461.2 2300.41 1468.33 Q2300.41 1475.44 2302.22 1479.01 Q2304.05 1482.55 2307.66 1482.55 Q2311.29 1482.55 2313.1 1479.01 Q2314.93 1475.44 2314.93 1468.33 Q2314.93 1461.2 2313.1 1457.66 Q2311.29 1454.1 2307.66 1454.1 M2307.66 1450.39 Q2313.47 1450.39 2316.52 1455 Q2319.6 1459.58 2319.6 1468.33 Q2319.6 1477.06 2316.52 1481.67 Q2313.47 1486.25 2307.66 1486.25 Q2301.85 1486.25 2298.77 1481.67 Q2295.71 1477.06 2295.71 1468.33 Q2295.71 1459.58 2298.77 1455 Q2301.85 1450.39 2307.66 1450.39 Z" fill="#000000" fill-rule="nonzero" fill-opacity="1"></path><path clip-path="url(#clip000)" d="M1281.51 1522.27 L1281.51 1532.4 L1293.57 1532.4 L1293.57 1536.95 L1281.51 1536.95 L1281.51 1556.3 Q1281.51 1560.66 1282.68 1561.9 Q1283.89 1563.14 1287.55 1563.14 L1293.57 1563.14 L1293.57 1568.04 L1287.55 1568.04 Q1280.77 1568.04 1278.2 1565.53 Q1275.62 1562.98 1275.62 1556.3 L1275.62 1536.95 L1271.32 1536.95 L1271.32 1532.4 L1275.62 1532.4 L1275.62 1522.27 L1281.51 1522.27 Z" fill="#000000" fill-rule="nonzero" fill-opacity="1"></path><polyline clip-path="url(#clip002)" style="stroke:#000000; stroke-linecap:round; stroke-linejoin:round; stroke-width:2; stroke-opacity:0.1; fill:none" points="212.135,1288.7 2352.76,1288.7 "></polyline>
<polyline clip-path="url(#clip002)" style="stroke:#000000; stroke-linecap:round; stroke-linejoin:round; stroke-width:2; stroke-opacity:0.1; fill:none" points="212.135,1045.64 2352.76,1045.64 "></polyline>
<polyline clip-path="url(#clip002)" style="stroke:#000000; stroke-linecap:round; stroke-linejoin:round; stroke-width:2; stroke-opacity:0.1; fill:none" points="212.135,802.581 2352.76,802.581 "></polyline>
<polyline clip-path="url(#clip002)" style="stroke:#000000; stroke-linecap:round; stroke-linejoin:round; stroke-width:2; stroke-opacity:0.1; fill:none" points="212.135,559.522 2352.76,559.522 "></polyline>
<polyline clip-path="url(#clip002)" style="stroke:#000000; stroke-linecap:round; stroke-linejoin:round; stroke-width:2; stroke-opacity:0.1; fill:none" points="212.135,316.464 2352.76,316.464 "></polyline>
<polyline clip-path="url(#clip000)" style="stroke:#000000; stroke-linecap:round; stroke-linejoin:round; stroke-width:4; stroke-opacity:1; fill:none" points="212.135,1423.18 212.135,123.472 "></polyline>
<polyline clip-path="url(#clip000)" style="stroke:#000000; stroke-linecap:round; stroke-linejoin:round; stroke-width:4; stroke-opacity:1; fill:none" points="212.135,1288.7 231.032,1288.7 "></polyline>
<polyline clip-path="url(#clip000)" style="stroke:#000000; stroke-linecap:round; stroke-linejoin:round; stroke-width:4; stroke-opacity:1; fill:none" points="212.135,1045.64 231.032,1045.64 "></polyline>
<polyline clip-path="url(#clip000)" style="stroke:#000000; stroke-linecap:round; stroke-linejoin:round; stroke-width:4; stroke-opacity:1; fill:none" points="212.135,802.581 231.032,802.581 "></polyline>
<polyline clip-path="url(#clip000)" style="stroke:#000000; stroke-linecap:round; stroke-linejoin:round; stroke-width:4; stroke-opacity:1; fill:none" points="212.135,559.522 231.032,559.522 "></polyline>
<polyline clip-path="url(#clip000)" style="stroke:#000000; stroke-linecap:round; stroke-linejoin:round; stroke-width:4; stroke-opacity:1; fill:none" points="212.135,316.464 231.032,316.464 "></polyline>
<path clip-path="url(#clip000)" d="M114.26 1289.15 L143.936 1289.15 L143.936 1293.08 L114.26 1293.08 L114.26 1289.15 Z" fill="#000000" fill-rule="nonzero" fill-opacity="1"></path><path clip-path="url(#clip000)" d="M164.607 1286.83 Q161.459 1286.83 159.607 1288.99 Q157.778 1291.14 157.778 1294.89 Q157.778 1298.62 159.607 1300.79 Q161.459 1302.94 164.607 1302.94 Q167.755 1302.94 169.584 1300.79 Q171.436 1298.62 171.436 1294.89 Q171.436 1291.14 169.584 1288.99 Q167.755 1286.83 164.607 1286.83 M173.889 1272.18 L173.889 1276.44 Q172.13 1275.61 170.325 1275.17 Q168.542 1274.73 166.783 1274.73 Q162.153 1274.73 159.7 1277.85 Q157.269 1280.98 156.922 1287.3 Q158.288 1285.28 160.348 1284.22 Q162.408 1283.13 164.885 1283.13 Q170.093 1283.13 173.102 1286.3 Q176.135 1289.45 176.135 1294.89 Q176.135 1300.21 172.987 1303.43 Q169.839 1306.65 164.607 1306.65 Q158.612 1306.65 155.44 1302.07 Q152.269 1297.46 152.269 1288.73 Q152.269 1280.54 156.158 1275.68 Q160.047 1270.79 166.598 1270.79 Q168.357 1270.79 170.139 1271.14 Q171.945 1271.49 173.889 1272.18 Z" fill="#000000" fill-rule="nonzero" fill-opacity="1"></path><path clip-path="url(#clip000)" d="M115.07 1046.09 L144.746 1046.09 L144.746 1050.03 L115.07 1050.03 L115.07 1046.09 Z" fill="#000000" fill-rule="nonzero" fill-opacity="1"></path><path clip-path="url(#clip000)" d="M169.005 1044.28 Q172.362 1045 174.237 1047.27 Q176.135 1049.54 176.135 1052.87 Q176.135 1057.99 172.616 1060.79 Q169.098 1063.59 162.616 1063.59 Q160.44 1063.59 158.126 1063.15 Q155.834 1062.73 153.38 1061.88 L153.38 1057.36 Q155.325 1058.5 157.64 1059.08 Q159.954 1059.66 162.477 1059.66 Q166.876 1059.66 169.167 1057.92 Q171.482 1056.18 171.482 1052.87 Q171.482 1049.82 169.329 1048.1 Q167.2 1046.37 163.38 1046.37 L159.353 1046.37 L159.353 1042.53 L163.565 1042.53 Q167.015 1042.53 168.843 1041.16 Q170.672 1039.77 170.672 1037.18 Q170.672 1034.52 168.774 1033.1 Q166.899 1031.67 163.38 1031.67 Q161.459 1031.67 159.26 1032.09 Q157.061 1032.5 154.422 1033.38 L154.422 1029.22 Q157.084 1028.47 159.399 1028.1 Q161.737 1027.73 163.797 1027.73 Q169.121 1027.73 172.223 1030.16 Q175.325 1032.57 175.325 1036.69 Q175.325 1039.56 173.681 1041.55 Q172.038 1043.52 169.005 1044.28 Z" fill="#000000" fill-rule="nonzero" fill-opacity="1"></path><path clip-path="url(#clip000)" d="M164.19 788.379 Q160.579 788.379 158.751 791.944 Q156.945 795.486 156.945 802.615 Q156.945 809.722 158.751 813.287 Q160.579 816.828 164.19 816.828 Q167.825 816.828 169.63 813.287 Q171.459 809.722 171.459 802.615 Q171.459 795.486 169.63 791.944 Q167.825 788.379 164.19 788.379 M164.19 784.676 Q170.001 784.676 173.056 789.282 Q176.135 793.865 176.135 802.615 Q176.135 811.342 173.056 815.949 Q170.001 820.532 164.19 820.532 Q158.38 820.532 155.302 815.949 Q152.246 811.342 152.246 802.615 Q152.246 793.865 155.302 789.282 Q158.38 784.676 164.19 784.676 Z" fill="#000000" fill-rule="nonzero" fill-opacity="1"></path><path clip-path="url(#clip000)" d="M169.005 558.168 Q172.362 558.886 174.237 561.154 Q176.135 563.423 176.135 566.756 Q176.135 571.872 172.616 574.673 Q169.098 577.474 162.616 577.474 Q160.44 577.474 158.126 577.034 Q155.834 576.617 153.38 575.761 L153.38 571.247 Q155.325 572.381 157.64 572.96 Q159.954 573.538 162.477 573.538 Q166.876 573.538 169.167 571.802 Q171.482 570.066 171.482 566.756 Q171.482 563.701 169.329 561.988 Q167.2 560.251 163.38 560.251 L159.353 560.251 L159.353 556.409 L163.565 556.409 Q167.015 556.409 168.843 555.043 Q170.672 553.654 170.672 551.062 Q170.672 548.4 168.774 546.988 Q166.899 545.552 163.38 545.552 Q161.459 545.552 159.26 545.969 Q157.061 546.386 154.422 547.265 L154.422 543.099 Q157.084 542.358 159.399 541.988 Q161.737 541.617 163.797 541.617 Q169.121 541.617 172.223 544.048 Q175.325 546.455 175.325 550.576 Q175.325 553.446 173.681 555.437 Q172.038 557.404 169.005 558.168 Z" fill="#000000" fill-rule="nonzero" fill-opacity="1"></path><path clip-path="url(#clip000)" d="M164.607 314.601 Q161.459 314.601 159.607 316.753 Q157.778 318.906 157.778 322.656 Q157.778 326.383 159.607 328.559 Q161.459 330.712 164.607 330.712 Q167.755 330.712 169.584 328.559 Q171.436 326.383 171.436 322.656 Q171.436 318.906 169.584 316.753 Q167.755 314.601 164.607 314.601 M173.889 299.948 L173.889 304.207 Q172.13 303.374 170.325 302.934 Q168.542 302.494 166.783 302.494 Q162.153 302.494 159.7 305.619 Q157.269 308.744 156.922 315.064 Q158.288 313.05 160.348 311.985 Q162.408 310.897 164.885 310.897 Q170.093 310.897 173.102 314.068 Q176.135 317.216 176.135 322.656 Q176.135 327.98 172.987 331.198 Q169.839 334.415 164.607 334.415 Q158.612 334.415 155.44 329.832 Q152.269 325.226 152.269 316.499 Q152.269 308.304 156.158 303.443 Q160.047 298.559 166.598 298.559 Q168.357 298.559 170.139 298.906 Q171.945 299.253 173.889 299.948 Z" fill="#000000" fill-rule="nonzero" fill-opacity="1"></path><path clip-path="url(#clip000)" d="M67.3143 771.639 Q73.68 774.122 75.6216 776.477 Q77.5631 778.832 77.5631 782.779 L77.5631 787.458 L72.6615 787.458 L72.6615 784.02 Q72.6615 781.601 71.5157 780.265 Q70.3699 778.928 66.1048 777.305 L63.4312 776.254 L28.3562 790.673 L28.3562 784.466 L56.238 773.326 L28.3562 762.186 L28.3562 755.979 L67.3143 771.639 Z" fill="#000000" fill-rule="nonzero" fill-opacity="1"></path><path clip-path="url(#clip000)" d="M627.07 65.7705 L627.07 89.8329 L619.576 89.8329 L619.576 27.2059 L627.07 27.2059 L627.07 34.0924 Q629.419 30.0415 632.984 28.0971 Q636.589 26.1121 641.572 26.1121 Q649.836 26.1121 654.981 32.6746 Q660.166 39.2371 660.166 49.9314 Q660.166 60.6258 654.981 67.1883 Q649.836 73.7508 641.572 73.7508 Q636.589 73.7508 632.984 71.8063 Q629.419 69.8214 627.07 65.7705 M652.428 49.9314 Q652.428 41.7081 649.026 37.0496 Q645.663 32.3505 639.749 32.3505 Q633.835 32.3505 630.432 37.0496 Q627.07 41.7081 627.07 49.9314 Q627.07 58.1548 630.432 62.8538 Q633.835 67.5124 639.749 67.5124 Q645.663 67.5124 649.026 62.8538 Q652.428 58.1548 652.428 49.9314 Z" fill="#000000" fill-rule="nonzero" fill-opacity="1"></path><path clip-path="url(#clip000)" d="M698.811 34.1734 Q697.556 33.4443 696.057 33.1202 Q694.598 32.7556 692.816 32.7556 Q686.497 32.7556 683.094 36.8875 Q679.732 40.9789 679.732 48.6757 L679.732 72.576 L672.237 72.576 L672.237 27.2059 L679.732 27.2059 L679.732 34.2544 Q682.081 30.1225 685.848 28.1376 Q689.616 26.1121 695.003 26.1121 Q695.773 26.1121 696.705 26.2337 Q697.637 26.3147 698.771 26.5172 L698.811 34.1734 Z" fill="#000000" fill-rule="nonzero" fill-opacity="1"></path><path clip-path="url(#clip000)" d="M743.614 48.0275 L743.614 51.6733 L709.344 51.6733 Q709.83 59.3701 713.962 63.421 Q718.134 67.4314 725.547 67.4314 Q729.841 67.4314 733.852 66.3781 Q737.903 65.3249 741.872 63.2184 L741.872 70.267 Q737.862 71.9684 733.649 72.8596 Q729.436 73.7508 725.102 73.7508 Q714.245 73.7508 707.885 67.4314 Q701.566 61.1119 701.566 50.3365 Q701.566 39.1965 707.561 32.6746 Q713.597 26.1121 723.805 26.1121 Q732.96 26.1121 738.267 32.0264 Q743.614 37.9003 743.614 48.0275 M736.161 45.84 Q736.08 39.7232 732.717 36.0774 Q729.396 32.4315 723.886 32.4315 Q717.648 32.4315 713.881 35.9558 Q710.154 39.4801 709.587 45.8805 L736.161 45.84 Z" fill="#000000" fill-rule="nonzero" fill-opacity="1"></path><path clip-path="url(#clip000)" d="M785.703 34.0924 L785.703 9.54393 L793.157 9.54393 L793.157 72.576 L785.703 72.576 L785.703 65.7705 Q783.354 69.8214 779.748 71.8063 Q776.184 73.7508 771.16 73.7508 Q762.937 73.7508 757.752 67.1883 Q752.607 60.6258 752.607 49.9314 Q752.607 39.2371 757.752 32.6746 Q762.937 26.1121 771.16 26.1121 Q776.184 26.1121 779.748 28.0971 Q783.354 30.0415 785.703 34.0924 M760.304 49.9314 Q760.304 58.1548 763.666 62.8538 Q767.069 67.5124 772.983 67.5124 Q778.898 67.5124 782.3 62.8538 Q785.703 58.1548 785.703 49.9314 Q785.703 41.7081 782.3 37.0496 Q778.898 32.3505 772.983 32.3505 Q767.069 32.3505 763.666 37.0496 Q760.304 41.7081 760.304 49.9314 Z" fill="#000000" fill-rule="nonzero" fill-opacity="1"></path><path clip-path="url(#clip000)" d="M808.51 27.2059 L815.963 27.2059 L815.963 72.576 L808.51 72.576 L808.51 27.2059 M808.51 9.54393 L815.963 9.54393 L815.963 18.9825 L808.51 18.9825 L808.51 9.54393 Z" fill="#000000" fill-rule="nonzero" fill-opacity="1"></path><path clip-path="url(#clip000)" d="M864.21 28.9478 L864.21 35.9153 Q861.05 34.1734 857.85 33.3227 Q854.69 32.4315 851.449 32.4315 Q844.198 32.4315 840.188 37.0496 Q836.178 41.6271 836.178 49.9314 Q836.178 58.2358 840.188 62.8538 Q844.198 67.4314 851.449 67.4314 Q854.69 67.4314 857.85 66.5807 Q861.05 65.6895 864.21 63.9476 L864.21 70.8341 Q861.091 72.2924 857.728 73.0216 Q854.407 73.7508 850.639 73.7508 Q840.39 73.7508 834.355 67.3098 Q828.319 60.8689 828.319 49.9314 Q828.319 38.832 834.395 32.472 Q840.512 26.1121 851.125 26.1121 Q854.569 26.1121 857.85 26.8413 Q861.131 27.5299 864.21 28.9478 Z" fill="#000000" fill-rule="nonzero" fill-opacity="1"></path><path clip-path="url(#clip000)" d="M884.545 14.324 L884.545 27.2059 L899.898 27.2059 L899.898 32.9987 L884.545 32.9987 L884.545 57.6282 Q884.545 63.1779 886.044 64.7578 Q887.583 66.3376 892.242 66.3376 L899.898 66.3376 L899.898 72.576 L892.242 72.576 Q883.614 72.576 880.332 69.3758 Q877.051 66.1351 877.051 57.6282 L877.051 32.9987 L871.582 32.9987 L871.582 27.2059 L877.051 27.2059 L877.051 14.324 L884.545 14.324 Z" fill="#000000" fill-rule="nonzero" fill-opacity="1"></path><path clip-path="url(#clip000)" d="M948.509 48.0275 L948.509 51.6733 L914.238 51.6733 Q914.725 59.3701 918.856 63.421 Q923.029 67.4314 930.442 67.4314 Q934.736 67.4314 938.746 66.3781 Q942.797 65.3249 946.767 63.2184 L946.767 70.267 Q942.757 71.9684 938.544 72.8596 Q934.331 73.7508 929.996 73.7508 Q919.14 73.7508 912.78 67.4314 Q906.461 61.1119 906.461 50.3365 Q906.461 39.1965 912.456 32.6746 Q918.492 26.1121 928.7 26.1121 Q937.855 26.1121 943.162 32.0264 Q948.509 37.9003 948.509 48.0275 M941.055 45.84 Q940.974 39.7232 937.612 36.0774 Q934.29 32.4315 928.781 32.4315 Q922.543 32.4315 918.775 35.9558 Q915.049 39.4801 914.481 45.8805 L941.055 45.84 Z" fill="#000000" fill-rule="nonzero" fill-opacity="1"></path><path clip-path="url(#clip000)" d="M990.598 34.0924 L990.598 9.54393 L998.052 9.54393 L998.052 72.576 L990.598 72.576 L990.598 65.7705 Q988.248 69.8214 984.643 71.8063 Q981.078 73.7508 976.055 73.7508 Q967.832 73.7508 962.647 67.1883 Q957.502 60.6258 957.502 49.9314 Q957.502 39.2371 962.647 32.6746 Q967.832 26.1121 976.055 26.1121 Q981.078 26.1121 984.643 28.0971 Q988.248 30.0415 990.598 34.0924 M965.199 49.9314 Q965.199 58.1548 968.561 62.8538 Q971.964 67.5124 977.878 67.5124 Q983.792 67.5124 987.195 62.8538 Q990.598 58.1548 990.598 49.9314 Q990.598 41.7081 987.195 37.0496 Q983.792 32.3505 977.878 32.3505 Q971.964 32.3505 968.561 37.0496 Q965.199 41.7081 965.199 49.9314 Z" fill="#000000" fill-rule="nonzero" fill-opacity="1"></path><path clip-path="url(#clip000)" d="M1057.36 32.4315 Q1051.36 32.4315 1047.88 37.1306 Q1044.39 41.7891 1044.39 49.9314 Q1044.39 58.0738 1047.84 62.7728 Q1051.32 67.4314 1057.36 67.4314 Q1063.31 67.4314 1066.8 62.7323 Q1070.28 58.0333 1070.28 49.9314 Q1070.28 41.8701 1066.8 37.1711 Q1063.31 32.4315 1057.36 32.4315 M1057.36 26.1121 Q1067.08 26.1121 1072.63 32.4315 Q1078.18 38.7509 1078.18 49.9314 Q1078.18 61.0714 1072.63 67.4314 Q1067.08 73.7508 1057.36 73.7508 Q1047.59 73.7508 1042.04 67.4314 Q1036.54 61.0714 1036.54 49.9314 Q1036.54 38.7509 1042.04 32.4315 Q1047.59 26.1121 1057.36 26.1121 Z" fill="#000000" fill-rule="nonzero" fill-opacity="1"></path><path clip-path="url(#clip000)" d="M1089.76 54.671 L1089.76 27.2059 L1097.22 27.2059 L1097.22 54.3874 Q1097.22 60.8284 1099.73 64.0691 Q1102.24 67.2693 1107.26 67.2693 Q1113.3 67.2693 1116.78 63.421 Q1120.31 59.5726 1120.31 52.9291 L1120.31 27.2059 L1127.76 27.2059 L1127.76 72.576 L1120.31 72.576 L1120.31 65.6084 Q1117.59 69.7404 1113.99 71.7658 Q1110.42 73.7508 1105.68 73.7508 Q1097.87 73.7508 1093.82 68.8897 Q1089.76 64.0286 1089.76 54.671 M1108.52 26.1121 L1108.52 26.1121 Z" fill="#000000" fill-rule="nonzero" fill-opacity="1"></path><path clip-path="url(#clip000)" d="M1150.49 14.324 L1150.49 27.2059 L1165.84 27.2059 L1165.84 32.9987 L1150.49 32.9987 L1150.49 57.6282 Q1150.49 63.1779 1151.99 64.7578 Q1153.53 66.3376 1158.18 66.3376 L1165.84 66.3376 L1165.84 72.576 L1158.18 72.576 Q1149.56 72.576 1146.27 69.3758 Q1142.99 66.1351 1142.99 57.6282 L1142.99 32.9987 L1137.52 32.9987 L1137.52 27.2059 L1142.99 27.2059 L1142.99 14.324 L1150.49 14.324 Z" fill="#000000" fill-rule="nonzero" fill-opacity="1"></path><path clip-path="url(#clip000)" d="M1182.85 65.7705 L1182.85 89.8329 L1175.36 89.8329 L1175.36 27.2059 L1182.85 27.2059 L1182.85 34.0924 Q1185.2 30.0415 1188.77 28.0971 Q1192.37 26.1121 1197.36 26.1121 Q1205.62 26.1121 1210.76 32.6746 Q1215.95 39.2371 1215.95 49.9314 Q1215.95 60.6258 1210.76 67.1883 Q1205.62 73.7508 1197.36 73.7508 Q1192.37 73.7508 1188.77 71.8063 Q1185.2 69.8214 1182.85 65.7705 M1208.21 49.9314 Q1208.21 41.7081 1204.81 37.0496 Q1201.45 32.3505 1195.53 32.3505 Q1189.62 32.3505 1186.22 37.0496 Q1182.85 41.7081 1182.85 49.9314 Q1182.85 58.1548 1186.22 62.8538 Q1189.62 67.5124 1195.53 67.5124 Q1201.45 67.5124 1204.81 62.8538 Q1208.21 58.1548 1208.21 49.9314 Z" fill="#000000" fill-rule="nonzero" fill-opacity="1"></path><path clip-path="url(#clip000)" d="M1227.54 54.671 L1227.54 27.2059 L1234.99 27.2059 L1234.99 54.3874 Q1234.99 60.8284 1237.5 64.0691 Q1240.01 67.2693 1245.04 67.2693 Q1251.07 67.2693 1254.55 63.421 Q1258.08 59.5726 1258.08 52.9291 L1258.08 27.2059 L1265.53 27.2059 L1265.53 72.576 L1258.08 72.576 L1258.08 65.6084 Q1255.37 69.7404 1251.76 71.7658 Q1248.19 73.7508 1243.46 73.7508 Q1235.64 73.7508 1231.59 68.8897 Q1227.54 64.0286 1227.54 54.671 M1246.29 26.1121 L1246.29 26.1121 Z" fill="#000000" fill-rule="nonzero" fill-opacity="1"></path><path clip-path="url(#clip000)" d="M1288.26 14.324 L1288.26 27.2059 L1303.61 27.2059 L1303.61 32.9987 L1288.26 32.9987 L1288.26 57.6282 Q1288.26 63.1779 1289.76 64.7578 Q1291.3 66.3376 1295.96 66.3376 L1303.61 66.3376 L1303.61 72.576 L1295.96 72.576 Q1287.33 72.576 1284.05 69.3758 Q1280.76 66.1351 1280.76 57.6282 L1280.76 32.9987 L1275.3 32.9987 L1275.3 27.2059 L1280.76 27.2059 L1280.76 14.324 L1288.26 14.324 Z" fill="#000000" fill-rule="nonzero" fill-opacity="1"></path><path clip-path="url(#clip000)" d="M1334.44 27.2059 L1342.34 27.2059 L1356.52 65.2844 L1370.69 27.2059 L1378.59 27.2059 L1361.58 72.576 L1351.45 72.576 L1334.44 27.2059 Z" fill="#000000" fill-rule="nonzero" fill-opacity="1"></path><path clip-path="url(#clip000)" d="M1417.81 28.5427 L1417.81 35.5912 Q1414.65 33.9709 1411.24 33.1607 Q1407.84 32.3505 1404.2 32.3505 Q1398.65 32.3505 1395.85 34.0519 Q1393.1 35.7533 1393.1 39.156 Q1393.1 41.7486 1395.08 43.2475 Q1397.07 44.7058 1403.06 46.0426 L1405.61 46.6097 Q1413.55 48.3111 1416.87 51.4303 Q1420.24 54.509 1420.24 60.0587 Q1420.24 66.3781 1415.21 70.0644 Q1410.23 73.7508 1401.48 73.7508 Q1397.84 73.7508 1393.87 73.0216 Q1389.94 72.3329 1385.56 70.9151 L1385.56 63.2184 Q1389.69 65.3654 1393.7 66.4591 Q1397.71 67.5124 1401.64 67.5124 Q1406.91 67.5124 1409.75 65.73 Q1412.58 63.9071 1412.58 60.6258 Q1412.58 57.5877 1410.51 55.9673 Q1408.49 54.3469 1401.56 52.8481 L1398.97 52.2405 Q1392.04 50.7821 1388.96 47.7845 Q1385.89 44.7463 1385.89 39.4801 Q1385.89 33.0797 1390.42 29.5959 Q1394.96 26.1121 1403.3 26.1121 Q1407.44 26.1121 1411.08 26.7198 Q1414.73 27.3274 1417.81 28.5427 Z" fill="#000000" fill-rule="nonzero" fill-opacity="1"></path><path clip-path="url(#clip000)" d="M1433.16 62.2867 L1441.71 62.2867 L1441.71 72.576 L1433.16 72.576 L1433.16 62.2867 Z" fill="#000000" fill-rule="nonzero" fill-opacity="1"></path><path clip-path="url(#clip000)" d="M1492.22 14.324 L1492.22 27.2059 L1507.57 27.2059 L1507.57 32.9987 L1492.22 32.9987 L1492.22 57.6282 Q1492.22 63.1779 1493.72 64.7578 Q1495.26 66.3376 1499.92 66.3376 L1507.57 66.3376 L1507.57 72.576 L1499.92 72.576 Q1491.29 72.576 1488.01 69.3758 Q1484.73 66.1351 1484.73 57.6282 L1484.73 32.9987 L1479.26 32.9987 L1479.26 27.2059 L1484.73 27.2059 L1484.73 14.324 L1492.22 14.324 Z" fill="#000000" fill-rule="nonzero" fill-opacity="1"></path><path clip-path="url(#clip000)" d="M1543.67 34.1734 Q1542.41 33.4443 1540.91 33.1202 Q1539.45 32.7556 1537.67 32.7556 Q1531.35 32.7556 1527.95 36.8875 Q1524.59 40.9789 1524.59 48.6757 L1524.59 72.576 L1517.09 72.576 L1517.09 27.2059 L1524.59 27.2059 L1524.59 34.2544 Q1526.94 30.1225 1530.71 28.1376 Q1534.47 26.1121 1539.86 26.1121 Q1540.63 26.1121 1541.56 26.2337 Q1542.49 26.3147 1543.63 26.5172 L1543.67 34.1734 Z" fill="#000000" fill-rule="nonzero" fill-opacity="1"></path><path clip-path="url(#clip000)" d="M1550.72 54.671 L1550.72 27.2059 L1558.17 27.2059 L1558.17 54.3874 Q1558.17 60.8284 1560.68 64.0691 Q1563.19 67.2693 1568.22 67.2693 Q1574.25 67.2693 1577.74 63.421 Q1581.26 59.5726 1581.26 52.9291 L1581.26 27.2059 L1588.71 27.2059 L1588.71 72.576 L1581.26 72.576 L1581.26 65.6084 Q1578.55 69.7404 1574.94 71.7658 Q1571.38 73.7508 1566.64 73.7508 Q1558.82 73.7508 1554.77 68.8897 Q1550.72 64.0286 1550.72 54.671 M1569.47 26.1121 L1569.47 26.1121 Z" fill="#000000" fill-rule="nonzero" fill-opacity="1"></path><path clip-path="url(#clip000)" d="M1642.87 48.0275 L1642.87 51.6733 L1608.6 51.6733 Q1609.09 59.3701 1613.22 63.421 Q1617.39 67.4314 1624.81 67.4314 Q1629.1 67.4314 1633.11 66.3781 Q1637.16 65.3249 1641.13 63.2184 L1641.13 70.267 Q1637.12 71.9684 1632.91 72.8596 Q1628.7 73.7508 1624.36 73.7508 Q1613.51 73.7508 1607.15 67.4314 Q1600.83 61.1119 1600.83 50.3365 Q1600.83 39.1965 1606.82 32.6746 Q1612.86 26.1121 1623.07 26.1121 Q1632.22 26.1121 1637.53 32.0264 Q1642.87 37.9003 1642.87 48.0275 M1635.42 45.84 Q1635.34 39.7232 1631.98 36.0774 Q1628.66 32.4315 1623.15 32.4315 Q1616.91 32.4315 1613.14 35.9558 Q1609.41 39.4801 1608.85 45.8805 L1635.42 45.84 Z" fill="#000000" fill-rule="nonzero" fill-opacity="1"></path><path clip-path="url(#clip000)" d="M1699.06 32.4315 Q1693.07 32.4315 1689.58 37.1306 Q1686.1 41.7891 1686.1 49.9314 Q1686.1 58.0738 1689.54 62.7728 Q1693.02 67.4314 1699.06 67.4314 Q1705.02 67.4314 1708.5 62.7323 Q1711.98 58.0333 1711.98 49.9314 Q1711.98 41.8701 1708.5 37.1711 Q1705.02 32.4315 1699.06 32.4315 M1699.06 26.1121 Q1708.78 26.1121 1714.33 32.4315 Q1719.88 38.7509 1719.88 49.9314 Q1719.88 61.0714 1714.33 67.4314 Q1708.78 73.7508 1699.06 73.7508 Q1689.3 73.7508 1683.75 67.4314 Q1678.24 61.0714 1678.24 49.9314 Q1678.24 38.7509 1683.75 32.4315 Q1689.3 26.1121 1699.06 26.1121 Z" fill="#000000" fill-rule="nonzero" fill-opacity="1"></path><path clip-path="url(#clip000)" d="M1731.47 54.671 L1731.47 27.2059 L1738.92 27.2059 L1738.92 54.3874 Q1738.92 60.8284 1741.43 64.0691 Q1743.94 67.2693 1748.97 67.2693 Q1755 67.2693 1758.49 63.421 Q1762.01 59.5726 1762.01 52.9291 L1762.01 27.2059 L1769.47 27.2059 L1769.47 72.576 L1762.01 72.576 L1762.01 65.6084 Q1759.3 69.7404 1755.69 71.7658 Q1752.13 73.7508 1747.39 73.7508 Q1739.57 73.7508 1735.52 68.8897 Q1731.47 64.0286 1731.47 54.671 M1750.22 26.1121 L1750.22 26.1121 Z" fill="#000000" fill-rule="nonzero" fill-opacity="1"></path><path clip-path="url(#clip000)" d="M1792.19 14.324 L1792.19 27.2059 L1807.54 27.2059 L1807.54 32.9987 L1792.19 32.9987 L1792.19 57.6282 Q1792.19 63.1779 1793.69 64.7578 Q1795.23 66.3376 1799.89 66.3376 L1807.54 66.3376 L1807.54 72.576 L1799.89 72.576 Q1791.26 72.576 1787.98 69.3758 Q1784.7 66.1351 1784.7 57.6282 L1784.7 32.9987 L1779.23 32.9987 L1779.23 27.2059 L1784.7 27.2059 L1784.7 14.324 L1792.19 14.324 Z" fill="#000000" fill-rule="nonzero" fill-opacity="1"></path><path clip-path="url(#clip000)" d="M1824.56 65.7705 L1824.56 89.8329 L1817.06 89.8329 L1817.06 27.2059 L1824.56 27.2059 L1824.56 34.0924 Q1826.91 30.0415 1830.47 28.0971 Q1834.08 26.1121 1839.06 26.1121 Q1847.32 26.1121 1852.47 32.6746 Q1857.65 39.2371 1857.65 49.9314 Q1857.65 60.6258 1852.47 67.1883 Q1847.32 73.7508 1839.06 73.7508 Q1834.08 73.7508 1830.47 71.8063 Q1826.91 69.8214 1824.56 65.7705 M1849.92 49.9314 Q1849.92 41.7081 1846.51 37.0496 Q1843.15 32.3505 1837.24 32.3505 Q1831.32 32.3505 1827.92 37.0496 Q1824.56 41.7081 1824.56 49.9314 Q1824.56 58.1548 1827.92 62.8538 Q1831.32 67.5124 1837.24 67.5124 Q1843.15 67.5124 1846.51 62.8538 Q1849.92 58.1548 1849.92 49.9314 Z" fill="#000000" fill-rule="nonzero" fill-opacity="1"></path><path clip-path="url(#clip000)" d="M1869.24 54.671 L1869.24 27.2059 L1876.69 27.2059 L1876.69 54.3874 Q1876.69 60.8284 1879.2 64.0691 Q1881.72 67.2693 1886.74 67.2693 Q1892.77 67.2693 1896.26 63.421 Q1899.78 59.5726 1899.78 52.9291 L1899.78 27.2059 L1907.24 27.2059 L1907.24 72.576 L1899.78 72.576 L1899.78 65.6084 Q1897.07 69.7404 1893.46 71.7658 Q1889.9 73.7508 1885.16 73.7508 Q1877.34 73.7508 1873.29 68.8897 Q1869.24 64.0286 1869.24 54.671 M1887.99 26.1121 L1887.99 26.1121 Z" fill="#000000" fill-rule="nonzero" fill-opacity="1"></path><path clip-path="url(#clip000)" d="M1929.96 14.324 L1929.96 27.2059 L1945.32 27.2059 L1945.32 32.9987 L1929.96 32.9987 L1929.96 57.6282 Q1929.96 63.1779 1931.46 64.7578 Q1933 66.3376 1937.66 66.3376 L1945.32 66.3376 L1945.32 72.576 L1937.66 72.576 Q1929.03 72.576 1925.75 69.3758 Q1922.47 66.1351 1922.47 57.6282 L1922.47 32.9987 L1917 32.9987 L1917 27.2059 L1922.47 27.2059 L1922.47 14.324 L1929.96 14.324 Z" fill="#000000" fill-rule="nonzero" fill-opacity="1"></path><path clip-path="url(#clip002)" d="M272.718 1050.19 L323.205 1300.05 L373.691 1362.09 L424.177 1386.4 L474.664 1292.92 L525.15 1199.63 L575.637 1114.47 L626.123 986.95 L676.609 912.128 L727.096 969.907 L777.582 1056.29 L828.068 1087.09 L878.555 1080.62 L929.041 1099.44 L979.527 1103.82 L1030.01 1093.98 L1080.5 1067.17 L1130.99 1049.47 L1181.47 925.514 L1231.96 763.553 L1282.45 640.542 L1332.93 640.542 L1383.42 640.542 L1433.9 636.332 L1484.39 617.456 L1534.88 640.542 L1585.36 739.743 L1635.85 935.342 L1686.34 1033.43 L1736.82 1130.34 L1787.31 1141.91 L1837.8 1100.62 L1888.28 1088.68 L1938.77 1086.57 L1989.25 1084.24 L2039.74 1027.53 L2090.23 1042.75 L2140.71 998.559 L2191.2 1028.57 L2241.69 1056.33 L2292.17 1173.18 L2292.17 589.123 L2241.69 536.724 L2191.2 477.25 L2140.71 422.145 L2090.23 479.97 L2039.74 357.194 L1989.25 387.191 L1938.77 557.863 L1888.28 608.414 L1837.8 636.931 L1787.31 661.837 L1736.82 604.522 L1686.34 492.374 L1635.85 376.61 L1585.36 255.317 L1534.88 200.564 L1484.39 235.763 L1433.9 274.742 L1383.42 169.939 L1332.93 216.384 L1282.45 160.256 L1231.96 211.868 L1181.47 378.628 L1130.99 470.769 L1080.5 499.014 L1030.01 576.05 L979.527 495.62 L929.041 618.119 L878.555 611.345 L828.068 512.227 L777.582 487.599 L727.096 528.947 L676.609 499.689 L626.123 523.877 L575.637 525.332 L525.15 501.302 L474.664 618.64 L424.177 804.573 L373.691 913.285 L323.205 936.37 L272.718 779.171  Z" fill="#009af9" fill-rule="evenodd" fill-opacity="0.35"></path>
<polyline clip-path="url(#clip002)" style="stroke:#009af9; stroke-linecap:round; stroke-linejoin:round; stroke-width:4; stroke-opacity:0.35; fill:none" points="272.718,1050.19 323.205,1300.05 373.691,1362.09 424.177,1386.4 474.664,1292.92 525.15,1199.63 575.637,1114.47 626.123,986.95 676.609,912.128 727.096,969.907 777.582,1056.29 828.068,1087.09 878.555,1080.62 929.041,1099.44 979.527,1103.82 1030.01,1093.98 1080.5,1067.17 1130.99,1049.47 1181.47,925.514 1231.96,763.553 1282.45,640.542 1332.93,640.542 1383.42,640.542 1433.9,636.332 1484.39,617.456 1534.88,640.542 1585.36,739.743 1635.85,935.342 1686.34,1033.43 1736.82,1130.34 1787.31,1141.91 1837.8,1100.62 1888.28,1088.68 1938.77,1086.57 1989.25,1084.24 2039.74,1027.53 2090.23,1042.75 2140.71,998.559 2191.2,1028.57 2241.69,1056.33 2292.17,1173.18 "></polyline>
<polyline clip-path="url(#clip002)" style="stroke:#e26f46; stroke-linecap:round; stroke-linejoin:round; stroke-width:8; stroke-opacity:1; fill:none" points="272.718,922.521 323.205,1150.44 373.691,1160.06 424.177,1088.92 474.664,929.955 525.15,770.956 575.637,702.504 626.123,682.351 676.609,721.553 727.096,749.207 777.582,798.878 828.068,823.6 878.555,812.649 929.041,814.811 979.527,810.343 1030.01,842.791 1080.5,837.467 1130.99,797.897 1181.47,764.077 1231.96,599.076 1282.45,496.892 1332.93,437.048 1383.42,426.924 1433.9,404.27 1484.39,324.94 1534.88,332.042 1585.36,477.82 1635.85,621.041 1686.34,768.959 1736.82,847.653 1787.31,883.105 1837.8,885.679 1888.28,862.134 1938.77,821.501 1989.25,799.607 2039.74,756.46 2090.23,757.504 2140.71,780.837 2191.2,771.216 2241.69,788.154 2292.17,793.6 "></polyline>
<polyline clip-path="url(#clip002)" style="stroke:#3da44d; stroke-linecap:round; stroke-linejoin:round; stroke-width:8; stroke-opacity:1; fill:none" points="272.718,935.01 323.205,1101.06 373.691,1125.31 424.177,1038.98 474.664,913.044 525.15,810.716 575.637,748.87 626.123,724.75 676.609,730.477 727.096,745.936 777.582,774.671 828.068,804.51 878.555,830.153 929.041,844.03 979.527,845.205 1030.01,839.764 1080.5,823.256 1130.99,788.254 1181.47,694.356 1231.96,569.585 1282.45,452.033 1332.93,413.321 1383.42,412.053 1433.9,441.752 1484.39,438.494 1534.88,440.115 1585.36,540.33 1635.85,672.972 1686.34,787.113 1736.82,860.23 1787.31,890.309 1837.8,876.704 1888.28,848.093 1938.77,811.988 1989.25,785.617 2039.74,769.116 2090.23,762.771 2140.71,765.399 2191.2,766.915 2241.69,770.21 2292.17,788.524 "></polyline>
<path clip-path="url(#clip002)" d="M1282.45 640.542 L1332.93 640.542 L1383.42 640.542 L1433.9 640.542 L1484.39 640.542 L1534.88 640.542 L1534.88 1386.4 L1484.39 1386.4 L1433.9 1386.4 L1383.42 1386.4 L1332.93 1386.4 L1282.45 1386.4  Z" fill="#ff0000" fill-rule="evenodd" fill-opacity="0.35"></path>
<polyline clip-path="url(#clip002)" style="stroke:#c271d2; stroke-linecap:round; stroke-linejoin:round; stroke-width:4; stroke-opacity:0.35; fill:none" points="1282.45,640.542 1332.93,640.542 1383.42,640.542 1433.9,640.542 1484.39,640.542 1534.88,640.542 "></polyline>
<path clip-path="url(#clip000)" d="M283.489 477.836 L876.577 477.836 L876.577 166.796 L283.489 166.796  Z" fill="#ffffff" fill-rule="evenodd" fill-opacity="1"></path>
<polyline clip-path="url(#clip000)" style="stroke:#000000; stroke-linecap:round; stroke-linejoin:round; stroke-width:4; stroke-opacity:1; fill:none" points="283.489,477.836 876.577,477.836 876.577,166.796 283.489,166.796 283.489,477.836 "></polyline>
<path clip-path="url(#clip000)" d="M307.274 239.372 L449.982 239.372 L449.982 197.9 L307.274 197.9 L307.274 239.372  Z" fill="#009af9" fill-rule="evenodd" fill-opacity="0.35"></path>
<polyline clip-path="url(#clip000)" style="stroke:#009af9; stroke-linecap:round; stroke-linejoin:round; stroke-width:4; stroke-opacity:0.35; fill:none" points="307.274,197.9 449.982,197.9 "></polyline>
<path clip-path="url(#clip000)" d="M487.169 222.883 Q482.007 222.883 480.016 224.064 Q478.026 225.244 478.026 228.092 Q478.026 230.36 479.507 231.703 Q481.012 233.022 483.581 233.022 Q487.123 233.022 489.252 230.522 Q491.405 227.999 491.405 223.832 L491.405 222.883 L487.169 222.883 M495.664 221.124 L495.664 235.916 L491.405 235.916 L491.405 231.981 Q489.947 234.342 487.771 235.476 Q485.595 236.587 482.447 236.587 Q478.465 236.587 476.104 234.365 Q473.766 232.119 473.766 228.369 Q473.766 223.994 476.683 221.772 Q479.623 219.55 485.433 219.55 L491.405 219.55 L491.405 219.133 Q491.405 216.194 489.461 214.596 Q487.539 212.976 484.044 212.976 Q481.822 212.976 479.715 213.508 Q477.609 214.041 475.664 215.106 L475.664 211.17 Q478.002 210.268 480.201 209.828 Q482.401 209.365 484.484 209.365 Q490.109 209.365 492.887 212.282 Q495.664 215.198 495.664 221.124 Z" fill="#000000" fill-rule="nonzero" fill-opacity="1"></path><path clip-path="url(#clip000)" d="M504.437 199.897 L508.697 199.897 L508.697 235.916 L504.437 235.916 L504.437 199.897 Z" fill="#000000" fill-rule="nonzero" fill-opacity="1"></path><path clip-path="url(#clip000)" d="M517.609 199.897 L521.868 199.897 L521.868 235.916 L517.609 235.916 L517.609 199.897 Z" fill="#000000" fill-rule="nonzero" fill-opacity="1"></path><path clip-path="url(#clip000)" d="M549.97 232.027 L549.97 245.777 L545.687 245.777 L545.687 209.99 L549.97 209.99 L549.97 213.925 Q551.312 211.61 553.349 210.499 Q555.409 209.365 558.257 209.365 Q562.979 209.365 565.919 213.115 Q568.882 216.865 568.882 222.976 Q568.882 229.087 565.919 232.837 Q562.979 236.587 558.257 236.587 Q555.409 236.587 553.349 235.476 Q551.312 234.342 549.97 232.027 M564.46 222.976 Q564.46 218.277 562.516 215.615 Q560.595 212.93 557.215 212.93 Q553.835 212.93 551.891 215.615 Q549.97 218.277 549.97 222.976 Q549.97 227.675 551.891 230.36 Q553.835 233.022 557.215 233.022 Q560.595 233.022 562.516 230.36 Q564.46 227.675 564.46 222.976 Z" fill="#000000" fill-rule="nonzero" fill-opacity="1"></path><path clip-path="url(#clip000)" d="M590.965 213.971 Q590.247 213.555 589.391 213.37 Q588.557 213.161 587.539 213.161 Q583.928 213.161 581.983 215.522 Q580.062 217.86 580.062 222.258 L580.062 235.916 L575.78 235.916 L575.78 209.99 L580.062 209.99 L580.062 214.018 Q581.405 211.657 583.557 210.522 Q585.71 209.365 588.789 209.365 Q589.229 209.365 589.761 209.434 Q590.293 209.481 590.942 209.596 L590.965 213.971 Z" fill="#000000" fill-rule="nonzero" fill-opacity="1"></path><path clip-path="url(#clip000)" d="M616.566 221.888 L616.566 223.971 L596.983 223.971 Q597.261 228.369 599.622 230.684 Q602.006 232.976 606.242 232.976 Q608.696 232.976 610.988 232.374 Q613.303 231.772 615.571 230.569 L615.571 234.596 Q613.279 235.568 610.872 236.078 Q608.465 236.587 605.988 236.587 Q599.784 236.587 596.15 232.976 Q592.539 229.365 592.539 223.207 Q592.539 216.842 595.965 213.115 Q599.414 209.365 605.247 209.365 Q610.479 209.365 613.511 212.745 Q616.566 216.101 616.566 221.888 M612.307 220.638 Q612.261 217.143 610.34 215.059 Q608.441 212.976 605.293 212.976 Q601.729 212.976 599.576 214.99 Q597.446 217.004 597.122 220.661 L612.307 220.638 Z" fill="#000000" fill-rule="nonzero" fill-opacity="1"></path><path clip-path="url(#clip000)" d="M640.617 213.925 L640.617 199.897 L644.876 199.897 L644.876 235.916 L640.617 235.916 L640.617 232.027 Q639.275 234.342 637.214 235.476 Q635.177 236.587 632.307 236.587 Q627.608 236.587 624.645 232.837 Q621.705 229.087 621.705 222.976 Q621.705 216.865 624.645 213.115 Q627.608 209.365 632.307 209.365 Q635.177 209.365 637.214 210.499 Q639.275 211.61 640.617 213.925 M626.103 222.976 Q626.103 227.675 628.025 230.36 Q629.969 233.022 633.349 233.022 Q636.728 233.022 638.673 230.36 Q640.617 227.675 640.617 222.976 Q640.617 218.277 638.673 215.615 Q636.728 212.93 633.349 212.93 Q629.969 212.93 628.025 215.615 Q626.103 218.277 626.103 222.976 Z" fill="#000000" fill-rule="nonzero" fill-opacity="1"></path><path clip-path="url(#clip000)" d="M653.65 209.99 L657.909 209.99 L657.909 235.916 L653.65 235.916 L653.65 209.99 M653.65 199.897 L657.909 199.897 L657.909 205.291 L653.65 205.291 L653.65 199.897 Z" fill="#000000" fill-rule="nonzero" fill-opacity="1"></path><path clip-path="url(#clip000)" d="M685.478 210.985 L685.478 214.967 Q683.673 213.971 681.844 213.485 Q680.038 212.976 678.186 212.976 Q674.043 212.976 671.751 215.615 Q669.46 218.231 669.46 222.976 Q669.46 227.721 671.751 230.36 Q674.043 232.976 678.186 232.976 Q680.038 232.976 681.844 232.49 Q683.673 231.981 685.478 230.985 L685.478 234.92 Q683.696 235.754 681.774 236.17 Q679.876 236.587 677.724 236.587 Q671.867 236.587 668.418 232.906 Q664.969 229.226 664.969 222.976 Q664.969 216.633 668.441 212.999 Q671.937 209.365 678.001 209.365 Q679.969 209.365 681.844 209.782 Q683.719 210.175 685.478 210.985 Z" fill="#000000" fill-rule="nonzero" fill-opacity="1"></path><path clip-path="url(#clip000)" d="M697.098 202.629 L697.098 209.99 L705.872 209.99 L705.872 213.3 L697.098 213.3 L697.098 227.374 Q697.098 230.545 697.955 231.448 Q698.835 232.351 701.497 232.351 L705.872 232.351 L705.872 235.916 L701.497 235.916 Q696.566 235.916 694.691 234.087 Q692.816 232.235 692.816 227.374 L692.816 213.3 L689.691 213.3 L689.691 209.99 L692.816 209.99 L692.816 202.629 L697.098 202.629 Z" fill="#000000" fill-rule="nonzero" fill-opacity="1"></path><path clip-path="url(#clip000)" d="M711.473 209.99 L715.733 209.99 L715.733 235.916 L711.473 235.916 L711.473 209.99 M711.473 199.897 L715.733 199.897 L715.733 205.291 L711.473 205.291 L711.473 199.897 Z" fill="#000000" fill-rule="nonzero" fill-opacity="1"></path><path clip-path="url(#clip000)" d="M734.691 212.976 Q731.265 212.976 729.274 215.661 Q727.283 218.323 727.283 222.976 Q727.283 227.629 729.251 230.314 Q731.242 232.976 734.691 232.976 Q738.094 232.976 740.084 230.291 Q742.075 227.606 742.075 222.976 Q742.075 218.37 740.084 215.684 Q738.094 212.976 734.691 212.976 M734.691 209.365 Q740.246 209.365 743.418 212.976 Q746.589 216.587 746.589 222.976 Q746.589 229.342 743.418 232.976 Q740.246 236.587 734.691 236.587 Q729.112 236.587 725.941 232.976 Q722.793 229.342 722.793 222.976 Q722.793 216.587 725.941 212.976 Q729.112 209.365 734.691 209.365 Z" fill="#000000" fill-rule="nonzero" fill-opacity="1"></path><path clip-path="url(#clip000)" d="M775.2 220.268 L775.2 235.916 L770.941 235.916 L770.941 220.407 Q770.941 216.726 769.505 214.897 Q768.07 213.069 765.2 213.069 Q761.751 213.069 759.76 215.268 Q757.769 217.467 757.769 221.263 L757.769 235.916 L753.487 235.916 L753.487 209.99 L757.769 209.99 L757.769 214.018 Q759.297 211.68 761.357 210.522 Q763.441 209.365 766.149 209.365 Q770.617 209.365 772.908 212.143 Q775.2 214.897 775.2 220.268 Z" fill="#000000" fill-rule="nonzero" fill-opacity="1"></path><path clip-path="url(#clip000)" d="M800.223 210.754 L800.223 214.782 Q798.417 213.856 796.473 213.393 Q794.528 212.93 792.445 212.93 Q789.274 212.93 787.677 213.902 Q786.103 214.874 786.103 216.819 Q786.103 218.3 787.237 219.157 Q788.371 219.99 791.797 220.754 L793.255 221.078 Q797.792 222.05 799.69 223.832 Q801.612 225.592 801.612 228.763 Q801.612 232.374 798.741 234.481 Q795.894 236.587 790.894 236.587 Q788.811 236.587 786.542 236.17 Q784.297 235.777 781.797 234.967 L781.797 230.569 Q784.158 231.795 786.45 232.42 Q788.741 233.022 790.987 233.022 Q793.996 233.022 795.616 232.004 Q797.237 230.962 797.237 229.087 Q797.237 227.351 796.056 226.425 Q794.899 225.499 790.941 224.643 L789.459 224.295 Q785.501 223.462 783.741 221.749 Q781.982 220.013 781.982 217.004 Q781.982 213.346 784.575 211.356 Q787.167 209.365 791.936 209.365 Q794.297 209.365 796.38 209.712 Q798.464 210.059 800.223 210.754 Z" fill="#000000" fill-rule="nonzero" fill-opacity="1"></path><polyline clip-path="url(#clip000)" style="stroke:#e26f46; stroke-linecap:round; stroke-linejoin:round; stroke-width:8; stroke-opacity:1; fill:none" points="307.274,270.476 449.982,270.476 "></polyline>
<path clip-path="url(#clip000)" d="M481.174 254.469 L481.174 261.83 L489.947 261.83 L489.947 265.14 L481.174 265.14 L481.174 279.214 Q481.174 282.385 482.03 283.288 Q482.91 284.191 485.572 284.191 L489.947 284.191 L489.947 287.756 L485.572 287.756 Q480.641 287.756 478.766 285.927 Q476.891 284.075 476.891 279.214 L476.891 265.14 L473.766 265.14 L473.766 261.83 L476.891 261.83 L476.891 254.469 L481.174 254.469 Z" fill="#000000" fill-rule="nonzero" fill-opacity="1"></path><path clip-path="url(#clip000)" d="M510.572 265.811 Q509.854 265.395 508.998 265.21 Q508.164 265.001 507.146 265.001 Q503.535 265.001 501.59 267.362 Q499.669 269.7 499.669 274.098 L499.669 287.756 L495.387 287.756 L495.387 261.83 L499.669 261.83 L499.669 265.858 Q501.012 263.497 503.164 262.362 Q505.317 261.205 508.396 261.205 Q508.836 261.205 509.368 261.274 Q509.9 261.321 510.549 261.436 L510.572 265.811 Z" fill="#000000" fill-rule="nonzero" fill-opacity="1"></path><path clip-path="url(#clip000)" d="M514.599 277.524 L514.599 261.83 L518.859 261.83 L518.859 277.362 Q518.859 281.043 520.294 282.895 Q521.729 284.723 524.599 284.723 Q528.048 284.723 530.039 282.524 Q532.053 280.325 532.053 276.529 L532.053 261.83 L536.312 261.83 L536.312 287.756 L532.053 287.756 L532.053 283.774 Q530.502 286.135 528.442 287.293 Q526.405 288.427 523.697 288.427 Q519.229 288.427 516.914 285.649 Q514.599 282.871 514.599 277.524 M525.317 261.205 L525.317 261.205 Z" fill="#000000" fill-rule="nonzero" fill-opacity="1"></path><path clip-path="url(#clip000)" d="M567.261 273.728 L567.261 275.811 L547.678 275.811 Q547.956 280.209 550.317 282.524 Q552.701 284.816 556.937 284.816 Q559.391 284.816 561.682 284.214 Q563.997 283.612 566.266 282.409 L566.266 286.436 Q563.974 287.408 561.567 287.918 Q559.159 288.427 556.683 288.427 Q550.479 288.427 546.845 284.816 Q543.234 281.205 543.234 275.047 Q543.234 268.682 546.659 264.955 Q550.108 261.205 555.942 261.205 Q561.173 261.205 564.206 264.585 Q567.261 267.941 567.261 273.728 M563.002 272.478 Q562.956 268.983 561.034 266.899 Q559.136 264.816 555.988 264.816 Q552.423 264.816 550.271 266.83 Q548.141 268.844 547.817 272.501 L563.002 272.478 Z" fill="#000000" fill-rule="nonzero" fill-opacity="1"></path><path clip-path="url(#clip000)" d="M599.367 264.816 Q595.942 264.816 593.951 267.501 Q591.96 270.163 591.96 274.816 Q591.96 279.469 593.928 282.154 Q595.918 284.816 599.367 284.816 Q602.77 284.816 604.761 282.131 Q606.752 279.446 606.752 274.816 Q606.752 270.21 604.761 267.524 Q602.77 264.816 599.367 264.816 M599.367 261.205 Q604.923 261.205 608.094 264.816 Q611.266 268.427 611.266 274.816 Q611.266 281.182 608.094 284.816 Q604.923 288.427 599.367 288.427 Q593.789 288.427 590.618 284.816 Q587.469 281.182 587.469 274.816 Q587.469 268.427 590.618 264.816 Q593.789 261.205 599.367 261.205 Z" fill="#000000" fill-rule="nonzero" fill-opacity="1"></path><path clip-path="url(#clip000)" d="M617.886 277.524 L617.886 261.83 L622.145 261.83 L622.145 277.362 Q622.145 281.043 623.58 282.895 Q625.015 284.723 627.886 284.723 Q631.335 284.723 633.326 282.524 Q635.339 280.325 635.339 276.529 L635.339 261.83 L639.599 261.83 L639.599 287.756 L635.339 287.756 L635.339 283.774 Q633.789 286.135 631.728 287.293 Q629.691 288.427 626.983 288.427 Q622.515 288.427 620.201 285.649 Q617.886 282.871 617.886 277.524 M628.603 261.205 L628.603 261.205 Z" fill="#000000" fill-rule="nonzero" fill-opacity="1"></path><path clip-path="url(#clip000)" d="M652.585 254.469 L652.585 261.83 L661.358 261.83 L661.358 265.14 L652.585 265.14 L652.585 279.214 Q652.585 282.385 653.441 283.288 Q654.321 284.191 656.983 284.191 L661.358 284.191 L661.358 287.756 L656.983 287.756 Q652.052 287.756 650.177 285.927 Q648.302 284.075 648.302 279.214 L648.302 265.14 L645.177 265.14 L645.177 261.83 L648.302 261.83 L648.302 254.469 L652.585 254.469 Z" fill="#000000" fill-rule="nonzero" fill-opacity="1"></path><path clip-path="url(#clip000)" d="M671.08 283.867 L671.08 297.617 L666.798 297.617 L666.798 261.83 L671.08 261.83 L671.08 265.765 Q672.423 263.45 674.46 262.339 Q676.52 261.205 679.367 261.205 Q684.089 261.205 687.029 264.955 Q689.992 268.705 689.992 274.816 Q689.992 280.927 687.029 284.677 Q684.089 288.427 679.367 288.427 Q676.52 288.427 674.46 287.316 Q672.423 286.182 671.08 283.867 M685.571 274.816 Q685.571 270.117 683.626 267.455 Q681.705 264.77 678.325 264.77 Q674.946 264.77 673.001 267.455 Q671.08 270.117 671.08 274.816 Q671.08 279.515 673.001 282.2 Q674.946 284.862 678.325 284.862 Q681.705 284.862 683.626 282.2 Q685.571 279.515 685.571 274.816 Z" fill="#000000" fill-rule="nonzero" fill-opacity="1"></path><path clip-path="url(#clip000)" d="M696.612 277.524 L696.612 261.83 L700.872 261.83 L700.872 277.362 Q700.872 281.043 702.307 282.895 Q703.742 284.723 706.612 284.723 Q710.061 284.723 712.052 282.524 Q714.066 280.325 714.066 276.529 L714.066 261.83 L718.325 261.83 L718.325 287.756 L714.066 287.756 L714.066 283.774 Q712.515 286.135 710.455 287.293 Q708.418 288.427 705.709 288.427 Q701.242 288.427 698.927 285.649 Q696.612 282.871 696.612 277.524 M707.33 261.205 L707.33 261.205 Z" fill="#000000" fill-rule="nonzero" fill-opacity="1"></path><path clip-path="url(#clip000)" d="M731.311 254.469 L731.311 261.83 L740.084 261.83 L740.084 265.14 L731.311 265.14 L731.311 279.214 Q731.311 282.385 732.168 283.288 Q733.047 284.191 735.709 284.191 L740.084 284.191 L740.084 287.756 L735.709 287.756 Q730.779 287.756 728.904 285.927 Q727.029 284.075 727.029 279.214 L727.029 265.14 L723.904 265.14 L723.904 261.83 L727.029 261.83 L727.029 254.469 L731.311 254.469 Z" fill="#000000" fill-rule="nonzero" fill-opacity="1"></path><polyline clip-path="url(#clip000)" style="stroke:#3da44d; stroke-linecap:round; stroke-linejoin:round; stroke-width:8; stroke-opacity:1; fill:none" points="307.274,322.316 449.982,322.316 "></polyline>
<path clip-path="url(#clip000)" d="M494.113 318.647 Q495.711 315.776 497.933 314.411 Q500.155 313.045 503.164 313.045 Q507.215 313.045 509.414 315.892 Q511.613 318.716 511.613 323.948 L511.613 339.596 L507.331 339.596 L507.331 324.087 Q507.331 320.36 506.011 318.554 Q504.692 316.749 501.984 316.749 Q498.674 316.749 496.752 318.948 Q494.831 321.147 494.831 324.943 L494.831 339.596 L490.549 339.596 L490.549 324.087 Q490.549 320.337 489.229 318.554 Q487.91 316.749 485.155 316.749 Q481.891 316.749 479.97 318.971 Q478.049 321.17 478.049 324.943 L478.049 339.596 L473.766 339.596 L473.766 313.67 L478.049 313.67 L478.049 317.698 Q479.507 315.313 481.544 314.179 Q483.581 313.045 486.382 313.045 Q489.206 313.045 491.174 314.48 Q493.164 315.915 494.113 318.647 Z" fill="#000000" fill-rule="nonzero" fill-opacity="1"></path><path clip-path="url(#clip000)" d="M542.284 325.568 L542.284 327.651 L522.701 327.651 Q522.979 332.049 525.34 334.364 Q527.724 336.656 531.96 336.656 Q534.414 336.656 536.706 336.054 Q539.021 335.452 541.289 334.249 L541.289 338.276 Q538.997 339.248 536.59 339.758 Q534.183 340.267 531.706 340.267 Q525.502 340.267 521.868 336.656 Q518.257 333.045 518.257 326.887 Q518.257 320.522 521.683 316.795 Q525.132 313.045 530.965 313.045 Q536.197 313.045 539.229 316.425 Q542.284 319.781 542.284 325.568 M538.025 324.318 Q537.979 320.823 536.058 318.739 Q534.159 316.656 531.011 316.656 Q527.447 316.656 525.294 318.67 Q523.164 320.684 522.84 324.341 L538.025 324.318 Z" fill="#000000" fill-rule="nonzero" fill-opacity="1"></path><path clip-path="url(#clip000)" d="M561.057 326.563 Q555.895 326.563 553.905 327.744 Q551.914 328.924 551.914 331.772 Q551.914 334.04 553.395 335.383 Q554.9 336.702 557.47 336.702 Q561.011 336.702 563.141 334.202 Q565.294 331.679 565.294 327.512 L565.294 326.563 L561.057 326.563 M569.553 324.804 L569.553 339.596 L565.294 339.596 L565.294 335.661 Q563.835 338.022 561.659 339.156 Q559.483 340.267 556.335 340.267 Q552.354 340.267 549.993 338.045 Q547.655 335.799 547.655 332.049 Q547.655 327.674 550.571 325.452 Q553.511 323.23 559.321 323.23 L565.294 323.23 L565.294 322.813 Q565.294 319.874 563.349 318.276 Q561.428 316.656 557.933 316.656 Q555.71 316.656 553.604 317.188 Q551.497 317.721 549.553 318.786 L549.553 314.85 Q551.891 313.948 554.09 313.508 Q556.289 313.045 558.372 313.045 Q563.997 313.045 566.775 315.962 Q569.553 318.878 569.553 324.804 Z" fill="#000000" fill-rule="nonzero" fill-opacity="1"></path><path clip-path="url(#clip000)" d="M599.877 323.948 L599.877 339.596 L595.617 339.596 L595.617 324.087 Q595.617 320.406 594.182 318.577 Q592.747 316.749 589.877 316.749 Q586.428 316.749 584.437 318.948 Q582.446 321.147 582.446 324.943 L582.446 339.596 L578.164 339.596 L578.164 313.67 L582.446 313.67 L582.446 317.698 Q583.974 315.36 586.034 314.202 Q588.118 313.045 590.826 313.045 Q595.293 313.045 597.585 315.823 Q599.877 318.577 599.877 323.948 Z" fill="#000000" fill-rule="nonzero" fill-opacity="1"></path><path clip-path="url(#clip000)" d="M627.562 335.707 L627.562 349.457 L623.279 349.457 L623.279 313.67 L627.562 313.67 L627.562 317.605 Q628.904 315.29 630.941 314.179 Q633.002 313.045 635.849 313.045 Q640.571 313.045 643.511 316.795 Q646.474 320.545 646.474 326.656 Q646.474 332.767 643.511 336.517 Q640.571 340.267 635.849 340.267 Q633.002 340.267 630.941 339.156 Q628.904 338.022 627.562 335.707 M642.052 326.656 Q642.052 321.957 640.108 319.295 Q638.187 316.61 634.807 316.61 Q631.427 316.61 629.483 319.295 Q627.562 321.957 627.562 326.656 Q627.562 331.355 629.483 334.04 Q631.427 336.702 634.807 336.702 Q638.187 336.702 640.108 334.04 Q642.052 331.355 642.052 326.656 Z" fill="#000000" fill-rule="nonzero" fill-opacity="1"></path><path clip-path="url(#clip000)" d="M668.557 317.651 Q667.839 317.235 666.983 317.05 Q666.15 316.841 665.131 316.841 Q661.52 316.841 659.575 319.202 Q657.654 321.54 657.654 325.938 L657.654 339.596 L653.372 339.596 L653.372 313.67 L657.654 313.67 L657.654 317.698 Q658.997 315.337 661.15 314.202 Q663.302 313.045 666.381 313.045 Q666.821 313.045 667.353 313.114 Q667.886 313.161 668.534 313.276 L668.557 317.651 Z" fill="#000000" fill-rule="nonzero" fill-opacity="1"></path><path clip-path="url(#clip000)" d="M694.159 325.568 L694.159 327.651 L674.575 327.651 Q674.853 332.049 677.214 334.364 Q679.599 336.656 683.835 336.656 Q686.288 336.656 688.58 336.054 Q690.895 335.452 693.163 334.249 L693.163 338.276 Q690.872 339.248 688.464 339.758 Q686.057 340.267 683.58 340.267 Q677.376 340.267 673.742 336.656 Q670.131 333.045 670.131 326.887 Q670.131 320.522 673.557 316.795 Q677.006 313.045 682.839 313.045 Q688.071 313.045 691.103 316.425 Q694.159 319.781 694.159 325.568 M689.899 324.318 Q689.853 320.823 687.932 318.739 Q686.034 316.656 682.886 316.656 Q679.321 316.656 677.168 318.67 Q675.038 320.684 674.714 324.341 L689.899 324.318 Z" fill="#000000" fill-rule="nonzero" fill-opacity="1"></path><path clip-path="url(#clip000)" d="M718.209 317.605 L718.209 303.577 L722.469 303.577 L722.469 339.596 L718.209 339.596 L718.209 335.707 Q716.867 338.022 714.807 339.156 Q712.77 340.267 709.899 340.267 Q705.2 340.267 702.237 336.517 Q699.297 332.767 699.297 326.656 Q699.297 320.545 702.237 316.795 Q705.2 313.045 709.899 313.045 Q712.77 313.045 714.807 314.179 Q716.867 315.29 718.209 317.605 M703.696 326.656 Q703.696 331.355 705.617 334.04 Q707.561 336.702 710.941 336.702 Q714.321 336.702 716.265 334.04 Q718.209 331.355 718.209 326.656 Q718.209 321.957 716.265 319.295 Q714.321 316.61 710.941 316.61 Q707.561 316.61 705.617 319.295 Q703.696 321.957 703.696 326.656 Z" fill="#000000" fill-rule="nonzero" fill-opacity="1"></path><path clip-path="url(#clip000)" d="M731.242 313.67 L735.501 313.67 L735.501 339.596 L731.242 339.596 L731.242 313.67 M731.242 303.577 L735.501 303.577 L735.501 308.971 L731.242 308.971 L731.242 303.577 Z" fill="#000000" fill-rule="nonzero" fill-opacity="1"></path><path clip-path="url(#clip000)" d="M763.07 314.665 L763.07 318.647 Q761.265 317.651 759.436 317.165 Q757.631 316.656 755.779 316.656 Q751.635 316.656 749.344 319.295 Q747.052 321.911 747.052 326.656 Q747.052 331.401 749.344 334.04 Q751.635 336.656 755.779 336.656 Q757.631 336.656 759.436 336.17 Q761.265 335.661 763.07 334.665 L763.07 338.6 Q761.288 339.434 759.367 339.85 Q757.468 340.267 755.316 340.267 Q749.459 340.267 746.01 336.586 Q742.561 332.906 742.561 326.656 Q742.561 320.313 746.033 316.679 Q749.529 313.045 755.593 313.045 Q757.561 313.045 759.436 313.462 Q761.311 313.855 763.07 314.665 Z" fill="#000000" fill-rule="nonzero" fill-opacity="1"></path><path clip-path="url(#clip000)" d="M774.691 306.309 L774.691 313.67 L783.464 313.67 L783.464 316.98 L774.691 316.98 L774.691 331.054 Q774.691 334.225 775.547 335.128 Q776.427 336.031 779.089 336.031 L783.464 336.031 L783.464 339.596 L779.089 339.596 Q774.158 339.596 772.283 337.767 Q770.408 335.915 770.408 331.054 L770.408 316.98 L767.283 316.98 L767.283 313.67 L770.408 313.67 L770.408 306.309 L774.691 306.309 Z" fill="#000000" fill-rule="nonzero" fill-opacity="1"></path><path clip-path="url(#clip000)" d="M789.066 313.67 L793.325 313.67 L793.325 339.596 L789.066 339.596 L789.066 313.67 M789.066 303.577 L793.325 303.577 L793.325 308.971 L789.066 308.971 L789.066 303.577 Z" fill="#000000" fill-rule="nonzero" fill-opacity="1"></path><path clip-path="url(#clip000)" d="M812.283 316.656 Q808.857 316.656 806.866 319.341 Q804.876 322.003 804.876 326.656 Q804.876 331.309 806.843 333.994 Q808.834 336.656 812.283 336.656 Q815.686 336.656 817.676 333.971 Q819.667 331.286 819.667 326.656 Q819.667 322.05 817.676 319.364 Q815.686 316.656 812.283 316.656 M812.283 313.045 Q817.839 313.045 821.01 316.656 Q824.181 320.267 824.181 326.656 Q824.181 333.022 821.01 336.656 Q817.839 340.267 812.283 340.267 Q806.704 340.267 803.533 336.656 Q800.385 333.022 800.385 326.656 Q800.385 320.267 803.533 316.656 Q806.704 313.045 812.283 313.045 Z" fill="#000000" fill-rule="nonzero" fill-opacity="1"></path><path clip-path="url(#clip000)" d="M852.792 323.948 L852.792 339.596 L848.533 339.596 L848.533 324.087 Q848.533 320.406 847.098 318.577 Q845.662 316.749 842.792 316.749 Q839.343 316.749 837.352 318.948 Q835.362 321.147 835.362 324.943 L835.362 339.596 L831.079 339.596 L831.079 313.67 L835.362 313.67 L835.362 317.698 Q836.889 315.36 838.95 314.202 Q841.033 313.045 843.741 313.045 Q848.209 313.045 850.5 315.823 Q852.792 318.577 852.792 323.948 Z" fill="#000000" fill-rule="nonzero" fill-opacity="1"></path><path clip-path="url(#clip000)" d="M307.274 394.892 L449.982 394.892 L449.982 353.42 L307.274 353.42 L307.274 394.892  Z" fill="#ff0000" fill-rule="evenodd" fill-opacity="0.35"></path>
<polyline clip-path="url(#clip000)" style="stroke:#c271d2; stroke-linecap:round; stroke-linejoin:round; stroke-width:4; stroke-opacity:0.35; fill:none" points="307.274,353.42 449.982,353.42 "></polyline>
<path clip-path="url(#clip000)" d="M494.275 366.505 L494.275 370.487 Q492.47 369.491 490.641 369.005 Q488.836 368.496 486.984 368.496 Q482.84 368.496 480.549 371.135 Q478.257 373.751 478.257 378.496 Q478.257 383.241 480.549 385.88 Q482.84 388.496 486.984 388.496 Q488.836 388.496 490.641 388.01 Q492.47 387.501 494.275 386.505 L494.275 390.44 Q492.493 391.274 490.572 391.69 Q488.674 392.107 486.521 392.107 Q480.664 392.107 477.215 388.426 Q473.766 384.746 473.766 378.496 Q473.766 372.153 477.238 368.519 Q480.734 364.885 486.799 364.885 Q488.766 364.885 490.641 365.302 Q492.516 365.695 494.275 366.505 Z" fill="#000000" fill-rule="nonzero" fill-opacity="1"></path><path clip-path="url(#clip000)" d="M511.729 368.496 Q508.303 368.496 506.312 371.181 Q504.322 373.843 504.322 378.496 Q504.322 383.149 506.289 385.834 Q508.28 388.496 511.729 388.496 Q515.132 388.496 517.123 385.811 Q519.113 383.126 519.113 378.496 Q519.113 373.89 517.123 371.204 Q515.132 368.496 511.729 368.496 M511.729 364.885 Q517.285 364.885 520.456 368.496 Q523.627 372.107 523.627 378.496 Q523.627 384.862 520.456 388.496 Q517.285 392.107 511.729 392.107 Q506.15 392.107 502.979 388.496 Q499.831 384.862 499.831 378.496 Q499.831 372.107 502.979 368.496 Q506.15 364.885 511.729 364.885 Z" fill="#000000" fill-rule="nonzero" fill-opacity="1"></path><path clip-path="url(#clip000)" d="M552.238 375.788 L552.238 391.436 L547.979 391.436 L547.979 375.927 Q547.979 372.246 546.544 370.417 Q545.109 368.589 542.238 368.589 Q538.789 368.589 536.798 370.788 Q534.808 372.987 534.808 376.783 L534.808 391.436 L530.525 391.436 L530.525 365.51 L534.808 365.51 L534.808 369.538 Q536.335 367.2 538.396 366.042 Q540.479 364.885 543.187 364.885 Q547.655 364.885 549.946 367.663 Q552.238 370.417 552.238 375.788 Z" fill="#000000" fill-rule="nonzero" fill-opacity="1"></path><path clip-path="url(#clip000)" d="M577.261 366.274 L577.261 370.302 Q575.456 369.376 573.511 368.913 Q571.567 368.45 569.483 368.45 Q566.312 368.45 564.715 369.422 Q563.141 370.394 563.141 372.339 Q563.141 373.82 564.275 374.677 Q565.409 375.51 568.835 376.274 L570.294 376.598 Q574.831 377.57 576.729 379.352 Q578.65 381.112 578.65 384.283 Q578.65 387.894 575.78 390.001 Q572.932 392.107 567.932 392.107 Q565.849 392.107 563.581 391.69 Q561.335 391.297 558.835 390.487 L558.835 386.089 Q561.196 387.315 563.488 387.94 Q565.78 388.542 568.025 388.542 Q571.034 388.542 572.655 387.524 Q574.275 386.482 574.275 384.607 Q574.275 382.871 573.094 381.945 Q571.937 381.019 567.979 380.163 L566.497 379.815 Q562.539 378.982 560.78 377.269 Q559.02 375.533 559.02 372.524 Q559.02 368.866 561.613 366.876 Q564.206 364.885 568.974 364.885 Q571.335 364.885 573.419 365.232 Q575.502 365.579 577.261 366.274 Z" fill="#000000" fill-rule="nonzero" fill-opacity="1"></path><path clip-path="url(#clip000)" d="M589.645 358.149 L589.645 365.51 L598.418 365.51 L598.418 368.82 L589.645 368.82 L589.645 382.894 Q589.645 386.065 590.502 386.968 Q591.381 387.871 594.043 387.871 L598.418 387.871 L598.418 391.436 L594.043 391.436 Q589.113 391.436 587.238 389.607 Q585.363 387.755 585.363 382.894 L585.363 368.82 L582.238 368.82 L582.238 365.51 L585.363 365.51 L585.363 358.149 L589.645 358.149 Z" fill="#000000" fill-rule="nonzero" fill-opacity="1"></path><path clip-path="url(#clip000)" d="M619.043 369.491 Q618.326 369.075 617.469 368.89 Q616.636 368.681 615.617 368.681 Q612.006 368.681 610.062 371.042 Q608.141 373.38 608.141 377.778 L608.141 391.436 L603.858 391.436 L603.858 365.51 L608.141 365.51 L608.141 369.538 Q609.483 367.177 611.636 366.042 Q613.789 364.885 616.867 364.885 Q617.307 364.885 617.84 364.954 Q618.372 365.001 619.02 365.116 L619.043 369.491 Z" fill="#000000" fill-rule="nonzero" fill-opacity="1"></path><path clip-path="url(#clip000)" d="M635.293 378.403 Q630.131 378.403 628.14 379.584 Q626.15 380.764 626.15 383.612 Q626.15 385.88 627.631 387.223 Q629.136 388.542 631.705 388.542 Q635.247 388.542 637.377 386.042 Q639.529 383.519 639.529 379.352 L639.529 378.403 L635.293 378.403 M643.789 376.644 L643.789 391.436 L639.529 391.436 L639.529 387.501 Q638.071 389.862 635.895 390.996 Q633.719 392.107 630.571 392.107 Q626.59 392.107 624.228 389.885 Q621.89 387.639 621.89 383.889 Q621.89 379.514 624.807 377.292 Q627.747 375.07 633.557 375.07 L639.529 375.07 L639.529 374.653 Q639.529 371.714 637.585 370.116 Q635.664 368.496 632.168 368.496 Q629.946 368.496 627.84 369.028 Q625.733 369.561 623.789 370.626 L623.789 366.69 Q626.127 365.788 628.326 365.348 Q630.525 364.885 632.608 364.885 Q638.233 364.885 641.011 367.802 Q643.789 370.718 643.789 376.644 Z" fill="#000000" fill-rule="nonzero" fill-opacity="1"></path><path clip-path="url(#clip000)" d="M652.562 365.51 L656.821 365.51 L656.821 391.436 L652.562 391.436 L652.562 365.51 M652.562 355.417 L656.821 355.417 L656.821 360.811 L652.562 360.811 L652.562 355.417 Z" fill="#000000" fill-rule="nonzero" fill-opacity="1"></path><path clip-path="url(#clip000)" d="M687.284 375.788 L687.284 391.436 L683.024 391.436 L683.024 375.927 Q683.024 372.246 681.589 370.417 Q680.154 368.589 677.284 368.589 Q673.835 368.589 671.844 370.788 Q669.853 372.987 669.853 376.783 L669.853 391.436 L665.571 391.436 L665.571 365.51 L669.853 365.51 L669.853 369.538 Q671.381 367.2 673.441 366.042 Q675.524 364.885 678.233 364.885 Q682.7 364.885 684.992 367.663 Q687.284 370.417 687.284 375.788 Z" fill="#000000" fill-rule="nonzero" fill-opacity="1"></path><path clip-path="url(#clip000)" d="M699.992 358.149 L699.992 365.51 L708.765 365.51 L708.765 368.82 L699.992 368.82 L699.992 382.894 Q699.992 386.065 700.848 386.968 Q701.728 387.871 704.39 387.871 L708.765 387.871 L708.765 391.436 L704.39 391.436 Q699.46 391.436 697.585 389.607 Q695.71 387.755 695.71 382.894 L695.71 368.82 L692.585 368.82 L692.585 365.51 L695.71 365.51 L695.71 358.149 L699.992 358.149 Z" fill="#000000" fill-rule="nonzero" fill-opacity="1"></path><path clip-path="url(#clip000)" d="M730.895 366.274 L730.895 370.302 Q729.089 369.376 727.145 368.913 Q725.2 368.45 723.117 368.45 Q719.946 368.45 718.348 369.422 Q716.774 370.394 716.774 372.339 Q716.774 373.82 717.909 374.677 Q719.043 375.51 722.469 376.274 L723.927 376.598 Q728.464 377.57 730.362 379.352 Q732.283 381.112 732.283 384.283 Q732.283 387.894 729.413 390.001 Q726.566 392.107 721.566 392.107 Q719.483 392.107 717.214 391.69 Q714.969 391.297 712.469 390.487 L712.469 386.089 Q714.83 387.315 717.121 387.94 Q719.413 388.542 721.658 388.542 Q724.668 388.542 726.288 387.524 Q727.908 386.482 727.908 384.607 Q727.908 382.871 726.728 381.945 Q725.57 381.019 721.612 380.163 L720.131 379.815 Q716.172 378.982 714.413 377.269 Q712.654 375.533 712.654 372.524 Q712.654 368.866 715.246 366.876 Q717.839 364.885 722.608 364.885 Q724.969 364.885 727.052 365.232 Q729.135 365.579 730.895 366.274 Z" fill="#000000" fill-rule="nonzero" fill-opacity="1"></path><path clip-path="url(#clip000)" d="M307.274 446.732 L449.982 446.732 L449.982 405.26 L307.274 405.26 L307.274 446.732  Z" fill="#ff0000" fill-rule="evenodd" fill-opacity="0.35"></path>
<polyline clip-path="url(#clip000)" style="stroke:#ac8d18; stroke-linecap:round; stroke-linejoin:round; stroke-width:4; stroke-opacity:0.35; fill:none" points="307.274,405.26 449.982,405.26 "></polyline>
<path clip-path="url(#clip000)" d="M494.275 418.345 L494.275 422.327 Q492.47 421.331 490.641 420.845 Q488.836 420.336 486.984 420.336 Q482.84 420.336 480.549 422.975 Q478.257 425.591 478.257 430.336 Q478.257 435.081 480.549 437.72 Q482.84 440.336 486.984 440.336 Q488.836 440.336 490.641 439.85 Q492.47 439.341 494.275 438.345 L494.275 442.28 Q492.493 443.114 490.572 443.53 Q488.674 443.947 486.521 443.947 Q480.664 443.947 477.215 440.266 Q473.766 436.586 473.766 430.336 Q473.766 423.993 477.238 420.359 Q480.734 416.725 486.799 416.725 Q488.766 416.725 490.641 417.142 Q492.516 417.535 494.275 418.345 Z" fill="#000000" fill-rule="nonzero" fill-opacity="1"></path><path clip-path="url(#clip000)" d="M511.729 420.336 Q508.303 420.336 506.312 423.021 Q504.322 425.683 504.322 430.336 Q504.322 434.989 506.289 437.674 Q508.28 440.336 511.729 440.336 Q515.132 440.336 517.123 437.651 Q519.113 434.966 519.113 430.336 Q519.113 425.73 517.123 423.044 Q515.132 420.336 511.729 420.336 M511.729 416.725 Q517.285 416.725 520.456 420.336 Q523.627 423.947 523.627 430.336 Q523.627 436.702 520.456 440.336 Q517.285 443.947 511.729 443.947 Q506.15 443.947 502.979 440.336 Q499.831 436.702 499.831 430.336 Q499.831 423.947 502.979 420.336 Q506.15 416.725 511.729 416.725 Z" fill="#000000" fill-rule="nonzero" fill-opacity="1"></path><path clip-path="url(#clip000)" d="M552.238 427.628 L552.238 443.276 L547.979 443.276 L547.979 427.767 Q547.979 424.086 546.544 422.257 Q545.109 420.429 542.238 420.429 Q538.789 420.429 536.798 422.628 Q534.808 424.827 534.808 428.623 L534.808 443.276 L530.525 443.276 L530.525 417.35 L534.808 417.35 L534.808 421.378 Q536.335 419.04 538.396 417.882 Q540.479 416.725 543.187 416.725 Q547.655 416.725 549.946 419.503 Q552.238 422.257 552.238 427.628 Z" fill="#000000" fill-rule="nonzero" fill-opacity="1"></path><path clip-path="url(#clip000)" d="M577.261 418.114 L577.261 422.142 Q575.456 421.216 573.511 420.753 Q571.567 420.29 569.483 420.29 Q566.312 420.29 564.715 421.262 Q563.141 422.234 563.141 424.179 Q563.141 425.66 564.275 426.517 Q565.409 427.35 568.835 428.114 L570.294 428.438 Q574.831 429.41 576.729 431.192 Q578.65 432.952 578.65 436.123 Q578.65 439.734 575.78 441.841 Q572.932 443.947 567.932 443.947 Q565.849 443.947 563.581 443.53 Q561.335 443.137 558.835 442.327 L558.835 437.929 Q561.196 439.155 563.488 439.78 Q565.78 440.382 568.025 440.382 Q571.034 440.382 572.655 439.364 Q574.275 438.322 574.275 436.447 Q574.275 434.711 573.094 433.785 Q571.937 432.859 567.979 432.003 L566.497 431.655 Q562.539 430.822 560.78 429.109 Q559.02 427.373 559.02 424.364 Q559.02 420.706 561.613 418.716 Q564.206 416.725 568.974 416.725 Q571.335 416.725 573.419 417.072 Q575.502 417.419 577.261 418.114 Z" fill="#000000" fill-rule="nonzero" fill-opacity="1"></path><path clip-path="url(#clip000)" d="M589.645 409.989 L589.645 417.35 L598.418 417.35 L598.418 420.66 L589.645 420.66 L589.645 434.734 Q589.645 437.905 590.502 438.808 Q591.381 439.711 594.043 439.711 L598.418 439.711 L598.418 443.276 L594.043 443.276 Q589.113 443.276 587.238 441.447 Q585.363 439.595 585.363 434.734 L585.363 420.66 L582.238 420.66 L582.238 417.35 L585.363 417.35 L585.363 409.989 L589.645 409.989 Z" fill="#000000" fill-rule="nonzero" fill-opacity="1"></path><path clip-path="url(#clip000)" d="M619.043 421.331 Q618.326 420.915 617.469 420.73 Q616.636 420.521 615.617 420.521 Q612.006 420.521 610.062 422.882 Q608.141 425.22 608.141 429.618 L608.141 443.276 L603.858 443.276 L603.858 417.35 L608.141 417.35 L608.141 421.378 Q609.483 419.017 611.636 417.882 Q613.789 416.725 616.867 416.725 Q617.307 416.725 617.84 416.794 Q618.372 416.841 619.02 416.956 L619.043 421.331 Z" fill="#000000" fill-rule="nonzero" fill-opacity="1"></path><path clip-path="url(#clip000)" d="M635.293 430.243 Q630.131 430.243 628.14 431.424 Q626.15 432.604 626.15 435.452 Q626.15 437.72 627.631 439.063 Q629.136 440.382 631.705 440.382 Q635.247 440.382 637.377 437.882 Q639.529 435.359 639.529 431.192 L639.529 430.243 L635.293 430.243 M643.789 428.484 L643.789 443.276 L639.529 443.276 L639.529 439.341 Q638.071 441.702 635.895 442.836 Q633.719 443.947 630.571 443.947 Q626.59 443.947 624.228 441.725 Q621.89 439.479 621.89 435.729 Q621.89 431.354 624.807 429.132 Q627.747 426.91 633.557 426.91 L639.529 426.91 L639.529 426.493 Q639.529 423.554 637.585 421.956 Q635.664 420.336 632.168 420.336 Q629.946 420.336 627.84 420.868 Q625.733 421.401 623.789 422.466 L623.789 418.53 Q626.127 417.628 628.326 417.188 Q630.525 416.725 632.608 416.725 Q638.233 416.725 641.011 419.642 Q643.789 422.558 643.789 428.484 Z" fill="#000000" fill-rule="nonzero" fill-opacity="1"></path><path clip-path="url(#clip000)" d="M652.562 417.35 L656.821 417.35 L656.821 443.276 L652.562 443.276 L652.562 417.35 M652.562 407.257 L656.821 407.257 L656.821 412.651 L652.562 412.651 L652.562 407.257 Z" fill="#000000" fill-rule="nonzero" fill-opacity="1"></path><path clip-path="url(#clip000)" d="M687.284 427.628 L687.284 443.276 L683.024 443.276 L683.024 427.767 Q683.024 424.086 681.589 422.257 Q680.154 420.429 677.284 420.429 Q673.835 420.429 671.844 422.628 Q669.853 424.827 669.853 428.623 L669.853 443.276 L665.571 443.276 L665.571 417.35 L669.853 417.35 L669.853 421.378 Q671.381 419.04 673.441 417.882 Q675.524 416.725 678.233 416.725 Q682.7 416.725 684.992 419.503 Q687.284 422.257 687.284 427.628 Z" fill="#000000" fill-rule="nonzero" fill-opacity="1"></path><path clip-path="url(#clip000)" d="M699.992 409.989 L699.992 417.35 L708.765 417.35 L708.765 420.66 L699.992 420.66 L699.992 434.734 Q699.992 437.905 700.848 438.808 Q701.728 439.711 704.39 439.711 L708.765 439.711 L708.765 443.276 L704.39 443.276 Q699.46 443.276 697.585 441.447 Q695.71 439.595 695.71 434.734 L695.71 420.66 L692.585 420.66 L692.585 417.35 L695.71 417.35 L695.71 409.989 L699.992 409.989 Z" fill="#000000" fill-rule="nonzero" fill-opacity="1"></path><path clip-path="url(#clip000)" d="M730.895 418.114 L730.895 422.142 Q729.089 421.216 727.145 420.753 Q725.2 420.29 723.117 420.29 Q719.946 420.29 718.348 421.262 Q716.774 422.234 716.774 424.179 Q716.774 425.66 717.909 426.517 Q719.043 427.35 722.469 428.114 L723.927 428.438 Q728.464 429.41 730.362 431.192 Q732.283 432.952 732.283 436.123 Q732.283 439.734 729.413 441.841 Q726.566 443.947 721.566 443.947 Q719.483 443.947 717.214 443.53 Q714.969 443.137 712.469 442.327 L712.469 437.929 Q714.83 439.155 717.121 439.78 Q719.413 440.382 721.658 440.382 Q724.668 440.382 726.288 439.364 Q727.908 438.322 727.908 436.447 Q727.908 434.711 726.728 433.785 Q725.57 432.859 721.612 432.003 L720.131 431.655 Q716.172 430.822 714.413 429.109 Q712.654 427.373 712.654 424.364 Q712.654 420.706 715.246 418.716 Q717.839 416.725 722.608 416.725 Q724.969 416.725 727.052 417.072 Q729.135 417.419 730.895 418.114 Z" fill="#000000" fill-rule="nonzero" fill-opacity="1"></path></svg>