<svg xmlns="http://www.w3.org/2000/svg" xmlns:xlink="http://www.w3.org/1999/xlink" width="600" height="400" viewBox="0 0 2400 1600">
<defs>
  <clipPath id="clip410">
    <rect x="0" y="0" width="2400" height="1600"></rect>
  </clipPath>
</defs>
<path clip-path="url(#clip410)" d="M0 1600 L2400 1600 L2400 0 L0 0  Z" fill="#ffffff" fill-rule="evenodd" fill-opacity="1"></path>
<defs>
  <clipPath id="clip411">
    <rect x="480" y="0" width="1681" height="1600"></rect>
  </clipPath>
</defs>
<path clip-path="url(#clip410)" d="M257.204 1423.18 L2352.76 1423.18 L2352.76 123.472 L257.204 123.472  Z" fill="#ffffff" fill-rule="evenodd" fill-opacity="1"></path>
<defs>
  <clipPath id="clip412">
    <rect x="257" y="123" width="2097" height="1301"></rect>
  </clipPath>
</defs>
<polyline clip-path="url(#clip412)" style="stroke:#000000; stroke-linecap:round; stroke-linejoin:round; stroke-width:2; stroke-opacity:0.1; fill:none" points="316.512,1423.18 316.512,123.472 "></polyline>
<polyline clip-path="url(#clip412)" style="stroke:#000000; stroke-linecap:round; stroke-linejoin:round; stroke-width:2; stroke-opacity:0.1; fill:none" points="810.746,1423.18 810.746,123.472 "></polyline>
<polyline clip-path="url(#clip412)" style="stroke:#000000; stroke-linecap:round; stroke-linejoin:round; stroke-width:2; stroke-opacity:0.1; fill:none" points="1304.98,1423.18 1304.98,123.472 "></polyline>
<polyline clip-path="url(#clip412)" style="stroke:#000000; stroke-linecap:round; stroke-linejoin:round; stroke-width:2; stroke-opacity:0.1; fill:none" points="1799.21,1423.18 1799.21,123.472 "></polyline>
<polyline clip-path="url(#clip412)" style="stroke:#000000; stroke-linecap:round; stroke-linejoin:round; stroke-width:2; stroke-opacity:0.1; fill:none" points="2293.45,1423.18 2293.45,123.472 "></polyline>
<polyline clip-path="url(#clip410)" style="stroke:#000000; stroke-linecap:round; stroke-linejoin:round; stroke-width:4; stroke-opacity:1; fill:none" points="257.204,1423.18 2352.76,1423.18 "></polyline>
<polyline clip-path="url(#clip410)" style="stroke:#000000; stroke-linecap:round; stroke-linejoin:round; stroke-width:4; stroke-opacity:1; fill:none" points="316.512,1423.18 316.512,1404.28 "></polyline>
<polyline clip-path="url(#clip410)" style="stroke:#000000; stroke-linecap:round; stroke-linejoin:round; stroke-width:4; stroke-opacity:1; fill:none" points="810.746,1423.18 810.746,1404.28 "></polyline>
<polyline clip-path="url(#clip410)" style="stroke:#000000; stroke-linecap:round; stroke-linejoin:round; stroke-width:4; stroke-opacity:1; fill:none" points="1304.98,1423.18 1304.98,1404.28 "></polyline>
<polyline clip-path="url(#clip410)" style="stroke:#000000; stroke-linecap:round; stroke-linejoin:round; stroke-width:4; stroke-opacity:1; fill:none" points="1799.21,1423.18 1799.21,1404.28 "></polyline>
<polyline clip-path="url(#clip410)" style="stroke:#000000; stroke-linecap:round; stroke-linejoin:round; stroke-width:4; stroke-opacity:1; fill:none" points="2293.45,1423.18 2293.45,1404.28 "></polyline>
<path clip-path="url(#clip410)" d="M316.512 1454.1 Q312.901 1454.1 311.072 1457.66 Q309.267 1461.2 309.267 1468.33 Q309.267 1475.44 311.072 1479.01 Q312.901 1482.55 316.512 1482.55 Q320.146 1482.55 321.952 1479.01 Q323.781 1475.44 323.781 1468.33 Q323.781 1461.2 321.952 1457.66 Q320.146 1454.1 316.512 1454.1 M316.512 1450.39 Q322.322 1450.39 325.378 1455 Q328.456 1459.58 328.456 1468.33 Q328.456 1477.06 325.378 1481.67 Q322.322 1486.25 316.512 1486.25 Q310.702 1486.25 307.623 1481.67 Q304.568 1477.06 304.568 1468.33 Q304.568 1459.58 307.623 1455 Q310.702 1450.39 316.512 1450.39 Z" fill="#000000" fill-rule="nonzero" fill-opacity="1"></path><path clip-path="url(#clip410)" d="M785.434 1481.64 L793.073 1481.64 L793.073 1455.28 L784.762 1456.95 L784.762 1452.69 L793.026 1451.02 L797.702 1451.02 L797.702 1481.64 L805.341 1481.64 L805.341 1485.58 L785.434 1485.58 L785.434 1481.64 Z" fill="#000000" fill-rule="nonzero" fill-opacity="1"></path><path clip-path="url(#clip410)" d="M824.785 1454.1 Q821.174 1454.1 819.346 1457.66 Q817.54 1461.2 817.54 1468.33 Q817.54 1475.44 819.346 1479.01 Q821.174 1482.55 824.785 1482.55 Q828.42 1482.55 830.225 1479.01 Q832.054 1475.44 832.054 1468.33 Q832.054 1461.2 830.225 1457.66 Q828.42 1454.1 824.785 1454.1 M824.785 1450.39 Q830.595 1450.39 833.651 1455 Q836.73 1459.58 836.73 1468.33 Q836.73 1477.06 833.651 1481.67 Q830.595 1486.25 824.785 1486.25 Q818.975 1486.25 815.896 1481.67 Q812.841 1477.06 812.841 1468.33 Q812.841 1459.58 815.896 1455 Q818.975 1450.39 824.785 1450.39 Z" fill="#000000" fill-rule="nonzero" fill-opacity="1"></path><path clip-path="url(#clip410)" d="M1283.75 1481.64 L1300.07 1481.64 L1300.07 1485.58 L1278.13 1485.58 L1278.13 1481.64 Q1280.79 1478.89 1285.37 1474.26 Q1289.98 1469.61 1291.16 1468.27 Q1293.41 1465.74 1294.29 1464.01 Q1295.19 1462.25 1295.19 1460.56 Q1295.19 1457.8 1293.24 1456.07 Q1291.32 1454.33 1288.22 1454.33 Q1286.02 1454.33 1283.57 1455.09 Q1281.14 1455.86 1278.36 1457.41 L1278.36 1452.69 Q1281.18 1451.55 1283.64 1450.97 Q1286.09 1450.39 1288.13 1450.39 Q1293.5 1450.39 1296.69 1453.08 Q1299.89 1455.77 1299.89 1460.26 Q1299.89 1462.39 1299.08 1464.31 Q1298.29 1466.2 1296.18 1468.8 Q1295.61 1469.47 1292.5 1472.69 Q1289.4 1475.88 1283.75 1481.64 Z" fill="#000000" fill-rule="nonzero" fill-opacity="1"></path><path clip-path="url(#clip410)" d="M1319.89 1454.1 Q1316.28 1454.1 1314.45 1457.66 Q1312.64 1461.2 1312.64 1468.33 Q1312.64 1475.44 1314.45 1479.01 Q1316.28 1482.55 1319.89 1482.55 Q1323.52 1482.55 1325.33 1479.01 Q1327.16 1475.44 1327.16 1468.33 Q1327.16 1461.2 1325.33 1457.66 Q1323.52 1454.1 1319.89 1454.1 M1319.89 1450.39 Q1325.7 1450.39 1328.75 1455 Q1331.83 1459.58 1331.83 1468.33 Q1331.83 1477.06 1328.75 1481.67 Q1325.7 1486.25 1319.89 1486.25 Q1314.08 1486.25 1311 1481.67 Q1307.94 1477.06 1307.94 1468.33 Q1307.94 1459.58 1311 1455 Q1314.08 1450.39 1319.89 1450.39 Z" fill="#000000" fill-rule="nonzero" fill-opacity="1"></path><path clip-path="url(#clip410)" d="M1788.06 1466.95 Q1791.41 1467.66 1793.29 1469.93 Q1795.19 1472.2 1795.19 1475.53 Q1795.19 1480.65 1791.67 1483.45 Q1788.15 1486.25 1781.67 1486.25 Q1779.49 1486.25 1777.18 1485.81 Q1774.89 1485.39 1772.43 1484.54 L1772.43 1480.02 Q1774.38 1481.16 1776.69 1481.74 Q1779.01 1482.32 1781.53 1482.32 Q1785.93 1482.32 1788.22 1480.58 Q1790.53 1478.84 1790.53 1475.53 Q1790.53 1472.48 1788.38 1470.77 Q1786.25 1469.03 1782.43 1469.03 L1778.4 1469.03 L1778.4 1465.19 L1782.62 1465.19 Q1786.07 1465.19 1787.89 1463.82 Q1789.72 1462.43 1789.72 1459.84 Q1789.72 1457.18 1787.83 1455.77 Q1785.95 1454.33 1782.43 1454.33 Q1780.51 1454.33 1778.31 1454.75 Q1776.11 1455.16 1773.47 1456.04 L1773.47 1451.88 Q1776.14 1451.14 1778.45 1450.77 Q1780.79 1450.39 1782.85 1450.39 Q1788.17 1450.39 1791.27 1452.83 Q1794.38 1455.23 1794.38 1459.35 Q1794.38 1462.22 1792.73 1464.21 Q1791.09 1466.18 1788.06 1466.95 Z" fill="#000000" fill-rule="nonzero" fill-opacity="1"></path><path clip-path="url(#clip410)" d="M1814.05 1454.1 Q1810.44 1454.1 1808.61 1457.66 Q1806.81 1461.2 1806.81 1468.33 Q1806.81 1475.44 1808.61 1479.01 Q1810.44 1482.55 1814.05 1482.55 Q1817.69 1482.55 1819.49 1479.01 Q1821.32 1475.44 1821.32 1468.33 Q1821.32 1461.2 1819.49 1457.66 Q1817.69 1454.1 1814.05 1454.1 M1814.05 1450.39 Q1819.86 1450.39 1822.92 1455 Q1826 1459.58 1826 1468.33 Q1826 1477.06 1822.92 1481.67 Q1819.86 1486.25 1814.05 1486.25 Q1808.24 1486.25 1805.16 1481.67 Q1802.11 1477.06 1802.11 1468.33 Q1802.11 1459.58 1805.16 1455 Q1808.24 1450.39 1814.05 1450.39 Z" fill="#000000" fill-rule="nonzero" fill-opacity="1"></path><path clip-path="url(#clip410)" d="M2281.62 1455.09 L2269.81 1473.54 L2281.62 1473.54 L2281.62 1455.09 M2280.39 1451.02 L2286.27 1451.02 L2286.27 1473.54 L2291.2 1473.54 L2291.2 1477.43 L2286.27 1477.43 L2286.27 1485.58 L2281.62 1485.58 L2281.62 1477.43 L2266.02 1477.43 L2266.02 1472.92 L2280.39 1451.02 Z" fill="#000000" fill-rule="nonzero" fill-opacity="1"></path><path clip-path="url(#clip410)" d="M2308.93 1454.1 Q2305.32 1454.1 2303.49 1457.66 Q2301.69 1461.2 2301.69 1468.33 Q2301.69 1475.44 2303.49 1479.01 Q2305.32 1482.55 2308.93 1482.55 Q2312.57 1482.55 2314.37 1479.01 Q2316.2 1475.44 2316.2 1468.33 Q2316.2 1461.2 2314.37 1457.66 Q2312.57 1454.1 2308.93 1454.1 M2308.93 1450.39 Q2314.74 1450.39 2317.8 1455 Q2320.88 1459.58 2320.88 1468.33 Q2320.88 1477.06 2317.8 1481.67 Q2314.74 1486.25 2308.93 1486.25 Q2303.12 1486.25 2300.05 1481.67 Q2296.99 1477.06 2296.99 1468.33 Q2296.99 1459.58 2300.05 1455 Q2303.12 1450.39 2308.93 1450.39 Z" fill="#000000" fill-rule="nonzero" fill-opacity="1"></path><path clip-path="url(#clip410)" d="M1304.04 1522.27 L1304.04 1532.4 L1316.1 1532.4 L1316.1 1536.95 L1304.04 1536.95 L1304.04 1556.3 Q1304.04 1560.66 1305.22 1561.9 Q1306.43 1563.14 1310.09 1563.14 L1316.1 1563.14 L1316.1 1568.04 L1310.09 1568.04 Q1303.31 1568.04 1300.73 1565.53 Q1298.15 1562.98 1298.15 1556.3 L1298.15 1536.95 L1293.86 1536.95 L1293.86 1532.4 L1298.15 1532.4 L1298.15 1522.27 L1304.04 1522.27 Z" fill="#000000" fill-rule="nonzero" fill-opacity="1"></path><polyline clip-path="url(#clip412)" style="stroke:#000000; stroke-linecap:round; stroke-linejoin:round; stroke-width:2; stroke-opacity:0.1; fill:none" points="257.204,1315.57 2352.76,1315.57 "></polyline>
<polyline clip-path="url(#clip412)" style="stroke:#000000; stroke-linecap:round; stroke-linejoin:round; stroke-width:2; stroke-opacity:0.1; fill:none" points="257.204,1096.79 2352.76,1096.79 "></polyline>
<polyline clip-path="url(#clip412)" style="stroke:#000000; stroke-linecap:round; stroke-linejoin:round; stroke-width:2; stroke-opacity:0.1; fill:none" points="257.204,878.012 2352.76,878.012 "></polyline>
<polyline clip-path="url(#clip412)" style="stroke:#000000; stroke-linecap:round; stroke-linejoin:round; stroke-width:2; stroke-opacity:0.1; fill:none" points="257.204,659.232 2352.76,659.232 "></polyline>
<polyline clip-path="url(#clip412)" style="stroke:#000000; stroke-linecap:round; stroke-linejoin:round; stroke-width:2; stroke-opacity:0.1; fill:none" points="257.204,440.452 2352.76,440.452 "></polyline>
<polyline clip-path="url(#clip412)" style="stroke:#000000; stroke-linecap:round; stroke-linejoin:round; stroke-width:2; stroke-opacity:0.1; fill:none" points="257.204,221.671 2352.76,221.671 "></polyline>
<polyline clip-path="url(#clip410)" style="stroke:#000000; stroke-linecap:round; stroke-linejoin:round; stroke-width:4; stroke-opacity:1; fill:none" points="257.204,1423.18 257.204,123.472 "></polyline>
<polyline clip-path="url(#clip410)" style="stroke:#000000; stroke-linecap:round; stroke-linejoin:round; stroke-width:4; stroke-opacity:1; fill:none" points="257.204,1315.57 276.102,1315.57 "></polyline>
<polyline clip-path="url(#clip410)" style="stroke:#000000; stroke-linecap:round; stroke-linejoin:round; stroke-width:4; stroke-opacity:1; fill:none" points="257.204,1096.79 276.102,1096.79 "></polyline>
<polyline clip-path="url(#clip410)" style="stroke:#000000; stroke-linecap:round; stroke-linejoin:round; stroke-width:4; stroke-opacity:1; fill:none" points="257.204,878.012 276.102,878.012 "></polyline>
<polyline clip-path="url(#clip410)" style="stroke:#000000; stroke-linecap:round; stroke-linejoin:round; stroke-width:4; stroke-opacity:1; fill:none" points="257.204,659.232 276.102,659.232 "></polyline>
<polyline clip-path="url(#clip410)" style="stroke:#000000; stroke-linecap:round; stroke-linejoin:round; stroke-width:4; stroke-opacity:1; fill:none" points="257.204,440.452 276.102,440.452 "></polyline>
<polyline clip-path="url(#clip410)" style="stroke:#000000; stroke-linecap:round; stroke-linejoin:round; stroke-width:4; stroke-opacity:1; fill:none" points="257.204,221.671 276.102,221.671 "></polyline>
<path clip-path="url(#clip410)" d="M114.26 1316.02 L143.936 1316.02 L143.936 1319.96 L114.26 1319.96 L114.26 1316.02 Z" fill="#000000" fill-rule="nonzero" fill-opacity="1"></path><path clip-path="url(#clip410)" d="M154.075 1298.29 L172.431 1298.29 L172.431 1302.23 L158.357 1302.23 L158.357 1310.7 Q159.376 1310.35 160.394 1310.19 Q161.413 1310.01 162.431 1310.01 Q168.218 1310.01 171.598 1313.18 Q174.977 1316.35 174.977 1321.77 Q174.977 1327.34 171.505 1330.45 Q168.033 1333.52 161.714 1333.52 Q159.538 1333.52 157.269 1333.15 Q155.024 1332.78 152.616 1332.04 L152.616 1327.34 Q154.7 1328.48 156.922 1329.03 Q159.144 1329.59 161.621 1329.59 Q165.626 1329.59 167.964 1327.48 Q170.302 1325.38 170.302 1321.77 Q170.302 1318.15 167.964 1316.05 Q165.626 1313.94 161.621 1313.94 Q159.746 1313.94 157.871 1314.36 Q156.019 1314.77 154.075 1315.65 L154.075 1298.29 Z" fill="#000000" fill-rule="nonzero" fill-opacity="1"></path><path clip-path="url(#clip410)" d="M184.19 1326.97 L189.075 1326.97 L189.075 1332.85 L184.19 1332.85 L184.19 1326.97 Z" fill="#000000" fill-rule="nonzero" fill-opacity="1"></path><path clip-path="url(#clip410)" d="M209.26 1301.37 Q205.649 1301.37 203.82 1304.94 Q202.014 1308.48 202.014 1315.61 Q202.014 1322.71 203.82 1326.28 Q205.649 1329.82 209.26 1329.82 Q212.894 1329.82 214.699 1326.28 Q216.528 1322.71 216.528 1315.61 Q216.528 1308.48 214.699 1304.94 Q212.894 1301.37 209.26 1301.37 M209.26 1297.67 Q215.07 1297.67 218.125 1302.27 Q221.204 1306.86 221.204 1315.61 Q221.204 1324.33 218.125 1328.94 Q215.07 1333.52 209.26 1333.52 Q203.449 1333.52 200.371 1328.94 Q197.315 1324.33 197.315 1315.61 Q197.315 1306.86 200.371 1302.27 Q203.449 1297.67 209.26 1297.67 Z" fill="#000000" fill-rule="nonzero" fill-opacity="1"></path><path clip-path="url(#clip410)" d="M115.256 1097.24 L144.931 1097.24 L144.931 1101.18 L115.256 1101.18 L115.256 1097.24 Z" fill="#000000" fill-rule="nonzero" fill-opacity="1"></path><path clip-path="url(#clip410)" d="M159.052 1110.14 L175.371 1110.14 L175.371 1114.07 L153.427 1114.07 L153.427 1110.14 Q156.089 1107.38 160.672 1102.75 Q165.278 1098.1 166.459 1096.76 Q168.704 1094.23 169.584 1092.5 Q170.487 1090.74 170.487 1089.05 Q170.487 1086.3 168.542 1084.56 Q166.621 1082.82 163.519 1082.82 Q161.32 1082.82 158.866 1083.59 Q156.436 1084.35 153.658 1085.9 L153.658 1081.18 Q156.482 1080.05 158.936 1079.47 Q161.39 1078.89 163.427 1078.89 Q168.797 1078.89 171.991 1081.57 Q175.186 1084.26 175.186 1088.75 Q175.186 1090.88 174.376 1092.8 Q173.589 1094.7 171.482 1097.29 Q170.903 1097.96 167.802 1101.18 Q164.7 1104.37 159.052 1110.14 Z" fill="#000000" fill-rule="nonzero" fill-opacity="1"></path><path clip-path="url(#clip410)" d="M185.186 1108.19 L190.07 1108.19 L190.07 1114.07 L185.186 1114.07 L185.186 1108.19 Z" fill="#000000" fill-rule="nonzero" fill-opacity="1"></path><path clip-path="url(#clip410)" d="M200.301 1079.51 L218.658 1079.51 L218.658 1083.45 L204.584 1083.45 L204.584 1091.92 Q205.602 1091.57 206.621 1091.41 Q207.639 1091.23 208.658 1091.23 Q214.445 1091.23 217.824 1094.4 Q221.204 1097.57 221.204 1102.98 Q221.204 1108.56 217.732 1111.67 Q214.26 1114.74 207.94 1114.74 Q205.764 1114.74 203.496 1114.37 Q201.25 1114 198.843 1113.26 L198.843 1108.56 Q200.926 1109.7 203.149 1110.25 Q205.371 1110.81 207.848 1110.81 Q211.852 1110.81 214.19 1108.7 Q216.528 1106.6 216.528 1102.98 Q216.528 1099.37 214.19 1097.27 Q211.852 1095.16 207.848 1095.16 Q205.973 1095.16 204.098 1095.58 Q202.246 1095.99 200.301 1096.87 L200.301 1079.51 Z" fill="#000000" fill-rule="nonzero" fill-opacity="1"></path><path clip-path="url(#clip410)" d="M164.028 863.811 Q160.417 863.811 158.589 867.376 Q156.783 870.917 156.783 878.047 Q156.783 885.154 158.589 888.718 Q160.417 892.26 164.028 892.26 Q167.663 892.26 169.468 888.718 Q171.297 885.154 171.297 878.047 Q171.297 870.917 169.468 867.376 Q167.663 863.811 164.028 863.811 M164.028 860.107 Q169.839 860.107 172.894 864.714 Q175.973 869.297 175.973 878.047 Q175.973 886.774 172.894 891.38 Q169.839 895.964 164.028 895.964 Q158.218 895.964 155.14 891.38 Q152.084 886.774 152.084 878.047 Q152.084 869.297 155.14 864.714 Q158.218 860.107 164.028 860.107 Z" fill="#000000" fill-rule="nonzero" fill-opacity="1"></path><path clip-path="url(#clip410)" d="M184.19 889.413 L189.075 889.413 L189.075 895.292 L184.19 895.292 L184.19 889.413 Z" fill="#000000" fill-rule="nonzero" fill-opacity="1"></path><path clip-path="url(#clip410)" d="M209.26 863.811 Q205.649 863.811 203.82 867.376 Q202.014 870.917 202.014 878.047 Q202.014 885.154 203.82 888.718 Q205.649 892.26 209.26 892.26 Q212.894 892.26 214.699 888.718 Q216.528 885.154 216.528 878.047 Q216.528 870.917 214.699 867.376 Q212.894 863.811 209.26 863.811 M209.26 860.107 Q215.07 860.107 218.125 864.714 Q221.204 869.297 221.204 878.047 Q221.204 886.774 218.125 891.38 Q215.07 895.964 209.26 895.964 Q203.449 895.964 200.371 891.38 Q197.315 886.774 197.315 878.047 Q197.315 869.297 200.371 864.714 Q203.449 860.107 209.26 860.107 Z" fill="#000000" fill-rule="nonzero" fill-opacity="1"></path><path clip-path="url(#clip410)" d="M159.052 672.577 L175.371 672.577 L175.371 676.512 L153.427 676.512 L153.427 672.577 Q156.089 669.822 160.672 665.193 Q165.278 660.54 166.459 659.197 Q168.704 656.674 169.584 654.938 Q170.487 653.179 170.487 651.489 Q170.487 648.734 168.542 646.998 Q166.621 645.262 163.519 645.262 Q161.32 645.262 158.866 646.026 Q156.436 646.79 153.658 648.341 L153.658 643.619 Q156.482 642.484 158.936 641.906 Q161.39 641.327 163.427 641.327 Q168.797 641.327 171.991 644.012 Q175.186 646.697 175.186 651.188 Q175.186 653.318 174.376 655.239 Q173.589 657.137 171.482 659.73 Q170.903 660.401 167.802 663.619 Q164.7 666.813 159.052 672.577 Z" fill="#000000" fill-rule="nonzero" fill-opacity="1"></path><path clip-path="url(#clip410)" d="M185.186 670.632 L190.07 670.632 L190.07 676.512 L185.186 676.512 L185.186 670.632 Z" fill="#000000" fill-rule="nonzero" fill-opacity="1"></path><path clip-path="url(#clip410)" d="M200.301 641.952 L218.658 641.952 L218.658 645.887 L204.584 645.887 L204.584 654.359 Q205.602 654.012 206.621 653.85 Q207.639 653.665 208.658 653.665 Q214.445 653.665 217.824 656.836 Q221.204 660.007 221.204 665.424 Q221.204 671.003 217.732 674.105 Q214.26 677.183 207.94 677.183 Q205.764 677.183 203.496 676.813 Q201.25 676.443 198.843 675.702 L198.843 671.003 Q200.926 672.137 203.149 672.693 Q205.371 673.248 207.848 673.248 Q211.852 673.248 214.19 671.142 Q216.528 669.035 216.528 665.424 Q216.528 661.813 214.19 659.707 Q211.852 657.6 207.848 657.6 Q205.973 657.6 204.098 658.017 Q202.246 658.433 200.301 659.313 L200.301 641.952 Z" fill="#000000" fill-rule="nonzero" fill-opacity="1"></path><path clip-path="url(#clip410)" d="M154.075 423.172 L172.431 423.172 L172.431 427.107 L158.357 427.107 L158.357 435.579 Q159.376 435.232 160.394 435.07 Q161.413 434.885 162.431 434.885 Q168.218 434.885 171.598 438.056 Q174.977 441.227 174.977 446.644 Q174.977 452.222 171.505 455.324 Q168.033 458.403 161.714 458.403 Q159.538 458.403 157.269 458.033 Q155.024 457.662 152.616 456.921 L152.616 452.222 Q154.7 453.357 156.922 453.912 Q159.144 454.468 161.621 454.468 Q165.626 454.468 167.964 452.361 Q170.302 450.255 170.302 446.644 Q170.302 443.033 167.964 440.926 Q165.626 438.82 161.621 438.82 Q159.746 438.82 157.871 439.236 Q156.019 439.653 154.075 440.533 L154.075 423.172 Z" fill="#000000" fill-rule="nonzero" fill-opacity="1"></path><path clip-path="url(#clip410)" d="M184.19 451.852 L189.075 451.852 L189.075 457.732 L184.19 457.732 L184.19 451.852 Z" fill="#000000" fill-rule="nonzero" fill-opacity="1"></path><path clip-path="url(#clip410)" d="M209.26 426.25 Q205.649 426.25 203.82 429.815 Q202.014 433.357 202.014 440.486 Q202.014 447.593 203.82 451.158 Q205.649 454.699 209.26 454.699 Q212.894 454.699 214.699 451.158 Q216.528 447.593 216.528 440.486 Q216.528 433.357 214.699 429.815 Q212.894 426.25 209.26 426.25 M209.26 422.547 Q215.07 422.547 218.125 427.153 Q221.204 431.736 221.204 440.486 Q221.204 449.213 218.125 453.82 Q215.07 458.403 209.26 458.403 Q203.449 458.403 200.371 453.82 Q197.315 449.213 197.315 440.486 Q197.315 431.736 200.371 427.153 Q203.449 422.547 209.26 422.547 Z" fill="#000000" fill-rule="nonzero" fill-opacity="1"></path><path clip-path="url(#clip410)" d="M153.843 204.391 L176.065 204.391 L176.065 206.382 L163.519 238.951 L158.635 238.951 L170.44 208.326 L153.843 208.326 L153.843 204.391 Z" fill="#000000" fill-rule="nonzero" fill-opacity="1"></path><path clip-path="url(#clip410)" d="M185.186 233.072 L190.07 233.072 L190.07 238.951 L185.186 238.951 L185.186 233.072 Z" fill="#000000" fill-rule="nonzero" fill-opacity="1"></path><path clip-path="url(#clip410)" d="M200.301 204.391 L218.658 204.391 L218.658 208.326 L204.584 208.326 L204.584 216.799 Q205.602 216.451 206.621 216.289 Q207.639 216.104 208.658 216.104 Q214.445 216.104 217.824 219.275 Q221.204 222.447 221.204 227.863 Q221.204 233.442 217.732 236.544 Q214.26 239.623 207.94 239.623 Q205.764 239.623 203.496 239.252 Q201.25 238.882 198.843 238.141 L198.843 233.442 Q200.926 234.576 203.149 235.132 Q205.371 235.687 207.848 235.687 Q211.852 235.687 214.19 233.581 Q216.528 231.474 216.528 227.863 Q216.528 224.252 214.19 222.146 Q211.852 220.039 207.848 220.039 Q205.973 220.039 204.098 220.456 Q202.246 220.873 200.301 221.752 L200.301 204.391 Z" fill="#000000" fill-rule="nonzero" fill-opacity="1"></path><path clip-path="url(#clip410)" d="M67.3143 771.639 Q73.68 774.122 75.6216 776.477 Q77.5631 778.832 77.5631 782.779 L77.5631 787.458 L72.6615 787.458 L72.6615 784.02 Q72.6615 781.601 71.5157 780.265 Q70.3699 778.928 66.1048 777.305 L63.4312 776.254 L28.3562 790.673 L28.3562 784.466 L56.238 773.326 L28.3562 762.186 L28.3562 755.979 L67.3143 771.639 Z" fill="#000000" fill-rule="nonzero" fill-opacity="1"></path><path clip-path="url(#clip410)" d="M649.604 65.7705 L649.604 89.8329 L642.11 89.8329 L642.11 27.2059 L649.604 27.2059 L649.604 34.0924 Q651.954 30.0415 655.519 28.0971 Q659.124 26.1121 664.107 26.1121 Q672.371 26.1121 677.515 32.6746 Q682.7 39.2371 682.7 49.9314 Q682.7 60.6258 677.515 67.1883 Q672.371 73.7508 664.107 73.7508 Q659.124 73.7508 655.519 71.8063 Q651.954 69.8214 649.604 65.7705 M674.963 49.9314 Q674.963 41.7081 671.56 37.0496 Q668.198 32.3505 662.284 32.3505 Q656.369 32.3505 652.967 37.0496 Q649.604 41.7081 649.604 49.9314 Q649.604 58.1548 652.967 62.8538 Q656.369 67.5124 662.284 67.5124 Q668.198 67.5124 671.56 62.8538 Q674.963 58.1548 674.963 49.9314 Z" fill="#000000" fill-rule="nonzero" fill-opacity="1"></path><path clip-path="url(#clip410)" d="M721.346 34.1734 Q720.09 33.4443 718.591 33.1202 Q717.133 32.7556 715.351 32.7556 Q709.031 32.7556 705.628 36.8875 Q702.266 40.9789 702.266 48.6757 L702.266 72.576 L694.772 72.576 L694.772 27.2059 L702.266 27.2059 L702.266 34.2544 Q704.616 30.1225 708.383 28.1376 Q712.15 26.1121 717.538 26.1121 Q718.308 26.1121 719.239 26.2337 Q720.171 26.3147 721.305 26.5172 L721.346 34.1734 Z" fill="#000000" fill-rule="nonzero" fill-opacity="1"></path><path clip-path="url(#clip410)" d="M766.149 48.0275 L766.149 51.6733 L731.878 51.6733 Q732.364 59.3701 736.496 63.421 Q740.669 67.4314 748.082 67.4314 Q752.376 67.4314 756.386 66.3781 Q760.437 65.3249 764.407 63.2184 L764.407 70.267 Q760.397 71.9684 756.184 72.8596 Q751.971 73.7508 747.636 73.7508 Q736.78 73.7508 730.42 67.4314 Q724.101 61.1119 724.101 50.3365 Q724.101 39.1965 730.096 32.6746 Q736.132 26.1121 746.34 26.1121 Q755.495 26.1121 760.802 32.0264 Q766.149 37.9003 766.149 48.0275 M758.695 45.84 Q758.614 39.7232 755.252 36.0774 Q751.93 32.4315 746.421 32.4315 Q740.183 32.4315 736.415 35.9558 Q732.688 39.4801 732.121 45.8805 L758.695 45.84 Z" fill="#000000" fill-rule="nonzero" fill-opacity="1"></path><path clip-path="url(#clip410)" d="M808.238 34.0924 L808.238 9.54393 L815.692 9.54393 L815.692 72.576 L808.238 72.576 L808.238 65.7705 Q805.888 69.8214 802.283 71.8063 Q798.718 73.7508 793.695 73.7508 Q785.472 73.7508 780.287 67.1883 Q775.142 60.6258 775.142 49.9314 Q775.142 39.2371 780.287 32.6746 Q785.472 26.1121 793.695 26.1121 Q798.718 26.1121 802.283 28.0971 Q805.888 30.0415 808.238 34.0924 M782.839 49.9314 Q782.839 58.1548 786.201 62.8538 Q789.604 67.5124 795.518 67.5124 Q801.432 67.5124 804.835 62.8538 Q808.238 58.1548 808.238 49.9314 Q808.238 41.7081 804.835 37.0496 Q801.432 32.3505 795.518 32.3505 Q789.604 32.3505 786.201 37.0496 Q782.839 41.7081 782.839 49.9314 Z" fill="#000000" fill-rule="nonzero" fill-opacity="1"></path><path clip-path="url(#clip410)" d="M831.044 27.2059 L838.498 27.2059 L838.498 72.576 L831.044 72.576 L831.044 27.2059 M831.044 9.54393 L838.498 9.54393 L838.498 18.9825 L831.044 18.9825 L831.044 9.54393 Z" fill="#000000" fill-rule="nonzero" fill-opacity="1"></path><path clip-path="url(#clip410)" d="M886.744 28.9478 L886.744 35.9153 Q883.585 34.1734 880.384 33.3227 Q877.225 32.4315 873.984 32.4315 Q866.733 32.4315 862.722 37.0496 Q858.712 41.6271 858.712 49.9314 Q858.712 58.2358 862.722 62.8538 Q866.733 67.4314 873.984 67.4314 Q877.225 67.4314 880.384 66.5807 Q883.585 65.6895 886.744 63.9476 L886.744 70.8341 Q883.625 72.2924 880.263 73.0216 Q876.941 73.7508 873.174 73.7508 Q862.925 73.7508 856.889 67.3098 Q850.853 60.8689 850.853 49.9314 Q850.853 38.832 856.93 32.472 Q863.047 26.1121 873.66 26.1121 Q877.103 26.1121 880.384 26.8413 Q883.666 27.5299 886.744 28.9478 Z" fill="#000000" fill-rule="nonzero" fill-opacity="1"></path><path clip-path="url(#clip410)" d="M907.08 14.324 L907.08 27.2059 L922.433 27.2059 L922.433 32.9987 L907.08 32.9987 L907.08 57.6282 Q907.08 63.1779 908.579 64.7578 Q910.118 66.3376 914.777 66.3376 L922.433 66.3376 L922.433 72.576 L914.777 72.576 Q906.148 72.576 902.867 69.3758 Q899.586 66.1351 899.586 57.6282 L899.586 32.9987 L894.117 32.9987 L894.117 27.2059 L899.586 27.2059 L899.586 14.324 L907.08 14.324 Z" fill="#000000" fill-rule="nonzero" fill-opacity="1"></path><path clip-path="url(#clip410)" d="M971.044 48.0275 L971.044 51.6733 L936.773 51.6733 Q937.259 59.3701 941.391 63.421 Q945.563 67.4314 952.977 67.4314 Q957.271 67.4314 961.281 66.3781 Q965.332 65.3249 969.302 63.2184 L969.302 70.267 Q965.291 71.9684 961.078 72.8596 Q956.866 73.7508 952.531 73.7508 Q941.675 73.7508 935.315 67.4314 Q928.995 61.1119 928.995 50.3365 Q928.995 39.1965 934.991 32.6746 Q941.026 26.1121 951.235 26.1121 Q960.39 26.1121 965.696 32.0264 Q971.044 37.9003 971.044 48.0275 M963.59 45.84 Q963.509 39.7232 960.147 36.0774 Q956.825 32.4315 951.316 32.4315 Q945.077 32.4315 941.31 35.9558 Q937.583 39.4801 937.016 45.8805 L963.59 45.84 Z" fill="#000000" fill-rule="nonzero" fill-opacity="1"></path><path clip-path="url(#clip410)" d="M1013.13 34.0924 L1013.13 9.54393 L1020.59 9.54393 L1020.59 72.576 L1013.13 72.576 L1013.13 65.7705 Q1010.78 69.8214 1007.18 71.8063 Q1003.61 73.7508 998.59 73.7508 Q990.366 73.7508 985.181 67.1883 Q980.037 60.6258 980.037 49.9314 Q980.037 39.2371 985.181 32.6746 Q990.366 26.1121 998.59 26.1121 Q1003.61 26.1121 1007.18 28.0971 Q1010.78 30.0415 1013.13 34.0924 M987.733 49.9314 Q987.733 58.1548 991.096 62.8538 Q994.498 67.5124 1000.41 67.5124 Q1006.33 67.5124 1009.73 62.8538 Q1013.13 58.1548 1013.13 49.9314 Q1013.13 41.7081 1009.73 37.0496 Q1006.33 32.3505 1000.41 32.3505 Q994.498 32.3505 991.096 37.0496 Q987.733 41.7081 987.733 49.9314 Z" fill="#000000" fill-rule="nonzero" fill-opacity="1"></path><path clip-path="url(#clip410)" d="M1079.89 32.4315 Q1073.9 32.4315 1070.41 37.1306 Q1066.93 41.7891 1066.93 49.9314 Q1066.93 58.0738 1070.37 62.7728 Q1073.86 67.4314 1079.89 67.4314 Q1085.85 67.4314 1089.33 62.7323 Q1092.81 58.0333 1092.81 49.9314 Q1092.81 41.8701 1089.33 37.1711 Q1085.85 32.4315 1079.89 32.4315 M1079.89 26.1121 Q1089.61 26.1121 1095.16 32.4315 Q1100.71 38.7509 1100.71 49.9314 Q1100.71 61.0714 1095.16 67.4314 Q1089.61 73.7508 1079.89 73.7508 Q1070.13 73.7508 1064.58 67.4314 Q1059.07 61.0714 1059.07 49.9314 Q1059.07 38.7509 1064.58 32.4315 Q1070.13 26.1121 1079.89 26.1121 Z" fill="#000000" fill-rule="nonzero" fill-opacity="1"></path><path clip-path="url(#clip410)" d="M1112.3 54.671 L1112.3 27.2059 L1119.75 27.2059 L1119.75 54.3874 Q1119.75 60.8284 1122.26 64.0691 Q1124.78 67.2693 1129.8 67.2693 Q1135.83 67.2693 1139.32 63.421 Q1142.84 59.5726 1142.84 52.9291 L1142.84 27.2059 L1150.3 27.2059 L1150.3 72.576 L1142.84 72.576 L1142.84 65.6084 Q1140.13 69.7404 1136.52 71.7658 Q1132.96 73.7508 1128.22 73.7508 Q1120.4 73.7508 1116.35 68.8897 Q1112.3 64.0286 1112.3 54.671 M1131.05 26.1121 L1131.05 26.1121 Z" fill="#000000" fill-rule="nonzero" fill-opacity="1"></path><path clip-path="url(#clip410)" d="M1173.02 14.324 L1173.02 27.2059 L1188.37 27.2059 L1188.37 32.9987 L1173.02 32.9987 L1173.02 57.6282 Q1173.02 63.1779 1174.52 64.7578 Q1176.06 66.3376 1180.72 66.3376 L1188.37 66.3376 L1188.37 72.576 L1180.72 72.576 Q1172.09 72.576 1168.81 69.3758 Q1165.53 66.1351 1165.53 57.6282 L1165.53 32.9987 L1160.06 32.9987 L1160.06 27.2059 L1165.53 27.2059 L1165.53 14.324 L1173.02 14.324 Z" fill="#000000" fill-rule="nonzero" fill-opacity="1"></path><path clip-path="url(#clip410)" d="M1205.39 65.7705 L1205.39 89.8329 L1197.89 89.8329 L1197.89 27.2059 L1205.39 27.2059 L1205.39 34.0924 Q1207.74 30.0415 1211.3 28.0971 Q1214.91 26.1121 1219.89 26.1121 Q1228.15 26.1121 1233.3 32.6746 Q1238.48 39.2371 1238.48 49.9314 Q1238.48 60.6258 1233.3 67.1883 Q1228.15 73.7508 1219.89 73.7508 Q1214.91 73.7508 1211.3 71.8063 Q1207.74 69.8214 1205.39 65.7705 M1230.75 49.9314 Q1230.75 41.7081 1227.34 37.0496 Q1223.98 32.3505 1218.07 32.3505 Q1212.15 32.3505 1208.75 37.0496 Q1205.39 41.7081 1205.39 49.9314 Q1205.39 58.1548 1208.75 62.8538 Q1212.15 67.5124 1218.07 67.5124 Q1223.98 67.5124 1227.34 62.8538 Q1230.75 58.1548 1230.75 49.9314 Z" fill="#000000" fill-rule="nonzero" fill-opacity="1"></path><path clip-path="url(#clip410)" d="M1250.07 54.671 L1250.07 27.2059 L1257.52 27.2059 L1257.52 54.3874 Q1257.52 60.8284 1260.04 64.0691 Q1262.55 67.2693 1267.57 67.2693 Q1273.61 67.2693 1277.09 63.421 Q1280.61 59.5726 1280.61 52.9291 L1280.61 27.2059 L1288.07 27.2059 L1288.07 72.576 L1280.61 72.576 L1280.61 65.6084 Q1277.9 69.7404 1274.29 71.7658 Q1270.73 73.7508 1265.99 73.7508 Q1258.17 73.7508 1254.12 68.8897 Q1250.07 64.0286 1250.07 54.671 M1268.83 26.1121 L1268.83 26.1121 Z" fill="#000000" fill-rule="nonzero" fill-opacity="1"></path><path clip-path="url(#clip410)" d="M1310.79 14.324 L1310.79 27.2059 L1326.15 27.2059 L1326.15 32.9987 L1310.79 32.9987 L1310.79 57.6282 Q1310.79 63.1779 1312.29 64.7578 Q1313.83 66.3376 1318.49 66.3376 L1326.15 66.3376 L1326.15 72.576 L1318.49 72.576 Q1309.86 72.576 1306.58 69.3758 Q1303.3 66.1351 1303.3 57.6282 L1303.3 32.9987 L1297.83 32.9987 L1297.83 27.2059 L1303.3 27.2059 L1303.3 14.324 L1310.79 14.324 Z" fill="#000000" fill-rule="nonzero" fill-opacity="1"></path><path clip-path="url(#clip410)" d="M1356.97 27.2059 L1364.87 27.2059 L1379.05 65.2844 L1393.23 27.2059 L1401.13 27.2059 L1384.11 72.576 L1373.99 72.576 L1356.97 27.2059 Z" fill="#000000" fill-rule="nonzero" fill-opacity="1"></path><path clip-path="url(#clip410)" d="M1440.34 28.5427 L1440.34 35.5912 Q1437.18 33.9709 1433.78 33.1607 Q1430.38 32.3505 1426.73 32.3505 Q1421.18 32.3505 1418.39 34.0519 Q1415.63 35.7533 1415.63 39.156 Q1415.63 41.7486 1417.62 43.2475 Q1419.6 44.7058 1425.6 46.0426 L1428.15 46.6097 Q1436.09 48.3111 1439.41 51.4303 Q1442.77 54.509 1442.77 60.0587 Q1442.77 66.3781 1437.75 70.0644 Q1432.77 73.7508 1424.02 73.7508 Q1420.37 73.7508 1416.4 73.0216 Q1412.47 72.3329 1408.1 70.9151 L1408.1 63.2184 Q1412.23 65.3654 1416.24 66.4591 Q1420.25 67.5124 1424.18 67.5124 Q1429.44 67.5124 1432.28 65.73 Q1435.12 63.9071 1435.12 60.6258 Q1435.12 57.5877 1433.05 55.9673 Q1431.02 54.3469 1424.1 52.8481 L1421.5 52.2405 Q1414.58 50.7821 1411.5 47.7845 Q1408.42 44.7463 1408.42 39.4801 Q1408.42 33.0797 1412.96 29.5959 Q1417.49 26.1121 1425.84 26.1121 Q1429.97 26.1121 1433.62 26.7198 Q1437.26 27.3274 1440.34 28.5427 Z" fill="#000000" fill-rule="nonzero" fill-opacity="1"></path><path clip-path="url(#clip410)" d="M1455.69 62.2867 L1464.24 62.2867 L1464.24 72.576 L1455.69 72.576 L1455.69 62.2867 Z" fill="#000000" fill-rule="nonzero" fill-opacity="1"></path><path clip-path="url(#clip410)" d="M1514.76 14.324 L1514.76 27.2059 L1530.11 27.2059 L1530.11 32.9987 L1514.76 32.9987 L1514.76 57.6282 Q1514.76 63.1779 1516.25 64.7578 Q1517.79 66.3376 1522.45 66.3376 L1530.11 66.3376 L1530.11 72.576 L1522.45 72.576 Q1513.82 72.576 1510.54 69.3758 Q1507.26 66.1351 1507.26 57.6282 L1507.26 32.9987 L1501.79 32.9987 L1501.79 27.2059 L1507.26 27.2059 L1507.26 14.324 L1514.76 14.324 Z" fill="#000000" fill-rule="nonzero" fill-opacity="1"></path><path clip-path="url(#clip410)" d="M1566.2 34.1734 Q1564.95 33.4443 1563.45 33.1202 Q1561.99 32.7556 1560.21 32.7556 Q1553.89 32.7556 1550.49 36.8875 Q1547.12 40.9789 1547.12 48.6757 L1547.12 72.576 L1539.63 72.576 L1539.63 27.2059 L1547.12 27.2059 L1547.12 34.2544 Q1549.47 30.1225 1553.24 28.1376 Q1557.01 26.1121 1562.39 26.1121 Q1563.16 26.1121 1564.1 26.2337 Q1565.03 26.3147 1566.16 26.5172 L1566.2 34.1734 Z" fill="#000000" fill-rule="nonzero" fill-opacity="1"></path><path clip-path="url(#clip410)" d="M1573.25 54.671 L1573.25 27.2059 L1580.7 27.2059 L1580.7 54.3874 Q1580.7 60.8284 1583.22 64.0691 Q1585.73 67.2693 1590.75 67.2693 Q1596.79 67.2693 1600.27 63.421 Q1603.79 59.5726 1603.79 52.9291 L1603.79 27.2059 L1611.25 27.2059 L1611.25 72.576 L1603.79 72.576 L1603.79 65.6084 Q1601.08 69.7404 1597.48 71.7658 Q1593.91 73.7508 1589.17 73.7508 Q1581.35 73.7508 1577.3 68.8897 Q1573.25 64.0286 1573.25 54.671 M1592.01 26.1121 L1592.01 26.1121 Z" fill="#000000" fill-rule="nonzero" fill-opacity="1"></path><path clip-path="url(#clip410)" d="M1665.41 48.0275 L1665.41 51.6733 L1631.14 51.6733 Q1631.62 59.3701 1635.76 63.421 Q1639.93 67.4314 1647.34 67.4314 Q1651.64 67.4314 1655.65 66.3781 Q1659.7 65.3249 1663.67 63.2184 L1663.67 70.267 Q1659.66 71.9684 1655.44 72.8596 Q1651.23 73.7508 1646.9 73.7508 Q1636.04 73.7508 1629.68 67.4314 Q1623.36 61.1119 1623.36 50.3365 Q1623.36 39.1965 1629.36 32.6746 Q1635.39 26.1121 1645.6 26.1121 Q1654.76 26.1121 1660.06 32.0264 Q1665.41 37.9003 1665.41 48.0275 M1657.96 45.84 Q1657.87 39.7232 1654.51 36.0774 Q1651.19 32.4315 1645.68 32.4315 Q1639.44 32.4315 1635.68 35.9558 Q1631.95 39.4801 1631.38 45.8805 L1657.96 45.84 Z" fill="#000000" fill-rule="nonzero" fill-opacity="1"></path><path clip-path="url(#clip410)" d="M1721.6 32.4315 Q1715.6 32.4315 1712.12 37.1306 Q1708.63 41.7891 1708.63 49.9314 Q1708.63 58.0738 1712.08 62.7728 Q1715.56 67.4314 1721.6 67.4314 Q1727.55 67.4314 1731.03 62.7323 Q1734.52 58.0333 1734.52 49.9314 Q1734.52 41.8701 1731.03 37.1711 Q1727.55 32.4315 1721.6 32.4315 M1721.6 26.1121 Q1731.32 26.1121 1736.87 32.4315 Q1742.42 38.7509 1742.42 49.9314 Q1742.42 61.0714 1736.87 67.4314 Q1731.32 73.7508 1721.6 73.7508 Q1711.83 73.7508 1706.28 67.4314 Q1700.77 61.0714 1700.77 49.9314 Q1700.77 38.7509 1706.28 32.4315 Q1711.83 26.1121 1721.6 26.1121 Z" fill="#000000" fill-rule="nonzero" fill-opacity="1"></path><path clip-path="url(#clip410)" d="M1754 54.671 L1754 27.2059 L1761.46 27.2059 L1761.46 54.3874 Q1761.46 60.8284 1763.97 64.0691 Q1766.48 67.2693 1771.5 67.2693 Q1777.54 67.2693 1781.02 63.421 Q1784.55 59.5726 1784.55 52.9291 L1784.55 27.2059 L1792 27.2059 L1792 72.576 L1784.55 72.576 L1784.55 65.6084 Q1781.83 69.7404 1778.23 71.7658 Q1774.66 73.7508 1769.92 73.7508 Q1762.1 73.7508 1758.05 68.8897 Q1754 64.0286 1754 54.671 M1772.76 26.1121 L1772.76 26.1121 Z" fill="#000000" fill-rule="nonzero" fill-opacity="1"></path><path clip-path="url(#clip410)" d="M1814.73 14.324 L1814.73 27.2059 L1830.08 27.2059 L1830.08 32.9987 L1814.73 32.9987 L1814.73 57.6282 Q1814.73 63.1779 1816.22 64.7578 Q1817.76 66.3376 1822.42 66.3376 L1830.08 66.3376 L1830.08 72.576 L1822.42 72.576 Q1813.79 72.576 1810.51 69.3758 Q1807.23 66.1351 1807.23 57.6282 L1807.23 32.9987 L1801.76 32.9987 L1801.76 27.2059 L1807.23 27.2059 L1807.23 14.324 L1814.73 14.324 Z" fill="#000000" fill-rule="nonzero" fill-opacity="1"></path><path clip-path="url(#clip410)" d="M1847.09 65.7705 L1847.09 89.8329 L1839.6 89.8329 L1839.6 27.2059 L1847.09 27.2059 L1847.09 34.0924 Q1849.44 30.0415 1853.01 28.0971 Q1856.61 26.1121 1861.59 26.1121 Q1869.86 26.1121 1875 32.6746 Q1880.19 39.2371 1880.19 49.9314 Q1880.19 60.6258 1875 67.1883 Q1869.86 73.7508 1861.59 73.7508 Q1856.61 73.7508 1853.01 71.8063 Q1849.44 69.8214 1847.09 65.7705 M1872.45 49.9314 Q1872.45 41.7081 1869.05 37.0496 Q1865.69 32.3505 1859.77 32.3505 Q1853.86 32.3505 1850.45 37.0496 Q1847.09 41.7081 1847.09 49.9314 Q1847.09 58.1548 1850.45 62.8538 Q1853.86 67.5124 1859.77 67.5124 Q1865.69 67.5124 1869.05 62.8538 Q1872.45 58.1548 1872.45 49.9314 Z" fill="#000000" fill-rule="nonzero" fill-opacity="1"></path><path clip-path="url(#clip410)" d="M1891.77 54.671 L1891.77 27.2059 L1899.23 27.2059 L1899.23 54.3874 Q1899.23 60.8284 1901.74 64.0691 Q1904.25 67.2693 1909.27 67.2693 Q1915.31 67.2693 1918.79 63.421 Q1922.32 59.5726 1922.32 52.9291 L1922.32 27.2059 L1929.77 27.2059 L1929.77 72.576 L1922.32 72.576 L1922.32 65.6084 Q1919.6 69.7404 1916 71.7658 Q1912.43 73.7508 1907.69 73.7508 Q1899.88 73.7508 1895.82 68.8897 Q1891.77 64.0286 1891.77 54.671 M1910.53 26.1121 L1910.53 26.1121 Z" fill="#000000" fill-rule="nonzero" fill-opacity="1"></path><path clip-path="url(#clip410)" d="M1952.5 14.324 L1952.5 27.2059 L1967.85 27.2059 L1967.85 32.9987 L1952.5 32.9987 L1952.5 57.6282 Q1952.5 63.1779 1954 64.7578 Q1955.53 66.3376 1960.19 66.3376 L1967.85 66.3376 L1967.85 72.576 L1960.19 72.576 Q1951.57 72.576 1948.28 69.3758 Q1945 66.1351 1945 57.6282 L1945 32.9987 L1939.53 32.9987 L1939.53 27.2059 L1945 27.2059 L1945 14.324 L1952.5 14.324 Z" fill="#000000" fill-rule="nonzero" fill-opacity="1"></path><path clip-path="url(#clip412)" d="M316.512 1155.58 L365.935 1369.89 L415.359 1386.4 L464.782 1301.13 L514.206 1190.08 L563.629 1099.29 L613.052 933.429 L662.476 910.972 L711.899 1009.78 L761.323 1054.97 L810.746 1058.99 L860.169 1087.63 L909.593 1113.75 L959.016 1103.37 L1008.44 1127.56 L1057.86 1159.81 L1107.29 1181.15 L1156.71 1108.05 L1206.13 1082.43 L1255.56 941.487 L1304.98 702.988 L1354.4 628.169 L1403.83 702.988 L1453.25 702.988 L1502.67 626.882 L1552.1 702.988 L1601.52 807.773 L1650.94 998.029 L1700.37 1117.16 L1749.79 1204.53 L1799.21 1243.11 L1848.64 1198.53 L1898.06 1142.09 L1947.48 1130.38 L1996.91 1114.35 L2046.33 1110.37 L2095.75 1052.24 L2145.18 1094.66 L2194.6 1113 L2244.02 1085.54 L2293.45 1105.14 L2293.45 646.627 L2244.02 631.001 L2194.6 636.705 L2145.18 606.185 L2095.75 589.364 L2046.33 626.367 L1996.91 694.922 L1947.48 720.863 L1898.06 699.056 L1848.64 770.583 L1799.21 806.647 L1749.79 753.676 L1700.37 606.179 L1650.94 399.908 L1601.52 286.328 L1552.1 160.256 L1502.67 222.304 L1453.25 266.56 L1403.83 271.052 L1354.4 267.283 L1304.98 300.519 L1255.56 481.026 L1206.13 612.045 L1156.71 680.333 L1107.29 727.729 L1057.86 716.641 L1008.44 722.968 L959.016 706.334 L909.593 688.872 L860.169 689.351 L810.746 645.952 L761.323 645.042 L711.899 550.819 L662.476 542.344 L613.052 531.181 L563.629 622.507 L514.206 780.296 L464.782 940.331 L415.359 990.218 L365.935 1041.31 L316.512 906.751  Z" fill="#009af9" fill-rule="evenodd" fill-opacity="0.35"></path>
<polyline clip-path="url(#clip412)" style="stroke:#009af9; stroke-linecap:round; stroke-linejoin:round; stroke-width:4; stroke-opacity:0.35; fill:none" points="316.512,1155.58 365.935,1369.89 415.359,1386.4 464.782,1301.13 514.206,1190.08 563.629,1099.29 613.052,933.429 662.476,910.972 711.899,1009.78 761.323,1054.97 810.746,1058.99 860.169,1087.63 909.593,1113.75 959.016,1103.37 1008.44,1127.56 1057.86,1159.81 1107.29,1181.15 1156.71,1108.05 1206.13,1082.43 1255.56,941.487 1304.98,702.988 1354.4,628.169 1403.83,702.988 1453.25,702.988 1502.67,626.882 1552.1,702.988 1601.52,807.773 1650.94,998.029 1700.37,1117.16 1749.79,1204.53 1799.21,1243.11 1848.64,1198.53 1898.06,1142.09 1947.48,1130.38 1996.91,1114.35 2046.33,1110.37 2095.75,1052.24 2145.18,1094.66 2194.6,1113 2244.02,1085.54 2293.45,1105.14 "></polyline>
<polyline clip-path="url(#clip412)" style="stroke:#e26f46; stroke-linecap:round; stroke-linejoin:round; stroke-width:8; stroke-opacity:1; fill:none" points="316.512,1005.21 365.935,1240.93 415.359,1245.26 464.782,1138.13 514.206,986.406 563.629,864.137 613.052,819.362 662.476,818.097 711.899,800.277 761.323,840.773 810.746,860.329 860.169,874.148 909.593,877.777 959.016,899.446 1008.44,904.427 1057.86,909.804 1107.29,949.249 1156.71,908.224 1206.13,868.497 1255.56,790.825 1304.98,510.958 1354.4,432.499 1403.83,421.121 1453.25,360.842 1502.67,311.588 1552.1,382.24 1601.52,592.879 1650.94,834.267 1700.37,965.555 1749.79,1035.33 1799.21,1012.9 1848.64,952.755 1898.06,900.773 1947.48,872.236 1996.91,846.486 2046.33,814.445 2095.75,824.3 2145.18,873.538 2194.6,866.399 2244.02,908.407 2293.45,882.532 "></polyline>
<polyline clip-path="url(#clip412)" style="stroke:#3da44d; stroke-linecap:round; stroke-linejoin:round; stroke-width:8; stroke-opacity:1; fill:none" points="316.512,1042.03 365.935,1227.79 415.359,1241.52 464.782,1120.02 514.206,961.497 563.629,824.719 613.052,756.745 662.476,757.741 711.899,800.367 761.323,851.711 810.746,889.339 860.169,904.027 909.593,905.637 959.016,908.315 1008.44,910.328 1057.86,918.543 1107.29,916.228 1156.71,904.821 1206.13,878.638 1255.56,733.818 1304.98,524.473 1354.4,452.929 1403.83,447.769 1453.25,452.628 1502.67,411.134 1552.1,431.154 1601.52,563.796 1650.94,742.105 1700.37,882.955 1749.79,967.633 1799.21,993.387 1848.64,968.055 1898.06,926.011 1947.48,888.21 1996.91,868.71 2046.33,859.343 2095.75,858.878 2145.18,861.689 2194.6,867.002 2244.02,870.689 2293.45,883.252 "></polyline>
<path clip-path="url(#clip412)" d="M1304.98 702.988 L1354.4 702.988 L1403.83 702.988 L1453.25 702.988 L1502.67 702.988 L1552.1 702.988 L1552.1 1386.4 L1502.67 1386.4 L1453.25 1386.4 L1403.83 1386.4 L1354.4 1386.4 L1304.98 1386.4  Z" fill="#ff0000" fill-rule="evenodd" fill-opacity="0.35"></path>
<polyline clip-path="url(#clip412)" style="stroke:#c271d2; stroke-linecap:round; stroke-linejoin:round; stroke-width:4; stroke-opacity:0.35; fill:none" points="1304.98,702.988 1354.4,702.988 1403.83,702.988 1453.25,702.988 1502.67,702.988 1552.1,702.988 "></polyline>
<path clip-path="url(#clip410)" d="M327.056 477.836 L915.637 477.836 L915.637 166.796 L327.056 166.796  Z" fill="#ffffff" fill-rule="evenodd" fill-opacity="1"></path>
<polyline clip-path="url(#clip410)" style="stroke:#000000; stroke-linecap:round; stroke-linejoin:round; stroke-width:4; stroke-opacity:1; fill:none" points="327.056,477.836 915.637,477.836 915.637,166.796 327.056,166.796 327.056,477.836 "></polyline>
<path clip-path="url(#clip410)" d="M350.34 239.372 L490.043 239.372 L490.043 197.9 L350.34 197.9 L350.34 239.372  Z" fill="#009af9" fill-rule="evenodd" fill-opacity="0.35"></path>
<polyline clip-path="url(#clip410)" style="stroke:#009af9; stroke-linecap:round; stroke-linejoin:round; stroke-width:4; stroke-opacity:0.35; fill:none" points="350.34,197.9 490.043,197.9 "></polyline>
<path clip-path="url(#clip410)" d="M526.73 222.883 Q521.568 222.883 519.577 224.064 Q517.586 225.244 517.586 228.092 Q517.586 230.36 519.068 231.703 Q520.572 233.022 523.142 233.022 Q526.683 233.022 528.813 230.522 Q530.966 227.999 530.966 223.832 L530.966 222.883 L526.73 222.883 M535.225 221.124 L535.225 235.916 L530.966 235.916 L530.966 231.981 Q529.508 234.342 527.332 235.476 Q525.156 236.587 522.008 236.587 Q518.026 236.587 515.665 234.365 Q513.327 232.119 513.327 228.369 Q513.327 223.994 516.244 221.772 Q519.183 219.55 524.994 219.55 L530.966 219.55 L530.966 219.133 Q530.966 216.194 529.021 214.596 Q527.1 212.976 523.605 212.976 Q521.383 212.976 519.276 213.508 Q517.17 214.041 515.225 215.106 L515.225 211.17 Q517.563 210.268 519.762 209.828 Q521.961 209.365 524.045 209.365 Q529.67 209.365 532.447 212.282 Q535.225 215.198 535.225 221.124 Z" fill="#000000" fill-rule="nonzero" fill-opacity="1"></path><path clip-path="url(#clip410)" d="M543.998 199.897 L548.257 199.897 L548.257 235.916 L543.998 235.916 L543.998 199.897 Z" fill="#000000" fill-rule="nonzero" fill-opacity="1"></path><path clip-path="url(#clip410)" d="M557.169 199.897 L561.429 199.897 L561.429 235.916 L557.169 235.916 L557.169 199.897 Z" fill="#000000" fill-rule="nonzero" fill-opacity="1"></path><path clip-path="url(#clip410)" d="M589.53 232.027 L589.53 245.777 L585.248 245.777 L585.248 209.99 L589.53 209.99 L589.53 213.925 Q590.873 211.61 592.91 210.499 Q594.97 209.365 597.817 209.365 Q602.54 209.365 605.479 213.115 Q608.442 216.865 608.442 222.976 Q608.442 229.087 605.479 232.837 Q602.54 236.587 597.817 236.587 Q594.97 236.587 592.91 235.476 Q590.873 234.342 589.53 232.027 M604.021 222.976 Q604.021 218.277 602.077 215.615 Q600.155 212.93 596.776 212.93 Q593.396 212.93 591.452 215.615 Q589.53 218.277 589.53 222.976 Q589.53 227.675 591.452 230.36 Q593.396 233.022 596.776 233.022 Q600.155 233.022 602.077 230.36 Q604.021 227.675 604.021 222.976 Z" fill="#000000" fill-rule="nonzero" fill-opacity="1"></path><path clip-path="url(#clip410)" d="M630.525 213.971 Q629.808 213.555 628.951 213.37 Q628.118 213.161 627.1 213.161 Q623.488 213.161 621.544 215.522 Q619.623 217.86 619.623 222.258 L619.623 235.916 L615.34 235.916 L615.34 209.99 L619.623 209.99 L619.623 214.018 Q620.965 211.657 623.118 210.522 Q625.271 209.365 628.35 209.365 Q628.789 209.365 629.322 209.434 Q629.854 209.481 630.502 209.596 L630.525 213.971 Z" fill="#000000" fill-rule="nonzero" fill-opacity="1"></path><path clip-path="url(#clip410)" d="M656.127 221.888 L656.127 223.971 L636.544 223.971 Q636.822 228.369 639.183 230.684 Q641.567 232.976 645.803 232.976 Q648.257 232.976 650.549 232.374 Q652.863 231.772 655.132 230.569 L655.132 234.596 Q652.84 235.568 650.433 236.078 Q648.025 236.587 645.549 236.587 Q639.345 236.587 635.711 232.976 Q632.1 229.365 632.1 223.207 Q632.1 216.842 635.525 213.115 Q638.975 209.365 644.808 209.365 Q650.039 209.365 653.072 212.745 Q656.127 216.101 656.127 221.888 M651.868 220.638 Q651.822 217.143 649.9 215.059 Q648.002 212.976 644.854 212.976 Q641.289 212.976 639.137 214.99 Q637.007 217.004 636.683 220.661 L651.868 220.638 Z" fill="#000000" fill-rule="nonzero" fill-opacity="1"></path><path clip-path="url(#clip410)" d="M680.178 213.925 L680.178 199.897 L684.437 199.897 L684.437 235.916 L680.178 235.916 L680.178 232.027 Q678.835 234.342 676.775 235.476 Q674.738 236.587 671.868 236.587 Q667.169 236.587 664.206 232.837 Q661.266 229.087 661.266 222.976 Q661.266 216.865 664.206 213.115 Q667.169 209.365 671.868 209.365 Q674.738 209.365 676.775 210.499 Q678.835 211.61 680.178 213.925 M665.664 222.976 Q665.664 227.675 667.585 230.36 Q669.53 233.022 672.91 233.022 Q676.289 233.022 678.234 230.36 Q680.178 227.675 680.178 222.976 Q680.178 218.277 678.234 215.615 Q676.289 212.93 672.91 212.93 Q669.53 212.93 667.585 215.615 Q665.664 218.277 665.664 222.976 Z" fill="#000000" fill-rule="nonzero" fill-opacity="1"></path><path clip-path="url(#clip410)" d="M693.21 209.99 L697.47 209.99 L697.47 235.916 L693.21 235.916 L693.21 209.99 M693.21 199.897 L697.47 199.897 L697.47 205.291 L693.21 205.291 L693.21 199.897 Z" fill="#000000" fill-rule="nonzero" fill-opacity="1"></path><path clip-path="url(#clip410)" d="M725.039 210.985 L725.039 214.967 Q723.233 213.971 721.405 213.485 Q719.599 212.976 717.747 212.976 Q713.604 212.976 711.312 215.615 Q709.02 218.231 709.02 222.976 Q709.02 227.721 711.312 230.36 Q713.604 232.976 717.747 232.976 Q719.599 232.976 721.405 232.49 Q723.233 231.981 725.039 230.985 L725.039 234.92 Q723.256 235.754 721.335 236.17 Q719.437 236.587 717.284 236.587 Q711.428 236.587 707.979 232.906 Q704.53 229.226 704.53 222.976 Q704.53 216.633 708.002 212.999 Q711.497 209.365 717.562 209.365 Q719.53 209.365 721.405 209.782 Q723.28 210.175 725.039 210.985 Z" fill="#000000" fill-rule="nonzero" fill-opacity="1"></path><path clip-path="url(#clip410)" d="M736.659 202.629 L736.659 209.99 L745.432 209.99 L745.432 213.3 L736.659 213.3 L736.659 227.374 Q736.659 230.545 737.516 231.448 Q738.395 232.351 741.057 232.351 L745.432 232.351 L745.432 235.916 L741.057 235.916 Q736.127 235.916 734.252 234.087 Q732.377 232.235 732.377 227.374 L732.377 213.3 L729.252 213.3 L729.252 209.99 L732.377 209.99 L732.377 202.629 L736.659 202.629 Z" fill="#000000" fill-rule="nonzero" fill-opacity="1"></path><path clip-path="url(#clip410)" d="M751.034 209.99 L755.293 209.99 L755.293 235.916 L751.034 235.916 L751.034 209.99 M751.034 199.897 L755.293 199.897 L755.293 205.291 L751.034 205.291 L751.034 199.897 Z" fill="#000000" fill-rule="nonzero" fill-opacity="1"></path><path clip-path="url(#clip410)" d="M774.252 212.976 Q770.826 212.976 768.835 215.661 Q766.844 218.323 766.844 222.976 Q766.844 227.629 768.812 230.314 Q770.803 232.976 774.252 232.976 Q777.654 232.976 779.645 230.291 Q781.636 227.606 781.636 222.976 Q781.636 218.37 779.645 215.684 Q777.654 212.976 774.252 212.976 M774.252 209.365 Q779.807 209.365 782.978 212.976 Q786.15 216.587 786.15 222.976 Q786.15 229.342 782.978 232.976 Q779.807 236.587 774.252 236.587 Q768.673 236.587 765.502 232.976 Q762.353 229.342 762.353 222.976 Q762.353 216.587 765.502 212.976 Q768.673 209.365 774.252 209.365 Z" fill="#000000" fill-rule="nonzero" fill-opacity="1"></path><path clip-path="url(#clip410)" d="M814.761 220.268 L814.761 235.916 L810.501 235.916 L810.501 220.407 Q810.501 216.726 809.066 214.897 Q807.631 213.069 804.761 213.069 Q801.312 213.069 799.321 215.268 Q797.33 217.467 797.33 221.263 L797.33 235.916 L793.048 235.916 L793.048 209.99 L797.33 209.99 L797.33 214.018 Q798.858 211.68 800.918 210.522 Q803.001 209.365 805.71 209.365 Q810.177 209.365 812.469 212.143 Q814.761 214.897 814.761 220.268 Z" fill="#000000" fill-rule="nonzero" fill-opacity="1"></path><path clip-path="url(#clip410)" d="M839.784 210.754 L839.784 214.782 Q837.978 213.856 836.034 213.393 Q834.089 212.93 832.006 212.93 Q828.835 212.93 827.237 213.902 Q825.663 214.874 825.663 216.819 Q825.663 218.3 826.798 219.157 Q827.932 219.99 831.358 220.754 L832.816 221.078 Q837.353 222.05 839.251 223.832 Q841.173 225.592 841.173 228.763 Q841.173 232.374 838.302 234.481 Q835.455 236.587 830.455 236.587 Q828.372 236.587 826.103 236.17 Q823.858 235.777 821.358 234.967 L821.358 230.569 Q823.719 231.795 826.011 232.42 Q828.302 233.022 830.548 233.022 Q833.557 233.022 835.177 232.004 Q836.798 230.962 836.798 229.087 Q836.798 227.351 835.617 226.425 Q834.46 225.499 830.501 224.643 L829.02 224.295 Q825.061 223.462 823.302 221.749 Q821.543 220.013 821.543 217.004 Q821.543 213.346 824.136 211.356 Q826.728 209.365 831.497 209.365 Q833.858 209.365 835.941 209.712 Q838.024 210.059 839.784 210.754 Z" fill="#000000" fill-rule="nonzero" fill-opacity="1"></path><polyline clip-path="url(#clip410)" style="stroke:#e26f46; stroke-linecap:round; stroke-linejoin:round; stroke-width:8; stroke-opacity:1; fill:none" points="350.34,270.476 490.043,270.476 "></polyline>
<path clip-path="url(#clip410)" d="M520.734 254.469 L520.734 261.83 L529.508 261.83 L529.508 265.14 L520.734 265.14 L520.734 279.214 Q520.734 282.385 521.591 283.288 Q522.471 284.191 525.133 284.191 L529.508 284.191 L529.508 287.756 L525.133 287.756 Q520.202 287.756 518.327 285.927 Q516.452 284.075 516.452 279.214 L516.452 265.14 L513.327 265.14 L513.327 261.83 L516.452 261.83 L516.452 254.469 L520.734 254.469 Z" fill="#000000" fill-rule="nonzero" fill-opacity="1"></path><path clip-path="url(#clip410)" d="M550.132 265.811 Q549.415 265.395 548.558 265.21 Q547.725 265.001 546.706 265.001 Q543.095 265.001 541.151 267.362 Q539.23 269.7 539.23 274.098 L539.23 287.756 L534.947 287.756 L534.947 261.83 L539.23 261.83 L539.23 265.858 Q540.572 263.497 542.725 262.362 Q544.878 261.205 547.956 261.205 Q548.396 261.205 548.929 261.274 Q549.461 261.321 550.109 261.436 L550.132 265.811 Z" fill="#000000" fill-rule="nonzero" fill-opacity="1"></path><path clip-path="url(#clip410)" d="M554.16 277.524 L554.16 261.83 L558.419 261.83 L558.419 277.362 Q558.419 281.043 559.855 282.895 Q561.29 284.723 564.16 284.723 Q567.609 284.723 569.6 282.524 Q571.614 280.325 571.614 276.529 L571.614 261.83 L575.873 261.83 L575.873 287.756 L571.614 287.756 L571.614 283.774 Q570.063 286.135 568.003 287.293 Q565.966 288.427 563.257 288.427 Q558.79 288.427 556.475 285.649 Q554.16 282.871 554.16 277.524 M564.878 261.205 L564.878 261.205 Z" fill="#000000" fill-rule="nonzero" fill-opacity="1"></path><path clip-path="url(#clip410)" d="M606.822 273.728 L606.822 275.811 L587.239 275.811 Q587.516 280.209 589.878 282.524 Q592.262 284.816 596.498 284.816 Q598.952 284.816 601.243 284.214 Q603.558 283.612 605.827 282.409 L605.827 286.436 Q603.535 287.408 601.127 287.918 Q598.72 288.427 596.243 288.427 Q590.04 288.427 586.405 284.816 Q582.794 281.205 582.794 275.047 Q582.794 268.682 586.22 264.955 Q589.669 261.205 595.503 261.205 Q600.734 261.205 603.766 264.585 Q606.822 267.941 606.822 273.728 M602.563 272.478 Q602.516 268.983 600.595 266.899 Q598.697 264.816 595.549 264.816 Q591.984 264.816 589.831 266.83 Q587.702 268.844 587.378 272.501 L602.563 272.478 Z" fill="#000000" fill-rule="nonzero" fill-opacity="1"></path><path clip-path="url(#clip410)" d="M638.928 264.816 Q635.502 264.816 633.512 267.501 Q631.521 270.163 631.521 274.816 Q631.521 279.469 633.488 282.154 Q635.479 284.816 638.928 284.816 Q642.331 284.816 644.322 282.131 Q646.312 279.446 646.312 274.816 Q646.312 270.21 644.322 267.524 Q642.331 264.816 638.928 264.816 M638.928 261.205 Q644.484 261.205 647.655 264.816 Q650.826 268.427 650.826 274.816 Q650.826 281.182 647.655 284.816 Q644.484 288.427 638.928 288.427 Q633.35 288.427 630.178 284.816 Q627.03 281.182 627.03 274.816 Q627.03 268.427 630.178 264.816 Q633.35 261.205 638.928 261.205 Z" fill="#000000" fill-rule="nonzero" fill-opacity="1"></path><path clip-path="url(#clip410)" d="M657.447 277.524 L657.447 261.83 L661.706 261.83 L661.706 277.362 Q661.706 281.043 663.141 282.895 Q664.576 284.723 667.447 284.723 Q670.896 284.723 672.886 282.524 Q674.9 280.325 674.9 276.529 L674.9 261.83 L679.159 261.83 L679.159 287.756 L674.9 287.756 L674.9 283.774 Q673.349 286.135 671.289 287.293 Q669.252 288.427 666.544 288.427 Q662.076 288.427 659.761 285.649 Q657.447 282.871 657.447 277.524 M668.164 261.205 L668.164 261.205 Z" fill="#000000" fill-rule="nonzero" fill-opacity="1"></path><path clip-path="url(#clip410)" d="M692.146 254.469 L692.146 261.83 L700.919 261.83 L700.919 265.14 L692.146 265.14 L692.146 279.214 Q692.146 282.385 693.002 283.288 Q693.882 284.191 696.544 284.191 L700.919 284.191 L700.919 287.756 L696.544 287.756 Q691.613 287.756 689.738 285.927 Q687.863 284.075 687.863 279.214 L687.863 265.14 L684.738 265.14 L684.738 261.83 L687.863 261.83 L687.863 254.469 L692.146 254.469 Z" fill="#000000" fill-rule="nonzero" fill-opacity="1"></path><path clip-path="url(#clip410)" d="M710.641 283.867 L710.641 297.617 L706.358 297.617 L706.358 261.83 L710.641 261.83 L710.641 265.765 Q711.983 263.45 714.02 262.339 Q716.081 261.205 718.928 261.205 Q723.65 261.205 726.59 264.955 Q729.553 268.705 729.553 274.816 Q729.553 280.927 726.59 284.677 Q723.65 288.427 718.928 288.427 Q716.081 288.427 714.02 287.316 Q711.983 286.182 710.641 283.867 M725.131 274.816 Q725.131 270.117 723.187 267.455 Q721.266 264.77 717.886 264.77 Q714.507 264.77 712.562 267.455 Q710.641 270.117 710.641 274.816 Q710.641 279.515 712.562 282.2 Q714.507 284.862 717.886 284.862 Q721.266 284.862 723.187 282.2 Q725.131 279.515 725.131 274.816 Z" fill="#000000" fill-rule="nonzero" fill-opacity="1"></path><path clip-path="url(#clip410)" d="M736.173 277.524 L736.173 261.83 L740.432 261.83 L740.432 277.362 Q740.432 281.043 741.867 282.895 Q743.303 284.723 746.173 284.723 Q749.622 284.723 751.613 282.524 Q753.627 280.325 753.627 276.529 L753.627 261.83 L757.886 261.83 L757.886 287.756 L753.627 287.756 L753.627 283.774 Q752.076 286.135 750.016 287.293 Q747.979 288.427 745.27 288.427 Q740.803 288.427 738.488 285.649 Q736.173 282.871 736.173 277.524 M746.891 261.205 L746.891 261.205 Z" fill="#000000" fill-rule="nonzero" fill-opacity="1"></path><path clip-path="url(#clip410)" d="M770.872 254.469 L770.872 261.83 L779.645 261.83 L779.645 265.14 L770.872 265.14 L770.872 279.214 Q770.872 282.385 771.728 283.288 Q772.608 284.191 775.27 284.191 L779.645 284.191 L779.645 287.756 L775.27 287.756 Q770.34 287.756 768.465 285.927 Q766.59 284.075 766.59 279.214 L766.59 265.14 L763.465 265.14 L763.465 261.83 L766.59 261.83 L766.59 254.469 L770.872 254.469 Z" fill="#000000" fill-rule="nonzero" fill-opacity="1"></path><polyline clip-path="url(#clip410)" style="stroke:#3da44d; stroke-linecap:round; stroke-linejoin:round; stroke-width:8; stroke-opacity:1; fill:none" points="350.34,322.316 490.043,322.316 "></polyline>
<path clip-path="url(#clip410)" d="M533.674 318.647 Q535.271 315.776 537.494 314.411 Q539.716 313.045 542.725 313.045 Q546.776 313.045 548.975 315.892 Q551.174 318.716 551.174 323.948 L551.174 339.596 L546.892 339.596 L546.892 324.087 Q546.892 320.36 545.572 318.554 Q544.253 316.749 541.544 316.749 Q538.234 316.749 536.313 318.948 Q534.392 321.147 534.392 324.943 L534.392 339.596 L530.109 339.596 L530.109 324.087 Q530.109 320.337 528.79 318.554 Q527.47 316.749 524.716 316.749 Q521.452 316.749 519.531 318.971 Q517.609 321.17 517.609 324.943 L517.609 339.596 L513.327 339.596 L513.327 313.67 L517.609 313.67 L517.609 317.698 Q519.068 315.313 521.105 314.179 Q523.142 313.045 525.943 313.045 Q528.767 313.045 530.734 314.48 Q532.725 315.915 533.674 318.647 Z" fill="#000000" fill-rule="nonzero" fill-opacity="1"></path><path clip-path="url(#clip410)" d="M581.845 325.568 L581.845 327.651 L562.262 327.651 Q562.54 332.049 564.901 334.364 Q567.285 336.656 571.521 336.656 Q573.975 336.656 576.267 336.054 Q578.581 335.452 580.85 334.249 L580.85 338.276 Q578.558 339.248 576.151 339.758 Q573.743 340.267 571.267 340.267 Q565.063 340.267 561.429 336.656 Q557.818 333.045 557.818 326.887 Q557.818 320.522 561.243 316.795 Q564.693 313.045 570.526 313.045 Q575.757 313.045 578.79 316.425 Q581.845 319.781 581.845 325.568 M577.586 324.318 Q577.54 320.823 575.618 318.739 Q573.72 316.656 570.572 316.656 Q567.007 316.656 564.855 318.67 Q562.725 320.684 562.401 324.341 L577.586 324.318 Z" fill="#000000" fill-rule="nonzero" fill-opacity="1"></path><path clip-path="url(#clip410)" d="M600.618 326.563 Q595.456 326.563 593.465 327.744 Q591.475 328.924 591.475 331.772 Q591.475 334.04 592.956 335.383 Q594.461 336.702 597.03 336.702 Q600.572 336.702 602.702 334.202 Q604.854 331.679 604.854 327.512 L604.854 326.563 L600.618 326.563 M609.114 324.804 L609.114 339.596 L604.854 339.596 L604.854 335.661 Q603.396 338.022 601.22 339.156 Q599.044 340.267 595.896 340.267 Q591.915 340.267 589.553 338.045 Q587.216 335.799 587.216 332.049 Q587.216 327.674 590.132 325.452 Q593.072 323.23 598.882 323.23 L604.854 323.23 L604.854 322.813 Q604.854 319.874 602.91 318.276 Q600.989 316.656 597.493 316.656 Q595.271 316.656 593.165 317.188 Q591.058 317.721 589.114 318.786 L589.114 314.85 Q591.452 313.948 593.651 313.508 Q595.85 313.045 597.933 313.045 Q603.558 313.045 606.336 315.962 Q609.114 318.878 609.114 324.804 Z" fill="#000000" fill-rule="nonzero" fill-opacity="1"></path><path clip-path="url(#clip410)" d="M639.437 323.948 L639.437 339.596 L635.178 339.596 L635.178 324.087 Q635.178 320.406 633.743 318.577 Q632.308 316.749 629.438 316.749 Q625.988 316.749 623.998 318.948 Q622.007 321.147 622.007 324.943 L622.007 339.596 L617.725 339.596 L617.725 313.67 L622.007 313.67 L622.007 317.698 Q623.535 315.36 625.595 314.202 Q627.678 313.045 630.387 313.045 Q634.854 313.045 637.146 315.823 Q639.437 318.577 639.437 323.948 Z" fill="#000000" fill-rule="nonzero" fill-opacity="1"></path><path clip-path="url(#clip410)" d="M667.123 335.707 L667.123 349.457 L662.84 349.457 L662.84 313.67 L667.123 313.67 L667.123 317.605 Q668.465 315.29 670.502 314.179 Q672.562 313.045 675.41 313.045 Q680.132 313.045 683.071 316.795 Q686.034 320.545 686.034 326.656 Q686.034 332.767 683.071 336.517 Q680.132 340.267 675.41 340.267 Q672.562 340.267 670.502 339.156 Q668.465 338.022 667.123 335.707 M681.613 326.656 Q681.613 321.957 679.669 319.295 Q677.747 316.61 674.368 316.61 Q670.988 316.61 669.044 319.295 Q667.123 321.957 667.123 326.656 Q667.123 331.355 669.044 334.04 Q670.988 336.702 674.368 336.702 Q677.747 336.702 679.669 334.04 Q681.613 331.355 681.613 326.656 Z" fill="#000000" fill-rule="nonzero" fill-opacity="1"></path><path clip-path="url(#clip410)" d="M708.118 317.651 Q707.4 317.235 706.544 317.05 Q705.71 316.841 704.692 316.841 Q701.081 316.841 699.136 319.202 Q697.215 321.54 697.215 325.938 L697.215 339.596 L692.933 339.596 L692.933 313.67 L697.215 313.67 L697.215 317.698 Q698.558 315.337 700.71 314.202 Q702.863 313.045 705.942 313.045 Q706.382 313.045 706.914 313.114 Q707.446 313.161 708.095 313.276 L708.118 317.651 Z" fill="#000000" fill-rule="nonzero" fill-opacity="1"></path><path clip-path="url(#clip410)" d="M733.719 325.568 L733.719 327.651 L714.136 327.651 Q714.414 332.049 716.775 334.364 Q719.159 336.656 723.395 336.656 Q725.849 336.656 728.141 336.054 Q730.456 335.452 732.724 334.249 L732.724 338.276 Q730.432 339.248 728.025 339.758 Q725.618 340.267 723.141 340.267 Q716.937 340.267 713.303 336.656 Q709.692 333.045 709.692 326.887 Q709.692 320.522 713.118 316.795 Q716.567 313.045 722.4 313.045 Q727.631 313.045 730.664 316.425 Q733.719 319.781 733.719 325.568 M729.46 324.318 Q729.414 320.823 727.493 318.739 Q725.594 316.656 722.446 316.656 Q718.881 316.656 716.729 318.67 Q714.599 320.684 714.275 324.341 L729.46 324.318 Z" fill="#000000" fill-rule="nonzero" fill-opacity="1"></path><path clip-path="url(#clip410)" d="M757.77 317.605 L757.77 303.577 L762.029 303.577 L762.029 339.596 L757.77 339.596 L757.77 335.707 Q756.428 338.022 754.367 339.156 Q752.33 340.267 749.46 340.267 Q744.761 340.267 741.798 336.517 Q738.858 332.767 738.858 326.656 Q738.858 320.545 741.798 316.795 Q744.761 313.045 749.46 313.045 Q752.33 313.045 754.367 314.179 Q756.428 315.29 757.77 317.605 M743.256 326.656 Q743.256 331.355 745.178 334.04 Q747.122 336.702 750.502 336.702 Q753.881 336.702 755.826 334.04 Q757.77 331.355 757.77 326.656 Q757.77 321.957 755.826 319.295 Q753.881 316.61 750.502 316.61 Q747.122 316.61 745.178 319.295 Q743.256 321.957 743.256 326.656 Z" fill="#000000" fill-rule="nonzero" fill-opacity="1"></path><path clip-path="url(#clip410)" d="M770.803 313.67 L775.062 313.67 L775.062 339.596 L770.803 339.596 L770.803 313.67 M770.803 303.577 L775.062 303.577 L775.062 308.971 L770.803 308.971 L770.803 303.577 Z" fill="#000000" fill-rule="nonzero" fill-opacity="1"></path><path clip-path="url(#clip410)" d="M802.631 314.665 L802.631 318.647 Q800.825 317.651 798.997 317.165 Q797.191 316.656 795.339 316.656 Q791.196 316.656 788.904 319.295 Q786.613 321.911 786.613 326.656 Q786.613 331.401 788.904 334.04 Q791.196 336.656 795.339 336.656 Q797.191 336.656 798.997 336.17 Q800.825 335.661 802.631 334.665 L802.631 338.6 Q800.849 339.434 798.927 339.85 Q797.029 340.267 794.876 340.267 Q789.02 340.267 785.571 336.586 Q782.122 332.906 782.122 326.656 Q782.122 320.313 785.594 316.679 Q789.089 313.045 795.154 313.045 Q797.122 313.045 798.997 313.462 Q800.872 313.855 802.631 314.665 Z" fill="#000000" fill-rule="nonzero" fill-opacity="1"></path><path clip-path="url(#clip410)" d="M814.251 306.309 L814.251 313.67 L823.024 313.67 L823.024 316.98 L814.251 316.98 L814.251 331.054 Q814.251 334.225 815.108 335.128 Q815.987 336.031 818.649 336.031 L823.024 336.031 L823.024 339.596 L818.649 339.596 Q813.719 339.596 811.844 337.767 Q809.969 335.915 809.969 331.054 L809.969 316.98 L806.844 316.98 L806.844 313.67 L809.969 313.67 L809.969 306.309 L814.251 306.309 Z" fill="#000000" fill-rule="nonzero" fill-opacity="1"></path><path clip-path="url(#clip410)" d="M828.626 313.67 L832.886 313.67 L832.886 339.596 L828.626 339.596 L828.626 313.67 M828.626 303.577 L832.886 303.577 L832.886 308.971 L828.626 308.971 L828.626 303.577 Z" fill="#000000" fill-rule="nonzero" fill-opacity="1"></path><path clip-path="url(#clip410)" d="M851.844 316.656 Q848.418 316.656 846.427 319.341 Q844.436 322.003 844.436 326.656 Q844.436 331.309 846.404 333.994 Q848.395 336.656 851.844 336.656 Q855.247 336.656 857.237 333.971 Q859.228 331.286 859.228 326.656 Q859.228 322.05 857.237 319.364 Q855.247 316.656 851.844 316.656 M851.844 313.045 Q857.399 313.045 860.571 316.656 Q863.742 320.267 863.742 326.656 Q863.742 333.022 860.571 336.656 Q857.399 340.267 851.844 340.267 Q846.265 340.267 843.094 336.656 Q839.946 333.022 839.946 326.656 Q839.946 320.267 843.094 316.656 Q846.265 313.045 851.844 313.045 Z" fill="#000000" fill-rule="nonzero" fill-opacity="1"></path><path clip-path="url(#clip410)" d="M892.353 323.948 L892.353 339.596 L888.094 339.596 L888.094 324.087 Q888.094 320.406 886.658 318.577 Q885.223 316.749 882.353 316.749 Q878.904 316.749 876.913 318.948 Q874.922 321.147 874.922 324.943 L874.922 339.596 L870.64 339.596 L870.64 313.67 L874.922 313.67 L874.922 317.698 Q876.45 315.36 878.51 314.202 Q880.594 313.045 883.302 313.045 Q887.769 313.045 890.061 315.823 Q892.353 318.577 892.353 323.948 Z" fill="#000000" fill-rule="nonzero" fill-opacity="1"></path><path clip-path="url(#clip410)" d="M350.34 394.892 L490.043 394.892 L490.043 353.42 L350.34 353.42 L350.34 394.892  Z" fill="#ff0000" fill-rule="evenodd" fill-opacity="0.35"></path>
<polyline clip-path="url(#clip410)" style="stroke:#c271d2; stroke-linecap:round; stroke-linejoin:round; stroke-width:4; stroke-opacity:0.35; fill:none" points="350.34,353.42 490.043,353.42 "></polyline>
<path clip-path="url(#clip410)" d="M533.836 366.505 L533.836 370.487 Q532.031 369.491 530.202 369.005 Q528.396 368.496 526.545 368.496 Q522.401 368.496 520.109 371.135 Q517.818 373.751 517.818 378.496 Q517.818 383.241 520.109 385.88 Q522.401 388.496 526.545 388.496 Q528.396 388.496 530.202 388.01 Q532.031 387.501 533.836 386.505 L533.836 390.44 Q532.054 391.274 530.133 391.69 Q528.234 392.107 526.082 392.107 Q520.225 392.107 516.776 388.426 Q513.327 384.746 513.327 378.496 Q513.327 372.153 516.799 368.519 Q520.295 364.885 526.359 364.885 Q528.327 364.885 530.202 365.302 Q532.077 365.695 533.836 366.505 Z" fill="#000000" fill-rule="nonzero" fill-opacity="1"></path><path clip-path="url(#clip410)" d="M551.29 368.496 Q547.864 368.496 545.873 371.181 Q543.882 373.843 543.882 378.496 Q543.882 383.149 545.85 385.834 Q547.841 388.496 551.29 388.496 Q554.693 388.496 556.683 385.811 Q558.674 383.126 558.674 378.496 Q558.674 373.89 556.683 371.204 Q554.693 368.496 551.29 368.496 M551.29 364.885 Q556.845 364.885 560.017 368.496 Q563.188 372.107 563.188 378.496 Q563.188 384.862 560.017 388.496 Q556.845 392.107 551.29 392.107 Q545.711 392.107 542.54 388.496 Q539.392 384.862 539.392 378.496 Q539.392 372.107 542.54 368.496 Q545.711 364.885 551.29 364.885 Z" fill="#000000" fill-rule="nonzero" fill-opacity="1"></path><path clip-path="url(#clip410)" d="M591.799 375.788 L591.799 391.436 L587.54 391.436 L587.54 375.927 Q587.54 372.246 586.104 370.417 Q584.669 368.589 581.799 368.589 Q578.35 368.589 576.359 370.788 Q574.368 372.987 574.368 376.783 L574.368 391.436 L570.086 391.436 L570.086 365.51 L574.368 365.51 L574.368 369.538 Q575.896 367.2 577.956 366.042 Q580.04 364.885 582.748 364.885 Q587.216 364.885 589.507 367.663 Q591.799 370.417 591.799 375.788 Z" fill="#000000" fill-rule="nonzero" fill-opacity="1"></path><path clip-path="url(#clip410)" d="M616.822 366.274 L616.822 370.302 Q615.016 369.376 613.072 368.913 Q611.127 368.45 609.044 368.45 Q605.873 368.45 604.276 369.422 Q602.702 370.394 602.702 372.339 Q602.702 373.82 603.836 374.677 Q604.97 375.51 608.396 376.274 L609.854 376.598 Q614.391 377.57 616.289 379.352 Q618.211 381.112 618.211 384.283 Q618.211 387.894 615.34 390.001 Q612.493 392.107 607.493 392.107 Q605.41 392.107 603.141 391.69 Q600.896 391.297 598.396 390.487 L598.396 386.089 Q600.757 387.315 603.049 387.94 Q605.34 388.542 607.586 388.542 Q610.595 388.542 612.215 387.524 Q613.836 386.482 613.836 384.607 Q613.836 382.871 612.655 381.945 Q611.498 381.019 607.539 380.163 L606.058 379.815 Q602.1 378.982 600.34 377.269 Q598.581 375.533 598.581 372.524 Q598.581 368.866 601.174 366.876 Q603.766 364.885 608.535 364.885 Q610.896 364.885 612.979 365.232 Q615.063 365.579 616.822 366.274 Z" fill="#000000" fill-rule="nonzero" fill-opacity="1"></path><path clip-path="url(#clip410)" d="M629.206 358.149 L629.206 365.51 L637.979 365.51 L637.979 368.82 L629.206 368.82 L629.206 382.894 Q629.206 386.065 630.063 386.968 Q630.942 387.871 633.604 387.871 L637.979 387.871 L637.979 391.436 L633.604 391.436 Q628.674 391.436 626.799 389.607 Q624.924 387.755 624.924 382.894 L624.924 368.82 L621.799 368.82 L621.799 365.51 L624.924 365.51 L624.924 358.149 L629.206 358.149 Z" fill="#000000" fill-rule="nonzero" fill-opacity="1"></path><path clip-path="url(#clip410)" d="M658.604 369.491 Q657.886 369.075 657.03 368.89 Q656.197 368.681 655.178 368.681 Q651.567 368.681 649.623 371.042 Q647.701 373.38 647.701 377.778 L647.701 391.436 L643.419 391.436 L643.419 365.51 L647.701 365.51 L647.701 369.538 Q649.044 367.177 651.197 366.042 Q653.349 364.885 656.428 364.885 Q656.868 364.885 657.4 364.954 Q657.933 365.001 658.581 365.116 L658.604 369.491 Z" fill="#000000" fill-rule="nonzero" fill-opacity="1"></path><path clip-path="url(#clip410)" d="M674.854 378.403 Q669.692 378.403 667.701 379.584 Q665.71 380.764 665.71 383.612 Q665.71 385.88 667.192 387.223 Q668.697 388.542 671.266 388.542 Q674.808 388.542 676.937 386.042 Q679.09 383.519 679.09 379.352 L679.09 378.403 L674.854 378.403 M683.349 376.644 L683.349 391.436 L679.09 391.436 L679.09 387.501 Q677.632 389.862 675.456 390.996 Q673.28 392.107 670.132 392.107 Q666.15 392.107 663.789 389.885 Q661.451 387.639 661.451 383.889 Q661.451 379.514 664.368 377.292 Q667.308 375.07 673.118 375.07 L679.09 375.07 L679.09 374.653 Q679.09 371.714 677.146 370.116 Q675.224 368.496 671.729 368.496 Q669.507 368.496 667.4 369.028 Q665.294 369.561 663.349 370.626 L663.349 366.69 Q665.687 365.788 667.886 365.348 Q670.085 364.885 672.169 364.885 Q677.794 364.885 680.572 367.802 Q683.349 370.718 683.349 376.644 Z" fill="#000000" fill-rule="nonzero" fill-opacity="1"></path><path clip-path="url(#clip410)" d="M692.122 365.51 L696.382 365.51 L696.382 391.436 L692.122 391.436 L692.122 365.51 M692.122 355.417 L696.382 355.417 L696.382 360.811 L692.122 360.811 L692.122 355.417 Z" fill="#000000" fill-rule="nonzero" fill-opacity="1"></path><path clip-path="url(#clip410)" d="M726.844 375.788 L726.844 391.436 L722.585 391.436 L722.585 375.927 Q722.585 372.246 721.15 370.417 Q719.715 368.589 716.844 368.589 Q713.395 368.589 711.405 370.788 Q709.414 372.987 709.414 376.783 L709.414 391.436 L705.132 391.436 L705.132 365.51 L709.414 365.51 L709.414 369.538 Q710.942 367.2 713.002 366.042 Q715.085 364.885 717.794 364.885 Q722.261 364.885 724.553 367.663 Q726.844 370.417 726.844 375.788 Z" fill="#000000" fill-rule="nonzero" fill-opacity="1"></path><path clip-path="url(#clip410)" d="M739.553 358.149 L739.553 365.51 L748.326 365.51 L748.326 368.82 L739.553 368.82 L739.553 382.894 Q739.553 386.065 740.409 386.968 Q741.289 387.871 743.951 387.871 L748.326 387.871 L748.326 391.436 L743.951 391.436 Q739.02 391.436 737.145 389.607 Q735.27 387.755 735.27 382.894 L735.27 368.82 L732.145 368.82 L732.145 365.51 L735.27 365.51 L735.27 358.149 L739.553 358.149 Z" fill="#000000" fill-rule="nonzero" fill-opacity="1"></path><path clip-path="url(#clip410)" d="M770.455 366.274 L770.455 370.302 Q768.65 369.376 766.705 368.913 Q764.761 368.45 762.678 368.45 Q759.506 368.45 757.909 369.422 Q756.335 370.394 756.335 372.339 Q756.335 373.82 757.469 374.677 Q758.603 375.51 762.029 376.274 L763.488 376.598 Q768.025 377.57 769.923 379.352 Q771.844 381.112 771.844 384.283 Q771.844 387.894 768.974 390.001 Q766.127 392.107 761.127 392.107 Q759.043 392.107 756.775 391.69 Q754.529 391.297 752.029 390.487 L752.029 386.089 Q754.391 387.315 756.682 387.94 Q758.974 388.542 761.219 388.542 Q764.228 388.542 765.849 387.524 Q767.469 386.482 767.469 384.607 Q767.469 382.871 766.289 381.945 Q765.131 381.019 761.173 380.163 L759.691 379.815 Q755.733 378.982 753.974 377.269 Q752.215 375.533 752.215 372.524 Q752.215 368.866 754.807 366.876 Q757.4 364.885 762.168 364.885 Q764.529 364.885 766.613 365.232 Q768.696 365.579 770.455 366.274 Z" fill="#000000" fill-rule="nonzero" fill-opacity="1"></path><path clip-path="url(#clip410)" d="M350.34 446.732 L490.043 446.732 L490.043 405.26 L350.34 405.26 L350.34 446.732  Z" fill="#ff0000" fill-rule="evenodd" fill-opacity="0.35"></path>
<polyline clip-path="url(#clip410)" style="stroke:#ac8d18; stroke-linecap:round; stroke-linejoin:round; stroke-width:4; stroke-opacity:0.35; fill:none" points="350.34,405.26 490.043,405.26 "></polyline>
<path clip-path="url(#clip410)" d="M533.836 418.345 L533.836 422.327 Q532.031 421.331 530.202 420.845 Q528.396 420.336 526.545 420.336 Q522.401 420.336 520.109 422.975 Q517.818 425.591 517.818 430.336 Q517.818 435.081 520.109 437.72 Q522.401 440.336 526.545 440.336 Q528.396 440.336 530.202 439.85 Q532.031 439.341 533.836 438.345 L533.836 442.28 Q532.054 443.114 530.133 443.53 Q528.234 443.947 526.082 443.947 Q520.225 443.947 516.776 440.266 Q513.327 436.586 513.327 430.336 Q513.327 423.993 516.799 420.359 Q520.295 416.725 526.359 416.725 Q528.327 416.725 530.202 417.142 Q532.077 417.535 533.836 418.345 Z" fill="#000000" fill-rule="nonzero" fill-opacity="1"></path><path clip-path="url(#clip410)" d="M551.29 420.336 Q547.864 420.336 545.873 423.021 Q543.882 425.683 543.882 430.336 Q543.882 434.989 545.85 437.674 Q547.841 440.336 551.29 440.336 Q554.693 440.336 556.683 437.651 Q558.674 434.966 558.674 430.336 Q558.674 425.73 556.683 423.044 Q554.693 420.336 551.29 420.336 M551.29 416.725 Q556.845 416.725 560.017 420.336 Q563.188 423.947 563.188 430.336 Q563.188 436.702 560.017 440.336 Q556.845 443.947 551.29 443.947 Q545.711 443.947 542.54 440.336 Q539.392 436.702 539.392 430.336 Q539.392 423.947 542.54 420.336 Q545.711 416.725 551.29 416.725 Z" fill="#000000" fill-rule="nonzero" fill-opacity="1"></path><path clip-path="url(#clip410)" d="M591.799 427.628 L591.799 443.276 L587.54 443.276 L587.54 427.767 Q587.54 424.086 586.104 422.257 Q584.669 420.429 581.799 420.429 Q578.35 420.429 576.359 422.628 Q574.368 424.827 574.368 428.623 L574.368 443.276 L570.086 443.276 L570.086 417.35 L574.368 417.35 L574.368 421.378 Q575.896 419.04 577.956 417.882 Q580.04 416.725 582.748 416.725 Q587.216 416.725 589.507 419.503 Q591.799 422.257 591.799 427.628 Z" fill="#000000" fill-rule="nonzero" fill-opacity="1"></path><path clip-path="url(#clip410)" d="M616.822 418.114 L616.822 422.142 Q615.016 421.216 613.072 420.753 Q611.127 420.29 609.044 420.29 Q605.873 420.29 604.276 421.262 Q602.702 422.234 602.702 424.179 Q602.702 425.66 603.836 426.517 Q604.97 427.35 608.396 428.114 L609.854 428.438 Q614.391 429.41 616.289 431.192 Q618.211 432.952 618.211 436.123 Q618.211 439.734 615.34 441.841 Q612.493 443.947 607.493 443.947 Q605.41 443.947 603.141 443.53 Q600.896 443.137 598.396 442.327 L598.396 437.929 Q600.757 439.155 603.049 439.78 Q605.34 440.382 607.586 440.382 Q610.595 440.382 612.215 439.364 Q613.836 438.322 613.836 436.447 Q613.836 434.711 612.655 433.785 Q611.498 432.859 607.539 432.003 L606.058 431.655 Q602.1 430.822 600.34 429.109 Q598.581 427.373 598.581 424.364 Q598.581 420.706 601.174 418.716 Q603.766 416.725 608.535 416.725 Q610.896 416.725 612.979 417.072 Q615.063 417.419 616.822 418.114 Z" fill="#000000" fill-rule="nonzero" fill-opacity="1"></path><path clip-path="url(#clip410)" d="M629.206 409.989 L629.206 417.35 L637.979 417.35 L637.979 420.66 L629.206 420.66 L629.206 434.734 Q629.206 437.905 630.063 438.808 Q630.942 439.711 633.604 439.711 L637.979 439.711 L637.979 443.276 L633.604 443.276 Q628.674 443.276 626.799 441.447 Q624.924 439.595 624.924 434.734 L624.924 420.66 L621.799 420.66 L621.799 417.35 L624.924 417.35 L624.924 409.989 L629.206 409.989 Z" fill="#000000" fill-rule="nonzero" fill-opacity="1"></path><path clip-path="url(#clip410)" d="M658.604 421.331 Q657.886 420.915 657.03 420.73 Q656.197 420.521 655.178 420.521 Q651.567 420.521 649.623 422.882 Q647.701 425.22 647.701 429.618 L647.701 443.276 L643.419 443.276 L643.419 417.35 L647.701 417.35 L647.701 421.378 Q649.044 419.017 651.197 417.882 Q653.349 416.725 656.428 416.725 Q656.868 416.725 657.4 416.794 Q657.933 416.841 658.581 416.956 L658.604 421.331 Z" fill="#000000" fill-rule="nonzero" fill-opacity="1"></path><path clip-path="url(#clip410)" d="M674.854 430.243 Q669.692 430.243 667.701 431.424 Q665.71 432.604 665.71 435.452 Q665.71 437.72 667.192 439.063 Q668.697 440.382 671.266 440.382 Q674.808 440.382 676.937 437.882 Q679.09 435.359 679.09 431.192 L679.09 430.243 L674.854 430.243 M683.349 428.484 L683.349 443.276 L679.09 443.276 L679.09 439.341 Q677.632 441.702 675.456 442.836 Q673.28 443.947 670.132 443.947 Q666.15 443.947 663.789 441.725 Q661.451 439.479 661.451 435.729 Q661.451 431.354 664.368 429.132 Q667.308 426.91 673.118 426.91 L679.09 426.91 L679.09 426.493 Q679.09 423.554 677.146 421.956 Q675.224 420.336 671.729 420.336 Q669.507 420.336 667.4 420.868 Q665.294 421.401 663.349 422.466 L663.349 418.53 Q665.687 417.628 667.886 417.188 Q670.085 416.725 672.169 416.725 Q677.794 416.725 680.572 419.642 Q683.349 422.558 683.349 428.484 Z" fill="#000000" fill-rule="nonzero" fill-opacity="1"></path><path clip-path="url(#clip410)" d="M692.122 417.35 L696.382 417.35 L696.382 443.276 L692.122 443.276 L692.122 417.35 M692.122 407.257 L696.382 407.257 L696.382 412.651 L692.122 412.651 L692.122 407.257 Z" fill="#000000" fill-rule="nonzero" fill-opacity="1"></path><path clip-path="url(#clip410)" d="M726.844 427.628 L726.844 443.276 L722.585 443.276 L722.585 427.767 Q722.585 424.086 721.15 422.257 Q719.715 420.429 716.844 420.429 Q713.395 420.429 711.405 422.628 Q709.414 424.827 709.414 428.623 L709.414 443.276 L705.132 443.276 L705.132 417.35 L709.414 417.35 L709.414 421.378 Q710.942 419.04 713.002 417.882 Q715.085 416.725 717.794 416.725 Q722.261 416.725 724.553 419.503 Q726.844 422.257 726.844 427.628 Z" fill="#000000" fill-rule="nonzero" fill-opacity="1"></path><path clip-path="url(#clip410)" d="M739.553 409.989 L739.553 417.35 L748.326 417.35 L748.326 420.66 L739.553 420.66 L739.553 434.734 Q739.553 437.905 740.409 438.808 Q741.289 439.711 743.951 439.711 L748.326 439.711 L748.326 443.276 L743.951 443.276 Q739.02 443.276 737.145 441.447 Q735.27 439.595 735.27 434.734 L735.27 420.66 L732.145 420.66 L732.145 417.35 L735.27 417.35 L735.27 409.989 L739.553 409.989 Z" fill="#000000" fill-rule="nonzero" fill-opacity="1"></path><path clip-path="url(#clip410)" d="M770.455 418.114 L770.455 422.142 Q768.65 421.216 766.705 420.753 Q764.761 420.29 762.678 420.29 Q759.506 420.29 757.909 421.262 Q756.335 422.234 756.335 424.179 Q756.335 425.66 757.469 426.517 Q758.603 427.35 762.029 428.114 L763.488 428.438 Q768.025 429.41 769.923 431.192 Q771.844 432.952 771.844 436.123 Q771.844 439.734 768.974 441.841 Q766.127 443.947 761.127 443.947 Q759.043 443.947 756.775 443.53 Q754.529 443.137 752.029 442.327 L752.029 437.929 Q754.391 439.155 756.682 439.78 Q758.974 440.382 761.219 440.382 Q764.228 440.382 765.849 439.364 Q767.469 438.322 767.469 436.447 Q767.469 434.711 766.289 433.785 Q765.131 432.859 761.173 432.003 L759.691 431.655 Q755.733 430.822 753.974 429.109 Q752.215 427.373 752.215 424.364 Q752.215 420.706 754.807 418.716 Q757.4 416.725 762.168 416.725 Q764.529 416.725 766.613 417.072 Q768.696 417.419 770.455 418.114 Z" fill="#000000" fill-rule="nonzero" fill-opacity="1"></path></svg>